<svg width="123" height="48" viewBox="0 0 123 48" fill="none" xmlns="http://www.w3.org/2000/svg">
<path d="M67.504 33.0239C66.832 33.0239 66.496 32.6879 66.496 32.0159V17.7599C66.496 17.0879 66.832 16.7519 67.504 16.7519H73.768C75.04 16.7519 76.016 17.0879 76.696 17.7599C77.384 18.4319 77.728 19.3919 77.728 20.6399V21.2879C77.728 22.3679 77.388 23.2039 76.708 23.7959C77.98 24.5079 78.616 25.8079 78.616 27.6959V28.5119C78.616 29.9839 78.224 31.1039 77.44 31.8719C76.664 32.6399 75.544 33.0239 74.08 33.0239H67.504ZM68.512 31.0079H74.08C74.984 31.0079 75.628 30.8159 76.012 30.4319C76.404 30.0399 76.6 29.3999 76.6 28.5119V27.6959C76.6 26.8079 76.412 26.1759 76.036 25.7999C75.66 25.4159 75.008 25.2239 74.08 25.2239H68.512V31.0079ZM68.512 23.2079H74.2C74.784 23.2079 75.18 23.0279 75.388 22.6679C75.604 22.3079 75.712 21.8479 75.712 21.2879V20.6399C75.712 19.9439 75.568 19.4599 75.28 19.1879C74.992 18.9079 74.488 18.7679 73.768 18.7679H68.512V23.2079ZM80.4364 32.9279C79.7964 32.6799 79.6044 32.2399 79.8604 31.6079L85.5724 17.5439C85.8124 17.0159 86.1884 16.7519 86.7004 16.7519H86.7484C87.2684 16.7759 87.6204 17.0399 87.8044 17.5439L93.6124 31.6079C93.8684 32.2399 93.6844 32.6799 93.0604 32.9279C92.4284 33.1759 91.9884 32.9919 91.7404 32.3759L90.4444 29.2319H82.9684L81.7324 32.3759C81.4844 32.9999 81.0524 33.1839 80.4364 32.9279ZM83.7604 27.2159H89.6164L86.6284 19.9439L83.7604 27.2159ZM100.314 33.0239C98.4824 33.0239 97.1264 32.5879 96.2464 31.7159C95.3744 30.8359 94.9384 29.4799 94.9384 27.6479V22.1279C94.9384 20.2799 95.3744 18.9199 96.2464 18.0479C97.1184 17.1679 98.4664 16.7359 100.29 16.7519H103.194C104.698 16.7519 105.846 17.0639 106.638 17.6879C107.43 18.3039 107.89 19.2799 108.018 20.6159C108.066 20.9519 108.002 21.2079 107.826 21.3839C107.65 21.5599 107.394 21.6479 107.058 21.6479C106.45 21.6479 106.098 21.3119 106.002 20.6399C105.922 19.9039 105.666 19.4079 105.234 19.1519C104.81 18.8959 104.13 18.7679 103.194 18.7679H100.29C99.4424 18.7599 98.7744 18.8559 98.2864 19.0559C97.8064 19.2559 97.4624 19.6039 97.2544 20.0999C97.0544 20.5879 96.9544 21.2639 96.9544 22.1279V27.6479C96.9544 28.5039 97.0544 29.1759 97.2544 29.6639C97.4624 30.1519 97.8104 30.4999 98.2984 30.7079C98.7864 30.9079 99.4584 31.0079 100.314 31.0079H103.194C104.13 31.0079 104.81 30.8799 105.234 30.6239C105.666 30.3599 105.922 29.8639 106.002 29.1359C106.098 28.4639 106.45 28.1279 107.058 28.1279C107.394 28.1279 107.65 28.2159 107.826 28.3919C108.002 28.5679 108.066 28.8239 108.018 29.1599C107.89 30.5039 107.43 31.4839 106.638 32.0999C105.846 32.7159 104.698 33.0239 103.194 33.0239H100.314ZM111.793 33.0239C111.121 33.0239 110.785 32.6879 110.785 32.0159V17.7599C110.785 17.0879 111.121 16.7519 111.793 16.7519C112.465 16.7519 112.801 17.0879 112.801 17.7599V23.4599L118.921 17.1359C119.385 16.6399 119.857 16.6319 120.337 17.1119C120.833 17.5759 120.841 18.0479 120.361 18.5279L115.261 23.7959L121.273 31.2719C121.681 31.8079 121.633 32.2799 121.129 32.6879C120.609 33.1119 120.137 33.0639 119.713 32.5439L113.845 25.2719L112.801 26.3519V32.0159C112.801 32.6879 112.465 33.0239 111.793 33.0239Z" fill="white"/>
<path fill-rule="evenodd" clip-rule="evenodd" d="M0 24L43.3548 48V42.2857L53.6774 48V42.2857L64 48V0L53.6774 5.71429V0L43.3548 5.71429V0L0 24ZM43.3548 6.85729L52.6774 1.69657V6.26786L43.3548 11.4286V6.85729ZM42.3548 11.9822V7.41086L12.3874 24L42.3548 40.5891V36.0178L20.6452 24L42.3548 11.9822ZM43.3548 12.5716L52.6774 7.41086V40.5891L43.3548 35.4284V12.5716ZM43.3548 36.5714L52.6774 41.7321V46.3034L43.3548 41.1427V36.5714ZM42.3548 41.7321L10.3226 24L42.3548 6.26786V1.69657L2.06477 24L42.3548 46.3034V41.7321ZM63 1.69657L53.6774 6.85729V41.1427L63 46.3034V1.69657Z" fill="url(#paint0_linear_29_10)"/>
<defs>
<linearGradient id="paint0_linear_29_10" x1="0" y1="24" x2="81.0322" y2="23.7322" gradientUnits="userSpaceOnUse">
<stop stop-color="white" stop-opacity="0.9"/>
<stop offset="1" stop-color="white" stop-opacity="0"/>
</linearGradient>
</defs>
</svg>
