<svg width="574" height="595" viewBox="0 0 574 595" fill="none" xmlns="http://www.w3.org/2000/svg">
<path d="M348.949 70.6736L349.451 70.5619L349.811 72.1656L427.624 206.944L348.374 344.209L189.875 344.209L188.289 341.462L187.321 340.947L187.642 340.342L111.576 208.591L110.28 207.432L110.661 207.005L110.625 206.944L111.167 206.005L110.715 205.467L112.195 204.225L189.875 69.6789L346.665 69.6785L346.771 69.6372L346.787 69.6779L348.375 69.6787L348.949 70.6736ZM214.614 298.156L192.244 340.208L337.31 340.208L214.614 298.156ZM189.857 336.178L210.577 297.228L121.137 217.152L189.857 336.178ZM115.464 206.702L211.623 292.794L210.091 127.335L115.464 206.702ZM219.189 295.495L343.932 338.25L373.94 206.215L219.189 295.495ZM214.095 127.698L215.624 292.932L372.592 202.374L214.095 127.698ZM378.465 204.356L348.578 335.855L422.064 208.575L378.465 204.356ZM121.151 196.713L209.261 122.812L191.096 75.5633L121.151 196.713ZM217.117 124.699L374.059 198.645L346.16 74.1704L217.117 124.699ZM194.657 73.6778L213.21 121.934L336.451 73.6773L194.657 73.6778ZM378.54 200.345L421.603 204.512L352.742 85.24L378.54 200.345Z" fill="#333333"/>
<path d="M348.949 70.6736L348.516 70.9237L348.7 71.2413L349.058 71.1616L348.949 70.6736ZM349.451 70.5619L349.939 70.4525L349.83 69.9655L349.343 70.0739L349.451 70.5619ZM349.811 72.1656L349.323 72.275L349.34 72.3495L349.378 72.4156L349.811 72.1656ZM427.624 206.944L428.057 207.194L428.202 206.944L428.057 206.694L427.624 206.944ZM348.374 344.209L348.374 344.709L348.663 344.709L348.807 344.459L348.374 344.209ZM189.875 344.209L189.442 344.459L189.586 344.709L189.875 344.709L189.875 344.209ZM188.289 341.462L188.722 341.212L188.65 341.088L188.523 341.02L188.289 341.462ZM187.321 340.947L186.879 340.713L186.645 341.154L187.086 341.388L187.321 340.947ZM187.642 340.342L188.083 340.576L188.213 340.332L188.075 340.092L187.642 340.342ZM111.576 208.591L112.009 208.341L111.969 208.272L111.91 208.219L111.576 208.591ZM110.28 207.432L109.907 207.099L109.575 207.471L109.947 207.804L110.28 207.432ZM110.661 207.005L111.034 207.338L111.276 207.067L111.093 206.753L110.661 207.005ZM110.625 206.944L110.192 206.694L110.047 206.945L110.193 207.196L110.625 206.944ZM111.167 206.005L111.6 206.255L111.775 205.952L111.55 205.684L111.167 206.005ZM110.715 205.467L110.393 205.083L110.01 205.405L110.332 205.788L110.715 205.467ZM112.195 204.225L112.516 204.608L112.584 204.551L112.628 204.475L112.195 204.225ZM189.875 69.6789L189.875 69.1789L189.586 69.1789L189.442 69.4289L189.875 69.6789ZM346.665 69.6785L346.665 70.1785L346.759 70.1785L346.847 70.1444L346.665 69.6785ZM346.771 69.6372L347.237 69.4552L347.055 68.9901L346.59 69.1712L346.771 69.6372ZM346.787 69.6779L346.322 69.8599L346.446 70.1778L346.787 70.1779L346.787 69.6779ZM348.375 69.6787L348.808 69.4286L348.663 69.1789L348.375 69.1787L348.375 69.6787ZM214.614 298.156L214.776 297.683L214.372 297.545L214.172 297.922L214.614 298.156ZM192.244 340.208L191.803 339.973L191.412 340.708L192.244 340.708L192.244 340.208ZM337.31 340.208L337.31 340.708L337.472 339.735L337.31 340.208ZM189.857 336.178L189.424 336.428L189.875 337.209L190.299 336.413L189.857 336.178ZM210.577 297.228L211.019 297.463L211.203 297.117L210.911 296.855L210.577 297.228ZM121.137 217.152L121.471 216.779L120.704 217.402L121.137 217.152ZM115.464 206.702L115.143 206.319L114.701 206.69L115.131 207.075L115.464 206.702ZM211.623 292.794L211.289 293.167L212.133 293.922L212.123 292.789L211.623 292.794ZM210.091 127.335L210.591 127.33L210.582 126.271L209.77 126.952L210.091 127.335ZM219.189 295.495L218.939 295.062L217.987 295.611L219.027 295.968L219.189 295.495ZM343.932 338.25L343.77 338.723L344.297 338.903L344.42 338.361L343.932 338.25ZM373.94 206.215L374.428 206.325L374.681 205.21L373.69 205.782L373.94 206.215ZM214.095 127.698L214.308 127.245L213.587 126.906L213.595 127.702L214.095 127.698ZM215.624 292.932L215.124 292.937L215.132 293.793L215.874 293.365L215.624 292.932ZM372.592 202.374L372.842 202.807L373.67 202.329L372.805 201.921L372.592 202.374ZM378.465 204.356L378.513 203.858L378.075 203.816L377.977 204.245L378.465 204.356ZM348.578 335.855L348.091 335.745L349.011 336.105L348.578 335.855ZM422.064 208.575L422.497 208.825L422.885 208.152L422.112 208.077L422.064 208.575ZM121.151 196.713L120.718 196.463L121.472 197.096L121.151 196.713ZM209.261 122.812L209.583 123.195L209.856 122.966L209.728 122.632L209.261 122.812ZM191.096 75.5633L191.563 75.3839L191.187 74.4061L190.663 75.3133L191.096 75.5633ZM217.117 124.699L216.935 124.233L215.854 124.656L216.904 125.151L217.117 124.699ZM374.059 198.645L373.846 199.097L374.771 199.533L374.547 198.536L374.059 198.645ZM346.16 74.1704L346.648 74.061L346.521 73.4923L345.978 73.7048L346.16 74.1704ZM194.657 73.6778L194.657 73.1778L193.929 73.1778L194.19 73.8573L194.657 73.6778ZM213.21 121.934L212.743 122.113L212.923 122.583L213.392 122.4L213.21 121.934ZM336.451 73.6773L336.633 74.1428L336.451 73.1773L336.451 73.6773ZM378.54 200.345L378.052 200.455L378.131 200.808L378.492 200.843L378.54 200.345ZM421.603 204.512L421.554 205.01L422.521 205.103L422.036 204.262L421.603 204.512ZM352.742 85.24L353.175 84.99L352.254 85.3493L352.742 85.24ZM348.949 70.6736L349.058 71.1616L349.56 71.05L349.451 70.5619L349.343 70.0739L348.841 70.1855L348.949 70.6736ZM349.451 70.5619L348.963 70.6713L349.323 72.275L349.811 72.1656L350.299 72.0562L349.939 70.4525L349.451 70.5619ZM349.811 72.1656L349.378 72.4156L427.191 207.194L427.624 206.944L428.057 206.694L350.244 71.9156L349.811 72.1656ZM427.624 206.944L427.191 206.694L347.941 343.959L348.374 344.209L348.807 344.459L428.057 207.194L427.624 206.944ZM348.374 344.209L348.374 343.709L189.875 343.709L189.875 344.209L189.875 344.709L348.374 344.709L348.374 344.209ZM189.875 344.209L190.308 343.959L188.722 341.212L188.289 341.462L187.856 341.712L189.442 344.459L189.875 344.209ZM188.289 341.462L188.523 341.02L187.555 340.505L187.321 340.947L187.086 341.388L188.054 341.903L188.289 341.462ZM187.321 340.947L187.762 341.181L188.083 340.576L187.642 340.342L187.2 340.107L186.879 340.713L187.321 340.947ZM187.642 340.342L188.075 340.092L112.009 208.341L111.576 208.591L111.143 208.841L187.209 340.592L187.642 340.342ZM111.576 208.591L111.91 208.219L110.614 207.059L110.28 207.432L109.947 207.804L111.243 208.964L111.576 208.591ZM110.28 207.432L110.653 207.764L111.034 207.338L110.661 207.005L110.288 206.672L109.907 207.099L110.28 207.432ZM110.661 207.005L111.093 206.753L111.057 206.692L110.625 206.944L110.193 207.196L110.229 207.257L110.661 207.005ZM110.625 206.944L111.058 207.194L111.6 206.255L111.167 206.005L110.734 205.755L110.192 206.694L110.625 206.944ZM111.167 206.005L111.55 205.684L111.097 205.145L110.715 205.467L110.332 205.788L110.784 206.327L111.167 206.005ZM110.715 205.467L111.036 205.85L112.516 204.608L112.195 204.225L111.873 203.842L110.393 205.083L110.715 205.467ZM112.195 204.225L112.628 204.475L190.308 69.9289L189.875 69.6789L189.442 69.4289L111.762 203.975L112.195 204.225ZM189.875 69.6789L189.875 70.1789L346.665 70.1785L346.665 69.6785L346.665 69.1785L189.875 69.1789L189.875 69.6789ZM346.665 69.6785L346.847 70.1444L346.953 70.1031L346.771 69.6372L346.59 69.1712L346.484 69.2125L346.665 69.6785ZM346.771 69.6372L346.306 69.8191L346.322 69.8599L346.787 69.6779L347.253 69.496L347.237 69.4552L346.771 69.6372ZM346.787 69.6779L346.787 70.1779L348.374 70.1787L348.375 69.6787L348.375 69.1787L346.788 69.1779L346.787 69.6779ZM348.375 69.6787L347.942 69.9288L348.516 70.9237L348.949 70.6736L349.382 70.4235L348.808 69.4286L348.375 69.6787ZM214.614 298.156L214.172 297.922L191.803 339.973L192.244 340.208L192.686 340.443L215.055 298.391L214.614 298.156ZM192.244 340.208L192.244 340.708L337.31 340.708L337.31 340.208L337.31 339.708L192.244 339.708L192.244 340.208ZM337.31 340.208L337.472 339.735L214.776 297.683L214.614 298.156L214.452 298.629L337.148 340.681L337.31 340.208ZM189.857 336.178L190.299 336.413L211.019 297.463L210.577 297.228L210.136 296.993L189.416 335.943L189.857 336.178ZM210.577 297.228L210.911 296.855L121.471 216.779L121.137 217.152L120.804 217.524L210.244 297.6L210.577 297.228ZM121.137 217.152L120.704 217.402L189.424 336.428L189.857 336.178L190.29 335.928L121.57 216.902L121.137 217.152ZM115.464 206.702L115.131 207.075L211.289 293.167L211.623 292.794L211.956 292.422L115.798 206.33L115.464 206.702ZM211.623 292.794L212.123 292.789L210.591 127.33L210.091 127.335L209.591 127.339L211.123 292.799L211.623 292.794ZM210.091 127.335L209.77 126.952L115.143 206.319L115.464 206.702L115.786 207.085L210.413 127.718L210.091 127.335ZM219.189 295.495L219.027 295.968L343.77 338.723L343.932 338.25L344.095 337.777L219.351 295.022L219.189 295.495ZM343.932 338.25L344.42 338.361L374.428 206.325L373.94 206.215L373.452 206.104L343.445 338.139L343.932 338.25ZM373.94 206.215L373.69 205.782L218.939 295.062L219.189 295.495L219.439 295.928L374.19 206.648L373.94 206.215ZM214.095 127.698L213.595 127.702L215.124 292.937L215.624 292.932L216.124 292.928L214.595 127.693L214.095 127.698ZM215.624 292.932L215.874 293.365L372.842 202.807L372.592 202.374L372.342 201.941L215.374 292.499L215.624 292.932ZM372.592 202.374L372.805 201.921L214.308 127.245L214.095 127.698L213.882 128.15L372.379 202.826L372.592 202.374ZM378.465 204.356L377.977 204.245L348.091 335.745L348.578 335.855L349.066 335.966L378.952 204.467L378.465 204.356ZM348.578 335.855L349.011 336.105L422.497 208.825L422.064 208.575L421.631 208.325L348.145 335.605L348.578 335.855ZM422.064 208.575L422.112 208.077L378.513 203.858L378.465 204.356L378.417 204.854L422.015 209.073L422.064 208.575ZM121.151 196.713L121.472 197.096L209.583 123.195L209.261 122.812L208.94 122.429L120.829 196.33L121.151 196.713ZM209.261 122.812L209.728 122.632L191.563 75.3839L191.096 75.5633L190.63 75.7428L208.795 122.991L209.261 122.812ZM191.096 75.5633L190.663 75.3133L120.718 196.463L121.151 196.713L121.584 196.963L191.529 75.8133L191.096 75.5633ZM217.117 124.699L216.904 125.151L373.846 199.097L374.059 198.645L374.272 198.193L217.331 124.246L217.117 124.699ZM374.059 198.645L374.547 198.536L346.648 74.061L346.16 74.1704L345.672 74.2797L373.571 198.754L374.059 198.645ZM346.16 74.1704L345.978 73.7048L216.935 124.233L217.117 124.699L217.3 125.164L346.343 74.6359L346.16 74.1704ZM194.657 73.6778L194.19 73.8573L212.743 122.113L213.21 121.934L213.676 121.755L195.123 73.4984L194.657 73.6778ZM213.21 121.934L213.392 122.4L336.633 74.1428L336.451 73.6773L336.268 73.2117L213.027 121.468L213.21 121.934ZM336.451 73.6773L336.451 73.1773L194.657 73.1778L194.657 73.6778L194.657 74.1778L336.451 74.1773L336.451 73.6773ZM378.54 200.345L378.492 200.843L421.554 205.01L421.603 204.512L421.651 204.015L378.588 199.848L378.54 200.345ZM421.603 204.512L422.036 204.262L353.175 84.99L352.742 85.24L352.309 85.49L421.17 204.762L421.603 204.512ZM352.742 85.24L352.254 85.3493L378.052 200.455L378.54 200.345L379.028 200.236L353.229 85.1306L352.742 85.24Z" fill="black"/>
<path d="M139.962 412C139.962 410.16 139.962 408.376 139.962 406.648C139.962 404.92 139.962 402.984 139.962 400.84L139.962 389.224C139.962 387.016 139.962 385.024 139.962 383.248C139.962 381.472 139.962 379.648 139.962 377.776L162.354 377.776L162.354 384.352C160.882 384.352 159.298 384.352 157.602 384.352C155.922 384.352 153.938 384.352 151.65 384.352L144.498 384.352L147.69 379.024C147.69 380.896 147.69 382.72 147.69 384.496C147.69 386.272 147.69 388.264 147.69 390.472L147.69 400.84C147.69 402.984 147.69 404.92 147.69 406.648C147.69 408.376 147.69 410.16 147.69 412L139.962 412ZM145.698 398.392L145.698 392.056L151.794 392.056C153.89 392.056 155.69 392.056 157.194 392.056C158.714 392.056 160.178 392.056 161.586 392.056L161.586 398.392C160.098 398.392 158.602 398.392 157.098 398.392C155.594 398.392 153.818 398.392 151.77 398.392L145.698 398.392ZM167.665 412C167.665 410.16 167.665 408.376 167.665 406.648C167.665 404.92 167.665 402.984 167.665 400.84L167.665 389.224C167.665 387.016 167.665 385.024 167.665 383.248C167.665 381.472 167.665 379.648 167.665 377.776L175.561 377.776C175.561 379.648 175.561 381.472 175.561 383.248C175.561 385.024 175.561 387.016 175.561 389.224L175.561 399.568C175.561 401.712 175.561 403.648 175.561 405.376C175.561 407.104 175.561 408.888 175.561 410.728L172.825 405.112L179.521 405.112C181.185 405.112 182.641 405.112 183.889 405.112C185.153 405.112 186.321 405.112 187.393 405.112C188.481 405.112 189.593 405.112 190.729 405.112L190.729 412L167.665 412ZM195.485 412C195.485 410.16 195.485 408.376 195.485 406.648C195.485 404.92 195.485 402.984 195.485 400.84L195.485 389.224C195.485 387.016 195.485 385.024 195.485 383.248C195.485 381.472 195.485 379.648 195.485 377.776L218.213 377.776L218.213 384.232C216.741 384.232 215.157 384.232 213.461 384.232C211.781 384.232 209.797 384.232 207.509 384.232L199.445 384.232L203.213 379.024C203.213 380.896 203.213 382.72 203.213 384.496C203.213 386.272 203.213 388.264 203.213 390.472L203.213 399.592C203.213 401.72 203.213 403.656 203.213 405.4C203.213 407.128 203.213 408.912 203.213 410.752L199.949 405.544L208.085 405.544C209.989 405.544 211.789 405.544 213.485 405.544C215.197 405.544 216.845 405.544 218.429 405.544L218.429 412L195.485 412ZM201.413 397.744L201.413 391.744L207.677 391.744C209.789 391.744 211.597 391.744 213.101 391.744C214.605 391.744 216.053 391.744 217.445 391.744L217.445 397.744C215.973 397.744 214.485 397.744 212.981 397.744C211.477 397.744 209.709 397.744 207.677 397.744L201.413 397.744ZM222.062 412C222.91 410.416 223.774 408.8 224.654 407.152C225.534 405.488 226.446 403.768 227.39 401.992L231.974 393.4L231.974 395.248L227.942 388.168C227.014 386.552 226.07 384.912 225.11 383.248C224.15 381.568 223.11 379.744 221.99 377.776L230.966 377.776C231.67 379.12 232.358 380.432 233.03 381.712C233.702 382.992 234.342 384.216 234.95 385.384L237.302 389.872L237.902 389.872L240.158 385.36C240.75 384.176 241.366 382.944 242.006 381.664C242.646 380.384 243.294 379.088 243.95 377.776L252.638 377.776C251.63 379.664 250.654 381.464 249.71 383.176C248.782 384.888 247.934 386.464 247.166 387.904L242.75 396.064L242.75 393.952L247.262 401.464C248.382 403.304 249.446 405.072 250.454 406.768C251.478 408.448 252.534 410.192 253.622 412L244.31 412C243.606 410.704 242.942 409.48 242.318 408.328C241.694 407.176 241.086 406.072 240.494 405.016L237.638 399.736L237.038 399.736L234.374 405.04C233.798 406.144 233.222 407.264 232.646 408.4C232.086 409.52 231.478 410.72 230.822 412L222.062 412ZM264.948 412C264.5 410.304 264.02 408.496 263.508 406.576C262.996 404.64 262.516 402.848 262.068 401.2L259.236 390.448C258.724 388.544 258.164 386.464 257.556 384.208C256.964 381.936 256.404 379.792 255.876 377.776L264.78 377.776C265.212 379.872 265.668 382.08 266.148 384.4C266.628 386.704 267.084 388.896 267.516 390.976L269.892 402.616L270.492 402.616L272.94 390.832C273.228 389.488 273.524 388.072 273.828 386.584C274.148 385.08 274.468 383.576 274.788 382.072C275.108 380.568 275.412 379.136 275.7 377.776L284.124 377.776C284.572 379.872 285.036 382.056 285.516 384.328C286.012 386.584 286.492 388.768 286.956 390.88L289.5 402.616L290.076 402.616L292.5 390.808C292.916 388.792 293.356 386.624 293.82 384.304C294.3 381.984 294.748 379.808 295.164 377.776L304.092 377.776C303.532 379.808 302.948 381.944 302.34 384.184C301.748 386.424 301.196 388.488 300.684 390.376L297.756 401.2C297.292 402.896 296.804 404.704 296.292 406.624C295.78 408.544 295.292 410.336 294.828 412L285.228 412C284.78 410.08 284.308 408.072 283.812 405.976C283.316 403.864 282.852 401.856 282.42 399.952L279.876 389.104L279.276 389.104L276.828 399.952C276.412 401.84 275.956 403.848 275.46 405.976C274.98 408.104 274.524 410.112 274.092 412L264.948 412ZM308.454 412C308.454 410.16 308.454 408.376 308.454 406.648C308.454 404.92 308.454 402.984 308.454 400.84L308.454 389.224C308.454 387.016 308.454 385.024 308.454 383.248C308.454 381.472 308.454 379.648 308.454 377.776L331.182 377.776L331.182 384.232C329.71 384.232 328.126 384.232 326.43 384.232C324.75 384.232 322.766 384.232 320.478 384.232L312.414 384.232L316.182 379.024C316.182 380.896 316.182 382.72 316.182 384.496C316.182 386.272 316.182 388.264 316.182 390.472L316.182 399.592C316.182 401.72 316.182 403.656 316.182 405.4C316.182 407.128 316.182 408.912 316.182 410.752L312.918 405.544L321.054 405.544C322.958 405.544 324.758 405.544 326.454 405.544C328.166 405.544 329.814 405.544 331.398 405.544L331.398 412L308.454 412ZM314.382 397.744L314.382 391.744L320.646 391.744C322.758 391.744 324.566 391.744 326.07 391.744C327.574 391.744 329.022 391.744 330.414 391.744L330.414 397.744C328.942 397.744 327.454 397.744 325.95 397.744C324.446 397.744 322.678 397.744 320.646 397.744L314.382 397.744ZM334.742 412C335.35 410.16 335.982 408.224 336.638 406.192C337.31 404.16 337.942 402.232 338.534 400.408L342.398 388.672C343.086 386.544 343.71 384.632 344.27 382.936C344.83 381.224 345.39 379.504 345.95 377.776L356.126 377.776C356.702 379.568 357.262 381.312 357.806 383.008C358.366 384.704 358.99 386.592 359.678 388.672L363.494 400.432C364.118 402.32 364.75 404.264 365.39 406.264C366.046 408.264 366.67 410.176 367.262 412L359.102 412C358.59 410.176 358.062 408.312 357.518 406.408C356.974 404.488 356.454 402.672 355.958 400.96L351.254 384.472L350.678 384.472L345.926 400.792C345.414 402.568 344.87 404.432 344.294 406.384C343.734 408.32 343.19 410.192 342.662 412L334.742 412ZM342.998 404.848L343.838 398.944L359.126 398.944L359.798 404.848L342.998 404.848ZM371.594 412C371.594 410.16 371.594 408.376 371.594 406.648C371.594 404.92 371.594 402.984 371.594 400.84L371.594 389.224C371.594 387.016 371.594 385.024 371.594 383.248C371.594 381.472 371.594 379.648 371.594 377.776C372.634 377.776 373.858 377.776 375.266 377.776C376.69 377.776 378.21 377.776 379.826 377.776C381.442 377.776 383.074 377.776 384.722 377.776C387.506 377.776 389.858 378.088 391.778 378.712C393.714 379.32 395.178 380.344 396.17 381.784C397.178 383.224 397.682 385.184 397.682 387.664C397.682 389.632 397.29 391.4 396.506 392.968C395.738 394.536 394.498 395.776 392.786 396.688C391.074 397.6 388.834 398.056 386.066 398.056L389.114 395.176L393.77 402.04C394.49 403.096 395.258 404.232 396.074 405.448C396.89 406.648 397.682 407.824 398.45 408.976C399.234 410.112 399.922 411.12 400.514 412L391.562 412C390.698 410.656 389.866 409.368 389.066 408.136C388.266 406.904 387.49 405.704 386.738 404.536L381.194 395.8L385.874 399.376L377.93 399.376L377.93 393.736L383.642 393.736C384.922 393.736 385.994 393.584 386.858 393.28C387.738 392.96 388.402 392.424 388.85 391.672C389.298 390.92 389.522 389.888 389.522 388.576C389.522 387.6 389.378 386.816 389.09 386.224C388.802 385.616 388.41 385.144 387.914 384.808C387.434 384.472 386.89 384.248 386.282 384.136C385.69 384.024 385.09 383.968 384.482 383.968L373.73 383.968L379.346 379.024C379.346 380.96 379.346 382.816 379.346 384.592C379.346 386.352 379.346 388.312 379.346 390.472L379.346 400.84C379.346 402.984 379.346 404.92 379.346 406.648C379.346 408.376 379.346 410.16 379.346 412L371.594 412ZM225.07 456.36C224.35 456.36 223.624 456.3 222.892 456.18C222.16 456.072 221.464 455.916 220.804 455.712C220.144 455.496 219.568 455.256 219.076 454.992L219.292 452.76C219.844 453.072 220.432 453.342 221.056 453.57C221.68 453.798 222.322 453.978 222.982 454.11C223.654 454.23 224.338 454.29 225.034 454.29C225.754 454.29 226.414 454.2 227.014 454.02C227.626 453.84 228.112 453.522 228.472 453.066C228.844 452.61 229.03 451.95 229.03 451.086C229.03 450.522 228.874 450.06 228.562 449.7C228.262 449.328 227.752 448.998 227.032 448.71C226.324 448.422 225.364 448.098 224.152 447.738C223.24 447.474 222.412 447.156 221.668 446.784C220.924 446.412 220.33 445.914 219.886 445.29C219.442 444.654 219.22 443.82 219.22 442.788C219.22 441.264 219.73 440.046 220.75 439.134C221.782 438.222 223.168 437.766 224.908 437.766C225.604 437.766 226.282 437.832 226.942 437.964C227.602 438.084 228.22 438.252 228.796 438.468C229.372 438.672 229.87 438.894 230.29 439.134L230.074 441.384C229.486 441.012 228.892 440.712 228.292 440.484C227.704 440.256 227.134 440.094 226.582 439.998C226.042 439.902 225.55 439.854 225.106 439.854C224.602 439.854 224.08 439.932 223.54 440.088C223 440.232 222.538 440.514 222.154 440.934C221.782 441.342 221.596 441.942 221.596 442.734C221.596 443.286 221.722 443.754 221.974 444.138C222.238 444.51 222.664 444.84 223.252 445.128C223.852 445.404 224.668 445.692 225.7 445.992C226.852 446.34 227.854 446.7 228.706 447.072C229.57 447.444 230.23 447.936 230.686 448.548C231.154 449.16 231.388 450 231.388 451.068C231.388 452.052 231.166 452.946 230.722 453.75C230.29 454.554 229.612 455.19 228.688 455.658C227.764 456.126 226.558 456.36 225.07 456.36ZM236.506 463.002C236.506 461.67 236.506 460.368 236.506 459.096C236.506 457.836 236.506 456.474 236.506 455.01L236.506 446.298C236.506 444.99 236.506 443.646 236.506 442.266C236.506 440.886 236.506 439.518 236.506 438.162L238.648 438.018L238.702 440.304L238.972 440.304C239.32 439.86 239.776 439.446 240.34 439.062C240.916 438.666 241.57 438.354 242.302 438.126C243.034 437.886 243.832 437.766 244.696 437.766C246.34 437.766 247.744 438.168 248.908 438.972C250.072 439.776 250.96 440.88 251.572 442.284C252.196 443.676 252.508 445.254 252.508 447.018C252.508 448.686 252.22 450.234 251.644 451.662C251.068 453.078 250.204 454.218 249.052 455.082C247.912 455.946 246.484 456.378 244.768 456.378C243.952 456.378 243.196 456.27 242.5 456.054C241.816 455.85 241.186 455.544 240.61 455.136C240.046 454.728 239.53 454.242 239.062 453.678L238.828 453.678L238.828 455.1C238.828 456.516 238.828 457.836 238.828 459.06C238.828 460.296 238.828 461.58 238.828 462.912L236.506 463.002ZM244.174 454.236C245.566 454.236 246.7 453.894 247.576 453.21C248.452 452.526 249.094 451.638 249.502 450.546C249.922 449.454 250.132 448.284 250.132 447.036C250.132 445.728 249.91 444.54 249.466 443.472C249.034 442.392 248.374 441.534 247.486 440.898C246.598 440.25 245.476 439.926 244.12 439.926C243.424 439.926 242.752 440.028 242.104 440.232C241.456 440.436 240.85 440.742 240.286 441.15C239.722 441.546 239.236 442.044 238.828 442.644L238.828 451.068C239.224 451.728 239.68 452.292 240.196 452.76C240.724 453.228 241.318 453.594 241.978 453.858C242.638 454.11 243.37 454.236 244.174 454.236ZM265.298 456.378C263.87 456.378 262.604 456.126 261.5 455.622C260.408 455.106 259.484 454.41 258.728 453.534C257.972 452.658 257.396 451.656 257 450.528C256.616 449.388 256.424 448.2 256.424 446.964C256.424 445.188 256.784 443.61 257.504 442.23C258.236 440.838 259.262 439.746 260.582 438.954C261.914 438.162 263.474 437.766 265.262 437.766C266.642 437.766 267.872 438 268.952 438.468C270.032 438.924 270.95 439.572 271.706 440.412C272.474 441.24 273.05 442.212 273.434 443.328C273.83 444.444 274.028 445.656 274.028 446.964C274.028 448.728 273.674 450.324 272.966 451.752C272.258 453.168 271.244 454.296 269.924 455.136C268.616 455.964 267.074 456.378 265.298 456.378ZM265.28 454.29C266.708 454.29 267.89 453.942 268.826 453.246C269.774 452.538 270.482 451.632 270.95 450.528C271.418 449.412 271.652 448.224 271.652 446.964C271.652 445.548 271.394 444.306 270.878 443.238C270.362 442.17 269.624 441.342 268.664 440.754C267.716 440.154 266.588 439.854 265.28 439.854C263.876 439.854 262.688 440.172 261.716 440.808C260.756 441.432 260.03 442.284 259.538 443.364C259.046 444.444 258.8 445.644 258.8 446.964C258.8 448.224 259.04 449.412 259.52 450.528C260 451.632 260.72 452.538 261.68 453.246C262.64 453.942 263.84 454.29 265.28 454.29ZM279.291 456C279.291 454.668 279.291 453.384 279.291 452.148C279.291 450.912 279.291 449.562 279.291 448.098L279.291 446.298C279.291 444.99 279.291 443.646 279.291 442.266C279.291 440.886 279.291 439.518 279.291 438.162L281.361 438.018L281.433 441.762L281.685 441.762C282.177 440.634 282.753 439.782 283.413 439.206C284.085 438.63 284.757 438.246 285.429 438.054C286.113 437.862 286.737 437.766 287.301 437.766C287.649 437.766 287.985 437.79 288.309 437.838C288.645 437.886 288.963 437.964 289.263 438.072L289.065 440.448C288.693 440.352 288.351 440.28 288.039 440.232C287.727 440.172 287.361 440.142 286.941 440.142C286.605 440.142 286.203 440.196 285.735 440.304C285.267 440.412 284.781 440.64 284.277 440.988C283.785 441.336 283.305 441.858 282.837 442.554C282.381 443.25 281.973 444.186 281.613 445.362L281.613 448.188C281.613 449.604 281.613 450.93 281.613 452.166C281.613 453.39 281.613 454.668 281.613 456L279.291 456ZM300.045 456.378C298.893 456.378 297.921 456.168 297.129 455.748C296.337 455.328 295.737 454.698 295.329 453.858C294.921 453.018 294.717 451.962 294.717 450.69C294.717 449.574 294.717 448.476 294.717 447.396C294.717 446.304 294.717 445.254 294.717 444.246C294.717 443.238 294.717 442.284 294.717 441.384C294.717 440.484 294.717 439.662 294.717 438.918C294.717 437.73 294.717 436.62 294.717 435.588C294.717 434.556 294.717 433.488 294.717 432.384L297.021 431.826C297.021 432.702 297.021 433.506 297.021 434.238C297.021 434.97 297.021 435.708 297.021 436.452C297.021 437.184 297.021 438.006 297.021 438.918L297.021 450.24C297.021 451.596 297.309 452.61 297.885 453.282C298.461 453.954 299.349 454.29 300.549 454.29C301.017 454.29 301.521 454.212 302.061 454.056C302.601 453.888 303.075 453.642 303.483 453.318L303.735 455.442C303.495 455.622 303.183 455.784 302.799 455.928C302.427 456.06 302.001 456.168 301.521 456.252C301.053 456.336 300.561 456.378 300.045 456.378ZM291.135 440.07L291.135 438.162L303.519 438.162L303.519 440.07C302.307 440.07 301.077 440.07 299.829 440.07C298.581 440.07 297.369 440.07 296.193 440.07L295.293 440.07L291.135 440.07ZM312.996 456.36C312.276 456.36 311.55 456.3 310.818 456.18C310.086 456.072 309.39 455.916 308.73 455.712C308.07 455.496 307.494 455.256 307.002 454.992L307.218 452.76C307.77 453.072 308.358 453.342 308.982 453.57C309.606 453.798 310.248 453.978 310.908 454.11C311.58 454.23 312.264 454.29 312.96 454.29C313.68 454.29 314.34 454.2 314.94 454.02C315.552 453.84 316.038 453.522 316.398 453.066C316.77 452.61 316.956 451.95 316.956 451.086C316.956 450.522 316.8 450.06 316.488 449.7C316.188 449.328 315.678 448.998 314.958 448.71C314.25 448.422 313.29 448.098 312.078 447.738C311.166 447.474 310.338 447.156 309.594 446.784C308.85 446.412 308.256 445.914 307.812 445.29C307.368 444.654 307.146 443.82 307.146 442.788C307.146 441.264 307.656 440.046 308.676 439.134C309.708 438.222 311.094 437.766 312.834 437.766C313.53 437.766 314.208 437.832 314.868 437.964C315.528 438.084 316.146 438.252 316.722 438.468C317.298 438.672 317.796 438.894 318.216 439.134L318 441.384C317.412 441.012 316.818 440.712 316.218 440.484C315.63 440.256 315.06 440.094 314.508 439.998C313.968 439.902 313.476 439.854 313.032 439.854C312.528 439.854 312.006 439.932 311.466 440.088C310.926 440.232 310.464 440.514 310.08 440.934C309.708 441.342 309.522 441.942 309.522 442.734C309.522 443.286 309.648 443.754 309.9 444.138C310.164 444.51 310.59 444.84 311.178 445.128C311.778 445.404 312.594 445.692 313.626 445.992C314.778 446.34 315.78 446.7 316.632 447.072C317.496 447.444 318.156 447.936 318.612 448.548C319.08 449.16 319.314 450 319.314 451.068C319.314 452.052 319.092 452.946 318.648 453.75C318.216 454.554 317.538 455.19 316.614 455.658C315.69 456.126 314.484 456.36 312.996 456.36Z" fill="#1B4571"/>
</svg>
