<svg width="583" height="583" viewBox="0 0 583 583" fill="none" xmlns="http://www.w3.org/2000/svg">
<g clip-path="url(#clip0_9_38)">
<path d="M485.785 321.061L321.051 485.795L484.617 484.629L485.785 321.061Z" stroke="url(#paint0_linear_9_38)"/>
<path d="M478.491 493.805C478.103 493.799 477.596 493.811 477.208 493.825C477.088 493.829 477.149 493.844 477.066 493.848C476.902 493.856 476.75 493.848 476.59 493.858C476.536 493.86 476.602 493.884 476.546 493.888C476.24 493.9 475.947 493.896 475.637 493.904C474.103 493.941 472.596 493.961 471.044 493.983C470.532 493.991 469.91 494.018 469.38 494.012C469.319 494.01 469.355 493.989 469.343 493.987C469.159 493.961 469.22 494.004 469.102 494.01C468.623 494.038 468.092 494.044 467.633 494.038C467.438 494.036 467.633 493.991 467.438 494.016C467.424 494.018 467.473 494.042 467.42 494.044C467.297 494.05 467.068 494.048 466.973 494.05C466.791 494.056 466.762 494.056 466.59 494.058C466.355 494.06 466.076 494.074 465.825 494.07C465.77 494.07 465.841 494.044 465.756 494.042C465.669 494.038 465.443 494.042 465.366 494.048C465.289 494.054 465.323 494.072 465.309 494.076C465.198 494.113 464.936 494.066 464.9 494.064C464.285 494.048 463.756 494.08 463.179 494.084C462.74 494.088 462.27 494.082 461.853 494.086C461.355 494.089 460.934 494.105 460.449 494.107C460.398 494.107 460.457 494.08 460.396 494.08C459.734 494.082 459.076 494.089 458.418 494.111C458.351 494.115 458.436 494.139 458.37 494.143C457.967 494.165 457.327 494.218 457.086 494.113C456.811 494.119 456.479 494.125 456.234 494.149C456.076 494.165 456.23 494.19 456.036 494.18C455.993 494.178 456.048 494.155 455.983 494.153C455.706 494.145 455.406 494.155 455.131 494.145C455.076 494.143 455.092 494.123 455.076 494.119C454.944 494.089 454.722 494.141 454.675 494.145C454.309 494.174 454.04 494.167 453.7 494.169C453.621 494.171 453.714 494.141 453.639 494.141C453.244 494.139 452.835 494.145 452.448 494.161C452.363 494.165 452.442 494.186 452.4 494.19C452.218 494.202 452.179 494.157 452.005 494.169C451.969 494.171 451.989 494.19 451.983 494.194C451.878 494.23 451.787 494.18 451.76 494.178C451.42 494.167 451.202 494.22 450.874 494.216C450.835 494.214 450.922 494.188 450.813 494.188C450.076 494.186 449.297 494.198 448.568 494.224C448.453 494.228 448.536 494.248 448.529 494.25C448.412 494.289 448.337 494.238 448.299 494.238C448.009 494.226 447.736 494.269 447.538 494.21C446.303 494.24 445.074 494.216 443.849 494.277C443.833 494.279 443.861 494.303 443.831 494.305C443.457 494.321 443.529 494.283 443.28 494.238C443.218 494.226 443.029 494.283 443.011 494.289C442.952 494.305 443.015 494.34 442.993 494.344C442.825 494.368 442.851 494.246 442.623 494.248C442.616 494.248 442.645 494.269 442.627 494.273C442.568 494.279 442.509 494.271 442.45 494.279C442.317 494.299 442.27 494.358 442.066 494.325C442.038 494.321 442.078 494.252 441.874 494.255C441.793 494.257 441.434 494.259 441.331 494.263C441.232 494.269 441.301 494.291 441.293 494.293C441.023 494.325 441.125 494.335 440.989 494.38C440.853 494.425 440.89 494.321 440.835 494.309C440.78 494.299 440.58 494.325 440.531 494.333C440.483 494.34 440.544 494.354 440.501 494.36C440.212 494.394 440.373 494.309 440.278 494.293C440.054 494.255 439.88 494.335 439.675 494.344C439.62 494.346 439.665 494.329 439.616 494.327C439.42 494.323 439.301 494.346 439.08 494.327C439.042 494.323 438.863 494.277 438.746 494.313C438.73 494.319 438.778 494.337 438.693 494.342C438.568 494.348 438.345 494.354 438.21 494.35C438.112 494.344 438.224 494.313 438.1 494.323C438.044 494.329 438.147 494.346 438.044 494.354C437.94 494.36 437.677 494.362 437.576 494.362C437.475 494.362 437.531 494.338 437.523 494.337C437.473 494.327 437.28 494.317 437.264 494.317C436.404 494.321 435.612 494.366 434.776 494.36C434.71 494.358 434.754 494.333 434.744 494.333C434.519 494.325 434.697 494.39 434.541 494.414C434.562 494.362 434.469 494.372 434.311 494.368C434.236 494.366 434.278 494.344 434.27 494.342C434.157 494.313 434.078 494.352 434.058 494.362C433.983 494.392 433.902 494.356 433.851 494.378C433.799 494.398 433.918 494.425 433.766 494.425C433.722 494.408 433.835 494.358 433.72 494.352C433.286 494.325 432.473 494.368 432.124 494.376C431.776 494.382 431.663 494.38 431.46 494.388C431.092 494.402 431.226 494.366 430.999 494.35C430.77 494.337 430.882 494.423 430.849 494.441C430.817 494.461 430.782 494.441 430.742 494.453C430.703 494.463 430.788 494.475 430.695 494.481C430.6 494.485 430.343 494.453 430.309 494.433C430.238 494.392 430.355 494.346 430.106 494.364C430.09 494.366 430.137 494.388 430.082 494.392C429.647 494.412 429.195 494.416 428.76 494.435C428.699 494.437 428.754 494.463 428.718 494.465C428.357 494.483 428.485 494.439 428.286 494.394C428.331 494.457 428.222 494.497 427.946 494.499C427.782 494.501 427.809 494.473 427.703 494.453C427.669 494.447 427.552 494.467 427.531 494.455C427.462 494.412 427.57 494.362 427.288 494.384C427.276 494.386 427.315 494.408 427.272 494.41C426.993 494.422 426.96 494.376 426.659 494.374C426.424 494.37 426.005 494.402 425.736 494.408C425.742 494.479 425.489 494.465 425.386 494.416C425.213 494.42 425.025 494.418 424.857 494.425C424.798 494.429 424.837 494.449 424.829 494.451C424.716 494.489 424.641 494.439 424.604 494.439C424.197 494.423 423.865 494.461 423.475 494.429C423.462 494.427 423.44 494.378 423.335 494.416C423.329 494.418 423.458 494.439 423.274 494.443C423.092 494.445 422.746 494.475 422.493 494.453C422.432 494.449 422.276 494.41 422.151 494.441C422.134 494.445 422.153 494.461 422.13 494.469C422.05 494.495 422.009 494.443 421.918 494.487C421.827 494.53 421.637 494.564 421.381 494.536C421.373 494.536 421.311 494.497 421.232 494.499C421.104 494.501 420.92 494.508 420.786 494.51C420.722 494.51 420.764 494.485 420.752 494.485C420.319 494.475 420.013 494.499 419.551 494.51C419.466 494.514 419.22 494.481 419.056 494.51C418.877 494.54 419.062 494.661 418.647 494.635C418.481 494.625 418.268 494.471 417.968 494.554C417.385 494.538 416.845 494.582 416.262 494.558C416.234 494.558 416.151 494.514 416.09 494.516C415.997 494.516 415.948 494.538 415.883 494.54C415.608 494.548 415.357 494.532 415.092 494.536C414.991 494.538 415.027 494.56 414.906 494.562C414.788 494.564 414.707 494.536 414.545 494.55C414.422 494.562 414.3 494.619 414.137 494.627C414.132 494.572 414.019 494.574 413.821 494.56C413.782 494.558 413.823 494.538 413.805 494.536C413.73 494.526 413.663 494.542 413.594 494.532C413.576 494.53 413.576 494.51 413.562 494.508C413.444 494.481 413.25 494.524 413.217 494.532C413.088 494.562 413.029 494.536 412.93 494.548C412.833 494.56 412.979 494.574 412.865 494.582C412.628 494.597 412.323 494.595 412.082 494.597C411.985 494.599 412.051 494.574 412.037 494.574C411.837 494.568 411.638 494.595 411.527 494.546C411.39 494.678 411.406 494.534 411.122 494.564C411.1 494.566 411.072 494.627 411.157 494.635C411.244 494.645 411.375 494.623 411.493 494.637C411.523 494.641 411.685 494.696 411.707 494.7C411.879 494.726 411.902 494.633 411.912 494.629C412.015 494.574 412.215 494.635 412.266 494.639C412.505 494.657 412.707 494.641 412.906 494.655C413.037 494.663 413.049 494.722 413.151 494.72C413.491 494.712 413.61 494.627 413.93 494.698C413.999 494.712 413.932 494.779 414.177 494.726C414.193 494.722 414.375 494.672 414.481 494.702C414.495 494.706 414.493 494.726 414.511 494.726C414.63 494.736 414.707 494.72 414.835 494.726C414.962 494.734 415.116 494.744 415.262 494.736C415.349 494.732 415.462 494.694 415.505 494.684C415.624 494.659 415.75 494.7 415.823 494.669C415.898 494.637 415.752 494.591 415.948 494.57C415.954 494.621 415.971 494.67 415.983 494.722C416.41 494.716 416.829 494.698 417.258 494.696C417.309 494.696 417.256 494.724 417.313 494.724C417.553 494.728 417.762 494.706 418.011 494.712C418.205 494.716 418.416 494.744 418.616 494.75C418.738 494.692 419.039 494.708 419.256 494.702C419.331 494.7 419.325 494.684 419.381 494.678C419.584 494.659 419.489 494.71 419.545 494.718C419.786 494.75 419.805 494.635 420.088 494.637C420.102 494.637 420.286 494.696 420.311 494.7C420.471 494.724 420.337 494.678 420.438 494.672C420.622 494.665 420.748 494.649 420.964 494.665C421.027 494.669 421.177 494.706 421.298 494.676C421.315 494.672 421.305 494.653 421.317 494.651C421.551 494.629 421.558 494.692 421.691 494.712C421.825 494.734 422.031 494.688 422.072 494.674C422.181 494.643 421.989 494.663 421.983 494.659C421.912 494.621 422.062 494.627 422.177 494.623C422.193 494.562 422.355 494.564 422.296 494.619C422.29 494.625 422.201 494.619 422.177 494.623C422.278 494.682 422.456 494.69 422.649 494.631C422.74 494.603 422.653 494.574 422.932 494.584C423.056 494.588 423.009 494.631 423.12 494.641C423.373 494.667 423.703 494.623 423.964 494.629C424.058 494.629 423.966 494.653 424.031 494.655C424.203 494.661 424.355 494.643 424.527 494.651C424.543 494.651 424.505 494.674 424.558 494.674C424.966 494.674 425.321 494.657 425.746 494.653C425.952 494.653 426.319 494.663 426.531 494.659C426.9 494.651 427.353 494.613 427.669 494.619C427.875 494.623 427.829 494.647 427.918 494.665C428.088 494.694 428.388 494.635 428.428 494.625C428.43 494.625 428.252 494.621 428.347 494.607C428.402 494.582 428.426 494.625 428.428 494.625C428.456 494.619 428.809 494.611 428.879 494.615C428.916 494.617 428.896 494.641 428.916 494.643C429.388 494.659 429.861 494.663 430.341 494.647C430.349 494.647 430.335 494.621 430.355 494.621C430.633 494.607 430.811 494.637 431.041 494.655C431.268 494.672 431.45 494.665 431.584 494.619C431.758 494.623 432.005 494.601 432.147 494.589C432.29 494.576 432.309 494.625 432.323 494.627C432.714 494.657 432.94 494.625 433.345 494.617C433.539 494.615 433.92 494.619 434.129 494.623C434.295 494.627 434.394 494.613 434.546 494.621C434.566 494.621 434.546 494.643 434.552 494.645C434.722 494.671 434.639 494.615 434.675 494.605C434.801 494.57 434.88 494.55 435.098 494.566C435.147 494.568 435.295 494.647 435.386 494.651C435.505 494.655 435.459 494.627 435.584 494.633C435.596 494.633 435.592 494.651 435.669 494.651C436.027 494.645 436.414 494.631 436.786 494.631C436.835 494.631 436.77 494.659 436.843 494.659C437.187 494.659 437.562 494.655 437.896 494.641C437.979 494.637 437.928 494.617 437.946 494.611C438.054 494.576 438.21 494.625 438.236 494.627C438.849 494.647 439.315 494.597 439.94 494.615C439.973 494.615 440.234 494.669 440.351 494.621C440.359 494.617 440.473 494.57 440.576 494.601C440.582 494.603 440.511 494.627 440.637 494.625C440.762 494.621 440.963 494.635 441.135 494.607C441.191 494.599 441.319 494.55 441.483 494.588C441.493 494.589 441.744 494.674 441.835 494.613C441.849 494.603 441.833 494.542 442.027 494.572C442.064 494.578 441.997 494.593 442.096 494.601C442.246 494.613 442.444 494.595 442.627 494.621C442.661 494.625 442.797 494.667 442.906 494.635C442.924 494.629 442.89 494.609 442.95 494.605C443.224 494.593 443.513 494.605 443.791 494.588C443.892 494.582 443.841 494.55 443.944 494.54C444.046 494.53 444.256 494.518 444.363 494.534C444.471 494.548 444.353 494.603 444.515 494.607C445.22 494.619 445.916 494.584 446.619 494.574C446.724 494.572 446.637 494.591 446.791 494.591C447.359 494.589 448.335 494.599 448.827 494.556C449.22 494.52 448.724 494.499 449.027 494.483C449.171 494.475 449.329 494.538 449.363 494.538C449.706 494.556 449.944 494.526 450.252 494.534C450.315 494.534 450.254 494.56 450.307 494.562C450.493 494.564 450.687 494.552 450.865 494.552C450.944 494.552 450.93 494.572 451.003 494.57C451.177 494.566 451.331 494.556 451.501 494.538C451.517 494.536 451.412 494.512 451.54 494.51C451.75 494.506 452.009 494.487 452.25 494.504C452.321 494.508 452.325 494.554 452.477 494.522C452.511 494.516 452.469 494.463 452.647 494.506C452.679 494.514 452.979 494.574 453.125 494.534C453.165 494.522 453.264 494.479 453.349 494.485C453.361 494.485 453.315 494.51 453.386 494.512C453.637 494.518 453.9 494.512 454.157 494.518C454.226 494.52 454.123 494.546 454.226 494.548C454.509 494.552 454.861 494.542 455.135 494.532C455.238 494.53 455.167 494.508 455.175 494.506C455.293 494.471 455.363 494.518 455.402 494.52C455.649 494.536 455.835 494.512 456.062 494.516C456.123 494.518 456.08 494.542 456.092 494.544C456.222 494.562 456.125 494.522 456.206 494.516C456.436 494.503 456.691 494.503 456.922 494.503C457.007 494.503 456.91 494.53 456.987 494.532C457.438 494.532 457.908 494.526 458.347 494.508C458.43 494.505 458.378 494.485 458.394 494.481C458.515 494.445 458.689 494.491 458.728 494.495C458.912 494.512 458.983 494.493 459.143 494.497C459.932 494.506 460.904 494.489 461.647 494.475C462.615 494.459 463.366 494.433 464.291 494.431C464.349 494.431 464.291 494.461 464.341 494.461C464.995 494.463 465.637 494.447 466.293 494.451C466.347 494.451 466.27 494.477 466.355 494.479C466.532 494.481 466.756 494.479 466.936 494.469C467.023 494.463 466.906 494.441 466.993 494.437C467.196 494.427 467.416 494.425 467.627 494.427C467.716 494.429 467.582 494.457 467.698 494.455C468.489 494.453 469.266 494.451 470.066 494.412C470.119 494.41 470.169 494.354 470.285 494.364C470.293 494.378 470.293 494.396 470.297 494.412C471.449 494.414 472.59 494.386 473.744 494.374C473.793 494.374 473.708 494.404 473.803 494.404C474.349 494.398 474.878 494.404 475.437 494.37C475.493 494.366 475.463 494.317 475.627 494.323C475.655 494.325 475.902 494.329 475.965 494.34C475.973 494.342 475.93 494.366 476.009 494.366C476.469 494.366 476.951 494.356 477.41 494.338C477.485 494.337 477.406 494.311 477.457 494.309C477.833 494.293 478.24 494.309 478.598 494.285C478.839 494.267 478.75 494.224 478.876 494.18C478.894 494.174 479.042 494.172 479.05 494.147C479.07 494.086 478.997 494.016 479.026 493.949C479.032 493.935 479.23 493.949 479.113 493.916C479.105 493.914 478.961 493.902 478.926 493.892C478.9 493.882 478.943 493.858 478.894 493.846C478.843 493.837 478.787 493.858 478.704 493.846C478.621 493.835 478.657 493.807 478.491 493.805ZM432.79 494.53C432.92 494.506 432.94 494.593 432.797 494.574C432.792 494.574 432.782 494.532 432.79 494.53ZM416.827 494.631C416.999 494.589 417.118 494.647 416.995 494.678C416.875 494.71 416.774 494.643 416.827 494.631ZM415.037 494.615C415.238 494.584 415.272 494.708 415.056 494.684C415.043 494.682 415.027 494.617 415.037 494.615ZM478.285 494.172C478.287 494.17 478.394 494.169 478.396 494.171C478.453 494.198 478.24 494.202 478.285 494.172ZM413.262 494.597C413.325 494.58 413.507 494.597 413.428 494.619C413.367 494.637 413.185 494.619 413.262 494.597ZM439.669 494.388C439.673 494.386 439.748 494.384 439.746 494.392C439.742 494.416 439.635 494.41 439.669 494.388ZM410.246 494.617C410.693 494.609 410.962 494.503 410.475 494.518C410.389 494.52 410.665 494.55 410.555 494.56C410.349 494.578 410.213 494.514 410.005 494.55C409.968 494.558 410.221 494.617 410.246 494.617ZM432.865 494.423C432.867 494.423 432.971 494.422 432.975 494.422C433.033 494.449 432.819 494.453 432.865 494.423ZM444.133 494.301C444.139 494.297 444.384 494.293 444.392 494.295C444.521 494.34 444.025 494.35 444.133 494.301ZM425.732 494.41C425.618 494.382 425.479 494.38 425.386 494.416C425.501 494.414 425.618 494.412 425.732 494.41Z" fill="white"/>
<path d="M487.113 487.123L498.117 498.127L480.001 498.264L468.787 487.05L487.113 487.123Z" fill="white"/>
<path d="M493.795 478.501C493.789 478.113 493.801 477.605 493.815 477.218C493.819 477.097 493.835 477.159 493.839 477.076C493.846 476.912 493.839 476.76 493.848 476.599C493.85 476.546 493.874 476.611 493.878 476.556C493.89 476.25 493.886 475.957 493.894 475.647C493.931 474.113 493.951 472.605 493.973 471.054C493.981 470.542 494.008 469.92 494.003 469.39C494.001 469.329 493.979 469.364 493.977 469.354C493.951 469.169 493.995 469.23 494.001 469.111C494.028 468.633 494.034 468.103 494.028 467.643C494.026 467.447 493.981 467.643 494.006 467.447C494.008 467.433 494.032 467.483 494.034 467.43C494.04 467.307 494.038 467.078 494.04 466.983C494.046 466.801 494.046 466.771 494.048 466.6C494.05 466.364 494.064 466.086 494.06 465.835C494.06 465.779 494.034 465.851 494.032 465.766C494.028 465.681 494.032 465.453 494.038 465.376C494.044 465.299 494.062 465.333 494.066 465.319C494.103 465.208 494.056 464.945 494.054 464.912C494.038 464.295 494.07 463.768 494.074 463.188C494.078 462.75 494.072 462.279 494.076 461.862C494.08 461.364 494.095 460.943 494.097 460.459C494.097 460.408 494.07 460.467 494.07 460.406C494.072 459.744 494.08 459.086 494.101 458.428C494.105 458.36 494.129 458.447 494.133 458.38C494.155 457.977 494.208 457.337 494.103 457.096C494.109 456.823 494.115 456.489 494.139 456.244C494.155 456.086 494.18 456.24 494.171 456.046C494.169 456.003 494.145 456.06 494.143 455.993C494.135 455.716 494.145 455.416 494.135 455.141C494.133 455.086 494.113 455.102 494.109 455.086C494.08 454.953 494.131 454.732 494.135 454.685C494.165 454.319 494.157 454.052 494.159 453.71C494.161 453.631 494.131 453.724 494.131 453.649C494.129 453.254 494.135 452.845 494.151 452.457C494.155 452.372 494.176 452.451 494.18 452.41C494.192 452.23 494.147 452.189 494.159 452.015C494.161 451.979 494.18 451.999 494.184 451.993C494.22 451.888 494.171 451.797 494.169 451.77C494.157 451.43 494.21 451.212 494.206 450.884C494.204 450.845 494.178 450.934 494.178 450.823C494.176 450.086 494.188 449.307 494.214 448.578C494.218 448.465 494.238 448.546 494.24 448.538C494.279 448.422 494.228 448.347 494.228 448.309C494.216 448.019 494.259 447.746 494.2 447.548C494.23 446.313 494.206 445.084 494.267 443.859C494.269 443.843 494.293 443.872 494.295 443.841C494.311 443.467 494.273 443.538 494.228 443.289C494.216 443.228 494.273 443.038 494.279 443.023C494.295 442.961 494.331 443.025 494.335 443.005C494.358 442.835 494.236 442.861 494.238 442.633C494.238 442.625 494.259 442.655 494.263 442.637C494.269 442.578 494.261 442.519 494.269 442.459C494.289 442.327 494.348 442.28 494.315 442.076C494.311 442.05 494.242 442.088 494.246 441.884C494.248 441.803 494.25 441.444 494.254 441.343C494.259 441.242 494.281 441.311 494.283 441.303C494.315 441.032 494.325 441.135 494.37 440.999C494.416 440.865 494.311 440.9 494.299 440.845C494.289 440.789 494.315 440.59 494.323 440.542C494.331 440.493 494.344 440.554 494.35 440.511C494.384 440.222 494.299 440.384 494.283 440.287C494.246 440.064 494.325 439.89 494.335 439.685C494.337 439.629 494.319 439.675 494.317 439.625C494.313 439.43 494.337 439.311 494.317 439.09C494.313 439.052 494.267 438.872 494.303 438.756C494.309 438.74 494.327 438.787 494.333 438.702C494.339 438.578 494.344 438.355 494.34 438.22C494.335 438.121 494.303 438.234 494.313 438.11C494.319 438.054 494.337 438.157 494.344 438.054C494.35 437.95 494.352 437.687 494.352 437.586C494.352 437.485 494.329 437.54 494.327 437.533C494.317 437.483 494.307 437.289 494.307 437.274C494.311 436.414 494.356 435.623 494.35 434.786C494.348 434.72 494.323 434.764 494.323 434.754C494.315 434.529 494.38 434.706 494.404 434.55C494.352 434.572 494.362 434.479 494.358 434.321C494.354 434.246 494.335 434.287 494.333 434.28C494.303 434.167 494.342 434.088 494.352 434.068C494.382 433.993 494.346 433.912 494.368 433.861C494.388 433.809 494.416 433.928 494.416 433.776C494.398 433.732 494.348 433.845 494.342 433.73C494.315 433.295 494.358 432.483 494.366 432.135C494.372 431.786 494.37 431.673 494.378 431.469C494.392 431.102 494.356 431.236 494.34 431.009C494.327 430.78 494.414 430.892 494.431 430.859C494.451 430.827 494.431 430.791 494.443 430.752C494.453 430.712 494.465 430.799 494.471 430.705C494.475 430.61 494.443 430.353 494.423 430.319C494.382 430.248 494.337 430.365 494.354 430.116C494.356 430.1 494.378 430.147 494.382 430.092C494.402 429.657 494.406 429.205 494.425 428.77C494.427 428.71 494.453 428.764 494.455 428.728C494.473 428.367 494.429 428.495 494.384 428.295C494.447 428.341 494.487 428.232 494.489 427.955C494.491 427.791 494.463 427.819 494.443 427.712C494.437 427.679 494.457 427.562 494.445 427.54C494.402 427.471 494.352 427.582 494.374 427.297C494.376 427.286 494.398 427.325 494.4 427.282C494.412 427.003 494.366 426.969 494.364 426.669C494.36 426.434 494.392 426.015 494.398 425.746C494.469 425.752 494.455 425.499 494.406 425.396C494.41 425.222 494.408 425.035 494.416 424.867C494.42 424.807 494.439 424.847 494.441 424.839C494.477 424.726 494.429 424.651 494.429 424.614C494.414 424.207 494.451 423.875 494.42 423.485C494.418 423.471 494.368 423.45 494.406 423.345C494.408 423.339 494.429 423.467 494.433 423.284C494.435 423.102 494.465 422.756 494.443 422.503C494.439 422.442 494.4 422.286 494.431 422.161C494.435 422.143 494.451 422.163 494.459 422.139C494.485 422.06 494.433 422.019 494.477 421.928C494.52 421.837 494.554 421.647 494.526 421.39C494.526 421.382 494.487 421.323 494.489 421.242C494.491 421.114 494.499 420.93 494.501 420.795C494.501 420.732 494.475 420.774 494.475 420.762C494.465 420.329 494.489 420.023 494.501 419.56C494.504 419.475 494.471 419.23 494.499 419.066C494.53 418.886 494.651 419.072 494.625 418.657C494.615 418.491 494.461 418.278 494.544 417.977C494.528 417.394 494.572 416.855 494.548 416.272C494.548 416.244 494.505 416.161 494.506 416.1C494.506 416.007 494.528 415.958 494.53 415.892C494.538 415.618 494.522 415.367 494.526 415.102C494.528 415.001 494.55 415.037 494.552 414.916C494.554 414.797 494.526 414.716 494.54 414.554C494.552 414.432 494.609 414.309 494.617 414.147C494.562 414.141 494.564 414.029 494.55 413.831C494.548 413.792 494.528 413.833 494.526 413.815C494.516 413.742 494.532 413.673 494.522 413.604C494.52 413.586 494.501 413.586 494.499 413.572C494.471 413.454 494.514 413.26 494.522 413.226C494.552 413.098 494.526 413.039 494.538 412.94C494.55 412.843 494.564 412.989 494.572 412.875C494.588 412.637 494.586 412.333 494.588 412.092C494.589 411.995 494.564 412.06 494.564 412.047C494.558 411.849 494.586 411.647 494.536 411.537C494.669 411.4 494.524 411.416 494.554 411.131C494.556 411.11 494.617 411.082 494.625 411.167C494.635 411.254 494.613 411.384 494.627 411.503C494.631 411.533 494.686 411.695 494.69 411.716C494.716 411.888 494.623 411.912 494.619 411.922C494.564 412.025 494.625 412.224 494.629 412.276C494.647 412.515 494.631 412.716 494.645 412.916C494.653 413.047 494.712 413.058 494.71 413.161C494.702 413.501 494.617 413.62 494.686 413.94C494.702 414.009 494.769 413.942 494.716 414.187C494.712 414.203 494.663 414.384 494.692 414.491C494.696 414.505 494.716 414.505 494.716 414.521C494.726 414.639 494.71 414.716 494.716 414.845C494.724 414.973 494.734 415.126 494.726 415.272C494.722 415.361 494.684 415.471 494.674 415.515C494.649 415.633 494.69 415.76 494.659 415.833C494.627 415.908 494.582 415.762 494.56 415.958C494.611 415.963 494.661 415.981 494.712 415.993C494.706 416.42 494.688 416.839 494.686 417.268C494.686 417.319 494.714 417.266 494.714 417.323C494.718 417.562 494.696 417.772 494.702 418.021C494.706 418.214 494.734 418.426 494.74 418.626C494.682 418.75 494.698 419.048 494.692 419.266C494.69 419.341 494.674 419.335 494.669 419.39C494.649 419.594 494.7 419.499 494.708 419.554C494.74 419.795 494.625 419.815 494.627 420.098C494.627 420.112 494.686 420.295 494.69 420.321C494.714 420.481 494.669 420.347 494.663 420.448C494.655 420.631 494.639 420.758 494.655 420.973C494.659 421.037 494.696 421.187 494.667 421.309C494.663 421.325 494.643 421.315 494.641 421.329C494.619 421.562 494.682 421.568 494.702 421.701C494.724 421.835 494.678 422.041 494.665 422.082C494.633 422.193 494.653 421.999 494.649 421.993C494.611 421.922 494.617 422.072 494.613 422.187C494.552 422.203 494.554 422.365 494.609 422.305C494.615 422.299 494.609 422.21 494.613 422.187C494.672 422.288 494.68 422.465 494.621 422.659C494.593 422.75 494.564 422.663 494.574 422.942C494.578 423.066 494.621 423.019 494.631 423.129C494.657 423.382 494.613 423.712 494.619 423.973C494.619 424.068 494.643 423.975 494.645 424.04C494.651 424.212 494.633 424.365 494.641 424.537C494.641 424.552 494.665 424.515 494.665 424.568C494.665 424.975 494.647 425.331 494.643 425.756C494.643 425.961 494.653 426.329 494.649 426.54C494.641 426.91 494.603 427.363 494.609 427.679C494.613 427.884 494.637 427.839 494.655 427.928C494.684 428.098 494.625 428.398 494.615 428.438C494.615 428.44 494.611 428.264 494.597 428.357C494.572 428.412 494.615 428.436 494.615 428.438C494.609 428.465 494.601 428.819 494.605 428.888C494.607 428.926 494.631 428.906 494.633 428.926C494.649 429.398 494.653 429.871 494.637 430.351C494.637 430.359 494.611 430.345 494.611 430.365C494.597 430.643 494.627 430.821 494.645 431.05C494.663 431.278 494.655 431.459 494.609 431.596C494.613 431.768 494.591 432.015 494.58 432.157C494.566 432.299 494.615 432.319 494.617 432.333C494.647 432.724 494.615 432.95 494.607 433.355C494.605 433.548 494.609 433.93 494.613 434.139C494.617 434.305 494.603 434.404 494.611 434.556C494.611 434.576 494.633 434.556 494.635 434.562C494.661 434.732 494.605 434.651 494.595 434.685C494.56 434.811 494.54 434.89 494.556 435.108C494.558 435.157 494.637 435.305 494.641 435.396C494.645 435.515 494.617 435.469 494.623 435.594C494.623 435.606 494.641 435.604 494.641 435.679C494.635 436.036 494.621 436.424 494.621 436.795C494.621 436.845 494.649 436.782 494.649 436.855C494.649 437.197 494.645 437.572 494.631 437.906C494.627 437.989 494.607 437.938 494.601 437.955C494.566 438.064 494.615 438.22 494.617 438.246C494.637 438.859 494.588 439.325 494.605 439.949C494.605 439.983 494.659 440.246 494.611 440.361C494.607 440.368 494.56 440.485 494.591 440.586C494.593 440.592 494.617 440.521 494.615 440.647C494.611 440.772 494.625 440.973 494.597 441.145C494.589 441.2 494.54 441.329 494.578 441.493C494.58 441.503 494.665 441.754 494.603 441.845C494.593 441.859 494.532 441.843 494.562 442.036C494.568 442.074 494.584 442.007 494.591 442.106C494.603 442.256 494.586 442.453 494.611 442.637C494.615 442.671 494.657 442.807 494.625 442.916C494.619 442.934 494.599 442.9 494.595 442.959C494.584 443.234 494.595 443.523 494.578 443.803C494.572 443.902 494.54 443.851 494.53 443.953C494.52 444.056 494.508 444.266 494.524 444.372C494.538 444.481 494.593 444.364 494.597 444.525C494.609 445.23 494.574 445.928 494.564 446.629C494.562 446.734 494.582 446.647 494.582 446.801C494.58 447.368 494.589 448.347 494.546 448.837C494.51 449.23 494.489 448.734 494.473 449.036C494.465 449.181 494.528 449.339 494.528 449.374C494.546 449.716 494.516 449.953 494.524 450.262C494.524 450.325 494.55 450.264 494.552 450.317C494.554 450.503 494.542 450.696 494.542 450.874C494.542 450.953 494.562 450.94 494.56 451.013C494.556 451.187 494.546 451.341 494.528 451.511C494.526 451.526 494.503 451.422 494.501 451.55C494.497 451.76 494.477 452.019 494.495 452.26C494.499 452.331 494.544 452.335 494.512 452.489C494.505 452.521 494.453 452.479 494.497 452.657C494.504 452.689 494.564 452.989 494.524 453.135C494.512 453.175 494.469 453.274 494.475 453.358C494.475 453.37 494.501 453.325 494.503 453.396C494.508 453.647 494.503 453.91 494.508 454.167C494.51 454.236 494.536 454.133 494.538 454.236C494.542 454.519 494.532 454.87 494.522 455.145C494.52 455.248 494.499 455.177 494.497 455.185C494.461 455.303 494.508 455.374 494.51 455.412C494.526 455.659 494.503 455.845 494.506 456.072C494.508 456.133 494.532 456.09 494.534 456.102C494.552 456.232 494.512 456.135 494.506 456.216C494.493 456.445 494.493 456.7 494.493 456.932C494.493 457.017 494.52 456.922 494.522 456.997C494.522 457.447 494.516 457.918 494.499 458.356C494.495 458.439 494.475 458.388 494.471 458.404C494.435 458.524 494.481 458.698 494.485 458.738C494.503 458.922 494.483 458.993 494.487 459.153C494.497 459.941 494.479 460.914 494.465 461.657C494.449 462.625 494.423 463.376 494.422 464.301C494.422 464.36 494.451 464.301 494.451 464.351C494.453 465.005 494.437 465.647 494.441 466.303C494.441 466.356 494.467 466.279 494.469 466.364C494.471 466.542 494.469 466.766 494.459 466.945C494.453 467.032 494.431 466.916 494.427 467.003C494.418 467.208 494.416 467.426 494.418 467.637C494.42 467.726 494.447 467.592 494.445 467.708C494.443 468.499 494.441 469.275 494.402 470.076C494.4 470.129 494.344 470.179 494.354 470.295C494.368 470.303 494.386 470.303 494.402 470.307C494.404 471.459 494.376 472.599 494.364 473.754C494.364 473.803 494.394 473.718 494.394 473.813C494.388 474.358 494.394 474.888 494.36 475.447C494.356 475.503 494.307 475.473 494.313 475.637C494.315 475.665 494.319 475.912 494.331 475.975C494.333 475.983 494.356 475.939 494.356 476.018C494.356 476.479 494.346 476.961 494.329 477.42C494.327 477.495 494.301 477.416 494.299 477.467C494.283 477.843 494.299 478.25 494.275 478.607C494.257 478.848 494.214 478.759 494.171 478.886C494.165 478.904 494.163 479.052 494.137 479.06C494.076 479.08 494.006 479.007 493.939 479.036C493.925 479.042 493.939 479.24 493.906 479.123C493.904 479.115 493.892 478.971 493.882 478.935C493.872 478.91 493.848 478.955 493.837 478.904C493.827 478.852 493.848 478.797 493.837 478.714C493.825 478.631 493.797 478.667 493.795 478.501ZM494.52 432.799C494.497 432.93 494.584 432.95 494.564 432.807C494.564 432.801 494.522 432.791 494.52 432.799ZM494.621 416.837C494.58 417.009 494.637 417.128 494.669 417.005C494.7 416.884 494.633 416.784 494.621 416.837ZM494.605 415.048C494.574 415.248 494.698 415.282 494.674 415.066C494.673 415.052 494.607 415.037 494.605 415.048ZM494.163 478.295C494.161 478.297 494.159 478.404 494.161 478.406C494.188 478.463 494.192 478.25 494.163 478.295ZM494.588 413.272C494.57 413.335 494.588 413.517 494.609 413.438C494.627 413.377 494.609 413.195 494.588 413.272ZM494.378 439.681C494.376 439.683 494.374 439.758 494.382 439.758C494.406 439.752 494.4 439.645 494.378 439.681ZM494.607 410.256C494.599 410.703 494.493 410.971 494.508 410.485C494.51 410.398 494.54 410.675 494.55 410.564C494.568 410.359 494.505 410.222 494.54 410.015C494.548 409.977 494.607 410.23 494.607 410.256ZM494.414 432.874C494.414 432.876 494.412 432.983 494.412 432.985C494.439 433.042 494.443 432.829 494.414 432.874ZM494.291 444.143C494.287 444.149 494.283 444.394 494.285 444.402C494.331 444.53 494.34 444.034 494.291 444.143ZM494.4 425.742C494.372 425.627 494.37 425.489 494.406 425.396C494.404 425.511 494.402 425.627 494.4 425.742Z" fill="url(#paint1_linear_9_38)"/>
<path d="M487.113 487.123L498.117 498.127L498.254 480.011L487.04 468.799L487.113 487.123Z" fill="white"/>
<path d="M486.42 339.221C485.762 338.507 485.094 337.798 484.412 337.098H484.414L482.997 338.474C482.663 338.132 482.325 337.79 481.985 337.45C481.645 337.11 481.303 336.772 480.959 336.438L482.339 335.025C481.637 334.343 480.93 333.675 480.216 333.017L478.878 334.468C478.173 333.818 477.459 333.179 476.74 332.555L478.036 331.067C477.301 330.427 476.558 329.798 475.809 329.181L474.554 330.703C473.813 330.095 473.064 329.496 472.311 328.911L473.524 327.353C472.754 326.755 471.977 326.172 471.194 325.597L470.026 327.187C469.254 326.62 468.473 326.067 467.687 325.523L468.809 323.899C468.007 323.346 467.196 322.804 466.382 322.276L465.307 323.931C464.503 323.409 463.694 322.899 462.88 322.401L463.91 320.717C463.076 320.209 462.238 319.713 461.392 319.229L460.412 320.942C459.582 320.468 458.744 320.006 457.904 319.555L458.835 317.816C457.975 317.355 457.11 316.909 456.238 316.474L455.357 318.239C454.501 317.812 453.641 317.399 452.776 316.998L453.61 315.203C452.724 314.792 451.833 314.397 450.938 314.012L450.157 315.824C449.28 315.446 448.396 315.081 447.509 314.729L448.238 312.897C447.331 312.535 446.422 312.187 445.507 311.854L444.829 313.707C443.93 313.381 443.029 313.065 442.122 312.763L442.746 310.891C441.821 310.583 440.894 310.286 439.963 310.006L439.39 311.895C438.475 311.618 437.556 311.355 436.635 311.105L437.153 309.199C436.212 308.944 435.27 308.701 434.325 308.472L433.859 310.391C432.928 310.166 431.997 309.952 431.062 309.755L431.471 307.826C430.519 307.622 429.564 307.433 428.606 307.257L428.248 309.197C427.309 309.025 426.365 308.865 425.422 308.721L425.724 306.769C424.762 306.62 423.796 306.486 422.829 306.363L422.582 308.322C421.634 308.201 420.685 308.095 419.734 308.002L419.926 306.039C418.956 305.944 417.985 305.861 417.013 305.792L416.877 307.763C415.922 307.695 414.968 307.642 414.013 307.603L414.094 305.63C413.122 305.591 412.147 305.563 411.173 305.549L411.147 307.522C410.191 307.51 409.234 307.51 408.278 307.522L408.25 305.549C407.278 305.563 406.304 305.591 405.331 305.63L405.41 307.603C404.456 307.642 403.503 307.695 402.549 307.763L402.412 305.792C401.44 305.861 400.47 305.944 399.499 306.039L399.691 308.002C398.74 308.095 397.79 308.201 396.841 308.322L396.596 306.363C395.63 306.486 394.663 306.62 393.701 306.769L394.003 308.721C393.061 308.865 392.116 309.025 391.175 309.197L390.818 307.257C389.861 307.433 388.906 307.622 387.952 307.826L388.363 309.755C387.428 309.952 386.495 310.166 385.567 310.391L385.1 308.472C384.156 308.701 383.211 308.944 382.272 309.199L382.79 311.105C381.869 311.355 380.95 311.618 380.035 311.895L379.462 310.006C378.531 310.286 377.604 310.583 376.679 310.891L377.302 312.763C376.397 313.065 375.495 313.381 374.596 313.707L373.918 311.854C373.003 312.187 372.092 312.535 371.185 312.897L371.916 314.729C371.029 315.081 370.146 315.446 369.268 315.824L368.488 314.012C367.592 314.397 366.701 314.792 365.816 315.203L366.648 316.998C365.784 317.399 364.924 317.812 364.069 318.239L363.187 316.474C362.316 316.909 361.45 317.355 360.588 317.816L361.521 319.555C360.681 320.006 359.843 320.468 359.013 320.942L358.031 319.229C357.187 319.713 356.349 320.209 355.515 320.717L356.545 322.401C355.731 322.899 354.921 323.409 354.118 323.931L353.043 322.276C352.229 322.804 351.419 323.346 350.616 323.899L351.739 325.523C350.952 326.067 350.172 326.62 349.397 327.187L348.231 325.597C347.448 326.172 346.672 326.755 345.901 327.353L347.112 328.913C346.359 329.498 345.612 330.095 344.871 330.703L343.616 329.181C342.865 329.798 342.124 330.427 341.389 331.067L342.685 332.555C341.966 333.179 341.253 333.818 340.547 334.468L339.209 333.017C338.494 333.675 337.786 334.343 337.087 335.025L338.466 336.438C338.122 336.772 337.78 337.11 337.44 337.45C337.101 337.79 336.763 338.132 336.429 338.474L335.012 337.098C334.332 337.798 333.662 338.507 333.006 339.221L334.458 340.557C333.808 341.262 333.17 341.976 332.543 342.695L331.055 341.401C330.415 342.136 329.784 342.879 329.17 343.628L330.695 344.881C330.085 345.622 329.488 346.369 328.901 347.124L327.342 345.913C326.743 346.683 326.158 347.46 325.585 348.243L327.176 349.409C326.61 350.181 326.055 350.962 325.514 351.748L323.889 350.626C323.334 351.43 322.792 352.239 322.265 353.055L323.919 354.128C323.397 354.932 322.887 355.741 322.391 356.555L320.705 355.527C320.197 356.361 319.701 357.199 319.219 358.043L320.933 359.023C320.458 359.853 319.996 360.689 319.547 361.531L317.806 360.6C317.344 361.462 316.897 362.327 316.462 363.199L318.229 364.078C317.802 364.934 317.387 365.794 316.986 366.659L315.192 365.827C314.781 366.713 314.385 367.604 314 368.499L315.814 369.278C315.437 370.155 315.071 371.039 314.719 371.926L312.885 371.199C312.526 372.106 312.176 373.015 311.844 373.928L313.699 374.606C313.371 375.503 313.055 376.406 312.753 377.312L310.881 376.689C310.573 377.614 310.277 378.543 309.996 379.476L311.885 380.045C311.609 380.96 311.344 381.879 311.093 382.8L309.188 382.284C308.931 383.225 308.69 384.167 308.46 385.112L310.381 385.576C310.156 386.505 309.943 387.438 309.745 388.373L307.812 387.964C307.611 388.918 307.421 389.873 307.245 390.831L309.188 391.185C309.016 392.126 308.858 393.068 308.711 394.013L306.759 393.711C306.609 394.675 306.474 395.641 306.354 396.608L308.31 396.853C308.192 397.802 308.085 398.752 307.992 399.703L306.028 399.511C305.933 400.481 305.85 401.452 305.783 402.422L307.751 402.56C307.686 403.513 307.632 404.468 307.593 405.422L305.62 405.341C305.579 406.313 305.551 407.288 305.537 408.262L307.514 408.288C307.5 409.242 307.5 410.201 307.514 411.155L305.537 411.185C305.551 412.159 305.577 413.133 305.619 414.106L307.593 414.023C307.632 414.977 307.686 415.932 307.753 416.884L305.783 417.025C305.85 417.997 305.931 418.967 306.028 419.938L307.992 419.744C308.085 420.695 308.192 421.645 308.31 422.594L306.352 422.841C306.474 423.807 306.609 424.772 306.759 425.734L308.709 425.432C308.856 426.376 309.014 427.319 309.188 428.26L307.245 428.618C307.421 429.576 307.613 430.531 307.814 431.483L309.745 431.072C309.945 432.007 310.154 432.94 310.379 433.868L308.46 434.335C308.69 435.282 308.931 436.224 309.186 437.165L311.093 436.645C311.344 437.566 311.607 438.485 311.883 439.4L309.996 439.973C310.277 440.906 310.571 441.833 310.879 442.758L312.753 442.131C313.055 443.036 313.369 443.942 313.697 444.839L311.844 445.517C312.178 446.432 312.524 447.343 312.883 448.25L314.719 447.519C315.071 448.404 315.437 449.289 315.816 450.167L314 450.949C314.385 451.845 314.782 452.734 315.194 453.619L316.986 452.787C317.387 453.651 317.802 454.511 318.229 455.366L316.462 456.25C316.897 457.121 317.346 457.985 317.806 458.847L319.545 457.914C319.996 458.756 320.458 459.59 320.933 460.422L319.219 461.404C319.701 462.248 320.195 463.088 320.703 463.92L322.391 462.89C322.889 463.704 323.397 464.515 323.919 465.317L322.265 466.392C322.794 467.208 323.334 468.018 323.887 468.821L325.514 467.698C326.055 468.483 326.61 469.264 327.178 470.036L325.585 471.206C326.158 471.989 326.743 472.765 327.342 473.536L328.901 472.323C329.486 473.076 330.085 473.825 330.693 474.564L329.17 475.821C329.786 476.57 330.415 477.313 331.055 478.048L332.543 476.752C333.17 477.469 333.808 478.182 334.456 478.888L333.006 480.226C333.664 480.941 334.332 481.651 335.012 482.35L336.429 480.971L337.438 481.995C337.778 482.335 338.12 482.673 338.464 483.006L337.087 484.423C337.786 485.105 338.496 485.773 339.211 486.431L340.547 484.977C341.253 485.627 341.966 486.265 342.685 486.892L341.389 488.382C342.124 489.022 342.867 489.651 343.616 490.267L344.869 488.742C345.61 489.35 346.359 489.949 347.112 490.534L345.901 492.095C346.632 492.663 347.367 493.218 348.11 493.763L348.231 493.852L349.399 492.257C350.174 492.825 350.952 493.38 351.739 493.923L350.614 495.548C351.419 496.103 352.229 496.643 353.043 497.172L354.118 495.516C354.921 496.038 355.731 496.546 356.545 497.044L355.517 498.73C356.302 499.21 357.09 499.676 357.887 500.133L358.031 500.216L359.013 498.5C359.843 498.977 360.679 499.439 361.519 499.89L360.588 501.631C361.45 502.091 362.316 502.54 363.187 502.975L364.069 501.206C364.922 501.633 365.784 502.048 366.648 502.449L365.818 504.242V504.244C366.703 504.655 367.592 505.052 368.488 505.437L369.268 503.621C370.148 503.998 371.029 504.362 371.916 504.714L371.187 506.552C372.094 506.911 373.003 507.259 373.918 507.593L374.594 505.738C375.494 506.066 376.397 506.38 377.302 506.68L376.677 508.556C377.602 508.864 378.533 509.158 379.464 509.441L380.033 507.55C380.95 507.826 381.869 508.091 382.79 508.342L382.272 510.247C383.15 510.487 384.027 510.714 384.908 510.929L385.102 510.977L385.567 509.054C386.495 509.279 387.428 509.491 388.363 509.69L387.954 511.623C388.906 511.824 389.863 512.014 390.82 512.19L391.175 510.247C392.116 510.419 393.059 510.579 394.001 510.724L393.701 512.678V512.68C394.663 512.828 395.63 512.963 396.596 513.083L396.841 511.125C397.79 511.243 398.74 511.35 399.691 511.443L399.499 513.409C400.47 513.504 401.44 513.587 402.412 513.656V513.653L402.551 511.682C403.503 511.749 404.458 511.803 405.412 511.842L405.329 513.817C406.304 513.858 407.276 513.886 408.25 513.9V513.898L408.278 511.921C409.234 511.935 410.189 511.935 411.145 511.923L411.173 513.898V513.9C412.147 513.886 413.122 513.858 414.096 513.817L414.013 511.842C414.968 511.803 415.922 511.749 416.875 511.682L417.013 513.653V513.656C417.985 513.587 418.956 513.504 419.926 513.409L419.734 511.443C420.685 511.35 421.634 511.243 422.582 511.125L422.829 513.083C423.796 512.963 424.76 512.828 425.724 512.68V512.678L425.422 510.724C426.367 510.579 427.309 510.419 428.25 510.247L428.606 512.19C429.562 512.014 430.519 511.824 431.471 511.623L431.062 509.69C431.997 509.491 432.93 509.279 433.859 509.054L434.323 510.977C435.27 510.747 436.212 510.504 437.151 510.247L436.635 508.342C437.556 508.091 438.475 507.826 439.392 507.55L439.961 509.441C440.892 509.158 441.821 508.864 442.748 508.556L442.122 506.68C443.029 506.38 443.932 506.066 444.829 505.738L445.507 507.593C446.422 507.259 447.331 506.911 448.238 506.552L447.509 504.714C448.394 504.362 449.278 503.998 450.157 503.621L450.938 505.437C451.833 505.052 452.722 504.655 453.608 504.244V504.242L452.776 502.449C453.641 502.048 454.501 501.633 455.357 501.206L456.238 502.975C457.11 502.54 457.975 502.091 458.835 501.631L457.904 499.89C458.746 499.439 459.582 498.977 460.412 498.5L461.392 500.216C462.187 499.763 462.975 499.299 463.76 498.823L463.908 498.73L462.878 497.044C463.695 496.546 464.503 496.038 465.307 495.516L466.38 497.172C467.196 496.643 468.007 496.103 468.809 495.548L467.687 493.923C468.473 493.38 469.252 492.825 470.026 492.257L471.194 493.852C471.977 493.279 472.754 492.694 473.524 492.095L472.311 490.534C473.066 489.949 473.815 489.35 474.556 488.742L475.809 490.267C476.558 489.651 477.301 489.022 478.036 488.382L476.74 486.892C477.459 486.265 478.173 485.627 478.878 484.977L480.214 486.431C480.93 485.773 481.637 485.105 482.339 484.423L480.961 483.006C481.305 482.673 481.647 482.335 481.987 481.995C482.327 481.655 482.663 481.315 482.997 480.971L484.412 482.35C485.094 481.651 485.762 480.941 486.418 480.226L484.967 478.888C485.617 478.182 486.256 477.469 486.882 476.752L488.37 478.048C489.011 477.313 489.639 476.57 490.256 475.821L488.732 474.564C489.341 473.823 489.939 473.076 490.524 472.321L492.084 473.536C492.68 472.765 493.265 471.989 493.841 471.206L492.248 470.036C492.815 469.264 493.37 468.483 493.912 467.698L495.538 468.821C496.092 468.018 496.631 467.208 497.161 466.392L495.507 465.317C496.028 464.515 496.536 463.704 497.032 462.89L498.72 463.92C499.228 463.088 499.724 462.248 500.206 461.404L498.493 460.422C498.967 459.59 499.429 458.756 499.88 457.914L501.619 458.847C502.08 457.985 502.528 457.121 502.963 456.25L501.196 455.366C501.623 454.511 502.038 453.651 502.439 452.787L504.23 453.617L504.232 453.619C504.643 452.734 505.04 451.845 505.425 450.949L503.609 450.167C503.987 449.289 504.352 448.404 504.706 447.519L506.54 448.25C506.902 447.343 507.248 446.432 507.582 445.517L505.728 444.839C506.056 443.942 506.37 443.036 506.672 442.131L508.546 442.758C508.854 441.833 509.149 440.906 509.429 439.973L507.542 439.4C507.819 438.485 508.082 437.566 508.331 436.645L510.238 437.163L510.24 437.165C510.495 436.224 510.736 435.282 510.963 434.335L510.965 434.333L509.046 433.868C509.269 432.94 509.481 432.007 509.68 431.072L511.611 431.483C511.813 430.531 512.004 429.576 512.18 428.618L510.238 428.26C510.41 427.319 510.57 426.376 510.716 425.432L512.667 425.734C512.817 424.772 512.951 423.807 513.074 422.841L511.113 422.594C511.234 421.645 511.34 420.695 511.433 419.744L513.398 419.938C513.493 418.967 513.576 417.997 513.643 417.025L511.672 416.884C511.738 415.932 511.791 414.977 511.833 414.023L513.807 414.106C513.846 413.133 513.874 412.159 513.888 411.185L511.912 411.155C511.925 410.201 511.927 409.244 511.914 408.29L513.888 408.262C513.874 407.288 513.846 406.313 513.805 405.341L511.833 405.422C511.793 404.468 511.74 403.513 511.672 402.56L513.643 402.422C513.576 401.452 513.493 400.481 513.398 399.511L511.433 399.703C511.34 398.752 511.234 397.802 511.113 396.853L513.072 396.608C512.951 395.641 512.817 394.675 512.667 393.711L510.714 394.013C510.568 393.068 510.41 392.126 510.236 391.185L512.18 390.831C512.004 389.873 511.815 388.918 511.611 387.964L509.68 388.373C509.483 387.438 509.269 386.505 509.044 385.576L510.965 385.112C510.736 384.167 510.493 383.225 510.238 382.284L508.331 382.8C508.08 381.879 507.817 380.96 507.54 380.045L509.429 379.476C509.149 378.543 508.852 377.614 508.544 376.689L506.672 377.312C506.37 376.406 506.054 375.503 505.726 374.606L507.582 373.928C507.248 373.015 506.9 372.106 506.54 371.199L504.706 371.926C504.352 371.039 503.989 370.155 503.611 369.278L505.425 368.499C505.04 367.604 504.645 366.713 504.234 365.827L502.439 366.659C502.038 365.794 501.623 364.934 501.196 364.078L502.963 363.199C502.528 362.327 502.08 361.462 501.619 360.6L499.878 361.531C499.429 360.689 498.967 359.853 498.493 359.023L500.206 358.043C499.724 357.199 499.228 356.361 498.72 355.527L497.034 356.555C496.538 355.741 496.028 354.932 495.507 354.128L497.161 353.055C496.631 352.239 496.09 351.43 495.536 350.626L493.912 351.748C493.37 350.962 492.815 350.181 492.248 349.409L493.841 348.243C493.265 347.46 492.68 346.683 492.084 345.913L490.524 347.124C489.937 346.369 489.341 345.622 488.73 344.881L490.256 343.628C489.639 342.879 489.011 342.136 488.37 341.401L486.882 342.695C486.256 341.976 485.615 341.262 484.967 340.557L486.42 339.221Z" stroke="url(#paint2_radial_9_38)" stroke-width="2" stroke-dasharray="1.5 1.5"/>
<path opacity="0.5" d="M468.649 468.659C501.198 436.11 501.198 383.335 468.649 350.786C436.1 318.237 383.325 318.237 350.776 350.786C318.227 383.335 318.227 436.11 350.776 468.659C383.325 501.208 436.1 501.208 468.649 468.659ZM453.914 453.924C429.503 478.337 389.922 478.337 365.511 453.924C341.098 429.513 341.098 389.932 365.511 365.521C389.922 341.108 429.503 341.108 453.914 365.521C478.327 389.932 478.327 429.513 453.914 453.924Z" fill="url(#paint3_radial_9_38)"/>
<path d="M414.74 474.082C414.404 473.831 411.934 473.655 409.221 473.69C404.533 473.752 401.236 473.813 398.379 473.862C398.062 473.868 397.744 473.872 397.428 473.878C394.408 473.932 391.758 473.975 388.037 474.011C382.65 474.04 378.642 474.04 374.984 474.042C365.385 474.044 358.15 474.048 334.555 474.534C311.624 475.007 264.905 475.173 186.909 475.297C165.099 475.333 134.738 475.404 104.308 475.475C103.951 475.477 103.592 475.481 103.235 475.481C72.4301 475.554 41.6437 475.625 19.601 475.659C13.6761 475.669 7.756 475.675 1.84666 475.679L1.109 475.675L0 476.783L1.84666 476.799C7.76155 476.732 13.6711 476.661 19.5705 476.586C41.6641 476.55 72.4969 476.475 103.286 476.402C103.632 476.4 103.981 476.404 104.328 476.402C134.784 476.331 165.109 476.258 186.879 476.224C264.378 476.1 312.346 475.934 336.51 475.436C359.037 474.971 365.294 474.971 374.567 474.967C374.818 474.967 375.073 474.963 375.323 474.961C375.339 474.963 375.359 474.967 375.375 474.967C375.691 474.979 375.96 474.985 376.098 474.987C376.373 474.993 376.6 474.997 376.687 474.997H377.806C379.462 474.993 384.63 474.969 388.725 474.932C392.92 474.892 395.916 474.839 399.07 474.783C399.389 474.777 399.711 474.775 400.027 474.77C402.871 474.718 405.97 474.665 410.426 474.605C413.132 474.57 415.058 474.333 414.74 474.082Z" fill="white"/>
<path d="M470.303 7.44258C470.303 7.26195 470.307 7.07889 470.307 6.89828C470.165 6.89741 470.022 6.89962 469.88 6.89828L468.959 7.81906C468.991 7.81926 469.024 7.81887 469.056 7.81906C469.133 67.6729 469.098 127.512 468.811 187.331C468.58 235.842 468.546 284.206 468.562 332.755C468.576 373.221 469.048 447.392 469.098 464.843C469.1 466.163 469.153 467.358 469.234 468.236C466.934 468.019 462.192 467.827 457.212 467.941C456.898 467.947 456.578 467.957 456.262 467.961C453.244 468.015 450.6 468.06 446.88 468.094C441.491 468.123 437.477 468.123 433.817 468.125C424.207 468.129 357.517 468.295 333.919 468.781C310.988 469.254 264.202 468.773 186.207 468.898C164.379 468.934 134.216 469.432 103.713 469.279C103.631 469.279 103.546 469.279 103.464 469.279C73.185 469.129 42.6495 468.981 20.4302 469.015C15.8599 469.022 11.6395 469.054 7.70713 469.076L6.78125 470.003C10.9523 469.977 15.4602 469.943 20.3996 469.936C42.2542 469.902 72.4983 470.054 103.001 470.206H103.072C133.411 470.356 164.187 470.973 186.426 470.938C263.923 470.815 311.715 470.179 335.877 469.681C378.144 468.811 426.086 469.791 469.264 468.69H469.295C469.376 469.355 469.461 469.754 469.57 469.748C469.677 469.732 469.768 469.315 469.845 468.639C471.013 468.546 470.89 468.426 469.89 468.297C469.973 467.39 470.021 466.127 470.017 464.742C469.969 447.414 469.497 373.49 469.483 333.176C469.467 284.723 469.507 236.459 469.738 188.044C470.024 128.023 470.196 67.9359 470.303 7.82414C470.43 7.82487 470.558 7.82339 470.685 7.82414L470.303 7.44258Z" fill="white"/>
<path d="M364.788 463.866C365.15 463.613 363.247 463.382 360.535 463.353C357.729 463.323 355.5 463.295 353.47 463.266C353.341 463.266 353.211 463.264 353.083 463.262C350.966 463.232 348.96 463.2 346.8 463.185C346.077 463.181 345.33 463.179 344.632 463.175C343.379 463.163 341.95 463.143 340.243 463.119C339.901 463.113 339.545 463.109 339.185 463.104C336.863 463.07 334.16 463.032 331.11 463.003C323.976 462.93 314.931 462.9 303 463.068C299.872 463.111 296.838 463.155 293.877 463.194C280.235 463.38 268.093 463.542 255.032 463.902C253.241 463.951 251.522 464.011 249.686 464.07C244.238 464.248 237.732 464.457 225.135 464.635C208.256 464.874 180.733 465.042 132.13 464.916C123.857 464.892 114.93 464.93 105.422 464.971C101.794 464.987 98.0723 465.003 94.2763 465.017C80.3872 465.064 64.9446 465.074 47.2857 464.91C32.8755 464.775 21.7096 464.604 12.3416 464.441L11.4158 465.368C20.7441 465.526 31.8988 465.698 46.1054 465.831C64.3948 466.001 80.3408 465.991 94.4492 465.941C98.4911 465.93 102.35 465.908 106.053 465.892C115.401 465.853 123.77 465.819 131.652 465.841C180.531 465.969 208.724 465.801 226.441 465.55C240.068 465.358 247.684 465.109 253.174 464.93C254.832 464.876 256.299 464.825 257.678 464.787C269.98 464.447 281.281 464.295 294.87 464.111C297.885 464.07 301.024 464.024 304.302 463.979C315.265 463.825 323.439 463.853 329.844 463.918C332.646 463.945 335.114 463.981 337.44 464.015C337.482 464.015 337.525 464.019 337.567 464.019C337.891 464.024 338.215 464.024 338.533 464.03C338.774 464.032 339.016 464.042 339.257 464.044C339.349 464.05 339.436 464.052 339.5 464.054C339.547 464.056 339.587 464.06 339.612 464.06H339.628C340.083 464.078 340.478 464.084 340.559 464.086C340.695 464.088 340.82 464.09 340.883 464.092C341.219 464.096 341.654 464.094 341.942 464.096C342.683 464.1 343.974 464.107 345.96 464.111C347.693 464.125 349.359 464.143 351.44 464.173C351.569 464.175 351.701 464.181 351.832 464.183C353.861 464.21 356.239 464.242 359.219 464.273C361.924 464.303 364.417 464.119 364.788 463.866Z" fill="white"/>
<path d="M403.4 464.412C403.373 464.157 401.13 463.955 398.395 463.963C391.877 463.981 385.353 464.001 378.833 464.019C376.1 464.026 373.905 464.238 373.93 464.493C373.98 464.746 376.215 464.947 378.936 464.94C385.454 464.922 391.974 464.902 398.491 464.884C401.215 464.876 403.406 464.665 403.4 464.412Z" fill="white"/>
<path d="M464.936 368.895C464.934 368.689 464.928 368.482 464.926 368.278C464.859 362.304 464.766 356.215 464.651 348.849C464.635 347.913 464.619 346.946 464.606 345.966C464.467 337.235 464.303 326.506 464.121 311.891C463.511 262.816 463.918 224.119 464.044 212.082C464.299 187.942 464.303 162.188 464.309 127.053C464.311 123.84 464.309 120.544 464.309 117.169C464.311 114.447 464.106 112.19 463.853 112.107C463.598 112.045 463.39 114.213 463.388 116.95C463.388 120.254 463.384 123.477 463.384 126.616V126.656C463.376 162.013 463.372 187.208 463.123 210.779C462.995 223.08 462.58 262.729 463.206 313.016C463.39 327.786 463.556 338.636 463.695 347.421C463.708 348.381 463.72 349.32 463.734 350.229C463.736 350.249 463.74 350.274 463.74 350.294C463.857 357.705 463.946 363.539 464.009 369.254C464.011 369.375 464.013 369.501 464.015 369.622C464.179 384.405 463.908 402.353 463.948 416.683C463.955 419.416 464.173 421.616 464.426 421.588C464.681 421.549 464.882 419.307 464.874 416.582C464.833 401.806 465.098 383.513 464.936 368.895Z" fill="white"/>
<path d="M463.72 13.0589C463.685 20.0104 463.645 27.0323 463.643 34.2929C463.643 37.0277 463.851 39.297 464.106 39.3547C464.358 39.3919 464.568 37.2194 464.57 34.4965C464.57 26.8825 464.611 19.52 464.651 12.1331L463.72 13.0589Z" fill="white"/>
<path d="M470.281 6.49636L470.307 6.52182C470.307 6.50569 470.313 6.48707 470.313 6.47095L470.281 6.49636Z" fill="white"/>
<path d="M470.307 6.52185C470.307 6.64651 470.307 6.77363 470.307 6.89831C470.432 6.89904 470.56 6.89756 470.685 6.89831L470.307 6.52185Z" fill="white"/>
<path d="M475.914 185.48C475.926 182.763 475.728 180.401 475.475 180.189C475.222 179.996 475.001 182.053 474.987 184.783C474.918 199.198 474.864 209.564 474.819 217.666C474.738 232.662 474.696 239.913 474.702 250.769C474.72 278.791 474.73 305.848 474.738 330.189C474.752 370.654 474.762 403.638 474.809 421.088C474.817 423.813 475.028 426.007 475.283 425.993C475.536 425.954 475.738 423.714 475.73 420.987C475.683 403.657 475.673 370.924 475.659 330.612C475.651 306.241 475.647 279.093 475.629 250.896C475.621 240.368 475.659 233.524 475.74 218.862C475.785 210.767 475.843 200.281 475.914 185.48Z" fill="white"/>
<path d="M475.843 0.936057C475.805 9.47998 475.756 18.578 475.704 28.5646C475.69 31.2911 475.888 33.6691 476.143 33.8757C476.396 34.0656 476.617 32.0255 476.631 29.3073C476.685 19.044 476.73 9.69889 476.768 0.910636L476.777 0L475.843 0.936057Z" fill="white"/>
</g>
<defs>
<linearGradient id="paint0_linear_9_38" x1="485.599" y1="485.609" x2="375.094" y2="375.104" gradientUnits="userSpaceOnUse">
<stop stop-color="white"/>
<stop offset="1" stop-color="white" stop-opacity="0.33"/>
</linearGradient>
<linearGradient id="paint1_linear_9_38" x1="477.165" y1="427.422" x2="511.495" y2="461.75" gradientUnits="userSpaceOnUse">
<stop stop-color="white"/>
<stop offset="1" stop-color="white"/>
</linearGradient>
<radialGradient id="paint2_radial_9_38" cx="0" cy="0" r="1" gradientUnits="userSpaceOnUse" gradientTransform="translate(409.713 409.722) rotate(-135) scale(143.256)">
<stop stop-color="white"/>
<stop offset="1" stop-color="white" stop-opacity="0"/>
</radialGradient>
<radialGradient id="paint3_radial_9_38" cx="0" cy="0" r="1" gradientUnits="userSpaceOnUse" gradientTransform="translate(411.555 411.565) rotate(-112.999) scale(92.7043 92.7043)">
<stop stop-color="white"/>
<stop offset="0.739583" stop-color="white" stop-opacity="0.582344"/>
<stop offset="1" stop-color="white" stop-opacity="0.19"/>
</radialGradient>
<clipPath id="clip0_9_38">
<rect width="583" height="583" fill="white"/>
</clipPath>
</defs>
</svg>
