<svg width="515" height="515" viewBox="0 0 515 515" fill="none" xmlns="http://www.w3.org/2000/svg">
<path d="M29.1168 193.853L193.851 29.119L30.2847 30.2849L29.1168 193.853Z" stroke="url(#paint0_linear_35_13)"/>
<path d="M36.4112 21.109C36.7985 21.115 37.3064 21.1031 37.6938 21.0893C37.8143 21.0853 37.753 21.0695 37.836 21.0655C38.0001 21.0576 38.1522 21.0656 38.3123 21.0557C38.3657 21.0537 38.3005 21.03 38.3558 21.026C38.6621 21.0142 38.9546 21.0181 39.2649 21.0102C40.7985 20.9727 42.3064 20.9529 43.8577 20.9312C44.3696 20.9233 44.9921 20.8956 45.5218 20.9015C45.583 20.9035 45.5475 20.9252 45.5593 20.9272C45.7431 20.9529 45.6818 20.9094 45.8004 20.9035C46.2787 20.8759 46.8103 20.8699 47.2688 20.8758C47.4645 20.8778 47.2688 20.9233 47.4644 20.8976C47.4783 20.8956 47.4288 20.8719 47.4822 20.8699C47.6047 20.864 47.834 20.866 47.9289 20.864C48.1107 20.8581 48.1403 20.8581 48.3123 20.8561C48.5474 20.8541 48.8261 20.8403 49.0771 20.8442C49.1324 20.8442 49.0613 20.8699 49.1463 20.8719C49.2332 20.8758 49.4585 20.8719 49.5356 20.8659C49.6126 20.86 49.579 20.8422 49.5929 20.8383C49.7036 20.8007 49.9664 20.8482 50.002 20.8501C50.6166 20.866 51.1462 20.8343 51.7233 20.8304C52.162 20.8264 52.6324 20.8324 53.0494 20.8284C53.5474 20.8245 53.9683 20.8086 54.4525 20.8067C54.5039 20.8067 54.4446 20.8343 54.5059 20.8343C55.1679 20.8324 55.826 20.8244 56.4841 20.8027C56.5513 20.7988 56.4664 20.7751 56.5316 20.7711C56.9347 20.7494 57.575 20.696 57.8161 20.8008C58.0908 20.7948 58.4229 20.7889 58.6679 20.7652C58.826 20.7494 58.6719 20.7237 58.8656 20.7335C58.909 20.7355 58.8537 20.7592 58.9189 20.7612C59.1956 20.7691 59.496 20.7592 59.7707 20.7691C59.826 20.7711 59.8102 20.7909 59.826 20.7948C59.9584 20.8245 60.1798 20.7731 60.2272 20.7691C60.5928 20.7395 60.8616 20.7474 61.2015 20.7454C61.2805 20.7434 61.1877 20.7731 61.2628 20.7731C61.658 20.775 62.0671 20.7691 62.4544 20.7533C62.5394 20.7494 62.4604 20.7276 62.5019 20.7237C62.6837 20.7118 62.7232 20.7573 62.8971 20.7454C62.9327 20.7434 62.9129 20.7237 62.9189 20.7197C63.0236 20.6841 63.1145 20.7335 63.1422 20.7355C63.4821 20.7474 63.6995 20.694 64.0276 20.698C64.0671 20.7 63.9801 20.7256 64.0888 20.7256C64.826 20.7276 65.6046 20.7158 66.3339 20.6901C66.4485 20.6861 66.3655 20.6664 66.3734 20.6644C66.49 20.6249 66.5651 20.6762 66.6026 20.6762C66.8932 20.6881 67.1659 20.6446 67.3635 20.7039C68.5987 20.6742 69.8279 20.698 71.0532 20.6367C71.069 20.6347 71.0413 20.611 71.071 20.6091C71.4445 20.5932 71.3734 20.6308 71.6224 20.6762C71.6836 20.6881 71.8734 20.6308 71.8912 20.6249C71.9504 20.609 71.8872 20.5735 71.9089 20.5695C72.0769 20.5458 72.0512 20.6683 72.2785 20.6663C72.2864 20.6663 72.2568 20.6446 72.2746 20.6407C72.3338 20.6347 72.3931 20.6426 72.4524 20.6347C72.5848 20.615 72.6323 20.5557 72.8358 20.5893C72.8635 20.5932 72.824 20.6624 73.0275 20.6584C73.1085 20.6565 73.4682 20.6545 73.571 20.6505C73.6698 20.6446 73.6006 20.6229 73.6085 20.6209C73.8793 20.5893 73.7765 20.5794 73.9129 20.5339C74.0492 20.4885 74.0117 20.5932 74.067 20.6051C74.1224 20.615 74.322 20.5893 74.3714 20.5814C74.4188 20.5735 74.3575 20.5596 74.401 20.5537C74.6895 20.5201 74.5295 20.6051 74.6243 20.6209C74.8477 20.6585 75.0215 20.5794 75.2271 20.5695C75.2824 20.5675 75.237 20.5853 75.2864 20.5873C75.482 20.5913 75.6006 20.5675 75.822 20.5873C75.8595 20.5913 76.0393 20.6367 76.1559 20.6012C76.1717 20.5952 76.1243 20.5774 76.2093 20.5715C76.3338 20.5655 76.5571 20.5596 76.6915 20.5636C76.7903 20.5695 76.6777 20.6011 76.8022 20.5913C76.8575 20.5853 76.7548 20.5675 76.8575 20.5596C76.9623 20.5537 77.2251 20.5517 77.3259 20.5517C77.4267 20.5517 77.3713 20.5754 77.3792 20.5774C77.4287 20.5873 77.6223 20.5972 77.6381 20.5972C78.4978 20.5932 79.2903 20.5478 80.1263 20.5537C80.1915 20.5557 80.148 20.5814 80.1579 20.5814C80.3832 20.5893 80.2053 20.5241 80.3614 20.5003C80.3397 20.5517 80.4326 20.5419 80.5907 20.5458C80.6658 20.5478 80.6243 20.5695 80.6322 20.5715C80.7448 20.6011 80.8239 20.5616 80.8437 20.5517C80.9188 20.5221 80.9998 20.5577 81.0512 20.5359C81.1025 20.5162 80.984 20.4885 81.1361 20.4885C81.1796 20.5063 81.067 20.5557 81.1816 20.5616C81.6164 20.5893 82.4286 20.5458 82.7784 20.5379C83.1262 20.532 83.2389 20.5339 83.4424 20.526C83.81 20.5122 83.6756 20.5478 83.9029 20.5636C84.1322 20.5774 84.0195 20.4905 84.0531 20.4727C84.0847 20.4529 84.1203 20.4727 84.1598 20.4608C84.1994 20.4509 84.1144 20.4391 84.2073 20.4332C84.3021 20.4292 84.559 20.4608 84.5926 20.4806C84.6638 20.5221 84.5472 20.5676 84.7962 20.5498C84.812 20.5478 84.7646 20.526 84.8199 20.5221C85.2547 20.5023 85.7073 20.4984 86.142 20.4786C86.2033 20.4766 86.148 20.4509 86.1835 20.449C86.5452 20.4312 86.4167 20.4747 86.6163 20.5201C86.5709 20.4569 86.6796 20.4173 86.9562 20.4154C87.1203 20.4134 87.0926 20.441 87.1993 20.4608C87.2329 20.4667 87.3495 20.447 87.3713 20.4588C87.4404 20.5023 87.3318 20.5517 87.6144 20.53C87.6262 20.528 87.5867 20.5063 87.6302 20.5043C87.9088 20.4924 87.9424 20.5379 88.2428 20.5399C88.478 20.5438 88.897 20.5122 89.1657 20.5063C89.1598 20.4351 89.4128 20.449 89.5155 20.4984C89.6895 20.4944 89.8772 20.4964 90.0452 20.4885C90.1045 20.4845 90.0649 20.4648 90.0728 20.4628C90.1855 20.4252 90.2606 20.4746 90.2981 20.4746C90.7053 20.4905 91.0373 20.4529 91.4266 20.4845C91.4404 20.4865 91.4622 20.5359 91.5669 20.4984C91.5728 20.4964 91.4444 20.4747 91.6282 20.4707C91.81 20.4687 92.1558 20.4391 92.4088 20.4608C92.47 20.4648 92.6262 20.5043 92.7507 20.4727C92.7685 20.4687 92.7487 20.4529 92.7724 20.445C92.8515 20.4193 92.893 20.4707 92.9839 20.4272C93.0748 20.3837 93.2645 20.3502 93.5214 20.3778C93.5293 20.3778 93.5906 20.4173 93.6696 20.4154C93.7981 20.4134 93.9819 20.4055 94.1163 20.4035C94.1795 20.4035 94.138 20.4292 94.1499 20.4292C94.5827 20.4391 94.889 20.4154 95.3514 20.4035C95.4364 20.3996 95.6815 20.4332 95.8455 20.4035C96.0254 20.3739 95.8396 20.2533 96.2546 20.279C96.4206 20.2889 96.6341 20.443 96.9345 20.36C97.5175 20.3758 98.057 20.3324 98.64 20.3561C98.6676 20.3561 98.7506 20.3995 98.8119 20.3976C98.9048 20.3976 98.9542 20.3758 99.0194 20.3739C99.2941 20.366 99.5451 20.3818 99.8099 20.3778C99.9107 20.3758 99.8751 20.3541 99.9957 20.3521C100.114 20.3502 100.195 20.3778 100.357 20.364C100.48 20.3521 100.602 20.2948 100.764 20.2869C100.77 20.3422 100.883 20.3403 101.081 20.3541C101.12 20.3561 101.079 20.3758 101.096 20.3778C101.172 20.3877 101.239 20.3719 101.308 20.3818C101.326 20.3837 101.326 20.4035 101.34 20.4055C101.458 20.4331 101.652 20.3897 101.685 20.3818C101.814 20.3521 101.873 20.3778 101.972 20.366C102.069 20.3541 101.923 20.3403 102.037 20.3324C102.274 20.3166 102.579 20.3185 102.82 20.3165C102.917 20.3146 102.851 20.3403 102.865 20.3403C103.065 20.3462 103.264 20.3185 103.375 20.3679C103.511 20.2355 103.496 20.3798 103.78 20.3501C103.802 20.3482 103.83 20.2869 103.745 20.279C103.658 20.2691 103.527 20.2909 103.409 20.277C103.379 20.2731 103.217 20.2177 103.195 20.2138C103.023 20.1881 103 20.281 102.99 20.2849C102.887 20.3403 102.687 20.279 102.636 20.275C102.397 20.2573 102.195 20.2731 101.996 20.2592C101.865 20.2513 101.853 20.192 101.751 20.194C101.411 20.2019 101.292 20.2869 100.972 20.2158C100.903 20.2019 100.97 20.1348 100.725 20.1881C100.709 20.1921 100.527 20.2415 100.421 20.2118C100.407 20.2079 100.409 20.1881 100.391 20.1881C100.272 20.1782 100.195 20.194 100.067 20.1881C99.9404 20.1802 99.7862 20.1703 99.64 20.1782C99.553 20.1822 99.4404 20.2197 99.3969 20.2296C99.2783 20.2553 99.1518 20.2138 99.0787 20.2454C99.0036 20.277 99.1499 20.3225 98.9542 20.3442C98.9483 20.2928 98.9305 20.2434 98.9186 20.1921C98.4918 20.198 98.0728 20.2158 97.6439 20.2178C97.5925 20.2178 97.6459 20.1901 97.5886 20.1901C97.3495 20.1861 97.14 20.2079 96.891 20.2019C96.6973 20.198 96.4858 20.1703 96.2862 20.1644C96.1637 20.2217 95.8633 20.2059 95.6459 20.2118C95.5708 20.2138 95.5768 20.2296 95.5214 20.2355C95.3179 20.2553 95.4127 20.2039 95.3574 20.196C95.1163 20.1644 95.0965 20.279 94.8139 20.277C94.8001 20.277 94.6163 20.2177 94.5906 20.2138C94.4305 20.1901 94.5649 20.2355 94.4641 20.2415C94.2803 20.2494 94.1538 20.2652 93.9384 20.2494C93.8752 20.2454 93.725 20.2079 93.6044 20.2375C93.5867 20.2415 93.5965 20.2612 93.5847 20.2632C93.3515 20.2849 93.3436 20.2217 93.2112 20.2019C93.0768 20.1802 92.8712 20.2256 92.8297 20.2395C92.721 20.2711 92.9128 20.2513 92.9187 20.2553C92.9898 20.2928 92.8396 20.2869 92.725 20.2909C92.7092 20.3521 92.5471 20.3501 92.6064 20.2948C92.6124 20.2889 92.7013 20.2948 92.725 20.2909C92.6242 20.2316 92.4463 20.2237 92.2527 20.2829C92.1618 20.3106 92.2487 20.3403 91.9701 20.3304C91.8455 20.3264 91.893 20.283 91.7823 20.2731C91.5293 20.2474 91.1993 20.2909 90.9385 20.2849C90.8436 20.2849 90.9365 20.2612 90.8712 20.2592C90.6993 20.2533 90.5472 20.2711 90.3752 20.2632C90.3594 20.2632 90.3969 20.2395 90.3436 20.2395C89.9365 20.2395 89.5807 20.2573 89.1558 20.2612C88.9503 20.2612 88.5827 20.2513 88.3713 20.2553C88.0017 20.2632 87.5492 20.3007 87.233 20.2948C87.0274 20.2908 87.0729 20.2671 86.9839 20.2494C86.814 20.2197 86.5136 20.279 86.4741 20.2889C86.4721 20.2889 86.6499 20.2928 86.5551 20.3067C86.4998 20.3324 86.476 20.2889 86.4741 20.2889C86.4464 20.2948 86.0926 20.3027 86.0234 20.2988C85.9859 20.2968 86.0057 20.2731 85.9859 20.2711C85.5136 20.2553 85.0413 20.2513 84.561 20.2671C84.5531 20.2671 84.5669 20.2928 84.5472 20.2928C84.2685 20.3067 84.0907 20.277 83.8614 20.2592C83.6341 20.2415 83.4523 20.2493 83.318 20.2948C83.144 20.2908 82.897 20.3126 82.7547 20.3244C82.6124 20.3383 82.5926 20.2889 82.5788 20.2869C82.1875 20.2573 81.9622 20.2889 81.5571 20.2968C81.3634 20.2988 80.982 20.2948 80.7725 20.2909C80.6065 20.2869 80.5077 20.3007 80.3555 20.2928C80.3357 20.2928 80.3555 20.2711 80.3496 20.2691C80.1796 20.2434 80.2626 20.2988 80.227 20.3086C80.1006 20.3442 80.0215 20.364 79.8041 20.3482C79.7547 20.3462 79.6065 20.2672 79.5156 20.2632C79.397 20.2592 79.4425 20.2869 79.318 20.281C79.3061 20.281 79.3101 20.2632 79.233 20.2632C78.8753 20.2691 78.4879 20.2829 78.1164 20.2829C78.067 20.2829 78.1322 20.2553 78.0591 20.2553C77.7152 20.2553 77.3397 20.2593 77.0057 20.2731C76.9227 20.277 76.9741 20.2968 76.9563 20.3027C76.8476 20.3383 76.6915 20.2889 76.6658 20.2869C76.0532 20.2671 75.5868 20.3166 74.9623 20.2988C74.9287 20.2988 74.6678 20.2454 74.5512 20.2928C74.5433 20.2968 74.4287 20.3442 74.3259 20.3126C74.32 20.3106 74.3911 20.2869 74.2646 20.2889C74.1401 20.2928 73.9386 20.279 73.7666 20.3067C73.7113 20.3146 73.5828 20.364 73.4188 20.3264C73.4089 20.3245 73.1579 20.2395 73.067 20.3007C73.0532 20.3106 73.069 20.3719 72.8753 20.3422C72.8378 20.3363 72.905 20.3205 72.8062 20.3126C72.656 20.3007 72.4584 20.3185 72.2746 20.2928C72.241 20.2889 72.1046 20.2474 71.9959 20.279C71.9781 20.2849 72.0117 20.3047 71.9524 20.3086C71.6777 20.3205 71.3892 20.3086 71.1105 20.3264C71.0097 20.3324 71.0611 20.364 70.9584 20.3739C70.8556 20.3838 70.6461 20.3956 70.5394 20.3798C70.4307 20.366 70.5493 20.3106 70.3872 20.3067C69.6817 20.2948 68.986 20.3304 68.2825 20.3403C68.1777 20.3423 68.2647 20.3225 68.1105 20.3225C67.5433 20.3245 66.5671 20.3146 66.075 20.3581C65.6817 20.3936 66.1777 20.4154 65.8754 20.4312C65.7311 20.4391 65.573 20.3758 65.5394 20.3758C65.1955 20.358 64.9584 20.3877 64.6501 20.3798C64.5869 20.3798 64.6481 20.3541 64.5948 20.3521C64.409 20.3502 64.2153 20.362 64.0374 20.362C63.9584 20.362 63.9722 20.3422 63.8991 20.3442C63.7252 20.3482 63.571 20.358 63.4011 20.3758C63.3853 20.3778 63.49 20.4015 63.3616 20.4035C63.1521 20.4075 62.8932 20.4272 62.6521 20.4095C62.5809 20.4055 62.577 20.36 62.4248 20.3917C62.3912 20.3976 62.4327 20.4509 62.2548 20.4075C62.2232 20.3996 61.9228 20.3403 61.7766 20.3798C61.7371 20.3917 61.6383 20.4351 61.5533 20.4292C61.5414 20.4292 61.5869 20.4035 61.5157 20.4015C61.2648 20.3956 61.0019 20.4015 60.745 20.3956C60.6758 20.3936 60.7786 20.3679 60.6758 20.366C60.3932 20.362 60.0414 20.3719 59.7667 20.3818C59.664 20.3837 59.7351 20.4055 59.7272 20.4075C59.6086 20.443 59.5395 20.3956 59.4999 20.3936C59.2529 20.3778 59.0671 20.4015 58.8399 20.3976C58.7786 20.3956 58.8221 20.3719 58.8102 20.3699C58.6798 20.3521 58.7766 20.3916 58.6956 20.3976C58.4663 20.4114 58.2114 20.4114 57.9802 20.4114C57.8952 20.4114 57.992 20.3837 57.915 20.3818C57.4644 20.3818 56.994 20.3877 56.5553 20.4055C56.4723 20.4094 56.5237 20.4292 56.5078 20.4332C56.3873 20.4687 56.2134 20.4233 56.1739 20.4193C55.9901 20.4015 55.9189 20.4213 55.7588 20.4174C54.9703 20.4075 53.998 20.4253 53.2549 20.4391C52.2865 20.4549 51.5356 20.4806 50.6107 20.4825C50.5533 20.4825 50.6107 20.4529 50.5613 20.4529C49.9071 20.4509 49.2648 20.4667 48.6087 20.4628C48.5553 20.4628 48.6324 20.4371 48.5474 20.4351C48.3696 20.4332 48.1463 20.4351 47.9664 20.445C47.8795 20.4509 47.996 20.4727 47.9091 20.4766C47.7055 20.4865 47.4862 20.4885 47.2747 20.4865C47.1858 20.4845 47.3202 20.4569 47.2036 20.4588C46.4131 20.4608 45.6364 20.4628 44.836 20.5023C44.7826 20.5043 44.7332 20.5596 44.6166 20.5498C44.6087 20.5359 44.6087 20.5181 44.6048 20.5023C43.4526 20.5004 42.3123 20.528 41.1581 20.5399C41.1087 20.5399 41.1937 20.5102 41.0989 20.5102C40.5534 20.5162 40.0238 20.5102 39.4645 20.5438C39.4092 20.5478 39.4388 20.5972 39.2748 20.5913C39.2471 20.5893 39.0001 20.5853 38.9368 20.5735C38.9289 20.5715 38.9724 20.5478 38.8933 20.5478C38.4329 20.5478 37.9507 20.5577 37.4922 20.5755C37.4171 20.5774 37.4961 20.6031 37.4447 20.6051C37.0692 20.6209 36.6621 20.6051 36.3044 20.6288C36.0633 20.6466 36.1523 20.6901 36.0258 20.7335C36.008 20.7395 35.8598 20.7415 35.8519 20.7672C35.8321 20.8284 35.9052 20.8976 35.8756 20.9648C35.8696 20.9786 35.672 20.9648 35.7886 20.9984C35.7965 21.0003 35.9408 21.0122 35.9764 21.0221C36.0021 21.032 35.9586 21.0557 36.008 21.0675C36.0594 21.0774 36.1147 21.0557 36.1977 21.0675C36.2807 21.0794 36.2452 21.1071 36.4112 21.109ZM82.1124 20.3838C81.982 20.4075 81.9622 20.3205 82.1045 20.3403C82.1105 20.3403 82.1203 20.3818 82.1124 20.3838ZM98.0748 20.2829C97.9028 20.3245 97.7842 20.2671 97.9068 20.2355C98.0273 20.2039 98.1281 20.2711 98.0748 20.2829ZM99.8653 20.2988C99.6637 20.3304 99.6301 20.2059 99.8455 20.2296C99.8593 20.2316 99.8752 20.2968 99.8653 20.2988ZM36.6167 20.7415C36.6147 20.7434 36.508 20.7454 36.506 20.7434C36.4487 20.7158 36.6621 20.7118 36.6167 20.7415ZM101.64 20.3165C101.577 20.3343 101.395 20.3165 101.474 20.2948C101.535 20.277 101.717 20.2948 101.64 20.3165ZM75.233 20.526C75.2291 20.528 75.154 20.53 75.1559 20.5221C75.1599 20.4984 75.2666 20.5043 75.233 20.526ZM104.656 20.2968C104.209 20.3047 103.94 20.4114 104.427 20.3956C104.513 20.3936 104.237 20.364 104.347 20.3541C104.553 20.3363 104.689 20.3996 104.897 20.364C104.934 20.3561 104.681 20.2968 104.656 20.2968ZM82.0373 20.4905C82.0353 20.4905 81.9306 20.4924 81.9266 20.4924C81.8693 20.4648 82.0828 20.4608 82.0373 20.4905ZM70.7686 20.613C70.7627 20.617 70.5176 20.6209 70.5097 20.6189C70.3813 20.5735 70.8773 20.5636 70.7686 20.613ZM89.1697 20.5043C89.2843 20.532 89.4227 20.534 89.5155 20.4984C89.4009 20.5004 89.2843 20.5023 89.1697 20.5043Z" fill="white"/>
<path d="M27.7886 27.7909L16.7848 16.787L34.9012 16.6507L46.1146 27.864L27.7886 27.7909Z" fill="white"/>
<path d="M21.107 36.4133C21.1129 36.8007 21.101 37.3086 21.0872 37.6959C21.0833 37.8165 21.0674 37.7552 21.0635 37.8382C21.0556 38.0023 21.0635 38.1544 21.0536 38.3145C21.0516 38.3679 21.0279 38.3026 21.0239 38.358C21.0121 38.6643 21.016 38.9568 21.0081 39.2671C20.9706 40.8007 20.9508 42.3086 20.9291 43.8599C20.9212 44.3718 20.8935 44.9943 20.8995 45.5239C20.9014 45.5852 20.9232 45.5496 20.9251 45.5595C20.9508 45.7453 20.9073 45.684 20.9014 45.8026C20.8737 46.2809 20.8678 46.8105 20.8738 47.271C20.8757 47.4666 20.9212 47.271 20.8955 47.4666C20.8935 47.4804 20.8698 47.431 20.8678 47.4844C20.8619 47.6069 20.8639 47.8362 20.8619 47.931C20.856 48.1129 20.856 48.1425 20.854 48.3144C20.852 48.5496 20.8382 48.8283 20.8421 49.0792C20.8421 49.1346 20.8678 49.0634 20.8698 49.1484C20.8738 49.2334 20.8698 49.4607 20.8639 49.5378C20.8579 49.6148 20.8402 49.5812 20.8362 49.5951C20.7987 49.7057 20.8461 49.9686 20.8481 50.0022C20.8639 50.6188 20.8322 51.1464 20.8283 51.7255C20.8243 52.1642 20.8303 52.6346 20.8263 53.0516C20.8224 53.5496 20.8066 53.9705 20.8046 54.4547C20.8046 54.5061 20.8322 54.4468 20.8322 54.5081C20.8303 55.1701 20.8224 55.8282 20.8006 56.4863C20.7967 56.5535 20.773 56.4665 20.769 56.5337C20.7473 56.9369 20.6939 57.5772 20.7986 57.8183C20.7927 58.091 20.7868 58.4251 20.7631 58.6701C20.7473 58.8282 20.7216 58.674 20.7315 58.8677C20.7334 58.9112 20.7572 58.8539 20.7591 58.9211C20.767 59.1978 20.7572 59.4982 20.767 59.7729C20.769 59.8282 20.7888 59.8124 20.7927 59.8282C20.8224 59.9606 20.771 60.1819 20.767 60.2294C20.7374 60.595 20.7453 60.8618 20.7433 61.2037C20.7413 61.2827 20.771 61.1898 20.771 61.2649C20.773 61.6602 20.767 62.0693 20.7512 62.4566C20.7473 62.5416 20.7255 62.4625 20.7216 62.504C20.7097 62.6839 20.7552 62.7254 20.7433 62.8993C20.7413 62.9349 20.7216 62.9151 20.7176 62.921C20.682 63.0258 20.7315 63.1167 20.7334 63.1444C20.7453 63.4843 20.6919 63.7017 20.6959 64.0297C20.6979 64.0693 20.7236 63.9803 20.7236 64.091C20.7255 64.8282 20.7137 65.6068 20.688 66.3361C20.684 66.4487 20.6643 66.3677 20.6623 66.3756C20.6228 66.4922 20.6742 66.5673 20.6742 66.6048C20.686 66.8953 20.6425 67.1681 20.7018 67.3657C20.6722 68.6009 20.6959 69.8301 20.6346 71.0554C20.6327 71.0712 20.6089 71.0415 20.6069 71.0732C20.5911 71.4467 20.6287 71.3755 20.6742 71.6245C20.686 71.6858 20.6287 71.8755 20.6228 71.8913C20.607 71.9526 20.5714 71.8894 20.5674 71.9091C20.5437 72.0791 20.6662 72.0534 20.6643 72.2807C20.6643 72.2886 20.6425 72.2589 20.6386 72.2767C20.6327 72.336 20.6405 72.3953 20.6326 72.4546C20.6129 72.587 20.5536 72.6344 20.5872 72.838C20.5911 72.8637 20.6603 72.8261 20.6564 73.0297C20.6544 73.1107 20.6524 73.4704 20.6485 73.5712C20.6425 73.672 20.6208 73.6028 20.6188 73.6107C20.5872 73.8815 20.5773 73.7787 20.5319 73.915C20.4864 74.0494 20.5911 74.0139 20.603 74.0692C20.6129 74.1245 20.5872 74.3241 20.5793 74.3716C20.5714 74.421 20.5575 74.3597 20.5516 74.4032C20.518 74.6917 20.603 74.5297 20.6188 74.6265C20.6564 74.8498 20.5773 75.0237 20.5674 75.2293C20.5655 75.2846 20.5832 75.2392 20.5852 75.2886C20.5892 75.4842 20.5654 75.6028 20.5852 75.8241C20.5892 75.8617 20.6346 76.0415 20.599 76.1581C20.5931 76.1739 20.5753 76.1265 20.5694 76.2115C20.5635 76.336 20.5575 76.5593 20.5615 76.6937C20.5674 76.7925 20.5991 76.6799 20.5892 76.8044C20.5833 76.8597 20.5655 76.7569 20.5576 76.8597C20.5516 76.9644 20.5497 77.2273 20.5497 77.3281C20.5497 77.4289 20.5734 77.3735 20.5753 77.3814C20.5852 77.4308 20.5951 77.6245 20.5951 77.6403C20.5911 78.5 20.5457 79.2905 20.5516 80.1284C20.5536 80.1936 20.5793 80.1502 20.5793 80.1601C20.5872 80.3854 20.522 80.2075 20.4983 80.3636C20.5496 80.3419 20.5398 80.4348 20.5437 80.5929C20.5477 80.668 20.5674 80.6265 20.5694 80.6344C20.599 80.747 20.5595 80.8261 20.5497 80.8458C20.52 80.9209 20.5556 81.0019 20.5338 81.0533C20.5141 81.1047 20.4864 80.9861 20.4864 81.1383C20.5042 81.1818 20.5536 81.0692 20.5595 81.1838C20.5872 81.6186 20.5437 82.4308 20.5358 82.7786C20.5299 83.1284 20.5319 83.2411 20.524 83.4446C20.5101 83.8122 20.5457 83.6778 20.5615 83.9051C20.5753 84.1344 20.4884 84.0217 20.4706 84.0553C20.4508 84.0869 20.4706 84.1225 20.4587 84.162C20.4489 84.2015 20.437 84.1146 20.4311 84.2094C20.4271 84.3043 20.4588 84.5612 20.4785 84.5948C20.52 84.666 20.5654 84.5494 20.5477 84.7984C20.5457 84.8142 20.524 84.7667 20.52 84.8221C20.5002 85.2569 20.4963 85.7094 20.4765 86.1442C20.4745 86.2035 20.4489 86.1501 20.4469 86.1857C20.4291 86.5474 20.4726 86.4189 20.518 86.6185C20.4548 86.5731 20.4153 86.6818 20.4133 86.9584C20.4113 87.1225 20.439 87.0948 20.4587 87.2015C20.4647 87.2351 20.4449 87.3517 20.4568 87.3734C20.5002 87.4426 20.5496 87.3319 20.5279 87.6165C20.5259 87.6284 20.5042 87.5889 20.5022 87.6324C20.4904 87.911 20.5358 87.9446 20.5378 88.245C20.5418 88.4802 20.5101 88.8991 20.5042 89.1679C20.433 89.162 20.4469 89.4149 20.4963 89.5177C20.4923 89.6916 20.4943 89.8794 20.4864 90.0474C20.4825 90.1067 20.4627 90.0671 20.4607 90.075C20.4251 90.1877 20.4726 90.2628 20.4726 90.3003C20.4884 90.7074 20.4508 91.0394 20.4825 91.4288C20.4844 91.4426 20.5338 91.4643 20.4963 91.5691C20.4943 91.575 20.4726 91.4466 20.4686 91.6303C20.4666 91.8122 20.437 92.158 20.4587 92.411C20.4627 92.4722 20.5022 92.6283 20.4706 92.7529C20.4666 92.7706 20.4508 92.7509 20.4429 92.7746C20.4172 92.8536 20.4686 92.8952 20.4251 92.9861C20.3817 93.077 20.3481 93.2667 20.3757 93.5236C20.3757 93.5315 20.4153 93.5908 20.4133 93.6718C20.4113 93.8003 20.4034 93.9841 20.4014 94.1185C20.4014 94.1817 20.4271 94.1402 20.4271 94.1521C20.437 94.5849 20.4133 94.8912 20.4014 95.3536C20.3975 95.4386 20.4311 95.6837 20.4034 95.8477C20.3718 96.0276 20.2512 95.8418 20.2769 96.2568C20.2868 96.4228 20.441 96.6362 20.358 96.9366C20.3738 97.5196 20.3303 98.0592 20.354 98.6422C20.354 98.6698 20.3975 98.7528 20.3955 98.8141C20.3955 98.907 20.3738 98.9564 20.3718 99.0216C20.3639 99.2963 20.3797 99.5473 20.3757 99.8121C20.3738 99.9129 20.352 99.8773 20.3501 99.9979C20.3481 100.116 20.3757 100.197 20.3619 100.36C20.35 100.482 20.2927 100.605 20.2848 100.767C20.3402 100.773 20.3382 100.885 20.352 101.083C20.354 101.122 20.3738 101.081 20.3757 101.099C20.3856 101.172 20.3698 101.241 20.3797 101.31C20.3817 101.328 20.4014 101.328 20.4034 101.342C20.4311 101.46 20.3876 101.654 20.3797 101.688C20.3501 101.816 20.3757 101.875 20.3639 101.974C20.352 102.071 20.3382 101.925 20.3303 102.039C20.3145 102.277 20.3164 102.581 20.3145 102.822C20.3125 102.919 20.3382 102.854 20.3382 102.867C20.3441 103.065 20.3164 103.267 20.3659 103.377C20.2334 103.514 20.3777 103.498 20.3481 103.782C20.3461 103.804 20.2848 103.832 20.2769 103.747C20.267 103.66 20.2888 103.529 20.2749 103.411C20.271 103.381 20.2157 103.219 20.2117 103.197C20.186 103.026 20.2789 103.002 20.2828 102.992C20.3382 102.889 20.2769 102.69 20.273 102.638C20.2552 102.399 20.271 102.197 20.2571 101.998C20.2492 101.867 20.19 101.856 20.1919 101.753C20.1999 101.413 20.2848 101.294 20.2156 100.974C20.1998 100.905 20.1326 100.972 20.186 100.727C20.19 100.711 20.2394 100.53 20.2097 100.423C20.2058 100.409 20.186 100.409 20.186 100.393C20.1761 100.275 20.1919 100.197 20.186 100.069C20.1781 99.9406 20.1682 99.7884 20.1761 99.6422C20.1801 99.5532 20.2176 99.4425 20.2275 99.3991C20.2532 99.2805 20.2117 99.154 20.2433 99.0809C20.275 99.0058 20.3204 99.152 20.3422 98.9564C20.2908 98.9505 20.2413 98.9327 20.19 98.9208C20.1959 98.4939 20.2137 98.0749 20.2156 97.6461C20.2156 97.5947 20.188 97.6481 20.188 97.5908C20.184 97.3516 20.2058 97.1422 20.1998 96.8931C20.1959 96.6995 20.1682 96.488 20.1623 96.2884C20.2196 96.1639 20.2038 95.8655 20.2097 95.6481C20.2117 95.573 20.2275 95.5789 20.2334 95.5236C20.2532 95.32 20.2018 95.4149 20.1939 95.3596C20.1623 95.1185 20.2769 95.0987 20.2749 94.8161C20.2749 94.8023 20.2157 94.6185 20.2117 94.5928C20.188 94.4327 20.2335 94.5671 20.2394 94.4663C20.2473 94.2825 20.2631 94.156 20.2473 93.9406C20.2433 93.8773 20.2058 93.7272 20.2354 93.6046C20.2394 93.5888 20.2591 93.5987 20.2611 93.5849C20.2829 93.3517 20.2196 93.3457 20.1998 93.2133C20.1781 93.0789 20.2236 92.8734 20.2374 92.8319C20.269 92.7213 20.2492 92.9149 20.2532 92.9209C20.2907 92.992 20.2848 92.8418 20.2888 92.7272C20.35 92.7114 20.3481 92.5493 20.2927 92.6086C20.2868 92.6145 20.2927 92.7034 20.2888 92.7272C20.2295 92.6264 20.2216 92.4485 20.2809 92.2548C20.3085 92.1639 20.3382 92.2509 20.3283 91.9722C20.3244 91.8477 20.2809 91.8952 20.271 91.7845C20.2453 91.5315 20.2888 91.2015 20.2828 90.9406C20.2828 90.8458 20.2591 90.9387 20.2571 90.8734C20.2512 90.7015 20.269 90.5493 20.2611 90.3774C20.2611 90.3616 20.2374 90.3991 20.2374 90.3458C20.2374 89.9387 20.2552 89.5829 20.2591 89.158C20.2591 88.9525 20.2492 88.5849 20.2532 88.3735C20.2611 88.0039 20.2987 87.5513 20.2927 87.2351C20.2888 87.0296 20.2651 87.075 20.2473 86.9861C20.2176 86.8161 20.2769 86.5158 20.2868 86.4762C20.2868 86.4742 20.2907 86.6501 20.3046 86.5573C20.3303 86.5019 20.2868 86.4782 20.2868 86.4762C20.2927 86.4486 20.3006 86.0948 20.2967 86.0256C20.2947 85.9881 20.271 86.0079 20.269 85.9881C20.2532 85.5158 20.2493 85.0434 20.2651 84.5632C20.2651 84.5553 20.2908 84.5691 20.2908 84.5493C20.3046 84.2707 20.2749 84.0928 20.2571 83.8636C20.2394 83.6363 20.2473 83.4545 20.2927 83.3181C20.2888 83.1462 20.3105 82.8992 20.3224 82.7569C20.3362 82.6146 20.2868 82.5948 20.2848 82.581C20.2552 82.1897 20.2868 81.9644 20.2947 81.5592C20.2967 81.3656 20.2927 80.9842 20.2888 80.7747C20.2848 80.6087 20.2987 80.5099 20.2908 80.3577C20.2908 80.3379 20.269 80.3577 20.267 80.3518C20.2413 80.1818 20.2967 80.2628 20.3066 80.2292C20.3421 80.1028 20.3619 80.0237 20.3461 79.8063C20.3441 79.7569 20.2651 79.6087 20.2611 79.5178C20.2572 79.3992 20.2848 79.4446 20.2789 79.3201C20.2789 79.3083 20.2611 79.3103 20.2611 79.2352C20.2671 78.8775 20.2809 78.4901 20.2809 78.1186C20.2809 78.0692 20.2532 78.1324 20.2532 78.0593C20.2532 77.7174 20.2571 77.3419 20.271 77.0079C20.2749 76.9249 20.2947 76.9763 20.3006 76.9585C20.3362 76.8498 20.2868 76.6937 20.2848 76.668C20.2651 76.0554 20.3145 75.589 20.2967 74.9645C20.2967 74.9309 20.2433 74.668 20.2908 74.5534C20.2947 74.5455 20.3421 74.4289 20.3105 74.3281C20.3085 74.3222 20.2848 74.3933 20.2868 74.2668C20.2908 74.1423 20.2769 73.9408 20.3046 73.7688C20.3125 73.7135 20.3619 73.585 20.3244 73.421C20.3224 73.4111 20.2374 73.1601 20.2987 73.0692C20.3085 73.0554 20.3698 73.0712 20.3402 72.8775C20.3342 72.84 20.3184 72.9072 20.3105 72.8083C20.2987 72.6581 20.3165 72.4605 20.2908 72.2767C20.2868 72.2431 20.2453 72.1068 20.2769 71.9981C20.2829 71.9803 20.3026 72.0139 20.3066 71.9546C20.3184 71.6799 20.3066 71.3914 20.3244 71.1107C20.3303 71.0119 20.3619 71.0633 20.3718 70.9605C20.3817 70.8578 20.3935 70.6483 20.3777 70.5415C20.3639 70.4328 20.3085 70.5495 20.3046 70.3894C20.2927 69.6839 20.3283 68.9862 20.3382 68.2846C20.3401 68.1799 20.3204 68.2669 20.3204 68.1127C20.3224 67.5455 20.3125 66.5673 20.356 66.0771C20.3915 65.6839 20.4133 66.1799 20.4291 65.8775C20.437 65.7333 20.3738 65.5752 20.3738 65.5396C20.356 65.1977 20.3856 64.9606 20.3777 64.6523C20.3777 64.589 20.352 64.6503 20.3501 64.5969C20.3481 64.4112 20.3599 64.2175 20.3599 64.0396C20.3599 63.9606 20.3402 63.9744 20.3422 63.9013C20.3461 63.7274 20.356 63.5732 20.3738 63.4033C20.3757 63.3874 20.3995 63.4922 20.4014 63.3638C20.4054 63.1543 20.4251 62.8954 20.4073 62.6543C20.4034 62.5831 20.3579 62.5792 20.3896 62.425C20.3975 62.3934 20.4489 62.4349 20.4054 62.257C20.3975 62.2254 20.3382 61.925 20.3777 61.7788C20.3896 61.7393 20.4331 61.6404 20.4271 61.5554C20.4271 61.5436 20.4014 61.5891 20.3994 61.5179C20.3935 61.2669 20.3994 61.0041 20.3935 60.7472C20.3915 60.678 20.3658 60.7808 20.3639 60.678C20.3599 60.3954 20.3698 60.0436 20.3797 59.7689C20.3817 59.6661 20.4034 59.7373 20.4054 59.7294C20.441 59.6108 20.3935 59.5396 20.3915 59.5021C20.3757 59.2551 20.3994 59.0693 20.3955 58.842C20.3935 58.7808 20.3698 58.8242 20.3678 58.8124C20.3501 58.6819 20.3896 58.7788 20.3955 58.6978C20.4093 58.4685 20.4093 58.2136 20.4093 57.9824C20.4093 57.8974 20.3817 57.9922 20.3797 57.9171C20.3797 57.4665 20.3856 56.9962 20.4034 56.5575C20.4073 56.4745 20.4271 56.5258 20.4311 56.51C20.4667 56.3895 20.4212 56.2156 20.4172 56.176C20.3995 55.9922 20.4192 55.9211 20.4152 55.761C20.4054 54.9725 20.4232 54.0002 20.437 53.2571C20.4528 52.2887 20.4785 51.5377 20.4805 50.6128C20.4805 50.5535 20.4508 50.6128 20.4508 50.5634C20.4489 49.9093 20.4647 49.267 20.4607 48.6109C20.4607 48.5575 20.435 48.6346 20.433 48.5496C20.4311 48.3718 20.433 48.1484 20.4429 47.9686C20.4489 47.8816 20.4706 47.9982 20.4745 47.9113C20.4844 47.7058 20.4864 47.4883 20.4844 47.2769C20.4824 47.1879 20.4548 47.3223 20.4568 47.2057C20.4587 46.4152 20.4607 45.6386 20.5002 44.8382C20.5022 44.7848 20.5575 44.7354 20.5477 44.6188C20.5338 44.6109 20.516 44.6109 20.5002 44.6069C20.4982 43.4548 20.5259 42.3145 20.5378 41.1603C20.5378 41.1109 20.5082 41.1959 20.5082 41.101C20.5141 40.5556 20.5082 40.0259 20.5417 39.4667C20.5457 39.4113 20.5951 39.441 20.5892 39.277C20.5872 39.2493 20.5833 39.0022 20.5714 38.939C20.5694 38.9311 20.5457 38.9746 20.5457 38.8955C20.5457 38.435 20.5556 37.9528 20.5734 37.4943C20.5753 37.4192 20.601 37.4983 20.603 37.4469C20.6188 37.0714 20.603 36.6643 20.6267 36.3066C20.6445 36.0655 20.688 36.1544 20.7315 36.028C20.7374 36.0102 20.7394 35.8619 20.7651 35.854C20.8263 35.8343 20.8955 35.9074 20.9627 35.8778C20.9765 35.8718 20.9627 35.6742 20.9963 35.7908C20.9983 35.7987 21.0101 35.943 21.02 35.9785C21.0299 36.0042 21.0536 35.9588 21.0655 36.0102C21.0753 36.0616 21.0536 36.1169 21.0655 36.1999C21.0773 36.2829 21.105 36.2473 21.107 36.4133ZM20.3817 82.1146C20.4054 81.9842 20.3184 81.9644 20.3382 82.1067C20.3382 82.1126 20.3797 82.1225 20.3817 82.1146ZM20.2809 98.0769C20.3224 97.905 20.2651 97.7864 20.2334 97.909C20.2018 98.0295 20.269 98.1303 20.2809 98.0769ZM20.2967 99.8655C20.3283 99.6658 20.2038 99.6323 20.2275 99.8477C20.2295 99.8615 20.2947 99.8773 20.2967 99.8655ZM20.7394 36.6189C20.7413 36.6169 20.7433 36.5102 20.7413 36.5082C20.7137 36.4509 20.7097 36.6643 20.7394 36.6189ZM20.3145 101.642C20.3323 101.579 20.3145 101.397 20.2927 101.476C20.2749 101.537 20.2927 101.719 20.3145 101.642ZM20.524 75.2332C20.5259 75.2313 20.5279 75.1562 20.52 75.1562C20.4963 75.1621 20.5022 75.2688 20.524 75.2332ZM20.2947 104.658C20.3026 104.211 20.4093 103.943 20.3935 104.429C20.3915 104.516 20.3619 104.239 20.352 104.35C20.3342 104.555 20.3975 104.692 20.3619 104.899C20.354 104.937 20.2947 104.684 20.2947 104.658ZM20.4884 82.0395C20.4884 82.0375 20.4904 81.9308 20.4904 81.9288C20.4627 81.8715 20.4587 82.085 20.4884 82.0395ZM20.6109 70.7708C20.6148 70.7649 20.6188 70.5198 20.6168 70.5119C20.5714 70.3834 20.5615 70.8795 20.6109 70.7708ZM20.5022 89.1719C20.5299 89.2865 20.5318 89.4248 20.4963 89.5177C20.4983 89.4031 20.5002 89.2865 20.5022 89.1719Z" fill="url(#paint1_linear_35_13)"/>
<path d="M27.7887 27.7909L16.7848 16.787L16.6485 34.9035L27.8618 46.1149L27.7887 27.7909Z" fill="white"/>
<path d="M28.4823 175.693C29.1404 176.406 29.8084 177.116 30.4902 177.816H30.4882L31.9052 176.44C32.2392 176.782 32.5772 177.124 32.9171 177.464C33.257 177.804 33.5989 178.142 33.9428 178.476L32.5633 179.889C33.2649 180.57 33.9724 181.238 34.6858 181.897L36.0238 180.446C36.7293 181.096 37.4427 181.734 38.1621 182.359L36.8657 183.847C37.6008 184.487 38.3439 185.116 39.0929 185.732L40.3478 184.211C41.0889 184.819 41.838 185.418 42.5909 186.003L41.3775 187.561C42.1482 188.159 42.9249 188.742 43.7075 189.317L44.8755 187.727C45.6482 188.294 46.4288 188.847 47.2154 189.391L46.0929 191.015C46.8953 191.568 47.7055 192.11 48.5197 192.638L49.5948 190.983C50.3992 191.505 51.2075 192.015 52.0217 192.513L50.992 194.197C51.826 194.705 52.664 195.201 53.5098 195.685L54.4901 193.972C55.3201 194.446 56.158 194.908 56.9979 195.359L56.0671 197.098C56.9268 197.559 57.7924 198.005 58.6639 198.44L59.5454 196.675C60.4011 197.102 61.2608 197.515 62.1264 197.916L61.2924 199.711C62.1777 200.122 63.0691 200.517 63.9643 200.902L64.7449 199.09C65.6224 199.468 66.5058 199.833 67.3931 200.185L66.6639 202.017C67.571 202.379 68.4801 202.726 69.3951 203.06L70.0729 201.207C70.9721 201.533 71.8733 201.849 72.7805 202.151L72.1559 204.023C73.0808 204.331 74.0077 204.628 74.9385 204.908L75.5117 203.019C76.4267 203.296 77.3456 203.558 78.2666 203.809L77.7488 205.715C78.6895 205.97 79.6322 206.213 80.5768 206.442L81.0432 204.523C81.9741 204.748 82.9049 204.962 83.8397 205.159L83.4306 207.088C84.3831 207.292 85.3377 207.481 86.2961 207.657L86.6539 205.717C87.5926 205.888 88.5373 206.049 89.4799 206.193L89.1776 208.145C90.14 208.294 91.1064 208.428 92.0728 208.551L92.3198 206.592C93.2684 206.713 94.2171 206.819 95.1677 206.912L94.976 208.875C95.9463 208.969 96.9167 209.052 97.889 209.122L98.0253 207.151C98.9799 207.218 99.9344 207.272 100.889 207.311L100.808 209.284C101.78 209.323 102.755 209.351 103.729 209.365L103.755 207.392C104.711 207.404 105.668 207.404 106.624 207.392L106.652 209.365C107.624 209.351 108.598 209.323 109.571 209.284L109.492 207.311C110.446 207.272 111.399 207.218 112.353 207.151L112.49 209.122C113.462 209.052 114.432 208.969 115.403 208.875L115.211 206.912C116.162 206.819 117.112 206.713 118.061 206.592L118.306 208.551C119.272 208.428 120.239 208.294 121.201 208.145L120.899 206.193C121.841 206.049 122.786 205.888 123.727 205.717L124.084 207.657C125.041 207.481 125.996 207.292 126.95 207.088L126.539 205.159C127.474 204.962 128.407 204.748 129.335 204.523L129.802 206.442C130.746 206.213 131.691 205.97 132.63 205.715L132.112 203.809C133.033 203.558 133.952 203.296 134.867 203.019L135.44 204.908C136.371 204.628 137.298 204.331 138.223 204.023L137.6 202.151C138.505 201.849 139.406 201.533 140.306 201.207L140.984 203.06C141.899 202.726 142.81 202.379 143.717 202.017L142.986 200.185C143.873 199.833 144.756 199.468 145.634 199.09L146.414 200.902C147.31 200.517 148.201 200.122 149.086 199.711L148.254 197.916C149.118 197.515 149.978 197.102 150.833 196.675L151.715 198.44C152.586 198.005 153.452 197.559 154.313 197.098L153.381 195.359C154.221 194.908 155.059 194.446 155.889 193.972L156.871 195.685C157.715 195.201 158.553 194.705 159.387 194.197L158.357 192.513C159.171 192.015 159.981 191.505 160.784 190.983L161.859 192.638C162.673 192.11 163.483 191.568 164.286 191.015L163.163 189.391C163.95 188.847 164.73 188.294 165.505 187.727L166.671 189.317C167.454 188.742 168.23 188.159 169.001 187.561L167.79 186.001C168.543 185.416 169.29 184.819 170.031 184.211L171.286 185.732C172.037 185.116 172.778 184.487 173.513 183.847L172.217 182.359C172.936 181.734 173.649 181.096 174.355 180.446L175.693 181.897C176.408 181.238 177.116 180.57 177.815 179.889L176.436 178.476C176.78 178.142 177.122 177.804 177.462 177.464C177.801 177.124 178.139 176.782 178.473 176.44L179.89 177.816C180.57 177.116 181.24 176.406 181.896 175.693L180.444 174.357C181.094 173.652 181.732 172.938 182.359 172.219L183.847 173.513C184.487 172.778 185.118 172.035 185.732 171.286L184.207 170.033C184.817 169.292 185.414 168.545 186.001 167.79L187.56 169.001C188.159 168.231 188.744 167.454 189.317 166.671L187.726 165.505C188.292 164.733 188.847 163.952 189.388 163.165L191.013 164.288C191.568 163.484 192.11 162.675 192.637 161.859L190.983 160.786C191.505 159.982 192.015 159.173 192.511 158.359L194.197 159.387C194.705 158.553 195.201 157.715 195.683 156.871L193.969 155.891C194.444 155.061 194.906 154.225 195.355 153.383L197.096 154.314C197.558 153.452 198.005 152.586 198.44 151.715L196.673 150.835C197.1 149.98 197.515 149.12 197.916 148.254L199.71 149.086C200.121 148.201 200.517 147.31 200.902 146.415L199.088 145.636C199.465 144.758 199.831 143.875 200.183 142.988L202.017 143.715C202.376 142.808 202.726 141.899 203.058 140.986L201.202 140.308C201.531 139.411 201.847 138.507 202.149 137.602L204.021 138.225C204.329 137.3 204.625 136.371 204.906 135.438L203.017 134.869C203.293 133.954 203.558 133.035 203.809 132.114L205.714 132.63C205.971 131.689 206.212 130.747 206.442 129.802L204.521 129.338C204.746 128.409 204.959 127.476 205.157 126.541L207.09 126.95C207.291 125.996 207.481 125.041 207.657 124.083L205.714 123.729C205.886 122.788 206.044 121.846 206.191 120.901L208.143 121.203C208.293 120.239 208.428 119.272 208.548 118.306L206.592 118.061C206.71 117.112 206.817 116.162 206.91 115.211L208.874 115.403C208.969 114.433 209.052 113.462 209.119 112.492L207.151 112.354C207.216 111.401 207.27 110.446 207.309 109.492L209.281 109.573C209.323 108.601 209.351 107.626 209.365 106.652L207.388 106.626C207.402 105.672 207.402 104.713 207.388 103.759L209.365 103.729C209.351 102.755 209.325 101.78 209.283 100.808L207.309 100.891C207.27 99.9366 207.216 98.9821 207.149 98.0295L209.119 97.8892C209.052 96.9169 208.971 95.9465 208.874 94.9762L206.91 95.1699C206.817 94.2193 206.71 93.2687 206.592 92.3201L208.55 92.073C208.428 91.1066 208.293 90.1422 208.143 89.1798L206.193 89.4821C206.046 88.5375 205.888 87.5948 205.714 86.6541L207.657 86.2964C207.481 85.3379 207.289 84.3834 207.088 83.4308L205.157 83.8419C204.957 82.9071 204.748 81.9743 204.523 81.0454L206.442 80.5791C206.212 79.6324 205.971 78.6897 205.716 77.749L203.809 78.2688C203.558 77.3478 203.295 76.4289 203.019 75.5139L204.906 74.9407C204.625 74.0079 204.331 73.0811 204.023 72.1562L202.149 72.7827C201.847 71.8775 201.533 70.9724 201.204 70.0752L203.058 69.3973C202.724 68.4823 202.378 67.5712 202.019 66.6641L200.183 67.3953C199.831 66.51 199.465 65.6246 199.086 64.7471L200.902 63.9645C200.517 63.0693 200.12 62.18 199.708 61.2946L197.916 62.1266C197.515 61.263 197.1 60.4033 196.673 59.5476L198.44 58.6642C198.005 57.7926 197.556 56.929 197.096 56.0674L195.357 57.0002C194.906 56.1583 194.444 55.3243 193.969 54.4923L195.683 53.5101C195.201 52.6662 194.707 51.8263 194.199 50.9943L192.511 52.0239C192.013 51.2097 191.505 50.3994 190.983 49.5971L192.637 48.5219C192.108 47.7057 191.568 46.8955 191.015 46.0931L189.388 47.2156C188.847 46.4311 188.292 45.6504 187.724 44.8777L189.317 43.7077C188.744 42.9251 188.159 42.1485 187.56 41.3777L186.001 42.5912C185.416 41.8382 184.817 41.0892 184.209 40.3501L185.732 39.0932C185.116 38.3442 184.487 37.6011 183.847 36.8659L182.359 38.1623C181.732 37.4449 181.094 36.7315 180.446 36.026L181.896 34.6881C181.238 33.9726 180.57 33.2632 179.89 32.5636L178.473 33.943L177.464 32.9193C177.124 32.5794 176.782 32.2414 176.438 31.9074L177.815 30.4905C177.116 29.8087 176.406 29.1407 175.691 28.4826L174.355 29.9371C173.649 29.2869 172.936 28.6486 172.217 28.0221L173.513 26.532C172.778 25.8917 172.035 25.2632 171.286 24.6466L170.033 26.1723C169.292 25.5636 168.543 24.9648 167.79 24.3798L169.001 22.8186C168.27 22.2514 167.535 21.6961 166.792 21.1506L166.671 21.0617L165.503 22.6565C164.728 22.0893 163.95 21.534 163.163 20.9905L164.288 19.366C163.483 18.8107 162.673 18.2712 161.859 17.7415L160.784 19.3976C159.981 18.8759 159.171 18.368 158.357 17.87L159.385 16.1842C158.6 15.704 157.811 15.2376 157.015 14.7811L156.871 14.6981L155.889 16.4135C155.059 15.9372 154.223 15.4747 153.383 15.0242L154.313 13.2831C153.452 12.8226 152.586 12.374 151.715 11.9392L150.833 13.708C149.98 13.2811 149.118 12.8661 148.254 12.4649L149.084 10.6724V10.6704C148.199 10.2594 147.31 9.86212 146.414 9.47675L145.634 11.293C144.754 10.9155 143.873 10.5519 142.986 10.2001L143.715 8.36217C142.808 8.00249 141.899 7.65465 140.984 7.32066L140.308 9.17637C139.408 8.84831 138.505 8.53411 137.6 8.23371L138.225 6.35822C137.3 6.04992 136.369 5.75546 135.438 5.47285L134.869 7.36415C133.952 7.08747 133.033 6.82265 132.112 6.57166L132.63 4.6665C131.752 4.42737 130.875 4.20009 129.993 3.98468L129.8 3.93728L129.335 5.86017C128.407 5.63488 127.474 5.42343 126.539 5.22383L126.948 3.29104C125.995 3.08946 125.039 2.89971 124.082 2.72382L123.727 4.6665C122.786 4.49456 121.843 4.33449 120.901 4.19022L121.201 2.23572V2.23373C120.239 2.08551 119.272 1.9511 118.306 1.83055L118.061 3.78903C117.112 3.67046 116.162 3.56378 115.211 3.47089L115.403 1.50451C114.432 1.40965 113.462 1.32665 112.49 1.25748V1.2614L112.351 3.23176C111.399 3.16456 110.444 3.11122 109.49 3.07169L109.573 1.09735C108.598 1.05585 107.626 1.0282 106.652 1.01436V1.01635L106.624 2.99262C105.668 2.97879 104.713 2.97878 103.757 2.99063L103.729 1.01635V1.01436C102.755 1.0282 101.78 1.05585 100.806 1.09735L100.889 3.07169C99.9344 3.11122 98.9799 3.16456 98.0273 3.23176L97.889 1.2614V1.25748C96.9167 1.32665 95.9463 1.40965 94.976 1.50451L95.1677 3.47089C94.2171 3.56378 93.2684 3.67046 92.3198 3.78903L92.0728 1.83055C91.1064 1.9511 90.142 2.08551 89.1776 2.23373V2.23572L89.4799 4.19022C88.5353 4.33449 87.5926 4.49456 86.6519 4.6665L86.2961 2.72382C85.3396 2.89971 84.3831 3.08946 83.4306 3.29104L83.8397 5.22383C82.9049 5.42343 81.9721 5.63488 81.0432 5.86017L80.5788 3.93728C79.6322 4.16652 78.6895 4.40958 77.7508 4.6665L78.2666 6.57166C77.3456 6.82265 76.4267 7.08747 75.5097 7.36415L74.9405 5.47285C74.0097 5.75546 73.0808 6.04992 72.154 6.35822L72.7805 8.23371C71.8733 8.53411 70.9702 8.84831 70.0729 9.17637L69.3951 7.32066C68.4801 7.65465 67.571 8.00249 66.6639 8.36217L67.3931 10.2001C66.5078 10.5519 65.6244 10.9155 64.7449 11.293L63.9643 9.47675C63.0691 9.86212 62.1797 10.2594 61.2944 10.6704V10.6724L62.1264 12.4649C61.2608 12.8661 60.4011 13.2811 59.5454 13.708L58.6639 11.9392C57.7924 12.374 56.9268 12.8226 56.0671 13.2831L56.9979 15.0242C56.156 15.4747 55.3201 15.9372 54.4901 16.4135L53.5098 14.6981C52.7154 15.1507 51.9268 15.6151 51.1422 16.0913L50.994 16.1842L52.0237 17.87C51.2075 18.368 50.3992 18.8759 49.5948 19.3976L48.5217 17.7415C47.7055 18.2712 46.8953 18.8107 46.0929 19.366L47.2154 20.9905C46.4288 21.534 45.6502 22.0893 44.8755 22.6565L43.7075 21.0617C42.9249 21.6348 42.1482 22.2198 41.3775 22.8186L42.5909 24.3798C41.836 24.9648 41.087 25.5636 40.3459 26.1723L39.0929 24.6466C38.3439 25.2632 37.6008 25.8917 36.8657 26.532L38.1621 28.0221C37.4427 28.6486 36.7293 29.2869 36.0238 29.9371L34.6878 28.4826C33.9724 29.1407 33.2649 29.8087 32.5633 30.4905L33.9408 31.9074C33.5969 32.2414 33.255 32.5794 32.9151 32.9193C32.5752 33.2592 32.2392 33.5991 31.9052 33.943L30.4902 32.5636C29.8084 33.2632 29.1404 33.9726 28.4843 34.6881L29.9349 36.026C29.2847 36.7315 28.6464 37.4449 28.0199 38.1623L26.5317 36.8659C25.8914 37.6011 25.263 38.3442 24.6464 39.0932L26.1701 40.3501C25.5614 41.0912 24.9626 41.8382 24.3776 42.5931L22.8183 41.3777C22.2215 42.1485 21.6365 42.9251 21.0614 43.7077L22.6543 44.8777C22.0871 45.6504 21.5318 46.4311 20.9903 47.2156L19.3638 46.0931C18.8104 46.8955 18.2709 47.7057 17.7413 48.5219L19.3954 49.5971C18.8737 50.3994 18.3658 51.2097 17.8697 52.0239L16.182 50.9943C15.6741 51.8263 15.1781 52.6662 14.6959 53.5101L16.4093 54.4923C15.935 55.3243 15.4725 56.1583 15.022 57.0002L13.2828 56.0674C12.8224 56.929 12.3737 57.7926 11.9389 58.6642L13.7058 59.5476C13.2789 60.4033 12.8639 61.263 12.4627 62.1266L10.6722 61.2966L10.6702 61.2946C10.2591 62.18 9.86191 63.0693 9.47654 63.9645L11.2927 64.7471C10.9152 65.6246 10.5497 66.51 10.1959 67.3953L8.3619 66.6641C8.00024 67.5712 7.65438 68.4823 7.32039 69.3973L9.17417 70.0752C8.84611 70.9724 8.53189 71.8775 8.22952 72.7827L6.35602 72.1562C6.04772 73.0811 5.75321 74.0079 5.47258 74.9407L7.35995 75.5139C7.08328 76.4289 6.8204 77.3478 6.57139 78.2688L4.66429 77.751L4.6623 77.749C4.40736 78.6897 4.16626 79.6324 3.93899 80.5791L3.93706 80.581L5.85598 81.0454C5.63266 81.9743 5.42123 82.9071 5.22163 83.8419L3.29077 83.4308C3.08919 84.3834 2.8975 85.3379 2.72161 86.2964L4.66429 86.6541C4.49236 87.5948 4.33227 88.5375 4.18603 89.4821L2.23545 89.1798C2.08525 90.1422 1.95088 91.1066 1.82835 92.073L3.78882 92.3201C3.66827 93.2687 3.56157 94.2193 3.46869 95.1699L1.50424 94.9762C1.40938 95.9465 1.32639 96.9169 1.25919 97.8892L3.22955 98.0295C3.16434 98.9821 3.11093 99.9366 3.06943 100.891L1.09515 100.808C1.05562 101.78 1.02798 102.755 1.01415 103.729L2.99042 103.759C2.97659 104.713 2.9746 105.67 2.98843 106.624L1.01415 106.652C1.02798 107.626 1.05564 108.601 1.09714 109.573L3.06943 109.492C3.10895 110.446 3.16236 111.401 3.22955 112.354L1.25919 112.492C1.32639 113.462 1.40938 114.433 1.50424 115.403L3.46869 115.211C3.56157 116.162 3.66827 117.112 3.78882 118.061L1.83034 118.306C1.95089 119.272 2.08525 120.239 2.23545 121.203L4.18802 120.901C4.33426 121.846 4.49237 122.788 4.66628 123.729L2.72161 124.083C2.8975 125.041 3.08721 125.996 3.29077 126.95L5.22163 126.541C5.41925 127.476 5.63267 128.409 5.85797 129.338L3.93706 129.802C4.16631 130.747 4.40935 131.689 4.66429 132.63L6.57139 132.114C6.82237 133.035 7.08527 133.954 7.36194 134.869L5.47258 135.438C5.75321 136.371 6.04965 137.3 6.35795 138.225L8.22952 137.602C8.53189 138.507 8.84807 139.411 9.17613 140.308L7.32039 140.986C7.65438 141.899 8.00222 142.808 8.3619 143.715L10.1959 142.988C10.5497 143.875 10.9133 144.758 11.2908 145.636L9.47654 146.415C9.86191 147.31 10.2572 148.201 10.6682 149.086L12.4627 148.254C12.8639 149.12 13.2789 149.98 13.7058 150.835L11.9389 151.715C12.3737 152.586 12.8224 153.452 13.2828 154.314L15.0239 153.383C15.4725 154.225 15.935 155.061 16.4093 155.891L14.6959 156.871C15.1781 157.715 15.6741 158.553 16.182 159.387L17.8678 158.359C18.3638 159.173 18.8737 159.982 19.3954 160.786L17.7413 161.859C18.2709 162.675 18.8124 163.484 19.3658 164.288L20.9903 163.165C21.5318 163.952 22.0871 164.733 22.6543 165.505L21.0614 166.671C21.6365 167.454 22.2215 168.231 22.8183 169.001L24.3776 167.79C24.9646 168.545 25.5614 169.292 26.1721 170.033L24.6464 171.286C25.263 172.035 25.8914 172.778 26.5317 173.513L28.0199 172.219C28.6464 172.938 29.2867 173.652 29.9349 174.357L28.4823 175.693Z" stroke="url(#paint2_radial_35_13)" stroke-width="2" stroke-dasharray="1.5 1.5"/>
<path opacity="0.5" d="M46.253 46.2552C13.7038 78.8043 13.7038 131.579 46.253 164.128C78.8022 196.677 131.577 196.677 164.126 164.128C196.675 131.579 196.675 78.8043 164.126 46.2552C131.577 13.706 78.8022 13.706 46.253 46.2552ZM60.9881 60.9902C85.399 36.5774 124.98 36.5774 149.391 60.9902C173.804 85.4012 173.804 124.982 149.391 149.393C124.98 173.806 85.399 173.806 60.9881 149.393C36.5752 124.982 36.5752 85.4012 60.9881 60.9902Z" fill="url(#paint3_radial_35_13)"/>
<path d="M100.162 40.8323C100.498 41.0833 102.968 41.2591 105.681 41.2236C110.369 41.1623 113.666 41.101 116.523 41.0516C116.84 41.0457 117.158 41.0418 117.474 41.0358C120.494 40.9825 123.144 40.939 126.865 40.9034C132.252 40.8738 136.26 40.8738 139.918 40.8718C149.517 40.8698 156.752 40.8659 180.347 40.3797C203.278 39.9074 249.997 39.7414 327.993 39.6169C349.803 39.5813 380.164 39.5101 410.594 39.439C410.951 39.437 411.31 39.4331 411.667 39.4331C442.472 39.3599 473.258 39.2888 495.301 39.2552C501.226 39.2453 507.146 39.2394 513.055 39.2354L513.793 39.2394L514.902 38.1307L513.055 38.1149C507.14 38.1821 501.231 38.2532 495.331 38.3283C473.238 38.3639 442.405 38.439 411.616 38.5121C411.27 38.5141 410.921 38.5101 410.573 38.5121C380.118 38.5833 349.793 38.6564 328.023 38.69C250.524 38.8145 202.556 38.9805 178.392 39.4785C155.865 39.9429 149.608 39.9429 140.335 39.9469C140.084 39.9469 139.829 39.9508 139.578 39.9528C139.563 39.9508 139.543 39.9469 139.527 39.9469C139.211 39.935 138.942 39.9291 138.804 39.9271C138.529 39.9212 138.302 39.9172 138.215 39.9172H137.096C135.44 39.9212 130.272 39.9449 126.177 39.9825C121.982 40.022 118.986 40.0753 115.832 40.1307C115.513 40.1366 115.191 40.1386 114.875 40.1445C112.031 40.1959 108.932 40.2493 104.476 40.3086C101.77 40.3441 99.8436 40.5813 100.162 40.8323Z" fill="white"/>
<path d="M44.5989 507.472C44.5989 507.652 44.5949 507.835 44.5949 508.016C44.7372 508.017 44.8795 508.015 45.0218 508.016L45.9427 507.095C45.9111 507.095 45.8775 507.095 45.8459 507.095C45.7689 447.241 45.8044 387.402 46.091 327.583C46.3222 279.072 46.3558 230.709 46.34 182.16C46.3261 141.693 45.8538 67.522 45.8044 50.0715C45.8024 48.7513 45.7491 47.5557 45.668 46.6782C47.9684 46.8956 52.7095 47.0873 57.6897 46.9727C58.0039 46.9668 58.3241 46.9569 58.6403 46.9529C61.6581 46.8996 64.3023 46.8541 68.0216 46.8205C73.4109 46.7909 77.4247 46.7909 81.0848 46.7889C90.6954 46.7849 157.385 46.619 180.983 46.1328C203.914 45.6605 250.7 46.1407 328.695 46.0162C350.523 45.9806 380.686 45.4826 411.189 45.6348C411.271 45.6348 411.356 45.6348 411.438 45.6348C441.717 45.785 472.253 45.9332 494.472 45.8996C499.042 45.8917 503.262 45.86 507.195 45.8383L508.121 44.9115C503.95 44.9371 499.442 44.9707 494.502 44.9786C472.648 45.0122 442.404 44.8601 411.901 44.7079H411.83C381.491 44.5577 350.715 43.9411 328.476 43.9767C250.979 44.0992 203.187 44.7356 179.025 45.2336C136.758 46.1031 88.816 45.1229 45.6384 46.2237H45.6068C45.5258 45.5597 45.4408 45.1605 45.3321 45.1664C45.2253 45.1822 45.1345 45.5992 45.0574 46.2751C43.8894 46.368 44.0119 46.4885 45.0119 46.617C44.9289 47.5241 44.8815 48.7869 44.8854 50.1723C44.9329 67.5002 45.4052 141.425 45.419 181.739C45.4348 230.191 45.3953 278.455 45.1641 326.871C44.8775 386.891 44.7056 446.978 44.5989 507.09C44.4724 507.089 44.3439 507.091 44.2175 507.09L44.5989 507.472Z" fill="white"/>
<path d="M150.114 51.0477C149.752 51.3006 151.655 51.5319 154.367 51.5615C157.173 51.5912 159.402 51.6188 161.432 51.6485C161.56 51.6485 161.691 51.6504 161.819 51.6524C163.936 51.682 165.942 51.7137 168.102 51.7295C168.825 51.7334 169.572 51.7354 170.27 51.7394C171.523 51.7512 172.952 51.771 174.659 51.7947C175.001 51.8006 175.357 51.8046 175.717 51.8105C178.039 51.8441 180.742 51.8816 183.792 51.9113C190.926 51.9844 199.971 52.0141 211.902 51.8461C215.03 51.8026 218.064 51.7591 221.025 51.7196C234.667 51.5338 246.809 51.3718 259.87 51.0121C261.661 50.9627 263.38 50.9034 265.216 50.8441C270.664 50.6663 277.17 50.4568 289.767 50.2789C306.646 50.0398 334.169 49.8718 382.772 49.9983C391.044 50.022 399.972 49.9845 409.48 49.9429C413.108 49.9271 416.83 49.9113 420.626 49.8975C434.515 49.85 449.957 49.8402 467.616 50.0042C482.026 50.1386 493.192 50.3105 502.56 50.4726L503.486 49.5457C494.158 49.3876 483.003 49.2157 468.797 49.0832C450.507 48.9133 434.561 48.9232 420.453 48.9726C416.411 48.9844 412.552 49.0062 408.849 49.022C399.501 49.0615 391.132 49.0951 383.25 49.0734C334.371 48.9449 306.178 49.1129 288.461 49.3639C274.834 49.5556 267.218 49.8046 261.728 49.9844C260.07 50.0378 258.603 50.0892 257.224 50.1267C244.922 50.4666 233.621 50.6188 220.032 50.8026C217.017 50.8441 213.878 50.8896 210.6 50.935C199.637 51.0892 191.463 51.0615 185.058 50.9963C182.256 50.9686 179.788 50.933 177.462 50.8995C177.42 50.8995 177.377 50.8955 177.335 50.8955C177.011 50.8896 176.687 50.8896 176.369 50.8836C176.128 50.8817 175.886 50.8718 175.645 50.8698C175.552 50.8639 175.466 50.8619 175.402 50.8599C175.355 50.8579 175.315 50.854 175.29 50.854H175.274C174.819 50.8362 174.424 50.8303 174.343 50.8283C174.207 50.8263 174.082 50.8244 174.019 50.8224C173.683 50.8184 173.248 50.8204 172.96 50.8184C172.219 50.8145 170.928 50.8066 168.942 50.8026C167.209 50.7888 165.543 50.771 163.462 50.7413C163.333 50.7394 163.201 50.7334 163.07 50.7315C161.041 50.7038 158.663 50.6722 155.683 50.6406C152.978 50.6109 150.485 50.7947 150.114 51.0477Z" fill="white"/>
<path d="M111.502 50.5022C111.529 50.7571 113.772 50.9587 116.507 50.9508C123.025 50.933 129.549 50.9133 136.069 50.8955C138.802 50.8876 140.997 50.6761 140.972 50.4212C140.922 50.1682 138.687 49.9666 135.966 49.9745C129.448 49.9923 122.928 50.0121 116.411 50.0299C113.687 50.0378 111.496 50.2492 111.502 50.5022Z" fill="white"/>
<path d="M49.9663 146.019C49.9683 146.225 49.9742 146.432 49.9762 146.636C50.0434 152.61 50.1363 158.699 50.2509 166.065C50.2667 167.001 50.2825 167.968 50.2964 168.948C50.4347 177.679 50.5987 188.408 50.7806 203.023C51.3912 252.098 50.9841 290.795 50.8576 302.832C50.6027 326.972 50.5987 352.726 50.5928 387.861C50.5908 391.074 50.5928 394.37 50.5928 397.745C50.5908 400.467 50.7964 402.724 51.0493 402.807C51.3043 402.869 51.5118 400.701 51.5138 397.964C51.5138 394.66 51.5177 391.437 51.5177 388.299V388.258C51.5256 352.902 51.5296 327.706 51.7786 304.135C51.907 291.835 52.322 252.185 51.6956 201.898C51.5118 187.128 51.3458 176.278 51.2074 167.493C51.1936 166.533 51.1817 165.594 51.1679 164.685C51.1659 164.665 51.162 164.64 51.162 164.62C51.0454 157.209 50.9565 151.375 50.8932 145.66C50.8912 145.539 50.8893 145.413 50.8873 145.292C50.7232 130.51 50.994 112.561 50.9545 98.2311C50.9466 95.4979 50.7292 93.2983 50.4762 93.326C50.2213 93.3655 50.0197 95.6066 50.0276 98.3319C50.0691 113.108 49.8043 131.401 49.9663 146.019Z" fill="white"/>
<path d="M51.1818 501.855C51.2174 494.904 51.2569 487.882 51.2589 480.621C51.2589 477.886 51.0514 475.617 50.7964 475.559C50.5435 475.522 50.334 477.695 50.332 480.418C50.332 488.032 50.2905 495.394 50.251 502.781L51.1818 501.855Z" fill="white"/>
<path d="M44.6206 508.418L44.5949 508.392C44.5949 508.408 44.589 508.427 44.589 508.443L44.6206 508.418Z" fill="white"/>
<path d="M44.5948 508.392C44.5948 508.268 44.5948 508.141 44.5948 508.016C44.4703 508.015 44.3419 508.017 44.2174 508.016L44.5948 508.392Z" fill="white"/>
<path d="M38.9882 329.434C38.9763 332.151 39.174 334.513 39.4269 334.725C39.6799 334.918 39.9012 332.861 39.9151 330.131C39.9842 315.716 40.0376 305.35 40.0831 297.247C40.1641 282.252 40.2056 275.001 40.1996 264.145C40.1819 236.123 40.172 209.066 40.1641 184.725C40.1503 144.26 40.1403 111.276 40.0929 93.8259C40.085 91.1006 39.8736 88.907 39.6186 88.9208C39.3657 88.9603 39.1641 91.1995 39.172 93.9267C39.2194 111.257 39.2293 143.99 39.2431 184.302C39.251 208.673 39.255 235.821 39.2728 264.018C39.2807 274.546 39.2431 281.39 39.1621 296.052C39.1167 304.147 39.0593 314.633 38.9882 329.434Z" fill="white"/>
<path d="M39.0593 513.978C39.0969 505.434 39.1463 496.336 39.1977 486.349C39.2115 483.623 39.0139 481.245 38.7589 481.038C38.506 480.848 38.2846 482.889 38.2708 485.607C38.2174 495.87 38.172 505.215 38.1344 514.003L38.1245 514.914L39.0593 513.978Z" fill="white"/>
<defs>
<linearGradient id="paint0_linear_35_13" x1="29.3025" y1="29.3047" x2="139.808" y2="139.81" gradientUnits="userSpaceOnUse">
<stop stop-color="white"/>
<stop offset="1" stop-color="white" stop-opacity="0.33"/>
</linearGradient>
<linearGradient id="paint1_linear_35_13" x1="37.7372" y1="87.492" x2="3.40737" y2="53.1644" gradientUnits="userSpaceOnUse">
<stop stop-color="white"/>
<stop offset="1" stop-color="white"/>
</linearGradient>
<radialGradient id="paint2_radial_35_13" cx="0" cy="0" r="1" gradientUnits="userSpaceOnUse" gradientTransform="translate(105.189 105.192) rotate(45) scale(143.256)">
<stop stop-color="white"/>
<stop offset="1" stop-color="white" stop-opacity="0"/>
</radialGradient>
<radialGradient id="paint3_radial_35_13" cx="0" cy="0" r="1" gradientUnits="userSpaceOnUse" gradientTransform="translate(103.347 103.35) rotate(67.001) scale(92.7043 92.7043)">
<stop stop-color="white"/>
<stop offset="0.739583" stop-color="white" stop-opacity="0.582344"/>
<stop offset="1" stop-color="white" stop-opacity="0.19"/>
</radialGradient>
</defs>
</svg>
