<svg width="145" height="145" viewBox="0 0 145 145" fill="none" xmlns="http://www.w3.org/2000/svg">
<path d="M54.4472 125.158L72.1249 142.836L142.836 72.1249L72.1249 1.4142L1.41418 72.1249L19.0919 89.8025" stroke="white" stroke-width="2"/>
<path d="M54.4471 125.158L36.7695 107.48L19.0918 89.8025" stroke="white" stroke-width="2" stroke-dasharray="4 4"/>
<path d="M57.2994 15.9886C31.3325 22.5884 12.1249 46.1226 12.1249 74.143C12.1249 107.28 38.9878 134.143 72.1249 134.143C101.722 134.143 126.314 112.713 131.23 84.5231" stroke="white"/>
<path d="M131.198 52.7897C131.19 53.3109 131.182 53.8321 131.173 54.3533C131.023 63.7352 130.873 73.1171 130.723 82.499C130.715 83.0202 130.707 83.5414 130.698 84.0626C131.032 84.0626 131.365 84.0626 131.698 84.0626C131.69 83.5414 131.682 83.0202 131.673 82.499C131.523 73.1171 131.373 63.7352 131.223 54.3533C131.215 53.8321 131.207 53.3109 131.198 52.7897Z" fill="white"/>
<line x1="113.488" y1="35.4614" x2="127.648" y2="49.6209" stroke="white" stroke-linecap="round" stroke-dasharray="5 5"/>
</svg>
