<svg width="268" height="268" viewBox="0 0 268 268" fill="none" xmlns="http://www.w3.org/2000/svg">
<g clip-path="url(#clip0_25_64)">
<rect width="268" height="268" rx="134" fill="black"/>
<path d="M134 5.22229C151.649 5.22229 168.007 19.175 180.042 42.5944C192.037 65.9354 199.5 98.2856 199.5 134.1C199.5 169.915 192.037 202.265 180.042 225.606C168.007 249.026 151.649 262.979 134 262.979C116.351 262.979 99.9931 249.026 87.958 225.606C75.9634 202.265 68.5 169.915 68.5 134.1C68.5001 98.2856 75.9633 65.9354 87.958 42.5944C99.993 19.175 116.351 5.22229 134 5.22229Z" stroke="url(#paint0_linear_25_64)" stroke-width="3"/>
<circle cx="134" cy="134" r="132.5" stroke="url(#paint1_linear_25_64)" stroke-width="3"/>
<path d="M31.8374 155.094L134 268L236.163 155.094C248.192 141.8 254.95 123.769 254.95 104.968V101.788C254.95 64.3938 227.52 34.0793 193.684 34.0793C175.071 34.0793 157.469 43.4293 145.843 59.4908L134 75.8509L122.157 59.4908C110.531 43.4293 92.9282 34.0793 74.3165 34.0793C40.4802 34.0793 13.0503 64.3938 13.0503 101.788V104.968C13.0503 123.769 19.8082 141.8 31.8374 155.094Z" fill="url(#paint2_linear_25_64)"/>
<path d="M262.687 126.867C256.777 171.69 204.415 186.603 179.421 191.209C154.426 195.815 163.131 134.101 163.131 134.101L131.519 237.582C131.519 237.582 130.263 196.078 110.948 195.135C91.6334 194.191 1.71857 172.874 5.82128 127.396" stroke="url(#paint3_linear_25_64)" stroke-width="4" stroke-linecap="round" stroke-linejoin="round"/>
<path d="M5.68527 130.379C11.5953 85.5554 63.9572 70.6422 88.9517 66.0364C113.946 61.4306 105.241 123.145 105.241 123.145L136.853 19.6635C136.853 19.6635 138.109 61.1676 157.424 62.1109C176.739 63.0541 266.748 81.6321 262.645 127.11" stroke="url(#paint4_linear_25_64)" stroke-width="4" stroke-linecap="round" stroke-linejoin="round"/>
</g>
<defs>
<linearGradient id="paint0_linear_25_64" x1="67" y1="121.092" x2="206.607" y2="114.245" gradientUnits="userSpaceOnUse">
<stop stop-color="white"/>
<stop offset="1" stop-color="white" stop-opacity="0"/>
</linearGradient>
<linearGradient id="paint1_linear_25_64" x1="39.0833" y1="33.5" x2="217.75" y2="260.556" gradientUnits="userSpaceOnUse">
<stop stop-color="white"/>
<stop offset="1" stop-color="white" stop-opacity="0"/>
</linearGradient>
<linearGradient id="paint2_linear_25_64" x1="134" y1="34.0793" x2="134" y2="268" gradientUnits="userSpaceOnUse">
<stop stop-color="white"/>
<stop offset="1" stop-color="#737373" stop-opacity="0"/>
</linearGradient>
<linearGradient id="paint3_linear_25_64" x1="134.186" y1="126.867" x2="134.186" y2="237.582" gradientUnits="userSpaceOnUse">
<stop stop-color="#999999"/>
<stop offset="1" stop-color="white"/>
</linearGradient>
<linearGradient id="paint4_linear_25_64" x1="134.233" y1="19.6635" x2="134.233" y2="130.379" gradientUnits="userSpaceOnUse">
<stop stop-color="white"/>
<stop offset="1" stop-color="#999999"/>
</linearGradient>
<clipPath id="clip0_25_64">
<rect width="268" height="268" rx="134" fill="white"/>
</clipPath>
</defs>
</svg>
