<svg width="64" height="48" viewBox="0 0 64 48" fill="none" xmlns="http://www.w3.org/2000/svg">
<path d="M64 24L20.6452 0V5.71429L10.3226 0V5.71429L0 0V48L10.3226 42.2857V48L20.6452 42.2857V48L64 24Z" fill="url(#paint0_linear_32_49)" fill-opacity="0.5"/>
<path fill-rule="evenodd" clip-rule="evenodd" d="M64 24L20.6452 48V42.2857L10.3226 48V42.2857L0 48V0L10.3226 5.71429V0L20.6452 5.71429V0L64 24ZM20.6452 6.85729L11.3226 1.69657V6.26786L20.6452 11.4286V6.85729ZM21.6452 11.9822V7.41086L51.6127 24L21.6452 40.5891V36.0178L43.3548 24L21.6452 11.9822ZM20.6452 12.5716L11.3226 7.41086V40.5891L20.6452 35.4284V12.5716ZM20.6452 36.5714L11.3226 41.7321V46.3034L20.6452 41.1427V36.5714ZM21.6452 41.7321L53.6774 24L21.6452 6.26786V1.69657L61.9352 24L21.6452 46.3034V41.7321ZM1 1.69657L10.3226 6.85729V41.1427L1 46.3034V1.69657Z" fill="url(#paint1_linear_32_49)"/>
<defs>
<linearGradient id="paint0_linear_32_49" x1="61.9182" y1="24" x2="-2.95935e-06" y2="24" gradientUnits="userSpaceOnUse">
<stop stop-color="white"/>
<stop offset="1" stop-color="#999999"/>
</linearGradient>
<linearGradient id="paint1_linear_32_49" x1="64" y1="24" x2="-17.0322" y2="23.7322" gradientUnits="userSpaceOnUse">
<stop stop-color="white"/>
<stop offset="1" stop-color="white" stop-opacity="0.5"/>
</linearGradient>
</defs>
</svg>
