<svg width="30" height="30" viewBox="0 0 30 30" fill="none" xmlns="http://www.w3.org/2000/svg">
<circle cx="14.4525" cy="14.5124" r="12" fill="white"/>
<path d="M29.0853 16.5889C29.3054 18.6192 28.3074 19.8195 27.4249 21.3385C25.5465 24.7998 21.2582 28.2555 17.2076 28.8758C16.3014 29.0456 15.3753 29.1267 14.4525 29.1194C12.33 29.1066 10.1977 28.6076 8.30979 27.6999C8.17075 27.6333 8.11338 27.541 8.05124 27.5096C7.46332 27.2224 6.49149 26.6982 5.97155 26.3031C4.83958 25.5252 3.16639 23.7978 2.53606 22.7093C2.25254 22.2608 1.98418 21.7852 2.00392 21.54C1.91592 21.3699 1.75803 21.3358 1.72812 21.2944C1.72796 21.2938 1.7278 21.2932 1.72763 21.2927C1.63094 21.1595 1.52501 20.7527 1.48304 20.6737C1.47665 20.6617 1.43075 20.7759 1.36211 20.5651C1.35619 20.5463 1.41817 20.5375 1.34324 20.369C1.32127 20.3269 0.995033 19.793 0.929932 19.626C0.686667 19.0836 0.372104 17.7025 0.267951 17.0081C0.249524 16.9021 0.204212 16.8465 0.185983 16.7336C0.176516 16.6753 0.202151 16.5831 0.199441 16.5653C0.185883 16.4886 -0.0308666 16.1655 0.328346 16.2471C0.265331 15.8951 0.164882 16.0101 0.0894494 16.0102C0.0393186 15.6207 0.193827 15.4223 0.0147936 15.3299C0.00253797 15.0575 -0.00208473 14.7863 0.000849485 14.5124C0.0178034 12.8562 0.320558 11.2003 0.897934 9.64753C0.871589 9.63747 0.845245 9.6274 0.818902 9.61732C1.11997 9.12125 1.0247 8.87079 1.3057 8.63747C1.35458 8.44007 1.40751 8.2438 1.46538 8.04703C3.83278 3.45411 8.65314 0.18365 13.8165 0.000809669C14.0316 -0.0073359 14.0865 0.0489097 14.4417 0.0475187C14.4453 0.0475199 14.4489 0.0475166 14.4525 0.047509C14.8434 0.0456498 15.3923 -0.00198936 15.9035 0.0507531C16.3587 0.0940475 17.0135 0.250938 17.5048 0.368425C17.6162 0.394318 17.7052 0.375979 17.7177 0.379062C17.7913 0.397623 17.7812 0.457059 17.8518 0.475777C17.9364 0.498139 18.0492 0.480473 18.1473 0.509178C18.5125 0.614235 18.909 0.726074 18.9549 0.742632C19.1732 0.820523 19.2011 0.894211 19.2188 0.900781C19.4574 0.993034 19.3849 0.911484 19.4441 0.936103C19.7518 1.06816 19.915 1.27366 20.3804 1.34206C20.3489 1.38183 20.3176 1.42167 20.2863 1.46157C20.5875 1.62885 20.4356 1.4163 20.5096 1.42405C20.5413 1.42391 21.203 1.77079 21.2498 1.8041C21.4219 1.9065 21.3944 1.96728 21.4091 1.97619C21.4451 1.99668 21.9183 2.18293 22.1049 2.37137C22.3243 2.59145 21.9523 2.51181 22.0025 2.57352C22.0112 2.58307 22.2816 2.74248 22.2927 2.80116C22.3063 2.86369 22.0822 2.71421 22.0752 2.73274C22.0722 2.74418 22.3898 3.06897 22.2834 3.07272C22.1942 3.08323 21.7365 2.69074 21.6099 2.65264C21.5895 2.646 21.5834 2.73217 21.5661 2.72503C21.5061 2.68098 20.2944 2.03977 20.2355 2.01707C20.315 2.01531 20.3947 2.01424 20.4747 2.01394C20.3901 1.9692 20.3051 1.92534 20.2195 1.8823C20.355 1.91341 20.49 1.94646 20.6256 1.98207C20.5697 1.62822 19.8776 1.64112 19.8021 1.76879C19.768 1.82607 20.0349 2.12713 19.6847 2.0857C19.7252 2.12131 19.7656 2.15721 19.8056 2.19324C19.9133 2.20948 20.021 2.22708 20.1287 2.24605C20.0723 2.20039 20.0153 2.1551 19.9578 2.11019C19.9898 2.10248 20.0218 2.09488 20.0538 2.08739C20.2487 2.14015 20.4429 2.19738 20.6367 2.25942C20.7221 2.31937 20.6759 2.36227 20.7333 2.40479C21.436 2.94864 21.0234 2.51199 21.508 2.82507C21.5619 2.89477 21.6151 2.96491 21.6672 3.03528C21.7127 2.90913 21.8847 3.11228 22.1704 3.23987C22.1159 3.25404 22.0616 3.26849 22.0076 3.2833C22.3966 3.5076 22.9631 4.23293 22.9196 3.9001C22.9866 3.97928 23.0525 4.059 23.1175 4.13941C23.2078 4.16492 23.2981 4.19151 23.3883 4.21918C23.4755 4.30074 23.5615 4.38335 23.6465 4.46708C23.6329 4.48275 23.6192 4.49842 23.6056 4.51409C23.5358 4.45028 23.4653 4.38723 23.3941 4.3249C23.4058 4.41926 23.4163 4.51338 23.4257 4.60723C23.4837 4.64568 23.5415 4.68465 23.5991 4.7241C23.427 4.48315 23.7744 4.67066 23.9 4.67728C24.1009 4.82775 24.1344 5.01817 24.1882 5.08057C24.2141 5.10784 24.668 5.31527 24.391 5.32561C24.5696 5.4812 24.7445 5.64181 24.9158 5.80754C24.9627 5.88905 25.0085 5.97079 25.0535 6.05294C24.8538 5.95922 25.1177 6.4807 24.8242 6.17664C24.6037 5.95297 24.6217 5.83659 24.5234 5.72382C24.4342 5.62277 24.341 5.61095 24.2405 5.50551C23.561 4.79903 22.9672 4.26368 22.2287 3.69347C22.0822 3.58126 21.9265 3.5114 21.8263 3.43949C21.7126 3.35832 21.9015 3.39028 21.742 3.308C21.5737 3.2225 21.5055 3.25539 21.4632 3.23024C21.4369 3.2147 21.3837 3.11504 21.3067 3.06894C20.9914 2.87614 20.487 2.67504 20.4403 2.65292C20.393 2.61685 19.465 2.14135 19.4174 2.12308C19.395 2.10896 19.5229 1.93294 19.2265 2.05763C19.158 2.03579 19.0892 2.01447 19.0203 1.99377C19.0456 1.95841 19.071 1.92312 19.0964 1.88788C18.6406 1.89346 18.8107 1.85763 18.4142 1.74375C17.472 1.46853 16.0403 1.17748 14.966 1.16571C14.7579 1.16132 14.6609 1.19787 14.4525 1.2096C14.4215 1.21142 14.3881 1.21277 14.3514 1.2135C14.0903 1.21322 13.3954 1.10513 13.5581 1.3037C12.9617 1.16813 12.9013 1.49451 12.5891 1.34058C12.5581 1.37328 12.5273 1.4061 12.4967 1.43902C12.1656 1.36806 12.0842 1.48933 11.7511 1.57169C11.6072 1.60892 11.7465 1.4465 11.4847 1.65135C11.4266 1.65381 11.3685 1.65666 11.3104 1.6599C11.3159 1.62662 11.3216 1.59335 11.3274 1.56007C11.0087 1.6643 10.9839 1.65785 11.0507 1.75934C10.8898 1.78029 10.7293 1.80421 10.5693 1.83107C10.5613 1.87334 10.5536 1.91559 10.5459 1.95784C10.6111 1.93389 13.4694 1.25341 14.4525 1.30816C14.5618 1.30337 14.6456 1.30036 14.6972 1.29775C15.2873 1.38041 16.4833 1.4066 16.9547 1.53118C17.1416 1.57616 17.2086 1.67687 17.4766 1.74985C17.7434 1.82236 18.1033 1.84202 18.2465 1.8829C18.7447 1.971 20.8811 2.94024 19.3797 2.40405C19.406 2.4601 19.4317 2.51621 19.457 2.57235C20.0875 2.6904 19.8468 2.6791 20.3058 2.92018C20.4983 3.02096 20.9992 3.19471 20.8776 3.34673C20.5122 3.17631 20.1599 2.92833 19.8396 2.78455C19.8079 2.76892 19.3946 2.68049 19.2064 2.58218C19.0365 2.49301 19.2231 2.36611 18.7598 2.41447C18.5328 2.12237 18.2995 2.24104 18.2176 2.23575C18.0731 2.22674 18.0863 2.12804 17.9524 2.07811C17.8063 2.02395 17.686 2.06081 17.6656 2.05594C17.464 1.99181 16.3798 1.79388 16.3334 1.75818C16.3798 1.74731 16.4261 1.73668 16.4731 1.72638C16.1926 1.65533 16.2382 1.76537 16.1622 1.7668C16.1067 1.75906 16.0512 1.75168 15.9956 1.74466C16.0202 1.72657 16.0448 1.70856 16.0695 1.69061C15.7319 1.65623 15.9802 1.75305 15.505 1.70793C15.2025 1.68129 14.8911 1.5915 14.861 1.59666C14.8523 1.59809 14.9462 1.65473 14.8222 1.65815C14.7175 1.66113 14.5739 1.66146 14.4525 1.65299C14.3356 1.64472 14.2399 1.62787 14.2196 1.59237C14.1186 1.60466 14.1292 1.67624 14.1159 1.67814C14.0572 1.67745 13.0608 1.76773 12.8831 1.80464C12.3935 1.87562 11.8432 1.95965 11.3247 2.10299C11.2715 2.11768 11.2944 2.0645 11.241 2.07971C11.1533 2.10241 10.7334 2.29704 10.6715 2.32377C10.5119 2.38385 10.0808 2.50357 10.0225 2.54938C10.0143 2.55554 10.1732 2.56302 10.0192 2.64046C9.84926 2.7274 9.91504 2.61351 9.90512 2.61627C9.5324 2.72923 9.33035 2.8824 9.09627 3.00309C9.0206 3.04213 8.8506 3.05402 8.75043 3.12525C8.73894 3.13337 8.78959 3.17288 8.77867 3.18155C8.63005 3.28999 8.42996 3.2752 8.35663 3.30731C8.17818 3.38596 8.30957 3.40455 8.30086 3.40989C8.1897 3.47447 8.0249 3.53556 7.85958 3.64049C7.12487 4.11208 6.55411 4.54099 5.86497 5.16051C5.77887 5.2385 5.64014 5.29343 5.62714 5.3059C5.58768 5.34461 5.64425 5.38061 5.52998 5.49099C5.28944 5.72446 5.07915 5.95387 4.86069 6.2036C4.8168 6.25389 4.75189 6.23595 4.71772 6.2742C4.59924 6.40212 4.36806 6.95823 4.20541 6.84836C4.14342 7.22597 3.89346 7.32249 3.74353 7.55458C3.38389 8.09894 2.9396 9.01651 2.67695 9.60896C2.62019 9.7328 2.54939 9.77365 2.51888 9.84372C2.45771 9.96783 2.23184 10.7162 2.21764 10.7546C2.18081 10.8262 1.97424 10.7168 2.05194 11.1702C2.00314 11.4089 1.92265 11.3582 1.90528 11.4061C1.77352 11.7815 1.90791 12.1968 1.7358 12.0911C1.70115 12.5533 1.77045 12.8554 1.57355 13.0214C1.65927 13.0295 1.68502 13.2473 1.63261 13.5012C1.51292 13.2267 1.40758 13.2458 1.52149 12.6052C1.52339 12.5952 1.58206 12.6234 1.58395 12.6134C1.60109 12.5236 1.60041 12.3264 1.63219 12.1719C1.66413 12.0174 1.69001 12.1114 1.70089 12.0494C1.71099 11.9928 1.65216 11.9832 1.66787 11.901C1.71978 11.6334 1.76083 11.3957 1.79841 11.2458C1.82221 11.1507 1.90128 11.0589 1.92171 10.9863C1.99675 10.7053 2.1508 10.1036 2.29564 9.75901C2.3254 9.68737 2.36737 9.73876 2.43545 9.58443C2.44358 9.56641 2.41371 9.47682 2.46118 9.33474C2.50874 9.1929 2.5843 9.10049 2.61872 9.01149C2.64782 8.93711 2.58383 8.94407 2.65212 8.79455C2.6893 8.65755 3.49691 7.33428 3.569 7.28224C3.64638 7.18874 3.74186 7.1847 3.7758 7.11929C3.7815 7.10759 3.73347 7.04753 3.75503 7.00767C4.09229 6.33296 5.26826 5.16188 5.92299 4.63069C7.26205 3.48079 8.68898 2.61786 10.3885 2.03947C10.4149 2.01737 10.4416 1.99534 10.4683 1.9734C10.2945 2.02807 10.1222 2.08626 9.95156 2.14788C9.93861 2.1157 9.92566 2.08352 9.9127 2.05135C9.67776 2.13212 9.73866 2.19845 9.76259 2.24186C9.67017 2.25472 9.57777 2.2686 9.4854 2.28348C9.45755 2.42217 8.87086 2.58775 8.59155 2.7318C8.40877 2.82239 8.21808 2.97694 8.12288 3.0258C7.92195 3.12912 7.89051 3.063 7.87429 3.07058C7.84654 3.084 7.60707 3.30021 7.41436 3.42098C7.13071 3.6002 7.03221 3.52481 6.71305 3.87347C6.19894 4.17366 5.71016 4.62089 5.26095 5.07312C5.27362 4.91154 4.93421 5.38533 4.76158 5.57566C3.67367 6.71408 2.59689 8.36185 2.00949 9.86343C1.93223 10.0552 1.82292 10.1825 1.78811 10.2933C1.7693 10.3534 1.83057 10.4021 1.79489 10.4819C1.78869 10.4958 1.71907 10.4853 1.66192 10.6373C1.50862 11.0169 1.40113 12.0211 1.23798 12.2507C1.12188 12.9996 1.07 13.7571 1.0812 14.5124C1.09049 15.1398 1.14273 15.7615 1.23888 16.3809C1.21588 16.4191 1.19304 16.4574 1.17036 16.4959C1.34176 16.7374 1.46076 17.7649 1.62087 18.2504C1.87414 19.1067 2.35838 20.1378 2.73759 20.815C2.81863 20.9628 2.85126 21.1037 2.93284 21.2416C2.96804 21.301 3.05714 21.3474 3.09444 21.4081C3.50801 22.0941 4.12288 22.9978 4.68218 23.5875C5.94021 24.9297 7.37473 25.9695 9.08353 26.725C10.7731 27.4681 12.6205 27.8413 14.4525 27.8294C18.893 27.8411 23.1905 25.444 25.5835 21.7635C25.6292 21.6941 25.6779 21.7303 25.7132 21.6759C25.9277 21.3573 26.2998 20.5876 26.4801 20.1967C26.6311 19.8901 26.9237 19.4173 26.877 19.2721C26.3111 20.3581 25.7018 21.482 24.9088 22.4571C24.8526 22.5263 24.8 22.4995 24.7925 22.5076C24.6523 22.6541 24.7949 22.6038 24.6125 22.8345C24.5553 22.9192 23.8168 23.4662 24.0202 23.5093C23.8324 23.6352 22.6888 24.6365 22.4565 24.8173C22.3904 24.8779 22.4736 24.8821 22.4612 24.8952C22.4073 24.9519 22.3341 24.9135 22.278 24.9532C22.1308 25.061 21.7823 25.3781 21.7066 25.4256C21.5372 25.542 20.984 25.8104 20.7536 25.9494C20.5431 26.0792 20.6207 26.1261 20.4329 26.2314C20.284 26.3122 20.4197 26.1735 20.0724 26.32C19.9028 26.3952 19.3208 26.6956 19.1702 26.7491C19.0213 26.8064 18.84 26.8235 18.6344 26.8968C18.3387 27.0068 17.686 27.2181 17.3749 27.2996C17.3564 27.3047 17.324 27.3744 17.2771 27.3833C17.1802 27.4017 17.1935 27.322 17.1195 27.3297C17.0495 27.3517 15.7854 27.5554 15.5678 27.5556C15.4191 27.5677 15.3186 27.6189 15.2354 27.6235C15.1702 27.6268 15.1594 27.5647 15.0938 27.5673C15.0737 27.5683 14.9026 27.6309 14.7276 27.633C14.6736 27.6337 14.5701 27.6297 14.4525 27.622C14.2101 27.6071 13.9135 27.5723 13.8653 27.5694C13.8183 27.567 13.8684 27.6143 13.7287 27.6059C13.601 27.5978 13.5217 27.5342 13.4499 27.5279C13.2831 27.5134 13.0929 27.5448 12.9143 27.5241C12.4045 27.4612 12.4439 27.3869 12.4134 27.3815C12.3304 27.3618 12.286 27.4207 12.2581 27.4174C12.14 27.4039 11.8539 27.3618 11.7498 27.3417C11.62 27.3174 11.5791 27.2446 11.4439 27.2127C11.3434 27.1891 11.1251 27.1984 10.8947 27.1365C10.3774 27.0001 9.76953 26.797 9.28734 26.586C9.14297 26.5231 9.14446 26.4608 9.10141 26.44C8.87591 26.3298 8.72261 26.3245 8.65788 26.2919C8.19429 26.0655 7.45831 25.5143 7.08019 25.2346C6.92101 25.1278 6.21609 24.6613 5.86716 24.3349C5.82679 24.2983 5.89444 24.2984 5.84449 24.2637C5.72538 24.1804 5.67472 24.2563 5.6218 24.2046C5.59648 24.1793 5.57118 24.0869 5.49952 24.0124C5.12845 23.6252 4.8521 23.3798 4.69062 23.1952C3.13671 21.425 2.09374 19.185 1.69065 17.034C1.64481 16.7961 1.53883 16.5033 1.54536 16.1316C1.57194 16.1169 1.59855 16.1022 1.62518 16.0876C1.59613 16.0783 1.56708 16.0688 1.53805 16.0592C1.47648 15.6459 1.42809 15.4912 1.44299 15.0633C1.44431 15.0262 1.56898 14.9115 1.40754 14.8465C1.48096 14.5549 1.45335 14.5742 1.42258 14.5124C1.40884 14.4842 1.3949 14.4391 1.39273 14.3404C1.38607 14.0255 1.43661 13.7226 1.46976 13.4203C1.53807 13.2604 1.62072 13.9629 1.6234 14.0046C1.62009 14.0765 1.53835 14.1493 1.53257 14.2194C1.52376 14.325 1.53602 14.4294 1.54119 14.5124C1.54616 14.5926 1.54439 14.6526 1.50982 14.676C1.58926 14.9435 1.54613 14.6097 1.61455 14.6427C1.58838 14.8214 1.56586 15.0004 1.547 15.1798C1.7711 15.2579 1.56939 16.2627 1.74211 16.1753C1.71741 16.2572 1.69349 16.3396 1.67034 16.4224C1.93993 16.7306 1.81922 16.9472 1.85714 17.4149C1.87706 17.3762 1.89715 17.3377 1.91741 17.2993C1.92951 17.3067 2.06703 17.6881 1.91713 17.5762C2.17091 17.9384 1.91528 17.9932 2.20354 18.2953C2.29343 18.4981 2.14498 18.4062 2.27537 18.7814C2.35373 19.0027 2.51209 19.2558 2.6172 19.494C2.64128 19.5491 2.59312 19.5984 2.61459 19.648C2.63616 19.6975 2.70389 19.6963 2.7318 19.7549C2.78944 19.8759 2.82393 20.0517 2.86473 20.1256C2.90106 20.192 2.99749 20.2643 3.08835 20.4203C3.41232 20.9612 3.25836 20.8297 3.28297 20.9308C3.3126 21.0384 3.4401 21.0527 3.54151 21.2406C3.55175 21.2595 3.46746 21.2462 3.5065 21.3043C3.53822 21.3511 3.61205 21.3385 3.72389 21.487C3.75842 21.5532 4.44241 22.4741 4.56465 22.5994C4.73239 22.8068 5.08618 23.2916 5.28414 23.4881C5.3592 23.5648 5.47991 23.6055 5.56087 23.6845C5.82794 23.9484 6.27607 24.3504 6.65344 24.6417C6.98595 24.9092 7.5504 25.4331 7.81415 25.4561C8.338 25.753 8.42889 25.8965 8.46773 25.921C8.57585 25.9816 8.65566 25.9513 8.79617 26.0175C10.3893 26.7978 12.6304 27.3546 14.4525 27.3301C14.699 27.3306 14.9348 27.3237 15.1605 27.3108C19.5983 27.0949 23.7778 24.3412 25.8157 20.4022C25.7961 20.3787 25.7765 20.3552 25.7569 20.3318C25.5035 20.7867 25.1469 21.284 24.8465 21.6954C24.4572 22.249 23.8804 23.1021 23.387 23.3164C23.5165 23.1627 23.7927 22.9709 23.7149 22.9083C23.469 23.1689 23.2122 23.4187 22.9454 23.657C22.9844 23.6832 23.0234 23.7094 23.0625 23.7355C22.7957 24.0031 22.4948 24.2467 22.1998 24.4844C22.1484 24.5256 22.2108 24.5299 22.1653 24.5652C22.1143 24.6045 22.1233 24.5443 22.1135 24.5514C21.9842 24.6493 21.9698 24.7121 21.9535 24.7236C21.9114 24.7522 21.9194 24.6965 21.7942 24.7727C21.5618 24.913 21.4589 25.1089 21.4118 24.9241C21.3397 24.9724 21.2669 25.02 21.1937 25.0669C21.2012 25.1204 21.2084 25.1739 21.2154 25.2276C20.6572 25.3435 20.6056 25.7622 20.2124 25.6575C20.1451 25.7398 20.0763 25.8215 20.0061 25.9027C19.9345 25.8831 19.8635 25.8627 19.793 25.8417C19.8013 25.8844 19.8095 25.9271 19.8176 25.9698C19.3252 26.1673 18.8179 26.4196 18.3314 26.5702C17.9926 26.6735 17.9072 26.6797 17.6044 26.7626C16.931 26.9325 17.5814 26.6953 17.0023 26.7313C17.042 26.7758 17.082 26.8201 17.1224 26.8642C17.0324 26.9029 16.9424 26.9405 16.8517 26.9771C16.7782 26.9483 16.7051 26.9189 16.6325 26.8889C16.377 27.1551 16.1581 27.0048 16.1198 27.0102C16.0886 27.0139 15.9914 27.163 15.6317 27.0856C15.793 27.2517 15.3656 27.1103 15.3334 27.1097C15.302 27.1125 14.904 27.1745 14.7406 27.1745C14.6736 27.1754 14.5666 27.1662 14.4525 27.1562C14.3479 27.1471 14.238 27.1373 14.1471 27.136C13.9791 27.1333 13.994 27.194 13.9817 27.1944C13.7742 27.191 13.9066 27.1493 13.7568 27.1395C13.6069 27.1291 13.4871 27.1718 13.4549 27.1647C13.4389 27.161 13.4975 27.1086 13.4238 27.0972C13.2274 27.0675 12.8608 27.0775 12.6346 27.0422C12.5545 27.0303 12.4604 26.967 12.3716 26.9507C12.2355 26.9258 12.1605 26.9769 12.0815 26.9602C12.0537 26.954 11.898 26.8242 11.6788 26.7904C11.6383 26.7844 11.4656 26.9601 11.3787 26.6321C11.3563 26.6695 11.3338 26.7068 11.3112 26.7441C10.5577 26.6511 10.4762 26.2506 10.064 26.4239C9.56761 26.1992 9.95962 26.2229 9.90985 26.185C9.87846 26.161 9.70428 26.1257 9.68723 26.1164C9.65713 26.1001 9.67692 26.0676 9.64255 26.0535C9.01315 25.789 9.26295 25.9717 9.04587 25.9223C8.52946 25.7901 8.28197 25.3938 9.05229 25.8596C9.06133 25.8407 9.07036 25.8217 9.0794 25.8028C8.86982 25.7293 8.38148 25.4568 8.59642 25.4508C8.7575 25.4605 9.92215 26.0508 9.29862 25.6376C9.15974 25.543 9.04383 25.5765 8.8553 25.3133C8.69173 25.2183 8.57506 25.374 8.38594 25.1791C8.38993 25.2583 8.39466 25.3375 8.40011 25.417C8.04111 25.3185 7.7241 24.9823 7.47675 24.8588C7.39282 24.8192 6.92893 24.88 7.17933 24.6673C7.03517 24.5957 6.48631 24.0907 6.36692 24.0188C6.33858 24.0016 6.18934 24.1071 5.87097 23.7341C5.86077 23.6956 5.85078 23.6571 5.84101 23.6186C6.20369 23.8746 5.68297 23.297 5.9477 23.326C5.94687 23.4275 6.17008 23.6946 6.18845 23.7581C6.21847 23.8683 5.95042 23.7391 6.23862 23.964C6.58542 23.9112 6.01757 23.5743 6.26508 23.4511C5.84294 23.2218 5.89257 23.101 5.82175 23.0247C5.52207 22.6909 5.31378 22.4975 5.068 22.1516C4.95787 22.1062 5.3996 22.7435 5.48675 22.7948C5.11016 22.658 5.51716 23.1198 5.78094 23.221C5.75663 23.276 5.73256 23.3312 5.70874 23.3866C5.48817 23.1264 5.27515 22.8758 5.02059 22.6517C5.02217 22.6214 5.02386 22.5912 5.02567 22.5609C5.09847 22.5975 5.17141 22.6331 5.24447 22.6679C5.10249 22.4263 5.08377 22.6584 4.95845 22.2838C4.90234 22.3151 4.84613 22.3462 4.78982 22.3772C4.58041 22.087 4.38402 21.7885 4.2011 21.4827C3.98721 21.4041 3.66491 20.7882 3.87357 20.8124C3.74419 20.57 3.84069 20.9075 3.67587 20.7039C3.60407 20.6151 3.49298 20.4229 3.50682 20.3541C3.65495 20.3017 3.82947 20.5778 3.97226 20.607C3.95314 20.5517 3.18874 19.2537 3.42641 19.2953C3.3998 19.1775 3.33379 19.2655 3.22947 19.0755C2.92927 18.5372 2.84041 17.593 2.51511 17.1682C2.51802 17.7607 2.7032 17.8938 2.84121 18.3106C2.90056 18.5897 3.61993 20.1506 3.31874 19.87C3.36544 19.9186 3.41242 19.9665 3.45969 20.0139C3.44452 20.0934 3.43013 20.1734 3.41655 20.2537C3.32568 20.0947 3.23788 19.9328 3.15415 19.7699C3.18014 19.7095 3.20654 19.6494 3.23337 19.5898C3.19321 19.586 3.15303 19.5821 3.11282 19.578C3.07502 19.5106 3.03779 19.4426 3.00115 19.3742C3.0484 19.3777 3.09562 19.381 3.14279 19.3841C3.10264 19.2728 3.06456 19.162 3.02782 19.0501C2.98721 19.1003 2.94687 19.1508 2.9068 19.2017C2.68812 18.6852 2.79125 18.8469 2.787 18.5222C2.72394 18.3001 2.74326 18.7069 2.56537 18.2478C2.3727 17.7098 2.63256 18.0229 2.41965 17.3216C2.38991 17.3177 2.36017 17.3137 2.33043 17.3096C2.3214 17.145 2.31561 16.9801 2.31341 16.8171C2.28306 16.8445 2.25279 16.872 2.2226 16.8997C2.16988 16.5693 2.04106 16.1179 2.16539 15.9914C2.14192 16.3366 2.38136 16.2972 2.41209 16.2061C2.4455 16.1054 2.33658 15.3126 2.32881 14.5124C2.31428 13.8198 2.37189 13.1287 2.40228 12.8934C2.48376 12.2434 2.66125 11.782 2.70842 11.1757C2.48091 11.5369 2.30148 12.964 2.22864 13.2295C2.2196 13.2553 2.00114 13.2275 2.2311 13.4226C2.17728 13.7502 2.17296 14.1199 2.18744 14.5124C2.19734 14.7824 2.21574 15.0561 2.23176 15.3402C2.16737 15.3232 2.10302 15.3058 2.0387 15.2881C2.12984 14.9138 1.93058 14.5723 2.02399 14.5124C2.0398 14.5026 2.06398 14.5012 2.09948 14.5094C2.0995 14.4232 2.10041 14.3372 2.10219 14.2514C2.05996 14.2505 2.01773 14.2496 1.97551 14.2487C1.97822 14.1181 1.98293 13.9881 1.98964 13.8581C2.03182 13.8603 2.074 13.8625 2.11618 13.8647C2.12173 13.7572 2.12866 13.6501 2.13694 13.5434C2.09582 13.529 2.05472 13.5146 2.01364 13.5C2.11245 13.1878 2.05555 12.0619 2.22818 12.5807C2.25163 12.4311 2.27777 12.2824 2.30653 12.1347C2.27612 12.1293 2.24571 12.1238 2.2153 12.1184C2.22368 12.0536 2.23254 11.9891 2.24205 11.9238C2.26495 11.9507 2.28792 11.9775 2.31098 12.0042C2.32236 11.6992 2.53328 11.4632 2.49141 11.2495C2.43705 11.3688 2.38467 11.4886 2.33407 11.6096C2.42778 11.3787 2.47481 10.9149 2.48811 10.8757C2.52421 10.7561 2.60385 10.7113 2.64923 10.5842C2.69053 10.4694 2.64012 10.4699 2.64904 10.4488C2.91812 9.84284 3.07552 10.1792 2.90283 9.77854C2.95412 9.76416 3.0054 9.75015 3.05666 9.7365C3.04102 9.68324 3.02589 9.62933 3.01104 9.57539C3.09141 9.39769 3.17559 9.22272 3.26405 9.04937C3.18833 9.08472 3.11285 9.12073 3.03743 9.1578C3.14255 8.88034 3.30169 8.80626 3.31622 8.78234C3.35847 8.71386 3.31732 8.65063 3.3289 8.62845C3.92014 7.58537 3.61482 8.24381 4.13256 7.87343C4.16489 7.64509 3.96769 7.76874 3.86765 7.74172C4.06085 7.52892 4.08717 7.44072 4.26536 7.1999C4.31205 7.13745 4.40463 7.10186 4.43436 7.0632C4.45996 7.0297 4.49461 6.88935 4.55749 6.80859C4.66186 6.67383 4.83041 6.51932 4.98169 6.34302C5.10499 6.19484 5.47579 5.72971 5.77772 5.44513C5.9058 5.3233 5.90883 5.38663 5.94205 5.35556C5.95574 5.34271 6.01819 5.20744 6.10301 5.13184C6.79341 4.51444 7.59118 3.9925 8.40206 3.54388C8.97261 3.22749 9.56149 2.90971 10.1824 2.69053C10.3142 2.64445 10.2586 2.70877 10.3164 2.68993C10.3363 2.68372 10.3357 2.60507 10.5507 2.56509C10.6283 2.55101 10.5586 2.62714 10.6323 2.60606C10.6682 2.59619 10.6637 2.52897 10.8686 2.45228C11.2432 2.31416 11.4733 2.35022 11.5061 2.33893C11.5696 2.31868 11.5384 2.2716 11.6244 2.24974C12.0461 2.14394 12.4022 2.07286 12.7849 2.01721C12.9634 1.97467 14.2074 1.88249 14.2772 1.90571C14.4216 1.92405 14.3056 2.0233 14.4525 2.03176C14.4621 2.03235 14.4729 2.03256 14.4849 2.03236C14.5398 2.00454 14.5949 1.97709 14.6503 1.94999C14.5847 1.93296 14.5188 1.91644 14.4525 1.90043C14.4308 1.8952 14.4091 1.89002 14.3874 1.8849C14.4089 1.88794 14.4306 1.89035 14.4525 1.89225C14.6774 1.91147 14.9194 1.87738 15.0815 1.88731C15.1146 1.88865 15.4157 1.95672 15.5691 1.96582C15.5019 1.98075 15.435 1.99621 15.3683 2.01219C15.3901 2.03151 15.4118 2.05089 15.4333 2.07032C15.7394 2.06704 16.0652 2.10511 16.3739 2.15679C16.4863 2.17574 16.4415 2.21204 16.5543 2.23241C17.2036 2.36189 17.0908 2.15543 17.6249 2.63505C17.4273 2.54354 16.6543 2.42398 16.5441 2.40006C16.4692 2.37815 16.2052 2.05185 16.2744 2.35653C15.6494 2.27161 16.2144 2.17851 15.6184 2.14972C15.6269 2.18619 15.6354 2.22267 15.6437 2.25915C15.4369 2.2619 15.2847 2.26982 15.1625 2.20001C15.1248 2.31694 14.7894 2.28673 14.4525 2.27308C14.3021 2.26652 14.1536 2.2624 14.0358 2.26998C13.4835 2.30366 12.868 2.40997 12.3333 2.51262C12.1492 2.54762 12.0322 2.50317 12.009 2.50793C11.9753 2.51518 11.8919 2.59292 11.825 2.60815C11.5753 2.65734 10.7902 2.7725 10.6585 2.99567C11.8804 2.59294 13.165 2.38962 14.4525 2.39009C14.6863 2.39011 14.9172 2.39665 15.1492 2.40978C14.9635 2.30042 16.5015 2.44735 16.5766 2.48969C16.6474 2.50589 16.5773 2.55104 16.5979 2.55818C16.7507 2.61004 16.8994 2.5567 16.95 2.56724C16.9882 2.57528 17.0572 2.62881 17.1916 2.65879C17.2163 2.66435 17.2324 2.62623 17.2589 2.63235C17.4342 2.6736 17.6066 2.71884 17.7811 2.76794C17.7916 2.77133 17.8191 2.84104 17.8626 2.85386C17.9063 2.8666 17.9665 2.82256 17.9776 2.82573C18.1158 2.86718 18.3404 2.98112 18.469 3.02715C18.5139 3.04289 18.4973 2.99076 18.5475 3.00902C18.7016 3.06579 18.6217 3.12684 18.8186 3.17823C18.8844 3.19588 18.9044 3.13313 19.0224 3.18977C19.1058 3.23022 19.052 3.33418 19.0638 3.34358C19.0798 3.3547 19.4086 3.39548 19.4709 3.50904C19.1834 3.59875 19.6891 3.62096 19.706 3.53702C19.8104 3.61078 19.9135 3.68609 20.0149 3.76271C20.0627 3.7633 20.1106 3.76419 20.1586 3.76539C20.5589 4.09104 20.851 4.20023 21.2481 4.50309C21.2685 4.51658 21.5819 4.79762 21.547 4.8114C21.3155 4.70594 21.111 4.57041 21.0294 4.40278C20.7093 4.41551 20.7866 4.28723 20.4079 4.09465C20.2807 4.03161 20.2475 4.07083 20.2331 4.06339C19.7441 3.81146 18.9394 3.48091 18.6381 3.22154C18.5271 3.22162 18.8714 3.36863 18.7252 3.34399C18.656 3.29483 16.818 2.82556 17.4433 2.82648C17.3807 2.8153 17.318 2.80461 17.2552 2.79441C17.1571 2.93233 16.8608 2.83111 16.9267 2.68471C16.8906 2.71011 16.8549 2.73572 16.8195 2.76149C16.7566 2.77673 16.686 2.77778 16.5888 2.76899C16.3287 2.7338 15.1697 2.56524 14.4525 2.57508C14.1481 2.57248 13.9288 2.58379 13.8942 2.59188C13.8933 2.62931 13.8924 2.66675 13.8915 2.70418C14.0785 2.70365 14.265 2.70242 14.4525 2.7029C15.2268 2.70554 16.0149 2.73337 16.8309 2.988C16.8081 2.94754 16.7851 2.90718 16.7617 2.86686C17.168 2.99697 17.5645 3.14848 17.9483 3.31965C17.5079 3.2443 16.8184 3.13379 16.3717 3.01124C16.2919 2.98873 16.3593 2.95026 16.3416 2.94137C16.2948 2.91844 16.2289 2.99286 16.0533 2.97671C15.8781 2.95832 15.4403 2.85496 15.399 2.85518C15.32 2.85194 15.1006 2.93446 14.9689 2.92798C14.7946 2.91926 14.9137 2.86399 14.8787 2.86134C14.733 2.85021 14.6012 2.87793 14.4864 2.87316C14.4758 2.87272 14.4644 2.8719 14.4525 2.87081C14.2731 2.85319 13.9506 2.77966 13.8477 2.93144C13.9682 2.93235 14.0887 2.9351 14.2095 2.93969C13.5636 3.01088 13.0261 2.86519 12.4134 3.12656C12.3046 3.3361 12.8149 3.22135 12.3942 3.37638C12.4722 3.35933 12.5505 3.34308 12.6292 3.32764C12.6415 3.28584 12.654 3.24405 12.6667 3.20228C12.8085 3.20849 12.9489 3.21748 13.0897 3.22893C13.0464 3.19883 13.0027 3.16896 12.9588 3.13935C13.4453 3.04748 13.9492 2.9892 14.1242 3.17365C14.133 3.12786 14.1419 3.08207 14.1509 3.03629C14.2448 3.04514 14.348 3.04464 14.4525 3.04119C14.8595 3.02612 15.2801 2.97573 15.1652 3.1701C15.1876 3.15803 15.2101 3.14602 15.2326 3.13408C15.5037 3.20584 15.3944 3.09322 15.4992 3.09011C15.5292 3.08649 16.0581 3.20303 15.8125 3.24963C16.3191 3.37332 16.1952 3.1219 16.3411 3.13312C16.6543 3.29884 17.2802 3.26593 16.9915 3.38949C17.0385 3.40732 17.0854 3.42545 17.1321 3.44386C17.3256 3.34056 17.4439 3.54227 17.5964 3.6437C17.6527 3.6634 17.7088 3.68352 17.7647 3.70406C17.8171 3.66877 17.8701 3.6339 17.9236 3.59941C18.384 3.99749 18.4317 3.34379 18.4879 3.93582C18.4391 3.95155 18.3905 3.96759 18.3421 3.98394C18.2487 3.96567 18.1556 3.94881 18.0621 3.93304C18.4141 4.06804 18.7592 4.22107 19.095 4.39095C19.4599 4.72764 19.7758 4.70779 20.1683 5.08127C20.2178 5.09461 20.2673 5.10834 20.3167 5.12243C20.2091 5.19891 20.0597 5.08349 20.3285 5.31713C20.3071 5.40508 20.103 5.28866 20.0441 5.17737C20.0298 5.14996 20.2547 5.20854 20.0413 5.07756C19.8948 4.99089 20.1114 5.23121 19.6881 4.94882C19.6945 4.97629 19.7008 5.00374 19.7069 5.03118C19.6593 5.00406 19.6115 4.97726 19.5637 4.95094C19.5438 4.88516 19.5231 4.81935 19.5017 4.75353C19.3566 4.75815 19.251 4.81235 19.0021 4.67273C19.0851 4.67804 19.0313 4.54428 18.8994 4.48745C18.8852 4.51957 18.8709 4.5517 18.8566 4.58383C18.5332 4.46805 18.6813 4.41904 18.3863 4.38801C18.3698 4.35161 18.3531 4.31524 18.3361 4.27889C18.1488 4.32621 17.5876 4.22495 17.737 4.09308C17.5338 4.2036 17.2365 4.0418 17.1451 3.88159C17.1272 3.91307 17.1093 3.94458 17.0916 3.97613C17.0253 3.96689 16.959 3.95827 16.8925 3.95025C16.8611 3.92135 16.8293 3.89258 16.7973 3.86394C16.7464 3.8744 16.6956 3.88522 16.645 3.89638C16.6241 3.85634 16.6032 3.81638 16.5818 3.77646C16.4988 3.8029 16.4163 3.83027 16.3345 3.85855C16.2937 3.82302 16.2524 3.78771 16.2107 3.75263C16.1929 3.82171 15.7395 3.7731 15.615 3.71452C15.5744 3.73156 15.5343 3.74887 15.4945 3.76639C15.4793 3.73 15.464 3.69363 15.4484 3.65729C15.4174 3.68243 15.3866 3.7077 15.356 3.7331C15.293 3.69997 15.2294 3.66739 15.1651 3.63535C14.8858 3.78945 14.8876 3.64237 14.8251 3.64069C14.7569 3.63937 14.5891 3.67423 14.4525 3.70427C14.3613 3.7241 14.2845 3.74115 14.2587 3.73941C14.1944 3.73506 14.1617 3.67469 14.1094 3.67051C13.2443 3.61655 13.6095 3.76956 13.4416 3.80612C13.352 3.82875 13.2805 3.77888 13.1998 3.79452C13.0597 3.81485 12.3797 4.00352 12.3414 4.00917C12.2814 4.01048 12.3657 3.71819 12.1891 3.82546C12.212 3.96661 11.7793 3.91697 12.012 4.06987C11.8447 4.09062 11.6773 4.11547 11.51 4.14445C11.5747 4.30442 11.3471 4.25305 11.1346 4.33255C10.8305 4.43789 10.2153 4.81285 10.1701 4.64512C10.1157 4.71281 10.0625 4.78089 10.0105 4.84932C9.5142 5.0171 9.09179 5.31693 8.66193 5.59934C7.37911 6.43298 6.16743 7.62073 5.33955 8.91355C5.29955 8.97548 5.25603 8.93665 5.22741 8.98163C5.07225 9.21625 4.76745 9.87864 4.606 10.2345C4.55234 10.3481 4.47769 10.383 4.46002 10.4191C4.40044 10.5414 4.48131 10.5392 4.45645 10.5962C4.41474 10.6847 4.17524 11.1512 4.1184 11.3237C4.08873 11.4078 4.11531 11.5249 4.0701 11.6201C4.06628 11.6283 4.01247 11.5961 4.00942 11.6032C3.95195 11.7853 4.03272 11.6882 4.01336 11.7497C3.87744 12.1868 3.7802 12.6704 3.70676 13.1628C3.68799 13.2852 3.62616 13.4703 3.61346 13.5762C3.60874 13.6166 3.66006 13.5478 3.64533 13.6874C3.64048 13.7352 3.5798 13.7475 3.57237 13.8019C3.54179 14.0388 3.73103 14.1199 3.57257 14.3182C3.57306 14.377 3.5748 14.4424 3.5778 14.5124C3.59211 14.9081 3.66269 15.4364 3.69938 15.734C3.70899 15.8172 3.67899 15.8619 3.68992 15.9411C3.69769 15.9974 3.76538 16.088 3.77947 16.1745C3.79354 16.2615 3.76462 16.4078 3.79856 16.5743C3.83349 16.749 3.91334 16.9601 3.92254 16.9987C3.93366 17.0458 3.87515 17.0833 3.88762 17.1305C3.9234 17.274 4.09156 17.6368 4.15747 17.8132C4.22667 18.0043 4.23814 18.1292 4.26221 18.1944C4.28482 18.2545 4.36315 18.3057 4.37397 18.3327C4.39095 18.375 4.33435 18.4083 4.35603 18.4623C4.39181 18.5506 4.4658 18.6257 4.52249 18.7557C5.54397 21.0989 7.3469 23.04 9.56038 24.2089C9.80847 24.3383 9.9679 24.3665 10.3381 24.5433C10.4888 24.6136 10.3992 24.6495 10.5251 24.6852C10.5813 24.7007 10.5863 24.6464 10.6556 24.6698C10.96 24.7734 11.3053 24.9308 11.4406 24.9679C11.4942 24.983 11.5712 24.9429 11.6811 24.9712C12.4984 25.1842 13.4928 25.3393 14.4073 25.3287C14.4221 25.3286 14.4372 25.3284 14.4525 25.3282C14.937 25.3251 15.635 25.2459 16.1604 25.1545C17.6646 24.9147 19.213 24.2968 20.3651 23.5197C22.1168 22.3569 23.4623 20.6721 24.3475 18.784C23.838 19.627 23.1552 20.7524 22.4201 21.5443C20.4793 23.7194 17.489 25.1954 14.4525 25.1746C14.2563 25.175 14.0625 25.1699 13.8694 25.1593C12.7582 25.1093 11.3709 24.8095 10.2728 24.2911C10.2229 24.2682 10.0996 24.2647 9.99333 24.2103C9.96992 24.1994 9.72398 23.9889 9.63216 23.9393C9.65281 24.118 9.34672 23.8096 9.23619 23.7484C9.09488 23.6741 8.76446 23.5669 8.47537 23.3188C8.21508 23.0929 8.32804 23.099 8.31414 23.0856C8.23052 22.9968 8.14241 23.0461 8.06252 22.9977C7.70679 22.8335 6.3343 21.436 6.04549 20.9726C5.96083 20.8606 6.00602 20.822 5.98734 20.7968C5.93817 20.7301 5.82132 20.6682 5.74499 20.5578C5.60682 20.3589 5.50519 20.0949 5.43725 19.9818C5.27138 19.7145 4.92782 19.2145 4.76126 18.8356C4.7137 18.7294 4.77288 18.7115 4.75193 18.6636C4.65686 18.4554 4.37903 17.9168 4.29773 17.6389C4.15921 17.1925 4.08716 16.7155 3.99061 16.252C4.01257 16.2179 4.03469 16.1839 4.05696 16.1501C4.02143 16.1076 3.98629 16.0657 3.95132 16.0228C3.89401 15.5239 3.83957 15.0214 3.8245 14.5124C3.81547 14.2061 3.82062 13.9035 3.84747 13.6033C3.85297 13.5114 3.95709 13.0629 3.97048 12.9896C3.97943 12.9277 3.92198 12.8558 3.9471 12.7643C3.98279 12.6367 4.08757 12.7799 4.08936 12.5642C4.09025 12.5061 4.02555 12.5505 4.03089 12.4339C4.02634 12.3942 4.1774 11.6657 4.19834 11.6292C4.22257 11.5665 4.35228 11.5428 4.35948 11.5274C4.39732 11.4468 4.3099 11.4242 4.31958 11.3647C4.34794 11.1878 4.48151 10.99 4.49 10.9632C4.58532 10.6319 4.77567 10.0046 4.98403 9.69998C5.01225 9.6578 5.06938 9.69406 5.07533 9.68724C5.11366 9.64342 5.06218 9.57665 5.08614 9.5279C5.21447 9.26467 5.49366 8.89856 5.66795 8.6646C5.6877 8.6375 5.69696 8.55783 5.73421 8.5102C5.94666 8.24302 5.93213 8.36965 5.945 8.3549C5.97679 8.32184 5.97128 8.21841 6.0421 8.11867C6.22084 7.85961 6.62044 7.40673 6.86111 7.17109C7.04034 6.99317 7.09153 7.05098 7.10395 7.04011C7.13085 7.01758 7.1586 6.90599 7.27555 6.78787C7.50181 6.5621 7.51539 6.63242 7.61198 6.54459C7.62045 6.53754 7.56785 6.506 7.67564 6.40752C7.88209 6.2137 8.42241 5.88045 8.67329 5.71753C8.76912 5.65348 8.76201 5.59222 8.86224 5.52812C9.0205 5.42414 9.41919 5.26788 9.44888 5.2536C9.45706 5.2492 9.44518 5.18306 9.49399 5.15709C9.54768 5.12857 9.6158 5.13018 9.65587 5.10947C9.88259 4.98939 10.244 4.70825 10.2235 4.96641C10.2752 4.88205 10.3289 4.79782 10.3835 4.71431C10.8876 4.51714 11.3796 4.33188 11.8994 4.19174C12.0161 4.16042 12.124 4.18007 12.223 4.15669C12.3212 4.13078 12.7503 3.98067 12.8269 3.97011C12.9576 3.94021 13.72 3.85458 13.8169 3.86102C14.0047 3.85955 14.1859 3.94906 14.261 3.92946C14.3213 3.91376 14.2642 3.86132 14.3806 3.84524C14.403 3.84222 14.4271 3.8404 14.4525 3.83961C14.6564 3.83237 14.9293 3.89675 14.9828 3.89899C15.0088 3.9003 14.962 3.8546 15.2077 3.8676C15.34 3.87526 15.4064 3.92726 15.4537 3.93138C15.4687 3.93309 15.4524 3.85496 15.713 3.89424C15.8924 3.92259 15.9599 3.99082 15.9785 3.99348C16.0063 3.99792 16.0826 3.94737 16.1958 3.968C16.4604 4.01404 16.9218 4.18433 17.162 4.2558C17.2088 4.26958 17.2121 4.19315 17.3985 4.25284C17.5313 4.29637 17.4909 4.34582 17.54 4.36295C17.617 4.3902 17.7573 4.3586 17.9299 4.42039C18.1637 4.46501 19.6786 5.25627 19.7273 5.34484C19.772 5.38547 19.8305 5.42101 19.8393 5.46319C19.8023 5.4765 19.7654 5.48999 19.7286 5.50367C19.5595 5.28239 19.5882 5.44057 19.5255 5.41386C19.4348 5.37391 19.1138 5.18846 19.0204 5.17475C18.9876 5.16978 19.024 5.25892 18.8568 5.21577C18.6781 5.17076 18.65 5.03297 18.5206 5.14853C18.3525 4.8845 18.0522 4.96836 18.3083 5.12432C18.4661 5.18479 19.8614 5.9848 20.1058 6.20673C20.3213 6.3601 20.7474 6.62227 20.9873 6.84646C21.1312 6.97422 21.4702 7.30493 21.3957 7.35218C21.5092 7.47788 21.4397 7.29301 21.4731 7.30946C21.5466 7.34217 21.8736 7.76585 21.9387 7.84116C22.2767 8.19923 22.7346 8.64953 22.9035 9.11477C22.8725 9.10805 22.8415 9.1015 22.8106 9.09512C22.7211 9.02662 22.4826 8.58554 22.3604 8.6073C22.7925 9.18468 23.1608 9.8088 23.4563 10.465C23.5425 10.4103 23.8765 11.2497 23.841 11.3057C23.7938 11.3051 23.7467 11.3048 23.6997 11.3047C23.6879 10.7742 23.4918 10.8986 23.469 10.5431C23.4146 10.4166 23.3644 10.4849 23.3238 10.4296C22.9088 9.88847 23.4599 10.3517 23.1673 9.92113C23.1451 10.107 22.9158 9.75442 22.8073 9.60235C22.7869 9.56568 22.5103 9.07892 22.4675 9.02708C22.2512 8.72041 21.8084 8.25817 21.5977 7.94962C21.4038 7.73005 21.236 7.66962 21.0334 7.50194C20.8782 7.3758 20.9558 7.37573 20.8862 7.31194C20.7383 7.17853 20.5853 7.26274 20.6322 7.00737C20.51 6.94323 20.387 6.88196 20.2632 6.82358C20.2844 6.79556 20.3057 6.76753 20.3269 6.7395C20.2591 6.68813 20.1907 6.6378 20.1217 6.58826C20.0809 6.60217 20.0404 6.6163 19.9999 6.63067C19.8082 6.43873 19.9464 6.43266 19.9607 6.32157C19.9156 6.28295 19.8701 6.24469 19.8243 6.20679C19.7443 6.24601 19.665 6.28607 19.5865 6.32695C19.3715 6.18437 19.1506 6.05031 18.9248 5.92542C18.9263 5.88665 18.9275 5.84782 18.9286 5.80895C18.912 5.83984 18.8955 5.87073 18.879 5.90162C18.4869 5.70767 18.083 5.5411 17.6696 5.40274C17.5443 5.41368 18.1772 5.69828 18.2206 5.72777C18.4837 5.85048 19.195 6.16395 19.1308 6.27809C19.3347 6.28201 19.7871 6.5968 19.8569 6.7875C19.6525 6.63596 19.442 6.49264 19.226 6.35806C19.2118 6.39833 19.1976 6.43855 19.1833 6.47873C18.9977 6.17585 18.9441 6.15704 18.5856 6.1546C18.6102 6.10416 18.6349 6.05372 18.6596 6.00327C18.3742 6.07675 18.1393 5.61596 18.0341 5.83476C17.9308 5.77092 17.8257 5.70886 17.7189 5.64866C17.4619 5.59528 17.7889 5.87279 16.8468 5.52169C16.7809 5.49917 16.8103 5.44307 16.7077 5.42179C16.6778 5.41644 16.4898 5.45834 16.17 5.38844C16.12 5.37765 16.1256 5.32453 16.0739 5.30856C15.9539 5.27036 15.6949 5.34001 15.8304 5.18607C15.346 5.07078 15.5316 5.2399 15.3755 5.2784C15.2721 5.30586 15.3014 5.20657 15.2119 5.22224C15.1014 5.24393 15.1735 5.34481 14.7458 5.28029C14.7944 5.27484 14.843 5.26976 14.8916 5.26505C14.8686 5.23612 14.8454 5.20728 14.8219 5.17851C14.5718 5.23701 14.5958 5.14176 14.4777 5.29702C14.4693 5.29372 14.4609 5.29057 14.4525 5.28757C14.2822 5.22713 14.1288 5.2253 13.8955 5.25073C13.4189 5.31154 13.6859 5.4522 13.1182 5.29521C13.0358 5.33918 12.9532 5.38446 12.8725 5.4307C12.7191 5.39006 12.819 5.28568 12.6022 5.31039C12.8004 5.439 12.3403 5.47107 12.3025 5.63509C12.2865 5.60277 12.2705 5.57049 12.2544 5.53823C12.2078 5.54958 12.1617 5.56121 12.1151 5.57334C12.1221 5.60067 12.1291 5.62799 12.136 5.65531C12.0693 5.65087 12.0025 5.64717 11.9354 5.6442C11.897 5.68414 11.8591 5.72431 11.8217 5.76471C11.7303 5.73058 11.6372 5.69803 11.5432 5.66688C11.4944 5.67866 11.4458 5.69084 11.3972 5.7034C11.4259 5.73789 11.4545 5.77249 11.4828 5.8072C11.4183 5.81437 11.3537 5.82224 11.2892 5.83081C11.3822 5.87084 11.3652 5.96093 11.1823 6.02855C11.0319 6.0864 11.1468 5.88262 10.8468 6.07249C10.8266 6.08692 10.8246 6.19411 10.5376 6.3476C10.1951 6.53767 10.3323 6.38841 10.2684 6.41731C10.2558 6.42332 10.1736 6.52426 10.0793 6.58506C10.0258 6.61944 9.95201 6.61366 9.94469 6.61799C9.91144 6.63927 9.93104 6.69598 9.88547 6.72518C9.7697 6.79879 9.59713 6.87231 9.48594 6.94942C9.43525 6.98429 9.40707 7.04556 9.38476 7.0613C9.35002 7.08545 9.27531 7.07232 9.24011 7.09741C9.10854 7.19052 9.0269 7.47494 8.81745 7.32762C8.83724 7.59734 8.41994 7.59454 8.53617 7.69545C8.17193 7.91041 7.58253 8.83928 7.41669 8.65891C7.43686 8.97689 7.33002 8.86087 7.27165 8.94011C7.20795 9.02847 7.27584 9.00946 7.22227 9.07693C7.098 9.23462 6.97228 9.38182 6.86168 9.54886C6.84973 9.50342 6.83811 9.45776 6.82682 9.41191C6.70019 9.58324 6.8077 9.56617 6.70701 9.75673C6.52784 10.1096 6.55914 9.93511 6.44955 9.93989C6.53144 9.96944 6.29628 10.3734 6.26713 10.4126C6.24844 10.4353 6.20087 10.2707 6.1072 10.5479C6.14563 10.5487 6.18401 10.5497 6.22238 10.5508C6.12056 10.6468 6.03322 10.998 6.00151 11.0487C5.98652 11.0704 5.66655 11.1075 5.82817 11.3154C5.78961 11.3186 5.75099 11.3222 5.71241 11.3257C5.69975 11.4833 5.69119 11.6407 5.68683 11.7974C5.61945 11.8017 5.55201 11.8065 5.48451 11.8118C5.47049 11.8584 5.45681 11.9052 5.4435 11.9522C5.50624 11.9363 5.56898 11.9211 5.6317 11.9064C5.52145 12.1847 5.52941 12.5552 5.33257 12.5773C5.3535 12.6478 5.37544 12.7168 5.39804 12.7858C5.32859 12.8147 5.25924 12.8446 5.19003 12.8754C5.15565 13.1755 5.19877 13.186 5.23953 13.3962C5.19175 13.3825 5.14399 13.3687 5.09626 13.3547C5.14539 13.5155 5.18325 13.7924 5.18113 14.0105C5.17921 14.113 5.10652 14.2882 5.11244 14.3134C5.11611 14.3293 5.22104 14.4329 5.2424 14.5124C5.25489 14.5593 5.23813 14.5985 5.15298 14.6092C5.2598 14.9639 5.16974 15.1219 5.18291 15.2673C5.1923 15.3609 5.25102 15.3977 5.26763 15.5019C5.2916 15.6512 5.28564 15.8046 5.30229 15.8898C5.31193 15.9384 5.36666 15.9396 5.37365 15.973C5.40799 16.1308 5.33761 16.0469 5.3714 16.2141C5.37496 16.2298 5.46182 16.3385 5.48343 16.4769C5.49474 16.554 5.47034 16.768 5.47544 16.7855C5.497 16.8625 5.62089 16.7626 5.52954 17.0698C5.55436 17.0545 5.57921 17.0392 5.60408 17.024C5.76485 17.3236 5.66681 17.4103 5.67949 17.4783C5.68157 17.4869 5.75376 17.5485 5.76384 17.5965C5.78066 17.6777 5.73038 17.732 5.73405 17.7504C5.74688 17.8155 5.85267 18.0078 5.85038 18.1643C6.0112 18.0672 6.27105 18.4824 6.13382 18.6763C6.2113 18.7368 6.28934 18.7956 6.3679 18.8527C6.35567 18.9041 6.34401 18.9561 6.33275 19.0082C6.37522 19.0126 6.41764 19.0166 6.46001 19.0203C6.45579 19.1696 6.45524 19.3199 6.45907 19.4721C6.52909 19.4384 6.599 19.4044 6.66882 19.3704C6.68036 19.4054 6.69213 19.4403 6.70412 19.4753C6.6676 19.532 6.63149 19.5892 6.59579 19.6467C6.63065 19.6786 6.6657 19.7101 6.70093 19.7412C6.74406 19.7257 6.78713 19.71 6.83011 19.6942C7.00915 19.8604 6.59201 20.0155 7.17038 20.1614C7.18671 20.2395 7.20418 20.3177 7.22281 20.396C7.40612 20.3514 7.42361 20.533 7.51986 20.6129C7.58738 20.6687 7.63442 20.6201 7.71428 20.7052C7.79458 20.7899 7.74509 20.831 7.75097 20.838C7.8141 20.9106 7.90543 20.9223 7.94659 20.9799C7.95286 20.9885 7.91682 21.0618 7.9778 21.1285C8.03911 21.195 8.13435 21.1735 8.22145 21.2751C8.26638 21.3271 8.23758 21.3884 8.27932 21.4334C8.48218 21.6521 8.90733 21.5721 8.84676 22.0127C8.9166 22.0052 9.30481 22.0715 9.42451 22.1598C9.61203 22.3008 9.4959 22.3158 9.5679 22.3779C9.57848 22.3865 9.65244 22.4041 9.82097 22.5079C9.85123 22.5264 9.86566 22.4849 9.87033 22.4869C10.0677 22.6046 10.45 22.8394 10.68 22.9463C10.7013 22.9563 10.8544 22.8946 10.9787 23.1194C11.2937 23.1218 11.7491 23.5474 12.1819 23.4674C12.2353 23.477 12.2894 23.5342 12.3134 23.5383C12.5213 23.5706 12.4669 23.433 12.8966 23.704C12.8699 23.6318 12.989 23.5921 13.1402 23.6188C13.3694 23.6575 13.1893 23.7592 13.3786 23.7719C13.3826 23.7371 13.3865 23.7023 13.3905 23.6675C13.8109 23.8059 13.9109 23.662 14.3402 23.6707C14.3749 23.6711 14.4132 23.6751 14.4525 23.6811C14.5896 23.7021 14.7367 23.7447 14.7658 23.7438C14.7808 23.7435 14.946 23.6517 14.9623 23.6498C15.0534 23.6422 15.1074 23.6775 15.1862 23.6716C15.4462 23.6533 15.739 23.5013 15.71 23.7066C15.7759 23.6552 15.8399 23.6032 15.9041 23.5504C16.2085 23.7176 16.3499 23.3857 16.4481 23.5762C16.4866 23.524 16.5243 23.4717 16.5612 23.4191C17.6868 23.1767 18.7686 22.7157 19.7334 22.0653C19.7353 21.9871 20.1519 21.7037 20.177 21.6926C20.2991 21.6541 20.2929 21.848 20.462 21.6644C20.442 21.5981 20.4215 21.5321 20.4005 21.4663C20.6165 21.251 20.5476 21.3943 20.6667 21.3456C20.6989 21.3056 20.6535 21.2804 20.701 21.2314C20.9635 20.9705 21.4738 20.411 21.7104 20.0842C21.7592 20.0193 21.7884 20.0567 21.8038 20.0366C21.8456 19.9805 21.8801 19.836 21.9592 19.7221C22.4622 19.0245 23.0224 17.9362 23.3006 17.1096C23.3203 17.054 23.3752 17.0619 23.3888 17.024C23.4074 16.9714 23.3966 16.8395 23.415 16.7846C23.4325 16.7326 23.4814 16.7083 23.4998 16.6519C23.5853 16.3922 23.5818 16.025 23.7408 15.7536C23.7554 15.733 24.0103 15.448 24.0244 15.4412C24.1135 15.4053 24.2245 15.7077 24.3899 15.2461C24.4618 15.6765 24.6767 15.5768 24.8048 15.0046C24.8158 15.2948 24.8151 15.5836 24.8019 15.875C24.8247 15.8784 24.8475 15.8818 24.8704 15.8852C25.0174 15.6356 25.0842 15.3721 25.1128 14.9618C25.1336 14.9754 25.1544 14.9891 25.1751 15.0029C25.2668 15.3741 25.2401 15.8179 25.3419 16.119C25.5088 15.7224 25.6542 15.3083 25.7756 14.8828C25.7918 14.9048 25.8079 14.9268 25.8239 14.949C25.8623 15.1565 25.853 15.6124 25.8722 15.7891C25.9508 16.4702 26.0493 15.2204 26.118 15.4317C26.0595 16.1415 25.9364 16.8454 25.7498 17.5317C25.8819 17.6012 26.4749 14.8859 26.6113 14.8968C26.6183 15.1285 26.6185 15.3639 26.6122 15.597C26.6747 15.4983 26.736 15.3979 26.7961 15.2957C26.8112 15.3258 26.8262 15.356 26.8411 15.3864C26.8549 15.7883 26.8491 16.1941 26.8232 16.6003C26.975 15.3752 26.977 14.8188 27.4068 14.5124C27.4175 14.547 27.4281 14.5817 27.4386 14.6164C27.1859 14.8914 27.1917 16.1649 27.1007 16.8514C27.206 16.7277 27.2357 16.1193 27.2927 15.997C27.3101 15.9622 27.3488 16.095 27.3858 16.014C27.492 15.8045 27.6366 14.8574 27.7137 14.998C27.7881 15.0875 27.7157 16.6492 27.6287 16.9485C27.8581 16.2614 27.9627 15.5235 28.0999 14.7993C28.2577 15.2605 28.4557 15.6967 28.3446 16.5585C28.4158 16.842 28.728 15.0096 28.7492 14.9639C28.7919 15.2856 28.8233 15.6165 28.8438 15.9446C28.8568 15.6701 28.8621 15.3916 28.8594 15.1174C28.877 15.1173 28.8946 15.1172 28.9122 15.1171C28.9623 15.834 29.0424 16.5133 28.8748 17.3335C28.9725 17.3264 29.0534 16.8286 29.0853 16.5889ZM21.586 8.25549C21.5353 8.31416 21.415 8.15924 21.3401 8.07787C21.3412 8.09958 21.3422 8.12126 21.3431 8.14293C21.1971 7.95897 20.9007 7.63232 20.7862 7.73255C20.6523 7.63378 20.7936 7.58763 20.7638 7.54025C20.7517 7.52097 20.5404 7.43305 20.4643 7.25111C20.432 7.22476 20.3995 7.19866 20.3668 7.17276C20.3297 7.20588 20.2927 7.23908 20.2558 7.27237C20.2485 7.19009 20.2399 7.10754 20.2302 7.02473C20.719 7.38928 21.1738 7.80192 21.5854 8.25481C21.5856 8.25504 21.5858 8.25527 21.586 8.25549ZM16.4101 5.29019C16.201 5.21593 15.8705 5.12002 15.9178 5.26376C16.0563 5.27831 16.194 5.29589 16.331 5.31645C16.3571 5.30754 16.3836 5.29883 16.4101 5.29019ZM6.33868 19.5163C6.32564 19.7457 6.51556 19.8304 6.66374 20.0794C6.68624 20.0628 6.70875 20.0462 6.73125 20.0296C6.6071 19.9733 6.46759 19.6899 6.33868 19.5163ZM24.3523 13.1311C24.3479 13.1751 24.3433 13.2191 24.3383 13.2631C24.1669 13.1093 24.2681 13.0668 24.222 12.8734C24.2192 12.8618 24.1859 12.8716 24.185 12.8675C24.1748 12.8207 24.208 12.7698 24.1996 12.7271C24.1831 12.6448 24.1298 12.5866 24.1006 12.4415C24.0777 12.3294 24.1414 12.3139 24.1308 12.2749C24.122 12.2397 23.8668 11.9569 23.8795 11.7292C23.9239 11.2777 24.3881 12.9917 24.3523 13.1311ZM24.3217 14.3773C24.3206 14.336 24.3191 14.2947 24.3175 14.2535C24.4215 14.3756 24.4018 14.1243 24.3885 13.9399C24.4873 13.9409 24.4626 14.3342 24.4892 14.5124C24.4337 14.4665 24.3779 14.4215 24.3217 14.3773ZM23.0997 9.33173C23.1923 9.46781 23.0727 9.50549 23.0383 9.51785C23.0124 9.47338 22.9861 9.42914 22.9595 9.38511C23.0062 9.3672 23.0529 9.34941 23.0997 9.33173ZM23.7071 10.4087C23.6119 10.3942 23.4302 10.0894 23.3459 9.94453C23.3424 9.93804 23.4042 9.95822 23.3454 9.85474C23.3285 9.82191 23.0156 9.59695 23.2154 9.57251C23.3921 9.8423 23.5563 10.1214 23.7069 10.4083C23.707 10.4084 23.707 10.4086 23.7071 10.4087ZM23.8025 10.7594C23.7535 10.7069 23.7041 10.6552 23.6543 10.6041C23.6764 10.5573 23.6982 10.5102 23.7197 10.4628C23.7594 10.5291 23.7984 10.596 23.8365 10.6631C23.8253 10.6953 23.814 10.7274 23.8025 10.7594ZM20.8744 22.414C20.836 22.3919 20.7978 22.3696 20.7597 22.3472C20.6986 22.3654 20.574 22.6886 20.6693 22.6593C20.7392 22.5783 20.8076 22.4966 20.8744 22.414ZM21.8607 21.6231C21.919 21.5925 21.9772 21.5613 22.0351 21.5294C22.0327 21.4287 22.0287 21.3286 22.0232 21.2291C21.7843 21.4285 21.5159 21.6175 21.6993 21.7269C21.6491 21.7773 21.5985 21.8271 21.5473 21.8764C21.5307 21.773 21.5052 21.7602 21.335 21.8464C21.3872 21.9607 21.2067 22.0469 21.0585 22.2085C21.1835 22.1102 21.3063 22.009 21.4269 21.9048C21.4413 21.92 21.4557 21.9353 21.4701 21.9506C21.2024 22.1882 21.6231 21.9849 21.7287 21.7576C21.7615 21.7643 21.7943 21.7708 21.8273 21.7772C21.8389 21.7258 21.85 21.6744 21.8607 21.6231ZM4.33061 13.0451C4.30345 13.0858 4.27653 13.1268 4.24984 13.1681C4.50133 13.3733 4.28409 12.992 4.5424 12.7842C4.36452 12.8366 4.43913 12.4663 4.43431 12.4434C4.37105 12.4747 4.30794 12.5067 4.24495 12.5396C4.2694 12.7094 4.29778 12.8794 4.33061 13.0451ZM4.03899 14.2905C4.10265 14.2216 4.13428 14.3393 4.15195 14.5124C4.17269 14.724 4.17883 15.0125 4.17167 15.1545C4.16789 15.2168 4.10093 15.3331 4.11424 15.3772C4.14422 15.4021 4.17428 15.4268 4.20442 15.4512C4.10894 15.4914 4.27218 15.9783 4.35763 16.1591C4.32597 16.1828 4.29439 16.2067 4.26289 16.2308C4.28844 16.2991 4.31465 16.367 4.34151 16.4343C4.30555 16.432 4.26958 16.4296 4.2336 16.4271C4.28483 16.4729 4.33635 16.5179 4.38814 16.5621C4.47688 16.7592 4.26376 16.6717 4.35634 16.8152C4.46015 16.9728 4.50605 16.6656 4.58028 16.6561C4.53064 16.5226 4.43054 16.2155 4.40766 16.0721C4.39501 15.9898 4.5358 16.0667 4.34036 15.7333C4.36626 15.6515 4.39303 15.5692 4.42094 15.4895C4.35139 15.3539 4.28451 15.215 4.22052 15.0729C4.26794 15.0431 4.3155 15.0141 4.36318 14.9853C4.36886 14.971 4.24853 14.6429 4.21313 14.66C4.23913 14.6211 4.25899 14.5709 4.27464 14.5124C4.31405 14.3644 4.32729 14.1649 4.34192 13.9584C4.31685 13.929 4.29191 13.8994 4.26709 13.8697C4.30883 14.1552 4.23395 13.958 4.17877 14.04C4.14695 14.0872 4.08423 14.2355 4.03899 14.2905ZM19.2961 23.5927C19.655 23.2576 19.4474 23.4925 19.8884 23.2256C19.8244 23.191 19.7609 23.156 19.6978 23.1204C19.5464 23.3512 19.1439 23.4799 19.2957 23.593C19.2958 23.5929 19.296 23.5928 19.2961 23.5927ZM22.8287 20.1202C22.709 20.3628 22.8686 20.3092 22.6915 20.6062C22.6914 20.6064 22.6913 20.6065 22.6912 20.6066C22.8029 20.4678 22.9114 20.3255 23.0159 20.1807C22.9534 20.1609 22.891 20.1407 22.8287 20.1202ZM8.97388 23.065C8.77298 22.9013 8.78683 22.9694 8.6514 22.7557C8.29961 22.65 8.54768 22.8078 8.48576 22.8963C8.57001 22.9174 8.65424 22.9373 8.73839 22.9561C8.84356 23.1487 8.66181 23.0881 8.65597 23.0957C8.65611 23.0958 8.65624 23.0959 8.65638 23.096C8.63821 23.1229 8.62887 23.1251 8.68113 23.1837C8.77967 23.1454 8.87727 23.1058 8.97388 23.065ZM7.99349 22.5221C8.10903 22.5223 8.19503 22.4747 8.04521 22.293C8.04508 22.2929 8.04496 22.2928 8.04484 22.2927C7.92785 22.405 7.83944 22.1613 7.75742 22.1023C7.72591 22.0977 7.69436 22.093 7.66278 22.0881C7.76846 22.2349 7.87884 22.3798 7.99349 22.5221ZM5.33399 19.594C5.4891 19.5076 5.59803 19.6684 5.60759 19.3495C5.57927 19.3044 5.55148 19.2595 5.52392 19.2141C5.47325 19.2015 5.42255 19.1885 5.37181 19.175C5.36731 18.4273 4.76772 18.4819 5.47818 19.4204C5.47837 19.4205 5.47855 19.4206 5.47874 19.4207C5.43013 19.478 5.38188 19.5358 5.33399 19.594ZM6.00552 20.6179C6.08613 20.5705 6.16661 20.5228 6.24696 20.4749C6.155 20.7297 6.44156 20.7565 6.50693 21.0845C6.54594 21.0872 6.5849 21.0897 6.62379 21.0919C6.63524 21.2261 7.38267 22.0265 7.31989 21.7522C7.29101 21.637 7.07636 21.5372 7.0645 21.5213C7.02475 21.4691 7.02569 21.3532 6.94958 21.2758C6.90558 21.2313 6.7466 21.194 6.66288 21.0945C6.47078 20.8703 6.3595 20.3108 5.95581 20.1291C5.96412 20.0908 5.97264 20.0526 5.98137 20.0146C5.81658 19.7889 5.78916 19.9129 5.74623 19.6354C5.26233 19.7125 6.33396 20.5106 5.8981 20.493C5.89819 20.4932 5.89829 20.4933 5.89838 20.4934C5.9338 20.5353 5.96951 20.5768 6.00552 20.6179ZM12.5771 24.6313C12.5797 24.7139 12.9271 24.6468 12.8205 24.8221C12.9389 24.7735 13.0547 24.7229 13.1694 24.6704C13.1708 24.6527 13.1722 24.6351 13.1736 24.6174C13.0665 24.618 12.9601 24.6171 12.8526 24.6143C12.8565 24.5865 12.8605 24.5587 12.8645 24.5309C12.6911 24.6129 12.0504 24.4321 12.0959 24.3362C12.0523 24.3689 12.0082 24.4014 11.9639 24.4336C11.6872 24.246 11.3929 24.2859 11.1049 24.0676C11.0685 24.0917 11.0319 24.1156 10.9951 24.1394C10.9882 24.1071 10.9816 24.0748 10.975 24.0425C10.8591 23.9965 10.7442 23.9483 10.6305 23.8981C10.2089 23.8469 10.8924 24.2858 10.996 24.2967C11.009 24.2988 11.0313 24.2299 11.111 24.2453C11.2491 24.2799 12.0002 24.5722 12.2561 24.5695C12.248 24.6171 12.2399 24.6647 12.2318 24.7122C12.3486 24.6873 12.4632 24.6602 12.5771 24.6313ZM4.85842 18.1209C4.898 18.0867 4.93772 18.0528 4.97756 18.0191C4.82562 17.7489 4.81063 17.5484 4.67974 17.6741C4.67979 17.6742 4.67984 17.6744 4.67989 17.6746C4.73606 17.8252 4.79533 17.9733 4.85842 18.1209ZM17.7005 4.83438C17.7246 4.73968 17.592 4.65599 17.388 4.66829C17.3888 4.69807 17.3895 4.72784 17.3901 4.7576C17.5091 4.70731 17.5866 4.87988 17.8788 4.96333C17.8953 4.91714 17.9119 4.87095 17.9285 4.82477C17.8523 4.8271 17.7762 4.83031 17.7005 4.83438ZM4.93642 18.3784C4.91816 18.4894 5.18522 18.6632 5.12411 18.5001C5.07825 18.3763 4.94635 18.3198 4.93642 18.3784ZM23.4519 19.2625C23.4103 19.3193 23.3681 19.3755 23.3253 19.4314C23.3442 19.4834 23.3627 19.5356 23.3808 19.5881C23.3809 19.588 23.381 19.5879 23.3811 19.5877C23.4066 19.4793 23.4303 19.3706 23.4519 19.2625ZM9.74024 23.502C9.52888 23.3978 9.3204 23.2859 9.11623 23.1668C9.09991 23.1887 9.08358 23.2106 9.06723 23.2325C9.32171 23.2726 9.35011 23.4101 9.39579 23.444C9.39558 23.4439 9.39537 23.4438 9.39515 23.4436C9.54041 23.5508 9.68333 23.645 9.82098 23.7506C9.79279 23.6677 9.76588 23.5848 9.74024 23.502ZM10.4025 24.0069C10.4406 23.8128 10.4038 23.7784 10.0169 23.7445C10.0197 23.7721 10.0225 23.7998 10.0255 23.8274C10.2037 23.8964 10.3236 23.8993 10.2522 23.9777C10.3023 23.9878 10.3524 23.9975 10.4025 24.0069ZM7.33148 21.8955C7.31974 21.9715 7.61958 22.1643 7.62635 22.1273C7.62676 22.1144 7.3524 21.751 7.33148 21.8955ZM20.0849 5.94974C20.0256 5.89382 19.9654 5.83848 19.9045 5.78375C20.0066 5.82304 20.1082 5.86405 20.2095 5.9068C20.1678 5.92088 20.1263 5.9352 20.0849 5.94974ZM20.9694 6.25181C20.9991 6.30737 20.7472 6.32506 20.986 6.57629C20.7908 6.42008 20.5898 6.27087 20.384 6.12945C20.4957 6.17443 20.6069 6.22144 20.7179 6.27084C20.7316 6.21882 20.745 6.16668 20.7582 6.1144C20.8291 6.15933 20.8995 6.20513 20.9694 6.25181ZM21.1017 6.5223C21.0819 6.32977 21.6384 6.79802 21.6722 6.86113C21.6807 6.87432 21.6637 6.99564 21.6674 7.02907C21.5893 6.95397 21.5101 6.88006 21.4297 6.80741C21.4355 6.85499 21.4409 6.9025 21.446 6.94993C21.3465 6.87245 21.2457 6.79701 21.1438 6.72348C21.2049 6.73451 21.2661 6.74619 21.3275 6.75849C21.2536 6.67871 21.1783 6.59997 21.1017 6.5223ZM18.6553 5.03695C18.7365 5.07662 18.817 5.11732 18.8969 5.15901C18.9018 5.10697 18.9064 5.05486 18.9107 5.00268C18.8612 4.97943 18.8115 4.95655 18.7616 4.93406C18.726 4.96821 18.6905 5.00251 18.6553 5.03695ZM20.2971 5.87711C20.059 6.00022 20.0358 5.37033 20.2872 5.76321C20.3121 5.80318 20.3203 5.86529 20.2971 5.87711ZM21.8478 7.07042C22.1714 7.15246 21.8543 7.3709 21.7456 7.10532C21.7402 7.09167 21.8236 7.0643 21.8478 7.07042ZM23.204 8.71352C23.2157 8.73409 23.1355 8.83272 23.3514 8.95553C23.3587 8.99376 23.3659 9.03197 23.3728 9.07016C23.2848 9.02315 22.8549 8.44849 23.008 8.46093C23.0737 8.55045 23.1435 8.61562 23.204 8.71352ZM23.1568 7.86343C23.0849 7.77502 23.0116 7.6878 22.937 7.6018C22.9309 7.65524 22.9243 7.70851 22.9173 7.76159C22.8745 7.72487 22.8315 7.68854 22.7883 7.6526C22.7796 7.53741 22.7688 7.42166 22.756 7.30544C22.9271 7.48619 23.0922 7.67277 23.2511 7.86521C23.2196 7.86448 23.1882 7.86389 23.1568 7.86343ZM21.068 5.66332C21.2154 5.8345 21.4601 5.95989 21.7256 6.20292C21.7256 6.20313 21.7257 6.20333 21.7257 6.20354C21.7389 6.2158 21.7277 6.27641 21.769 6.31611C21.8107 6.34128 22.5402 6.97998 22.417 6.99287C22.1035 6.78009 22.0859 6.59945 21.8845 6.68234C21.9005 6.63949 21.9164 6.59654 21.9321 6.55348C21.7197 6.25615 21.5429 6.30003 21.3579 6.2139C21.3789 6.19002 21.3998 6.16614 21.4207 6.14226C21.3202 6.0544 21.2183 5.96842 21.1146 5.88422C21.1167 5.91225 21.1187 5.94025 21.1206 5.96822C21.0836 5.9393 21.0464 5.91062 21.009 5.88217C20.975 5.73807 20.8684 5.63263 21.068 5.66332ZM23.4179 8.31075C23.6844 8.25501 24.1004 9.22182 24.3394 9.62419C24.1013 9.46738 24.0087 9.08853 23.8694 8.85653C23.5984 8.41243 23.7123 8.76578 23.6331 8.71159C23.5952 8.68591 23.5633 8.35516 23.4179 8.31075ZM20.3821 5.23882C20.5892 5.39548 20.7415 5.43344 20.8718 5.63617C20.8464 5.63942 20.8209 5.64275 20.7955 5.64618C20.7463 5.58517 20.2534 5.19881 20.3821 5.23882ZM24.5683 10.2769C24.4485 9.78228 24.3484 10.0997 24.3877 9.79496C24.4706 9.94512 24.5503 10.0979 24.6264 10.2526C24.6071 10.2607 24.5877 10.2688 24.5683 10.2769ZM4.3312 19.2535C4.41662 19.4495 4.48819 19.6849 4.6289 19.7546C4.57282 19.62 4.51943 19.4844 4.46877 19.3479C4.42271 19.3167 4.37694 19.2854 4.3312 19.2535ZM2.46293 13.1908C2.43493 13.2419 2.47923 13.4552 2.47781 13.4769C2.47437 13.5175 2.44379 13.5038 2.4355 13.5037C2.42062 13.7712 2.53677 13.5325 2.54436 13.7304C2.54384 13.7646 2.47348 14.2219 2.47854 14.412C2.47898 14.4455 2.47938 14.4791 2.47979 14.5124C2.48261 14.7678 2.4875 15.0042 2.49373 15.0993C2.50475 15.2832 2.60167 15.6132 2.64094 15.9092C2.65691 16.0311 2.60395 16.0812 2.62256 16.2039C2.71895 16.9999 3.22717 18.4848 3.48914 19.1358C3.54805 19.2996 3.5467 19.483 3.59167 19.5644C3.64806 19.6186 3.70471 19.6719 3.76196 19.7248C3.63363 20.0384 3.87071 20.0062 4.00504 20.2046C4.09144 20.3313 4.06208 20.4302 4.07246 20.4481C4.14194 20.566 4.20727 20.6055 4.26769 20.6938C4.33538 20.7931 4.39953 20.9569 4.4283 20.9896C4.44723 21.0086 4.48033 20.888 4.7401 21.2704C5.00813 21.6581 5.28868 22.0312 5.60472 22.393C5.72476 22.0738 5.482 22.1087 5.34875 21.9639C5.31341 21.9254 5.37145 21.9207 5.34125 21.8869C5.25597 21.7918 5.06825 21.6262 5.01421 21.5336C4.9558 21.4339 5.06847 21.4002 4.95082 21.3072C4.94483 21.3024 4.92105 21.348 4.89493 21.3247C4.63502 21.0869 4.63588 20.9488 4.41111 20.5786C4.23273 20.3505 3.44565 18.786 3.47996 18.7068C3.49918 18.3715 4.22336 20.035 4.35159 20.2094C4.38447 20.2763 4.30178 20.2334 4.3271 20.2974C4.33822 20.3249 4.55041 20.5005 4.69411 20.7102C4.86346 20.966 5.17072 21.5089 5.36005 21.7366C6.94871 23.7049 9.12146 25.187 11.5902 25.8104C11.6428 25.8235 11.7252 25.7852 11.8963 25.824C12.727 26.0113 13.5863 26.1103 14.4525 26.1144C16.9178 26.1379 19.4257 25.3276 21.3844 23.8313C21.9633 23.3921 22.4599 22.8721 22.9854 22.3652C23.0157 22.2699 23.0446 22.1747 23.072 22.0795C22.9469 22.2763 22.586 22.5134 22.5579 22.5378C22.548 22.5471 22.521 22.6426 22.4187 22.7383C22.2746 22.8727 22.1824 22.8998 22.1708 22.9109C22.1339 22.9445 22.1877 22.9548 22.1522 22.9868C21.8868 23.2246 21.6822 23.4104 21.4229 23.6107C21.128 23.8357 20.9282 23.8734 20.7541 24.097C20.7094 24.0846 20.6648 24.0718 20.6204 24.0589C20.5439 24.3064 19.4825 24.8883 19.0259 25.0573C18.8835 25.1159 18.8845 25.048 18.8372 25.0679C18.8066 25.0794 18.8519 25.1539 18.4699 25.2824C18.2772 25.3452 18.2081 25.3059 18.1134 25.3404C18.0618 25.3589 18.0888 25.4114 18.0135 25.436C17.5779 25.5767 17.2117 25.6536 16.7714 25.7342C16.6479 25.7563 16.6373 25.7083 16.61 25.7143C16.5101 25.7355 16.3463 25.8501 16.085 25.8872C15.6625 25.9549 14.82 26.009 14.4525 25.9636C14.4461 25.9629 14.4398 25.9623 14.4337 25.9616C14.3813 25.9556 14.3386 25.8969 14.3005 25.8972C14.2427 25.8979 14.2188 25.9582 14.2086 25.9583C14.0147 25.9545 14.133 25.9011 14.0034 25.9104C13.9338 25.915 13.8582 25.9817 13.6938 25.9791C13.4776 25.9745 13.5268 25.8947 13.437 25.8955C13.4275 25.8959 13.4197 25.9529 13.3317 25.9465C12.9963 25.9228 12.5122 25.864 12.2012 25.8002C12.1122 25.7824 12.0528 25.7309 11.9292 25.7026C11.6748 25.6705 10.2802 25.2487 10.1849 25.1621C10.1744 25.1552 10.3245 25.1249 10.1342 25.0506C10.0659 25.0606 9.99759 25.07 9.92845 25.0786C9.85836 24.9874 9.79025 24.8955 9.72411 24.8031C9.64672 24.9855 9.09878 24.7496 9.1992 24.5737C9.14649 24.537 9.09424 24.5 9.04226 24.4625C8.85963 24.5188 8.80595 24.4324 8.54243 24.3691C8.52947 24.3122 8.51693 24.2553 8.50486 24.1984C8.48156 24.217 8.4582 24.2356 8.43478 24.2541C8.39796 24.0531 8.12815 24.0587 8.10411 24.0432C8.01424 23.9873 7.97069 23.91 7.92947 23.8828C7.77511 23.7821 7.42104 23.5844 7.26868 23.4275C7.2616 23.4201 7.31008 23.3758 7.26772 23.3309C7.19195 23.25 7.12164 23.3158 7.082 23.1352C7.04122 23.1373 7.00035 23.1391 6.95939 23.1407C6.94499 23.1089 6.93078 23.0772 6.91675 23.0454C6.77223 22.9276 6.63036 22.8061 6.49147 22.6811C6.68965 22.7192 6.59236 22.542 6.40262 22.4732C6.33808 22.4496 6.32904 22.5359 6.30722 22.5282C6.27171 22.5222 5.73096 21.8781 5.73523 21.8036C5.69367 21.7869 5.65211 21.7698 5.61061 21.7525C5.63054 21.7102 5.65064 21.668 5.67093 21.626C5.64581 21.6185 5.62068 21.6108 5.59555 21.6031C5.5161 21.3917 5.04819 21.0375 5.0027 20.941C4.97818 20.8913 5.15275 20.8318 4.99567 20.6254C4.94929 20.6448 4.90286 20.664 4.85636 20.6831C4.81782 20.6364 4.77961 20.5893 4.74174 20.5418C4.68512 20.4431 4.67519 20.2583 4.72337 20.2244C4.67539 20.2121 4.62738 20.1996 4.57935 20.1866C4.62889 20.0483 4.35682 19.6311 4.20539 19.4778C4.21051 19.4093 4.21645 19.3414 4.22294 19.2735C4.15156 19.2198 4.08053 19.1649 4.00988 19.1087C3.92426 18.9442 4.06635 19.0954 4.05592 19.0569C4.03188 18.9777 3.76364 18.6287 3.91199 18.6007C3.89155 18.547 3.8715 18.4932 3.85186 18.4391C3.8022 18.4259 3.75257 18.4125 3.70296 18.3988C3.80615 18.2565 3.69785 18.1131 3.64686 17.7629C3.60654 17.7445 3.56625 17.7257 3.52599 17.7068C3.54097 17.589 3.5578 17.472 3.57643 17.3557C3.51746 17.3482 3.45847 17.3404 3.3995 17.3324C3.38015 17.2885 3.36105 17.2444 3.34221 17.2001C3.43964 17.0782 3.27178 16.9394 3.30383 16.8417C3.35143 16.7008 3.45602 16.7817 3.52408 17.0066C3.60309 16.9699 3.42882 16.298 3.40514 16.1377C3.38928 16.1507 3.37343 16.1638 3.35761 16.1769C3.39562 16.338 3.4373 16.4987 3.4822 16.6569C3.2863 16.8371 3.25958 16.3813 3.20318 16.179C3.19793 16.1607 3.09612 16.0662 3.07917 15.8543C3.07142 15.771 3.16636 15.4437 3.16994 15.3837C3.19622 14.8942 3.03515 15.2594 3.17515 14.7782C3.08526 14.8565 3.11707 14.7128 3.12898 14.5124C3.13263 14.4511 3.13446 14.3846 3.13014 14.3176C3.12504 14.2691 3.04382 13.854 3.04488 13.8239C3.04059 13.648 3.13315 13.8447 3.12421 13.5916C3.09876 13.5593 3.07345 13.5267 3.04827 13.494C3.05344 13.4353 3.05902 13.3771 3.06511 13.3182C3.35118 12.9902 3.1841 12.8914 3.17932 12.7607C3.1779 12.7085 3.23153 12.7836 3.23916 12.6505C3.24233 12.6005 3.19781 12.5366 3.21862 12.4033C3.28783 11.9842 3.54481 11.9049 3.41185 11.4696C3.46134 11.4213 3.51112 11.3737 3.56117 11.3269C3.53214 11.2769 3.50344 11.2266 3.47505 11.1759C3.68219 10.9184 3.53136 10.9873 3.56727 10.8815C3.6593 10.6022 3.90679 10.0517 4.02182 10.0456C3.91 9.72026 4.27803 9.55469 4.31357 9.46478C4.31478 9.39973 4.31659 9.33453 4.31899 9.26917C4.37591 9.22038 4.43314 9.17239 4.49067 9.12517C4.27505 9.04642 4.64551 8.83815 4.6661 8.81265C4.68603 8.77949 4.91789 8.27419 5.03872 8.10634C5.15471 7.93556 5.41694 7.68539 5.43664 7.66134C5.45775 7.63253 5.62269 7.31849 5.80275 7.11136C5.94312 6.91093 7.01456 5.98729 6.89255 5.98417C6.80454 6.02482 6.68999 6.0963 6.59735 6.16567C6.27639 6.34504 4.87596 7.92886 4.61942 8.41334C4.01829 9.31657 3.56272 10.3668 3.25304 11.4132C3.23478 11.4749 3.17571 11.4691 3.16018 11.5225C3.13633 11.6042 3.14254 11.824 3.12338 11.9042C3.04805 12.2045 2.97404 12.5709 2.94828 12.7356C2.89044 13.0987 2.8298 13.3496 2.80257 13.6282C2.7928 13.7171 2.83957 14.1609 2.81 14.4649C2.80523 14.4807 2.80049 14.4965 2.79577 14.5124C2.78401 14.5519 2.77244 14.5916 2.76106 14.6313C2.75698 14.6004 2.75174 14.5596 2.74618 14.5124C2.72255 14.319 2.69864 14.0212 2.70318 13.8666C2.71104 13.5788 2.77377 13.4352 2.78298 13.3308C2.78919 13.2425 2.79027 12.7883 2.82521 12.5837C2.83529 12.5203 2.89808 12.5178 2.90726 12.4641C2.95587 12.1729 3.03882 11.7924 3.04646 11.5288C3.03612 11.634 3.24875 11.0132 3.26314 10.9824C3.28087 10.9264 3.24549 10.8476 3.2841 10.7331C3.3601 10.5132 3.46141 10.5837 3.45163 10.2702C3.51017 10.2158 3.56907 10.1623 3.6283 10.1097C3.47589 10.0404 4.04056 9.30755 3.99686 8.99625C3.96944 8.97203 3.40818 10.0214 3.38282 10.1185C3.14096 10.6584 2.92828 11.5074 2.78998 12.0623C2.74321 12.2264 2.5575 12.7492 2.55623 12.7906C2.54962 12.8566 2.61317 12.8051 2.61114 12.8337C2.57753 13.4183 2.50525 13.117 2.46293 13.1908ZM21.587 5.93903C21.4638 5.82781 21.3381 5.7193 21.2098 5.61345C21.2407 5.59277 21.2717 5.57218 21.3027 5.55166C21.3554 5.60923 21.4073 5.66723 21.4586 5.72565C21.5177 5.74595 21.5767 5.7668 21.6357 5.78822C21.6197 5.83861 21.6034 5.88888 21.587 5.93903ZM21.9944 6.0967C22.1146 6.18118 22.0692 6.24114 22.0914 6.26636C22.157 6.34223 22.2402 6.37997 22.309 6.44849C22.1067 6.49633 21.9928 6.27921 21.9944 6.0967ZM19.5445 4.35028C19.5718 4.37344 19.6768 4.6379 19.9793 4.60529C20.1156 4.74567 20.2465 4.88836 20.3734 5.03391C20.1529 4.79243 19.7256 4.65882 19.5918 4.58738C19.5407 4.55949 19.5572 4.50264 19.5159 4.48059C19.2757 4.35331 18.9841 4.36804 19.0369 4.18067C19.2476 4.3352 19.5107 4.32165 19.5445 4.35028ZM20.9188 5.24973C20.9313 5.30764 20.9432 5.36547 20.9547 5.42323C20.8286 5.33284 20.7003 5.2449 20.5707 5.15992C20.6281 5.14882 20.6858 5.13817 20.7437 5.12797C20.8024 5.16797 20.8608 5.20861 20.9188 5.24973ZM9.39094 4.26264C9.47906 4.21958 9.56737 4.17784 9.65631 4.13719C9.63907 4.11269 9.5376 4.16033 9.49183 4.1605C9.49199 4.16042 9.49216 4.16034 9.49232 4.16026C9.44106 4.16012 9.44235 4.11732 9.35909 4.13951C9.36962 4.18059 9.38023 4.22163 9.39094 4.26264ZM23.2457 22.0718C23.3773 21.9638 24.279 20.7149 24.1004 20.7568C24.0225 20.7838 23.7672 21.2387 23.6718 21.3598C23.5492 21.5294 23.1086 21.884 23.2457 22.0718ZM24.7837 19.8293C24.7078 19.7624 24.2262 20.5825 24.1828 20.6662C24.2063 20.6576 24.2512 20.6498 24.2718 20.6313C24.3752 20.543 24.6671 20.002 24.7837 19.8293ZM4.9849 7.57454C5.07475 7.54331 5.16465 7.51334 5.25451 7.48469C5.1864 7.4582 5.11811 7.43204 5.04964 7.40621C5.02754 7.4623 5.00598 7.51838 4.9849 7.57454ZM2.79445 14.6937C2.81004 15.9905 3.04277 17.287 3.48441 18.5072C3.418 18.4102 3.35281 18.3116 3.28892 18.2114C2.94036 17.1371 2.76767 15.9419 2.69511 14.857C2.72785 14.8022 2.76096 14.7478 2.79445 14.6937ZM19.3566 3.90873C19.0535 3.76802 18.7803 3.70952 18.4679 3.50739C18.8225 3.55397 18.9332 3.73209 19.289 3.76231C19.2892 3.76239 19.2894 3.76247 19.2896 3.76254C19.3123 3.81124 19.3347 3.85996 19.3566 3.90873ZM12.089 3.04996C12.1782 2.98158 12.269 2.91422 12.3615 2.8479C12.2397 2.86959 12.1194 2.89295 11.9981 2.91851C12.0286 2.96222 12.059 3.00604 12.089 3.04996ZM7.8656 24.4634C8.21229 24.5766 8.90892 25.1934 9.23264 25.1985C9.25261 25.1986 9.12471 25.0765 9.41685 25.1008C9.22139 25.0315 9.08173 24.9833 9.02985 25.0499C8.9877 24.9965 8.94619 24.943 8.90532 24.8892C8.8056 24.8599 8.70548 24.8289 8.60591 24.7966C8.65632 24.7302 8.64717 24.7311 8.48312 24.7006C8.43187 24.6463 8.38143 24.5917 8.33143 24.5366C8.28741 24.5506 8.24323 24.5644 8.19888 24.5779C8.17177 24.5035 8.1456 24.4291 8.12035 24.3547C7.89037 24.2681 7.96066 24.4267 7.8656 24.4634ZM6.87804 23.7066C6.89753 23.7798 8.27285 24.6785 7.75689 24.1165C7.59707 24.0113 7.43996 23.9022 7.2852 23.7891C7.24441 24.1032 6.97931 23.5855 6.95367 23.5529C6.81259 23.4019 6.57405 23.2771 6.46635 23.1725C6.37382 23.0829 6.35244 22.9948 6.28693 22.9332C6.06162 22.7245 5.73264 22.3698 5.60472 22.393C5.76319 22.5743 5.93068 22.7531 6.11053 22.9274C6.30039 23.1093 6.39854 23.3551 6.87308 23.5653C6.95718 23.6559 6.86962 23.6935 6.87804 23.7066ZM12.6689 2.80883C12.6731 2.91886 13.2836 2.81496 13.2844 2.77384C13.2836 2.74719 13.0806 2.76937 13.0507 2.76338C13.0505 2.7634 13.0503 2.76342 13.0501 2.76345C13.0375 2.7606 13.0938 2.7102 12.9969 2.70971C12.8866 2.74126 12.7772 2.77431 12.6689 2.80883ZM21.6656 23.9133C21.7957 23.9423 23.2106 22.6093 23.1986 22.5213C23.2028 22.5042 23.1677 22.5013 23.1599 22.4859C22.9235 22.8814 22.384 23.2506 22.0544 23.5157C21.9625 23.5906 22.0182 23.6022 22.0137 23.6072C22.0135 23.6074 22.0132 23.6076 22.013 23.6078C21.9611 23.6525 21.6569 23.7557 21.6656 23.9133ZM9.81713 25.409C9.74848 25.3605 9.68058 25.3114 9.61343 25.2617C9.58014 25.2852 9.54671 25.3084 9.51314 25.3316C9.51332 25.3317 9.51349 25.3318 9.51366 25.3319C9.61459 25.3589 9.71575 25.3847 9.81713 25.409ZM12.521 26.311C12.505 26.2834 12.4891 26.2558 12.4734 26.2281C12.2691 26.1904 12.0678 26.1477 11.8656 26.0993C11.889 26.0902 11.9123 26.0811 11.9356 26.0719C11.6391 25.9686 11.4951 26.0191 11.336 25.9637C11.3362 25.9638 11.3364 25.9638 11.3366 25.9639C11.3196 25.9577 11.3122 25.9026 11.2487 25.883C11.1024 25.8402 10.6933 25.6896 10.6271 25.7196C10.4831 25.793 11.3446 26.0102 11.5057 26.0466C11.577 26.0672 11.6536 26.1321 11.6978 26.1435C11.7463 26.1559 11.8258 26.1123 11.9438 26.1396C11.9782 26.149 12.3491 26.2957 12.521 26.311ZM16.1774 26.2683C16.1066 26.2226 15.9822 26.2934 15.9322 26.2903C15.9204 26.2896 16.0046 26.2322 15.8938 26.2319C15.8668 26.2672 15.8396 26.3023 15.812 26.3374C15.9346 26.3162 16.0564 26.2932 16.1774 26.2683ZM13.7086 2.64478C13.6896 2.63283 13.3537 2.66321 13.3387 2.67337C13.1486 2.79063 13.8371 2.72418 13.7086 2.64478ZM21.7416 4.97085C21.7252 4.73696 23.0475 6.06875 23.1473 6.21754C23.0753 6.2738 22.8326 5.89642 22.9043 6.14925C22.8029 5.94116 22.3303 5.55619 22.2331 5.4511C22.1754 5.38541 22.21 5.31019 22.2015 5.29969C22.1683 5.25704 21.7548 5.04352 21.7416 4.97085ZM24.0832 7.42989C23.9932 7.27811 23.8995 7.12778 23.8025 6.97949C23.9413 7.13485 24.0765 7.29432 24.2074 7.45703C24.1659 7.44772 24.1246 7.43868 24.0832 7.42989ZM24.2469 7.58457C24.3196 7.5264 24.6005 8.06241 24.697 8.18748C24.4744 8.11738 24.4359 7.7927 24.2469 7.58457ZM15.9692 2.48408C15.698 2.39181 15.5515 2.65266 15.8987 2.57137C15.9092 2.56862 15.9803 2.48861 15.9692 2.48408ZM7.72563 24.8324C7.76208 24.8628 8.22987 25.2537 8.28446 25.2303C8.44906 25.1639 8.08157 25.0155 7.99874 24.8993C7.86646 24.7134 8.16303 24.8233 7.70741 24.5863C7.74041 24.5746 7.77332 24.5628 7.80614 24.5509C7.56492 24.3778 7.53552 24.591 7.47664 24.5813C7.45839 24.5784 7.31343 24.4558 7.27878 24.4456C6.83882 24.3215 7.6849 24.8151 7.72563 24.8324ZM9.24149 3.54105C8.70579 3.71318 8.97188 3.71044 8.47079 3.97809C8.48216 4.03539 9.19487 3.61494 9.24149 3.54105ZM4.03017 20.8698C4.35204 21.3474 4.56477 21.7848 4.98637 22.137C5.07269 22.0238 3.97299 20.7387 4.03017 20.8698ZM25.9891 19.0005C24.9102 21.0099 23.3886 23.1468 21.4055 24.5151C21.1912 24.6637 21.1332 24.6203 21.059 24.6779C21.01 24.7152 21.048 24.7543 20.979 24.7986C18.9982 26.0688 16.7238 26.7479 14.4525 26.7476C13.8643 26.7482 13.281 26.7046 12.702 26.615C12.5205 26.5952 11.6932 26.3172 11.4731 26.4315C11.3026 26.5262 11.9436 26.5735 12.0463 26.5904C12.1235 26.6064 12.1153 26.6674 12.1673 26.6774C12.2225 26.6879 12.1845 26.6382 12.2486 26.6492C12.521 26.6956 12.8154 26.7543 13.0646 26.7783C13.528 26.8235 13.9897 26.8439 14.4525 26.8403C16.4136 26.8253 18.3432 26.3705 20.0954 25.4719C20.3561 25.3364 20.3254 25.4063 20.3387 25.4C20.3389 25.3997 20.339 25.3995 20.3391 25.3993C21.7441 24.6532 23.0829 23.4018 24.1359 22.1145C24.8888 21.212 25.5153 20.1972 25.9855 19.1095C25.9869 19.0732 25.9881 19.0368 25.9891 19.0005ZM6.82906 23.9653C6.8271 24.2 6.96389 24.0799 7.33913 24.4471C7.39213 24.4461 7.445 24.4447 7.49773 24.4429C7.26952 24.2913 7.04619 24.1318 6.82838 23.9648C6.82861 23.965 6.82883 23.9652 6.82906 23.9653ZM9.73493 25.779C9.71528 26.0555 10.8888 26.3027 11.3913 26.4622C11.5146 26.3676 10.7627 26.2197 10.5957 26.1429C10.5101 26.1091 10.1017 25.8299 9.74027 25.7534C9.73849 25.7619 9.73671 25.7704 9.73493 25.779ZM20.2847 3.59447C20.2055 3.56037 20.126 3.52711 20.0461 3.49469C20.225 3.61692 20.4 3.74347 20.5711 3.87422C20.2848 3.68847 19.9906 3.51462 19.6886 3.35284C19.7684 3.33275 19.8486 3.3134 19.9296 3.29501C20.0506 3.39302 20.1689 3.49288 20.2847 3.59447ZM19.2693 3.13821C19.8273 3.36112 19.1985 3.23452 19.085 3.12429C19.0163 3.05615 19.2122 3.11578 19.2693 3.13821ZM17.8217 2.53551C18.119 2.51981 18.6668 2.70016 18.4146 2.80784C18.153 2.63069 17.9466 2.63856 17.5323 2.47996C17.6033 2.46191 17.6751 2.44462 17.747 2.42787C17.7473 2.42795 17.7476 2.42803 17.7479 2.42811C17.7728 2.46385 17.7974 2.49965 17.8217 2.53551ZM19.5662 3.14733C19.8845 3.40144 18.8513 2.9147 19.2073 2.9924C19.2244 2.99461 19.5542 3.13613 19.5662 3.14733ZM25.0012 21.3411C24.9775 21.2688 24.8107 21.525 24.7485 21.606C24.4848 21.9597 24.158 22.4226 23.8471 22.7613C23.8847 22.7483 23.9223 22.7351 23.9599 22.7217C24.3379 22.2861 24.6862 21.8245 25.0012 21.3411ZM22.84 23.783C22.6063 23.9945 22.3645 24.1974 22.1156 24.3908C22.0926 24.4088 22.0139 24.5336 22.1032 24.4809C22.3587 24.2577 22.6045 24.0247 22.84 23.783ZM5.16081 22.8765C5.2982 23.0814 4.70329 22.6686 4.86677 22.5712C4.96316 22.6747 5.06119 22.7765 5.16081 22.8765ZM3.75029 21.1179C3.84542 21.2386 3.94251 21.3571 4.04147 21.4734C4.02404 21.4854 4.00661 21.4973 3.98918 21.5092C3.90721 21.3803 3.82757 21.2498 3.75029 21.1179ZM25.6637 20.2831C25.5265 20.3943 25.3521 20.7363 25.2264 20.9407C25.3657 20.8314 25.5335 20.4713 25.6637 20.2831ZM7.89817 25.2469C7.90285 25.2018 8.73813 25.6845 8.40468 25.5976C8.23242 25.4846 8.06369 25.3677 7.89817 25.2469ZM9.62011 26.2048C9.42315 26.135 9.28218 26.0522 9.35293 25.9993C9.45206 26.047 9.55232 26.0936 9.65243 26.1385C9.64166 26.1606 9.63089 26.1827 9.62011 26.2048ZM16.8044 2.14596C16.4588 2.08772 16.1127 2.04421 15.7631 2.01494C15.7783 1.99528 15.7934 1.97564 15.8087 1.95603C16.147 1.98531 16.4825 2.02794 16.8172 2.0843C16.8129 2.10485 16.8087 2.12541 16.8044 2.14596ZM25.9232 20.1904C26.0196 19.9649 26.1088 19.7382 26.1919 19.508C26.083 19.7274 25.9686 19.9419 25.8478 20.1537C25.8729 20.1662 25.8981 20.1786 25.9232 20.1911C25.9232 20.1909 25.9232 20.1906 25.9232 20.1904ZM21.3804 3.67695C20.4969 3.01805 21.7561 3.65833 21.9029 3.959C21.9032 3.95908 21.9035 3.95916 21.9038 3.95924C21.9171 3.98428 21.8378 4.00396 21.8576 4.04855C21.7834 3.96168 21.7076 3.87545 21.6306 3.79014C21.5268 3.76241 21.423 3.73611 21.3191 3.71122C21.2985 3.68184 21.2776 3.6525 21.2566 3.62321C21.2979 3.6409 21.3392 3.65881 21.3804 3.67695ZM24.6613 6.60196C25.2444 7.40508 24.529 6.67584 24.3039 6.22957C24.3288 6.21295 24.6074 6.52757 24.6613 6.60196ZM22.847 4.74207C22.7193 4.6508 22.5902 4.562 22.4598 4.47578C22.4553 4.44954 22.4507 4.42328 22.446 4.397C22.5511 4.45773 22.6554 4.51997 22.7591 4.58396C22.7889 4.63656 22.8182 4.68927 22.847 4.74207ZM18.4745 1.98472C18.2331 1.89019 17.8696 1.97662 18.6623 2.1792C18.6688 2.15908 18.6752 2.13896 18.6816 2.11884C18.6495 2.11135 18.5522 2.09977 18.5477 2.09671C18.535 2.08704 18.5742 2.02536 18.4745 1.98472ZM26.1666 7.85708C26.1872 7.87823 26.3934 7.78451 26.3376 8.16605C26.3937 8.24126 26.4492 8.31724 26.504 8.39399C26.4712 8.43771 26.4382 8.48122 26.405 8.52454C26.2771 8.18841 26.1682 8.20393 26.1549 8.18212C26.0902 8.08286 26.177 8.1351 26.1407 8.06777C26.0485 7.89287 25.7881 7.52659 26.0177 7.62638C26.1007 7.66294 26.1453 7.83541 26.1666 7.85708ZM25.9098 7.18718C25.9178 7.23407 25.7866 7.15053 25.7891 7.18844C25.7931 7.22099 25.9645 7.62357 25.8088 7.58143C25.776 7.51902 25.7428 7.45685 25.7091 7.39495C25.7218 7.35867 25.7344 7.3223 25.7468 7.28583C25.6864 7.24314 25.6257 7.2011 25.5649 7.15973C25.5643 7.02362 25.5031 6.76347 25.719 6.97352C25.6533 6.88699 25.5865 6.8011 25.5189 6.71626C25.4574 6.69095 25.3959 6.66622 25.3344 6.64206C25.3955 6.63381 25.4567 6.62591 25.5181 6.61836C25.6534 6.8046 25.784 6.9943 25.9098 7.18718ZM27.3403 10.233C27.3095 10.2293 27.2786 10.2256 27.2478 10.2221C27.4275 10.5824 27.6052 11.1766 27.3431 10.8849C27.185 10.376 26.9957 9.87536 26.778 9.39041C26.784 9.34971 26.7898 9.3091 26.7953 9.26805C26.8725 9.66568 27.1479 9.42358 27.1806 9.78855C27.1847 9.85 27.0145 9.73079 27.2114 10.0524C27.2337 10.0307 27.2559 10.0089 27.2781 9.98702C27.2996 10.0688 27.3203 10.1508 27.3403 10.233ZM27.9562 13.5956C27.9432 12.9126 28.1075 13.6542 28.0256 13.7877C28.0256 13.7874 28.0256 13.7872 28.0256 13.787C27.8109 14.1415 27.8836 13.3992 27.8736 13.3545C27.8658 13.2937 27.6907 13.1767 27.8927 12.8236C27.9213 13.0814 27.9423 13.3375 27.9562 13.5956ZM27.6671 11.3885C27.6855 11.4432 27.637 11.4218 27.6432 11.4458C27.6433 11.446 27.6433 11.4462 27.6434 11.4464C27.743 11.7989 27.9194 12.6536 27.7898 12.7637C27.7591 12.4971 27.4939 11.3271 27.5542 11.237C27.5921 11.287 27.6297 11.3375 27.6671 11.3885ZM26.7481 8.99387C26.7367 8.75282 26.9555 9.20976 26.9656 9.34854C26.9665 9.37443 26.759 9.2412 26.7481 8.99387ZM12.8137 0.906728C12.3266 1.02202 12.9809 0.99269 12.7673 1.10348C12.8597 1.08484 12.9525 1.06714 13.0457 1.05038C12.9691 1.00185 12.8917 0.953962 12.8137 0.906728ZM0.879576 17.3839C0.894528 17.5015 0.93264 17.436 0.935486 17.4459C0.950385 17.5217 0.92617 17.6019 0.937117 17.6299C1.14613 18.1428 1.10236 17.7777 1.11052 17.7711C1.15681 17.7484 1.24713 17.8713 1.25703 17.6678C1.21221 17.5566 1.16875 17.4444 1.12669 17.3312C1.1418 17.2673 1.15746 17.2042 1.17357 17.1413C1.07009 16.922 1.11199 17.2269 1.04188 17.2777C1.0141 17.2979 0.931968 17.0835 0.879576 17.3839ZM11.8993 0.875931C11.8343 0.977663 11.6637 1.12524 11.87 1.17517C11.8702 1.17513 11.8705 1.17509 11.8707 1.17505C11.9087 1.18406 12.053 1.16652 12.1008 1.1815C12.3944 1.01319 12.2583 0.909637 11.8993 0.875931ZM0.44185 15.2375C0.452441 15.0402 0.467123 14.8431 0.485901 14.6459C0.538907 14.6487 0.591913 14.6515 0.644921 14.6543C0.631693 14.7587 0.619626 14.8632 0.60872 14.9677C0.634058 15.0034 0.659531 15.0389 0.685137 15.0741C0.740355 14.9434 0.797399 14.8139 0.856221 14.6858C0.847557 14.6282 0.839253 14.5704 0.831311 14.5124C0.818135 14.4162 0.805959 14.3199 0.794782 14.2236C0.765364 14.2938 0.736477 14.3645 0.708133 14.4357C0.681999 14.0559 0.809664 14.1407 0.871771 13.8346C0.827977 13.726 0.785507 13.6159 0.744331 13.5053C0.804788 13.3536 0.867583 13.2054 0.932953 13.0572C0.938527 12.7973 0.905463 12.7692 0.828706 12.9371C0.779723 12.8002 0.897944 12.6719 0.89445 12.5148C0.894221 12.5018 0.830841 12.517 0.831764 12.5056C0.918246 11.6958 1.08328 11.7744 1.11256 11.649C1.13457 11.5614 1.11367 11.1842 1.08076 11.1693C1.03817 11.1476 0.652736 11.8525 0.954096 10.6789C0.649333 11.2492 0.651793 11.9829 0.936393 11.5729C0.867865 11.7592 0.775112 12.6174 0.768438 12.6703C0.74918 12.7482 0.678472 12.7108 0.664112 12.8105C0.656918 12.8707 0.802458 13.0425 0.617958 13.4962C0.641614 13.5581 0.665679 13.6197 0.690145 13.6811C0.663786 13.7356 0.637712 13.7912 0.612034 13.8456C0.535318 13.7265 0.460215 13.604 0.386663 13.4807C0.435599 13.8974 0.307011 14.2377 0.374322 14.5124C0.383334 14.5487 0.395855 14.5836 0.412782 14.6169C0.398481 14.8618 0.387548 14.9813 0.311944 14.8779C0.313822 14.9517 0.316267 15.0254 0.319276 15.0989C0.35991 15.1456 0.400766 15.1917 0.44185 15.2375ZM10.4934 1.34668C10.2412 1.33715 10.2132 1.53446 10.2519 1.5321C10.466 1.52058 10.6237 1.35274 10.4934 1.34668ZM0.889093 16.9394C0.887791 16.6713 0.89469 16.4062 0.909132 16.1417C0.853497 16.1484 0.797862 16.155 0.742228 16.1616C0.783801 16.4227 0.832628 16.6811 0.889093 16.9394ZM12.872 0.773103C12.9009 0.812066 12.9297 0.851117 12.9582 0.890255C13.2293 0.706151 13.5323 0.905862 13.6698 0.852873C13.7001 0.841251 13.6338 0.770588 13.5737 0.758472C13.536 0.747556 12.9228 0.749596 12.872 0.773103ZM23.9335 4.47298C23.8359 4.41958 23.7379 4.36752 23.6396 4.31687C23.6756 4.28574 23.7117 4.25466 23.7478 4.22363C23.7933 4.25287 23.8386 4.28245 23.8839 4.3123C23.9008 4.36587 23.9173 4.41943 23.9335 4.47298ZM22.9609 3.73135C22.8135 3.61002 22.6633 3.49158 22.5108 3.37645C23.1218 3.77772 22.6556 3.39994 23.0461 3.62361C23.0177 3.65952 22.9893 3.69544 22.9609 3.73135ZM21.4132 2.56051C21.4479 2.54807 21.4826 2.53576 21.5174 2.52356C21.6838 2.6218 21.8488 2.72392 22.0111 2.82912C21.9617 2.68042 21.9091 2.53162 21.8534 2.38285C21.7917 2.34482 21.7299 2.30741 21.6677 2.27037C21.5823 2.3667 21.4975 2.46342 21.4132 2.56051ZM2.70724 22.2824C2.76998 22.3834 3.07601 22.6712 3.09187 22.6373C3.02459 22.4769 2.96034 22.3155 2.89979 22.154C2.85256 22.1844 2.80532 22.2148 2.75807 22.2451C2.76809 22.2096 2.77823 22.1742 2.78851 22.1389C2.71821 22.0699 2.64847 21.9999 2.57933 21.929C2.59505 21.8616 2.61125 21.7945 2.62792 21.7277C2.55478 21.7155 2.48169 21.7028 2.40844 21.6894C2.56638 22.142 2.64747 22.0735 2.69815 22.1559C2.72468 22.1975 2.71288 22.2426 2.70798 22.267C2.70773 22.2721 2.70748 22.2773 2.70724 22.2824ZM0.505678 16.8177C0.585845 17.3779 0.803009 17.657 0.783494 18.0799C0.950443 17.7736 0.37492 16.1726 0.578399 15.5599C0.531762 15.5024 0.485473 15.4443 0.439545 15.3856C0.497112 15.7044 0.433388 15.9307 0.438413 16.0908C0.442679 16.2166 0.485481 16.1982 0.4859 16.2078C0.485954 16.2083 0.486007 16.2087 0.486061 16.2092C0.504038 16.5019 0.475725 16.5959 0.505678 16.8177ZM13.2616 0.526991C13.1069 0.472295 12.8436 0.507622 12.8521 0.605083C13.0011 0.616484 13.1478 0.630441 13.2944 0.646626C13.2627 0.624236 13.288 0.536234 13.2616 0.526991ZM21.3523 2.21208C21.2651 2.12578 21.0061 2.01897 21.0722 2.14975C21.0841 2.1724 21.3541 2.25361 21.1394 2.30874C21.3736 2.43592 21.4019 2.26135 21.3523 2.21208ZM2.33743 7.62349C2.38351 7.53693 2.43049 7.45088 2.47835 7.36537C2.45633 7.32561 2.43445 7.28572 2.41272 7.24569C2.38575 7.37168 2.36066 7.49763 2.33743 7.62349ZM14.5277 0.409883C14.6572 0.602808 14.8853 0.419152 15.1226 0.588875C15.2121 0.59434 15.3031 0.600755 15.393 0.607986C15.3932 0.608001 15.3935 0.608016 15.3937 0.608031C15.3996 0.555822 15.4056 0.503617 15.4116 0.451413C15.1152 0.428315 14.8244 0.414656 14.5277 0.409883ZM0.46556 13.413C0.494598 13.3544 0.523997 13.2962 0.553748 13.2384C0.535083 13.1293 0.517765 13.0189 0.501803 12.9078C0.474907 12.9638 0.448333 13.0202 0.422107 13.0768C0.435272 13.1891 0.449759 13.3012 0.46556 13.413ZM16.1302 0.492052C15.813 0.432027 15.6793 0.587065 16.0826 0.631002C16.2516 0.650984 16.4598 0.558684 16.1302 0.492052ZM7.08063 26.4388C6.99552 26.3693 6.91141 26.299 6.82833 26.2277C6.77818 26.237 6.72788 26.246 6.67744 26.2547C6.81105 26.3183 6.94547 26.3797 7.08063 26.4388ZM22.62 3.03955C22.5892 3.06074 22.5584 3.08199 22.5277 3.10331C22.4528 3.04155 22.3772 2.98051 22.3009 2.9202C22.3407 2.905 22.3806 2.88995 22.4206 2.87506C22.4876 2.92933 22.5541 2.98417 22.62 3.03955ZM6.48055 26.0194C6.41298 25.9643 6.34599 25.9087 6.2796 25.8525C6.22236 25.8322 6.16517 25.8116 6.10803 25.7905C6.16334 25.8526 6.21932 25.9143 6.27597 25.9757C6.34421 25.9908 6.4124 26.0054 6.48055 26.0194ZM19.0778 1.18591C18.9747 1.10369 18.4675 1.07911 18.8761 1.24727C19.1341 1.35708 19.0932 1.19845 19.0778 1.18591ZM19.7151 1.37917C19.3066 1.13534 19.487 1.632 20.0986 1.60873C19.5677 1.42109 19.7383 1.39555 19.7151 1.37917ZM23.4037 3.28801C23.4129 3.2957 23.3841 3.34759 23.4567 3.40922C23.7195 3.63045 24.0423 3.94831 24.2172 4.11942C24.6616 4.50243 25.9163 5.8195 25.8832 6.10645C25.8803 6.16262 25.735 6.14549 25.7411 6.16307C25.7601 6.2129 25.9753 6.42425 25.8791 6.42516C25.7116 6.18783 25.5366 5.95555 25.3547 5.72907C25.4426 5.74978 25.5306 5.7715 25.6187 5.79423C25.1383 5.24142 25.2883 5.43104 25.0627 5.34908C25.0179 5.22569 24.971 5.10246 24.9222 4.97941C24.7058 4.81164 24.4856 4.65109 24.2619 4.4978C24.3297 4.51514 24.3975 4.53308 24.4654 4.55161C24.2232 4.21999 24.2716 4.3294 24.0532 4.23929C24.0768 4.21339 24.1004 4.18749 24.124 4.16159C23.7789 3.95801 23.7891 3.83322 23.7252 3.77501C23.5875 3.65673 23.172 3.83294 22.8878 3.10469C22.5438 3.0982 22.7823 2.77451 22.5273 2.84633C22.2546 2.38926 22.9732 2.97211 23.3058 3.25389C23.306 3.25404 23.3062 3.25418 23.3064 3.25432C23.3318 3.27523 23.3142 3.2131 23.4037 3.28801ZM21.231 2.08832C21.5783 2.06392 20.5588 1.51326 20.7806 1.9239C20.827 1.95682 20.8731 1.98998 20.919 2.02338C21.0232 2.04389 21.1272 2.06555 21.2316 2.08865C21.2314 2.08854 21.2312 2.08843 21.231 2.08832ZM10.7721 0.720517C9.7652 1.08736 10.3789 1.01646 10.6964 0.820979C10.7606 0.782406 10.7919 0.745461 10.7721 0.720517ZM0.522325 17.6387C0.547065 17.6492 0.571812 17.6597 0.59657 17.67C0.491812 17.3241 0.46304 16.6312 0.321271 16.6614C0.37711 16.9909 0.443634 17.3141 0.522325 17.6387ZM0.0855327 14.8296C0.0773196 14.9073 0.0689175 15.2237 0.122797 15.1829C0.155539 15.0451 0.190234 14.9079 0.226857 14.7714C0.201316 14.7086 0.176182 14.6454 0.151465 14.5817C0.143402 14.6707 0.0872862 14.8085 0.0855327 14.8296Z" fill="white"/>
</svg>
