<svg width="100" height="42" viewBox="0 0 100 42" fill="none" xmlns="http://www.w3.org/2000/svg">
<path opacity="0.74" d="M21.2227 41.9414C21.1395 41.9424 21.0561 41.9453 20.9727 41.9453L20.7217 41.9414L20.7334 40.9434C20.8129 40.9443 20.8929 40.9453 20.9727 40.9453C21.0524 40.9453 21.1324 40.9443 21.2119 40.9434L21.2227 41.9414ZM20.2578 40.9326L20.2227 41.9297C20.0561 41.9238 19.8901 41.916 19.7246 41.9062L19.7832 40.9102C19.9408 40.9194 20.0992 40.927 20.2578 40.9326ZM22.2197 41.9062C22.0542 41.916 21.8882 41.9238 21.7217 41.9297L21.6875 40.9326C21.8461 40.927 22.0045 40.9194 22.1621 40.9102L22.2197 41.9062ZM23.1621 41.3291L23.2139 41.8252C23.0491 41.8427 22.8837 41.8584 22.7178 41.8721L22.6367 40.877C22.7947 40.8639 22.9524 40.8487 23.1094 40.832L23.1621 41.3291ZM19.3086 40.877L19.2256 41.8711C19.0597 41.8574 18.8943 41.8427 18.7295 41.8252L18.7822 41.3291L18.8359 40.832C18.9928 40.8487 19.1507 40.8639 19.3086 40.877ZM18.3623 40.7764L18.29 41.3291L18.2334 41.7666C18.0684 41.7451 17.904 41.7216 17.7402 41.6963L17.8926 40.709C18.0484 40.7331 18.2053 40.7559 18.3623 40.7764ZM24.2041 41.6963C24.0403 41.7216 23.8759 41.7451 23.7109 41.7666L23.582 40.7764C23.7391 40.7559 23.8959 40.7331 24.0518 40.709L24.2041 41.6963ZM17.4229 40.6309L17.2471 41.6143C17.0833 41.5849 16.9202 41.5536 16.7578 41.5205L16.8574 41.0312L16.957 40.541C17.1115 40.5725 17.2671 40.6029 17.4229 40.6309ZM25.1719 41.4434L25.1865 41.5205C25.0241 41.5536 24.861 41.5849 24.6973 41.6143L24.668 41.4453L24.5215 40.6309C24.6773 40.6029 24.8327 40.5726 24.9873 40.541L25.1719 41.4434ZM16.4922 40.4404L16.3799 40.9268L16.3809 40.9277L16.2686 41.415H16.2676C16.1054 41.3779 15.9439 41.3388 15.7832 41.2979H15.7842L15.8086 41.2031L16.0312 40.3291C16.1842 40.368 16.3379 40.4051 16.4922 40.4404ZM26.1611 41.2979C26.0001 41.3388 25.8383 41.3778 25.6758 41.415L25.4531 40.4404C25.6074 40.4051 25.7611 40.368 25.9141 40.3291L26.1611 41.2979ZM15.5713 40.2061L15.4365 40.6875L15.3018 41.168C15.1415 41.123 14.982 41.076 14.8232 41.0273L14.8887 40.8154L15.1152 40.0732C15.2663 40.1195 15.4187 40.1633 15.5713 40.2061ZM26.9756 40.5508L27.1211 41.0273C26.9623 41.076 26.8029 41.123 26.6426 41.168L26.374 40.2061C26.5264 40.1634 26.6782 40.1194 26.8291 40.0732L26.9756 40.5508ZM14.6631 39.9277L14.5049 40.4023L14.3467 40.875C14.189 40.8225 14.0319 40.769 13.876 40.7129L14.0449 40.2432L14.2139 39.7725C14.3626 39.8259 14.5127 39.8777 14.6631 39.9277ZM28.0684 40.7129C27.9121 40.7691 27.7546 40.8225 27.5967 40.875L27.2822 39.9277C27.4326 39.8777 27.5827 39.826 27.7314 39.7725L28.0684 40.7129ZM13.7686 39.6064L13.5869 40.0723L13.5879 40.0732L13.4072 40.5371C13.252 40.4771 13.0977 40.4152 12.9443 40.3516L13.3271 39.4297C13.4732 39.4903 13.6208 39.5493 13.7686 39.6064ZM29 40.3516C28.8463 40.4153 28.6916 40.477 28.5361 40.5371L28.3809 40.1338L28.1768 39.6064C28.3244 39.5493 28.4712 39.4902 28.6172 39.4297L29 40.3516ZM12.8906 39.2422L12.6875 39.6982L12.6885 39.6992L12.4854 40.1553C12.3334 40.0879 12.1822 40.019 12.0322 39.9482L12.459 39.0449C12.6019 39.1124 12.7459 39.1781 12.8906 39.2422ZM29.7002 39.4971L29.9121 39.9482C29.7621 40.0191 29.611 40.0879 29.459 40.1553L29.3584 39.9277L29.2568 39.6992V39.6982L29.0547 39.2422C29.1995 39.178 29.3434 39.1124 29.4863 39.0449L29.7002 39.4971ZM12.0312 38.8369L11.583 39.7285C11.4343 39.6539 11.2863 39.578 11.1396 39.5L11.374 39.0605L11.6094 38.6191C11.7489 38.6933 11.8898 38.766 12.0312 38.8369ZM30.8047 39.5C30.658 39.578 30.5101 39.6539 30.3613 39.7285L30.1377 39.2842V39.2832L29.9141 38.8369C30.0556 38.7659 30.1963 38.6934 30.3359 38.6191L30.8047 39.5ZM31.6748 39.0107C31.5317 39.0958 31.3874 39.179 31.2422 39.2607L30.7529 38.3906C30.8911 38.3129 31.0289 38.2333 31.165 38.1523L31.6748 39.0107ZM11.1914 38.3906L10.9463 38.8262L10.7012 39.2598C10.5563 39.1782 10.4122 39.0956 10.2695 39.0107L10.7803 38.1523C10.9162 38.2332 11.0534 38.3129 11.1914 38.3906ZM10.375 37.9043L10.1094 38.3281L9.84375 38.75C9.70265 38.6615 9.56264 38.5712 9.42383 38.4795L9.97461 37.6475C10.1067 37.7348 10.2407 37.8201 10.375 37.9043ZM32.5205 38.4795C32.3817 38.5713 32.2417 38.6615 32.1006 38.75L31.5703 37.9043C31.7045 37.8201 31.8377 37.7347 31.9697 37.6475L32.5205 38.4795ZM20.9727 33.4492V35.7764H21.6211L21.7344 38.4316C21.4819 38.4425 21.2278 38.4492 20.9727 38.4492L20.5215 38.4434C20.4172 38.4407 20.3128 38.4361 20.209 38.4316L20.4238 33.4375C20.6052 33.4453 20.7887 33.4492 20.9727 33.4492ZM18.2656 33.1562C18.6165 33.2337 18.9737 33.2965 19.3359 33.3438L18.6895 38.2998C18.1817 38.2335 17.6806 38.145 17.1875 38.0361L18.2656 33.1562ZM24.4287 36.5518L24.7559 38.0361C24.2627 38.145 23.7617 38.2336 23.2539 38.2998L22.9248 35.7764H24.2578L24.4287 36.5518ZM9.58203 37.3809L9.01074 38.2002C8.87412 38.1052 8.73872 38.0083 8.60449 37.9102L9.19434 37.1045C9.32218 37.198 9.45192 37.2903 9.58203 37.3809ZM33.3398 37.9102C33.2056 38.0084 33.0702 38.1051 32.9336 38.2002L32.8477 38.0762L32.3633 37.3809C32.4934 37.2903 32.6231 37.198 32.751 37.1045L33.3398 37.9102ZM16.1973 32.5049C16.5302 32.6429 16.8712 32.7668 17.2178 32.876L15.7148 37.6436C15.2279 37.4901 14.7497 37.316 14.2822 37.1221L14.3018 37.0762L16.1973 32.5049ZM27.6426 37.0762L27.6611 37.1221C27.1935 37.316 26.7156 37.4901 26.2285 37.6436L25.6406 35.7764H27.1035L27.6426 37.0762ZM8.81445 36.8193L8.20605 37.6104C8.07406 37.5089 7.94296 37.4062 7.81348 37.3018L8.44043 36.5254C8.56368 36.6248 8.68882 36.7228 8.81445 36.8193ZM34.1309 37.3018C34.0013 37.4063 33.8703 37.5089 33.7383 37.6104L33.1309 36.8193C33.2566 36.7227 33.3816 36.6249 33.5049 36.5254L34.1309 37.3018ZM8.07422 36.2217L7.42871 36.9834C7.30155 36.8757 7.17531 36.7669 7.05078 36.6562L7.71484 35.9102C7.83328 36.0154 7.95329 36.1193 8.07422 36.2217ZM34.8936 36.6562C34.769 36.7669 34.6428 36.8757 34.5156 36.9834L34.1943 36.6035L33.8711 36.2217C33.992 36.1193 34.1121 36.0153 34.2305 35.9102L34.8936 36.6562ZM14.2715 31.5C14.5766 31.6948 14.891 31.877 15.2129 32.0449L12.9004 36.4766C12.4487 36.2409 12.0076 35.9868 11.5801 35.7139H11.5811L12.9258 33.6064L14.2715 31.5ZM30.2627 35.7764C29.8665 36.0254 29.4597 36.2592 29.043 36.4766L28.6777 35.7764H30.2627ZM7.36328 35.5908L7.00293 35.9775L6.68164 36.3213C6.55985 36.2078 6.43937 36.0928 6.32031 35.9766L7.01855 35.2627C7.13192 35.3734 7.24731 35.4828 7.36328 35.5908ZM35.624 35.9766C35.5049 36.0929 35.3845 36.2078 35.2627 36.3213L34.7549 35.7764H35.4277L35.624 35.9766ZM22.6084 8.60059C22.9706 8.64784 23.3279 8.71066 23.6787 8.78809L24.2568 6.16895H25.6396L24.7266 9.06836C25.0731 9.17751 25.4142 9.30143 25.7471 9.43945L27.1025 6.16895H28.6768L26.7314 9.89941C27.0533 10.0673 27.3677 10.2496 27.6729 10.4443L29.0176 8.33691L29.0186 8.33789L30.3633 6.23047V6.22949C30.331 6.20889 30.2981 6.18933 30.2656 6.16895H34.7549L34.582 6.35449C34.6979 6.46244 34.8125 6.57198 34.9258 6.68262L35.2803 6.32031L35.4277 6.16895H99.2441V35.7764H35.4277L34.9258 35.2627C34.8125 35.3733 34.6979 35.4829 34.582 35.5908L34.7549 35.7764H30.2627C30.2961 35.7554 30.33 35.7351 30.3633 35.7139L29.0176 33.6064L27.6729 31.5C27.3676 31.6948 27.0535 31.8769 26.7314 32.0449L28.6777 35.7764H27.1035L25.7471 32.5049C25.4141 32.643 25.0732 32.7668 24.7266 32.876L25.6406 35.7764H24.2578L23.6787 33.1562C23.3278 33.2337 22.9707 33.2965 22.6084 33.3438L22.9248 35.7764H21.6211L21.5205 33.4375C21.3393 33.4453 21.1564 33.4492 20.9727 33.4492V8.49512C21.1564 8.49512 21.3393 8.49906 21.5205 8.50684L21.6201 6.16895H22.9248L22.6084 8.60059ZM35.2627 34.9258L35.9766 35.624C36.0929 35.5049 36.2078 35.3845 36.3213 35.2627L36.1191 35.0742L35.5908 34.582C35.4829 34.6979 35.3733 34.8125 35.2627 34.9258ZM6.68262 34.9258L6.32422 35.2744L6.3252 35.2754L5.96777 35.623C5.85166 35.5041 5.73633 35.3843 5.62305 35.2627L6.35449 34.582C6.46244 34.6979 6.57198 34.8125 6.68262 34.9258ZM6.03418 34.2305L5.66016 34.5615L5.4375 34.7607L5.28809 34.8936C5.17747 34.769 5.0686 34.6428 4.96094 34.5156L5.29883 34.2305L5.72266 33.8711C5.82506 33.992 5.92897 34.112 6.03418 34.2305ZM35.9102 34.2305L36.6562 34.8936C36.7669 34.769 36.8757 34.6428 36.9834 34.5156L36.6035 34.1943L36.2217 33.8711C36.1193 33.992 36.0153 34.1121 35.9102 34.2305ZM12.5439 30.1719C12.8118 30.4175 13.0905 30.6524 13.3789 30.874L11.8555 32.8564L10.332 34.8369C9.92887 34.527 9.53931 34.1996 9.16504 33.8564L12.5439 30.1719ZM29.4004 30.1719C29.1323 30.4176 28.854 30.6523 28.5654 30.874L31.6113 34.8369C32.0147 34.5269 32.4039 34.1997 32.7783 33.8564L29.4004 30.1719ZM5.41992 33.5049L4.64258 34.1309C4.53814 34.0014 4.4344 33.8712 4.33301 33.7393L5.12598 33.1309C5.22254 33.2565 5.32046 33.3816 5.41992 33.5049ZM36.5254 33.5049L37.3018 34.1309C37.4063 34.0013 37.5089 33.8703 37.6104 33.7383L36.8193 33.1309C36.7227 33.2566 36.6249 33.3816 36.5254 33.5049ZM4.84082 32.751L4.43652 33.0449L4.19922 33.2197L4.03418 33.3398C3.93585 33.2054 3.83932 33.0695 3.74414 32.9326L3.94141 32.7969L4.56445 32.3633C4.65496 32.4934 4.74732 32.6231 4.84082 32.751ZM37.1045 32.75L37.5078 33.0449V33.0459L37.9102 33.3398C38.0083 33.2056 38.1051 33.0702 38.2002 32.9336L37.3809 32.3633C37.2904 32.4933 37.1979 32.6223 37.1045 32.75ZM11.0703 28.5654C11.2919 28.8538 11.5269 29.1325 11.7725 29.4004L8.08691 32.7783C7.7438 32.404 7.41628 32.0145 7.10645 31.6113L11.0703 28.5654ZM30.874 28.5654C30.6523 28.854 30.4176 29.1324 30.1719 29.4004L33.8564 32.7783C34.1997 32.4039 34.527 32.0147 34.8369 31.6113L30.874 28.5654ZM4.29785 31.9697L3.87988 32.2451L3.70312 32.3633L3.46484 32.5205C3.373 32.3816 3.28195 32.2418 3.19336 32.1006L4.04004 31.5703C4.12425 31.7046 4.21056 31.8377 4.29785 31.9697ZM37.6475 31.9697L38.0645 32.2451V32.2461L38.4795 32.5205C38.5713 32.3817 38.6615 32.2417 38.75 32.1006L38.3281 31.8359L37.9043 31.5703C37.8201 31.7045 37.7347 31.8377 37.6475 31.9697ZM3.79199 31.165L2.93359 31.6748C2.84855 31.5318 2.76531 31.3874 2.68359 31.2422L3.55469 30.7529C3.63242 30.891 3.71109 31.029 3.79199 31.165ZM38.1523 31.1641L38.582 31.4199L39.0107 31.6748C39.0958 31.5317 39.179 31.3874 39.2607 31.2422L38.3906 30.7529C38.3129 30.891 38.2332 31.0281 38.1523 31.1641ZM3.32617 30.3359L2.88379 30.5703L2.88477 30.5713L2.44336 30.8047C2.36538 30.658 2.28942 30.51 2.21484 30.3613L3.1084 29.9141C3.17938 30.0556 3.25194 30.1963 3.32617 30.3359ZM38.6191 30.3359L39.0605 30.5703V30.5713L39.5 30.8047C39.578 30.658 39.6539 30.5101 39.7285 30.3613L39.2832 30.1377L38.8369 29.9141C38.7659 30.0556 38.6934 30.1963 38.6191 30.3359ZM9.89941 26.7314C10.0673 27.0533 10.2496 27.3677 10.4443 27.6729L8.33691 29.0176L6.23047 30.3633H6.22949C5.95664 29.9358 5.70241 29.4947 5.4668 29.043L9.89941 26.7314ZM32.0449 26.7314C31.8769 27.0535 31.6948 27.3676 31.5 27.6729L33.6064 29.0176V29.0186L35.7139 30.3633C35.9868 29.9357 36.2409 29.4948 36.4766 29.043L32.0449 26.7314ZM2.90039 29.4863L2.44727 29.6992L1.99609 29.9121C1.9253 29.7621 1.85638 29.6109 1.78906 29.459L2.70215 29.0547C2.76632 29.1995 2.83289 29.3433 2.90039 29.4863ZM39.0449 29.4863L39.4971 29.6992V29.7002L39.9482 29.9121C40.0192 29.7618 40.0878 29.6102 40.1553 29.458L39.2422 29.0547C39.1781 29.1994 39.1124 29.3434 39.0449 29.4863ZM2.51465 28.6172L1.59277 29C1.52906 28.8464 1.46737 28.6916 1.40723 28.5361L1.74023 28.4082L2.33887 28.1768C2.39595 28.3243 2.45418 28.4714 2.51465 28.6172ZM39.4297 28.6172L40.3516 29C40.4153 28.8463 40.477 28.6916 40.5371 28.5361L40.2051 28.4082L39.6064 28.1768C39.5493 28.3244 39.4902 28.4712 39.4297 28.6172ZM2.17188 27.7314L1.23145 28.0684C1.17525 27.912 1.12092 27.7547 1.06836 27.5967L2.0166 27.2822C2.06662 27.4326 2.1184 27.5827 2.17188 27.7314ZM39.7725 27.7314L40.7129 28.0684C40.7691 27.9121 40.8225 27.7546 40.875 27.5967L39.9277 27.2822C39.8777 27.4326 39.8259 27.5827 39.7725 27.7314ZM9.06836 24.7266C9.17751 25.0731 9.30144 25.4142 9.43945 25.7471L5.46191 27.3965L4.82129 27.6611C4.62747 27.1936 4.45317 26.7154 4.2998 26.2285L9.06836 24.7266ZM32.876 24.7266C32.7668 25.0732 32.6429 25.4141 32.5049 25.7471L36.4824 27.3965L37.1221 27.6611C37.3159 27.1935 37.4901 26.7156 37.6436 26.2285L32.876 24.7266ZM1.87207 26.8291L0.916992 27.1211C0.868396 26.9624 0.821275 26.8029 0.776367 26.6426L1.73828 26.374C1.78099 26.5264 1.82585 26.6782 1.87207 26.8291ZM40.0732 26.8291L41.0273 27.1211C41.0759 26.9624 41.1231 26.8029 41.168 26.6426L40.2061 26.374C40.1634 26.5264 40.1194 26.6782 40.0732 26.8291ZM40.3291 25.9141L41.2979 26.1611C41.3388 26.0001 41.3778 25.8383 41.415 25.6758L40.4404 25.4531C40.4051 25.6074 40.368 25.7612 40.3291 25.9141ZM1.61621 25.9141L0.646484 26.1602C0.60552 25.9992 0.566512 25.8373 0.529297 25.6748L1.50391 25.4531C1.53928 25.6075 1.57729 25.7611 1.61621 25.9141ZM1.40332 24.9873L0.913086 25.0869L0.423828 25.1875H0.422852C0.389727 25.0251 0.358451 24.8619 0.329102 24.6982L0.40625 24.6846L1.31445 24.5215C1.34238 24.6773 1.3718 24.8328 1.40332 24.9873ZM40.541 24.9873L41.0312 25.0869V25.0879L41.5205 25.1865C41.5536 25.0241 41.5849 24.861 41.6143 24.6973L40.6309 24.5215C40.6029 24.6773 40.5725 24.8327 40.541 24.9873ZM8.60059 22.6084C8.64784 22.9706 8.71066 23.3279 8.78809 23.6787L5.0957 24.4941L3.90723 24.7559C3.79841 24.2628 3.70976 23.7616 3.64355 23.2539L8.60059 22.6084ZM33.3438 22.6084C33.2965 22.9706 33.2337 23.3278 33.1562 23.6787L36.8486 24.4941L38.0361 24.7559C38.145 24.2627 38.2336 23.7617 38.2998 23.2539L33.3438 22.6084ZM1.23535 24.0518L0.740234 24.1279L0.741211 24.1289L0.248047 24.2051H0.24707C0.2217 24.0411 0.199282 23.8762 0.177734 23.7109L1.16895 23.582C1.18942 23.739 1.21125 23.896 1.23535 24.0518ZM40.709 24.0518L41.2031 24.1279V24.1289L41.6963 24.2041C41.7216 24.0404 41.7451 23.8759 41.7666 23.7109L40.7764 23.582C40.7559 23.7391 40.7331 23.8959 40.709 24.0518ZM1.11328 23.1094L0.119141 23.2139C0.101636 23.0491 0.085932 22.8837 0.0722656 22.7178L1.06836 22.6367C1.08139 22.7947 1.0966 22.9525 1.11328 23.1094ZM40.832 23.1094L41.8252 23.2139C41.8427 23.0491 41.8584 22.8837 41.8721 22.7178L40.877 22.6367C40.8639 22.7947 40.8487 22.9525 40.832 23.1094ZM1.03516 22.1621L0.0380859 22.2197C0.0283809 22.0542 0.0204942 21.8882 0.0146484 21.7217L1.0127 21.6875C1.01827 21.8461 1.02591 22.0045 1.03516 22.1621ZM40.9102 22.1621L41.9062 22.2197C41.916 22.0542 41.9238 21.8882 41.9297 21.7217L41.4326 21.7051H41.4316L40.9326 21.6875C40.927 21.8461 40.9194 22.0045 40.9102 22.1621ZM8.50684 20.4238C8.49905 20.6052 8.49512 20.7887 8.49512 20.9727C8.49512 21.1564 8.49906 21.3393 8.50684 21.5205L3.51172 21.7344C3.50728 21.6309 3.50361 21.5268 3.50098 21.4229L3.49512 20.9727C3.49512 20.7171 3.50085 20.4619 3.51172 20.209L8.50684 20.4238ZM33.4375 20.4238C33.4453 20.6052 33.4492 20.7887 33.4492 20.9727C33.4492 21.1564 33.4453 21.3393 33.4375 21.5205L38.4316 21.7344C38.4361 21.6309 38.4407 21.5268 38.4434 21.4229L38.4492 20.9727C38.4492 20.7171 38.4425 20.4619 38.4316 20.209L33.4375 20.4238ZM1.00098 20.7334C1.00005 20.8129 1 20.8929 1 20.9727C1 21.0523 1.00005 21.1325 1.00098 21.2119L0.00292969 21.2227L0 20.9727C1.89472e-06 20.889 0.00195156 20.8051 0.00292969 20.7217L1.00098 20.7334ZM40.9434 20.7334C40.9443 20.8129 40.9453 20.8929 40.9453 20.9727C40.9453 21.0523 40.9443 21.1325 40.9434 21.2119L41.9414 21.2227L41.9453 20.9727C41.9453 20.889 41.9424 20.8051 41.9414 20.7217L40.9434 20.7334ZM0.536133 19.7539H0.535156L1.03516 19.7832C1.02591 19.9408 1.01827 20.0992 1.0127 20.2578L0.0146484 20.2227C0.0205005 20.0562 0.0283746 19.8901 0.0380859 19.7246L0.536133 19.7539ZM40.9102 19.7832C40.9194 19.9408 40.927 20.0992 40.9326 20.2578L41.9297 20.2227C41.9238 20.0562 41.916 19.8901 41.9062 19.7246L40.9102 19.7832ZM8.78809 18.2656C8.71064 18.6165 8.64786 18.9737 8.60059 19.3359L3.64355 18.6895C3.7098 18.1817 3.79836 17.6806 3.90723 17.1875L8.78809 18.2656ZM33.1562 18.2656C33.2337 18.6165 33.2965 18.9737 33.3438 19.3359L38.2998 18.6895C38.2335 18.1817 38.145 17.6806 38.0361 17.1875L33.1562 18.2656ZM0.615234 18.7822H0.614258L1.11328 18.8359C1.09661 18.9928 1.08138 19.1507 1.06836 19.3086L0.0732422 19.2256C0.0869206 19.0597 0.101624 18.8942 0.119141 18.7295L0.615234 18.7822ZM41.3291 18.7822L40.832 18.8359C40.8487 18.9927 40.8639 19.1507 40.877 19.3086L41.8711 19.2256C41.8574 19.0597 41.8427 18.8942 41.8252 18.7295L41.3291 18.7822ZM0.248047 17.7402L1.23535 17.8926C1.21125 18.0484 1.18943 18.2053 1.16895 18.3623L0.177734 18.2334C0.199288 18.0682 0.221693 17.9033 0.24707 17.7393L0.248047 17.7402ZM40.709 17.8926C40.7331 18.0484 40.7559 18.2053 40.7764 18.3623L41.7666 18.2334C41.7451 18.0684 41.7216 17.904 41.6963 17.7402L40.709 17.8926ZM0.423828 16.7578L0.914062 16.8574H0.913086L1.40332 16.957C1.37181 17.1115 1.34238 17.2671 1.31445 17.4229L0.330078 17.2471L0.329102 17.2461C0.358458 17.0824 0.389719 16.9192 0.422852 16.7568L0.423828 16.7578ZM40.541 16.957C40.5725 17.1115 40.6029 17.2671 40.6309 17.4229L41.6152 17.2471H41.6143C41.5849 17.0834 41.5536 16.9202 41.5205 16.7578L40.541 16.957ZM9.43945 16.1973C9.30138 16.5302 9.17755 16.8712 9.06836 17.2178L4.2998 15.7148C4.45323 15.2279 4.62741 14.7498 4.82129 14.2822L9.43945 16.1973ZM32.5049 16.1973C32.6429 16.5302 32.7668 16.8713 32.876 17.2178L37.6436 15.7148C37.4901 15.2279 37.3159 14.7497 37.1221 14.2822L32.5049 16.1973ZM1.13086 15.9072H1.12988L1.61621 16.0312C1.57729 16.1842 1.53927 16.3379 1.50391 16.4922L1.0166 16.3799L0.529297 16.2686C0.566456 16.1064 0.60559 15.9449 0.646484 15.7842L1.13086 15.9072ZM41.2979 15.7842L40.8135 15.9072L40.3291 16.0312C40.368 16.1841 40.4051 16.3379 40.4404 16.4922L40.9268 16.3799L40.9277 16.3809L41.415 16.2686V16.2676C41.3779 16.1054 41.3388 15.9439 41.2979 15.7832V15.7842ZM1.87207 15.1152C1.82581 15.2663 1.78103 15.4187 1.73828 15.5713L0.776367 15.3018C0.821283 15.1415 0.868387 14.982 0.916992 14.8232L1.87207 15.1152ZM40.0732 15.1152C40.1195 15.2663 40.1633 15.4188 40.2061 15.5713L41.1689 15.3018H41.168C41.1231 15.1415 41.0759 14.982 41.0273 14.8232L40.0732 15.1152ZM6.23047 11.5811L8.33789 12.9258H8.33691L10.4443 14.2715C10.2495 14.5767 10.0674 14.8909 9.89941 15.2129L5.4668 12.9004C5.70248 12.4486 5.95655 12.0076 6.22949 11.5801L6.23047 11.5811ZM35.7139 11.5811L33.6064 12.9258L31.5 14.2715C31.6948 14.5766 31.877 14.891 32.0449 15.2129L36.4766 12.9004C36.2409 12.4487 35.9868 12.0075 35.7139 11.5801V11.5811ZM1.70215 14.0449H1.70117L2.17188 14.2139C2.1184 14.3626 2.06662 14.5128 2.0166 14.6631L1.06836 14.3467C1.12084 14.1889 1.17534 14.032 1.23145 13.876L1.70215 14.0449ZM39.7725 14.2139C39.8259 14.3626 39.8777 14.5127 39.9277 14.6631L40.875 14.3467C40.8225 14.1891 40.769 14.0319 40.7129 13.876L39.7725 14.2139ZM2.51465 13.3271C2.45408 13.4732 2.39604 13.6208 2.33887 13.7686L1.40723 13.4072C1.46727 13.252 1.52917 13.0977 1.59277 12.9443L2.51465 13.3271ZM39.4297 13.3271C39.4903 13.4732 39.5493 13.6208 39.6064 13.7686L40.5371 13.4072C40.4771 13.2521 40.4152 13.0977 40.3516 12.9443L39.4297 13.3271ZM11.7725 12.5439C11.5267 12.812 11.292 13.0904 11.0703 13.3789L7.10645 10.332C7.40092 9.94887 7.71058 9.57782 8.03516 9.2207L8.08691 9.16504L11.7725 12.5439ZM30.1719 12.5439C30.4175 12.8118 30.6524 13.0905 30.874 13.3789L34.8369 10.332C34.527 9.92887 34.1996 9.5393 33.8564 9.16504L30.1719 12.5439ZM2.44824 12.2451H2.44727L2.90039 12.459C2.83291 12.602 2.76631 12.7458 2.70215 12.8906L2.24512 12.6875L1.78906 12.4854C1.85639 12.3334 1.92529 12.1822 1.99609 12.0322L2.44824 12.2451ZM39.0449 12.459C39.1124 12.6019 39.1781 12.7459 39.2422 12.8906L39.6982 12.6875L39.6992 12.6885L40.1553 12.4854C40.0878 12.333 40.0183 12.1816 39.9473 12.0312L39.0449 12.459ZM2.88477 11.374H2.88379L3.32617 11.6094C3.25194 11.749 3.17939 11.8897 3.1084 12.0312L2.21484 11.583C2.28943 11.4343 2.36536 11.2863 2.44336 11.1396L2.88477 11.374ZM39.0605 11.374L38.6191 11.6094C38.6933 11.7489 38.766 11.8898 38.8369 12.0312L39.7285 11.583C39.6539 11.4343 39.578 11.2863 39.5 11.1396L39.0605 11.374ZM13.3789 11.0703C13.0904 11.292 12.812 11.5267 12.5439 11.7725L9.16504 8.08691C9.53943 7.74367 9.92873 7.41639 10.332 7.10645L13.3789 11.0703ZM28.5654 11.0703C28.8538 11.2919 29.1325 11.5269 29.4004 11.7725L32.7793 8.08691H32.7783C32.404 7.7438 32.0145 7.41628 31.6113 7.10645L28.5654 11.0703ZM3.79199 10.7803C3.71118 10.9162 3.63233 11.0534 3.55469 11.1914L2.68359 10.7012C2.76519 10.5562 2.84868 10.4123 2.93359 10.2695L3.79199 10.7803ZM38.1523 10.7803C38.2332 10.9162 38.313 11.0534 38.3906 11.1914L39.2598 10.7012C39.1783 10.5564 39.0956 10.4122 39.0107 10.2695L38.1523 10.7803ZM15.2129 9.89941C14.8909 10.0674 14.5767 10.2495 14.2715 10.4443L12.9258 8.33691L11.5811 6.23047L11.5801 6.22949C12.0076 5.95653 12.4486 5.7025 12.9004 5.4668L15.2129 9.89941ZM4.29785 9.97461C4.21053 10.1067 4.12427 10.2407 4.04004 10.375L3.19336 9.84375C3.28187 9.70264 3.37211 9.56265 3.46387 9.42383L4.29785 9.97461ZM37.6475 9.97461C37.7348 10.1067 37.8201 10.2407 37.9043 10.375L38.75 9.84375C38.6615 9.70266 38.5712 9.56264 38.4795 9.42383L37.6475 9.97461ZM4.4375 8.89941H4.43652L4.84082 9.19434C4.7473 9.32219 4.65497 9.4519 4.56445 9.58203L3.74414 9.01074C3.83919 8.87411 3.93599 8.73873 4.03418 8.60449L4.4375 8.89941ZM37.1045 9.19434C37.198 9.32217 37.2904 9.45192 37.3809 9.58203L38.2002 9.01074C38.1052 8.87413 38.0083 8.73871 37.9102 8.60449L37.1045 9.19434ZM17.2178 9.06836C16.8712 9.17755 16.5302 9.30137 16.1973 9.43945L14.2822 4.82129C14.7498 4.6274 15.2278 4.45323 15.7148 4.2998L17.2178 9.06836ZM5.41992 8.44043C5.32043 8.56374 5.22257 8.68876 5.12598 8.81445L4.33301 8.20508C4.43457 8.07291 4.53796 7.94215 4.64258 7.8125L5.41992 8.44043ZM36.5254 8.44043C36.6248 8.56367 36.7228 8.68883 36.8193 8.81445L37.6104 8.20605C37.5089 8.07406 37.4062 7.94296 37.3018 7.81348L36.5254 8.44043ZM19.3359 8.60059C18.9737 8.64786 18.6165 8.71063 18.2656 8.78809L17.1875 3.90723C17.6806 3.79835 18.1817 3.7098 18.6895 3.64355L19.3359 8.60059ZM21.4229 3.50098C21.5268 3.50361 21.6309 3.50728 21.7344 3.51172L21.6201 6.16895H20.9727V8.49512C20.7887 8.49512 20.6052 8.49904 20.4238 8.50684L20.209 3.51172C20.4619 3.50085 20.717 3.49512 20.9727 3.49512L21.4229 3.50098ZM5.50879 7.24805L6.03418 7.71484C5.929 7.83327 5.82504 7.95331 5.72266 8.07422L4.96094 7.42871C5.06862 7.30153 5.17745 7.17533 5.28809 7.05078L5.50879 7.24805ZM35.9102 7.71484C36.0154 7.83328 36.1193 7.95329 36.2217 8.07422L36.9834 7.42871C36.8757 7.30156 36.7669 7.17531 36.6562 7.05078L35.9102 7.71484ZM6.68262 7.01855C6.57188 7.13195 6.46253 7.24729 6.35449 7.36328L5.98828 7.02148L5.62305 6.68164C5.73635 6.56 5.85164 6.44021 5.96777 6.32129L6.68262 7.01855ZM35.2627 7.01855C35.3734 7.13192 35.4828 7.24731 35.5908 7.36328L36.3213 6.68164C36.2078 6.55985 36.0928 6.43937 35.9766 6.32031L35.2627 7.01855ZM6.83789 5.79102L7.36328 6.35449C7.24729 6.46253 7.13195 6.57188 7.01855 6.68262L6.32129 5.96777C6.44021 5.85164 6.56 5.73635 6.68164 5.62305L6.83789 5.79102ZM35.623 5.96777L35.4277 6.16895H34.7549L35.1074 5.79102L35.2627 5.62305C35.3843 5.73633 35.5041 5.85166 35.623 5.96777ZM23.2539 3.64355C23.7616 3.70976 24.2628 3.79841 24.7559 3.90723L24.2568 6.16895H22.9248L23.2539 3.64355ZM26.2285 4.2998C26.7155 4.45317 27.1936 4.62747 27.6611 4.82129L27.1025 6.16895H25.6396L26.2285 4.2998ZM29.043 5.4668C29.4606 5.68462 29.8686 5.91933 30.2656 6.16895H28.6768L29.043 5.4668ZM8.07422 5.72266C7.9533 5.82504 7.83327 5.929 7.71484 6.03418L7.34863 5.62305L7.05078 5.28809C7.17534 5.17745 7.30153 5.06863 7.42871 4.96094L8.07422 5.72266ZM34.8936 5.28809L34.5967 5.62305L34.2305 6.03418C34.112 5.92897 33.992 5.82507 33.8711 5.72266L34.5156 4.96094C34.6428 5.0686 34.769 5.17747 34.8936 5.28809ZM8.81445 5.12598C8.68875 5.22257 8.56375 5.32042 8.44043 5.41992L7.8125 4.64258C7.94216 4.53796 8.0729 4.43458 8.20508 4.33301L8.81445 5.12598ZM34.1309 4.64258L33.5049 5.41992C33.3816 5.32045 33.2565 5.22254 33.1309 5.12598L33.7393 4.33301C33.8712 4.4344 34.0014 4.53814 34.1309 4.64258ZM9.58203 4.56445C9.45189 4.65498 9.32221 4.74729 9.19434 4.84082L8.69238 4.1543L8.60449 4.03418C8.73874 3.93599 8.8741 3.83919 9.01074 3.74414L9.58203 4.56445ZM33.3398 4.03418L33.0459 4.4375L33.0449 4.43652L32.75 4.84082C32.6222 4.74737 32.4933 4.65491 32.3633 4.56445L32.9326 3.74414C33.0695 3.83932 33.2054 3.93585 33.3398 4.03418ZM10.375 4.04004C10.2407 4.12428 10.1067 4.21052 9.97461 4.29785L9.42383 3.46387C9.56267 3.3721 9.70262 3.28188 9.84375 3.19336L10.375 4.04004ZM32.5205 3.46484L32.2461 3.88086L32.2451 3.87988L31.9697 4.29785C31.8376 4.21056 31.7046 4.12425 31.5703 4.04004L32.1006 3.19336C32.2418 3.28196 32.3815 3.373 32.5205 3.46484ZM11.1914 3.55469C11.0534 3.63235 10.9162 3.71117 10.7803 3.79199L10.2695 2.93359C10.4124 2.84866 10.5562 2.7652 10.7012 2.68359L11.1914 3.55469ZM31.6748 2.93359L31.1641 3.79199C31.0282 3.71121 30.8909 3.63231 30.7529 3.55469L31.2422 2.68359C31.3874 2.76531 31.5318 2.84854 31.6748 2.93359ZM12.0312 3.1084C11.8897 3.1794 11.749 3.25193 11.6094 3.32617L11.374 2.88379V2.88477L11.1396 2.44336C11.2863 2.36535 11.4343 2.28944 11.583 2.21484L12.0312 3.1084ZM30.8047 2.44336L30.5713 2.88477L30.5703 2.88379L30.3359 3.32617C30.1963 3.25194 30.0556 3.17939 29.9141 3.1084L30.1377 2.66113L30.3613 2.21484C30.51 2.28942 30.658 2.36537 30.8047 2.44336ZM12.6885 2.24512H12.6875L12.8906 2.70215C12.7458 2.76632 12.602 2.8329 12.459 2.90039L12.0312 1.99707C12.1817 1.92606 12.333 1.85657 12.4854 1.78906L12.6885 2.24512ZM29.9121 1.99609L29.7002 2.44824L29.6992 2.44727L29.4863 2.90039C29.3433 2.83289 29.1995 2.76633 29.0547 2.70215L29.458 1.78906C29.6102 1.85649 29.7618 1.92517 29.9121 1.99609ZM13.5547 1.78809L13.7686 2.33887C13.6208 2.39605 13.4732 2.45407 13.3271 2.51465L12.9443 1.59277C13.0977 1.52916 13.252 1.46728 13.4072 1.40723L13.5547 1.78809ZM29 1.59277L28.6172 2.51465C28.4714 2.45418 28.3243 2.39595 28.1768 2.33887L28.5361 1.40723C28.6916 1.46737 28.8463 1.52906 29 1.59277ZM14.6631 2.0166C14.5127 2.06663 14.3626 2.1184 14.2139 2.17188L14.0137 1.61621L13.876 1.23145C14.032 1.17533 14.1889 1.12085 14.3467 1.06836L14.6631 2.0166ZM28.0684 1.23145L27.9316 1.61621L27.7314 2.17188C27.5827 2.1184 27.4326 2.06662 27.2822 2.0166L27.5967 1.06836C27.7547 1.12093 27.912 1.17524 28.0684 1.23145ZM15.5713 1.73828C15.4187 1.78104 15.2663 1.8258 15.1152 1.87207L14.8232 0.916992C14.982 0.86838 15.1414 0.821289 15.3018 0.776367L15.5713 1.73828ZM27.1211 0.916992L26.8291 1.87207C26.6782 1.82585 26.5265 1.781 26.374 1.73828L26.6426 0.776367C26.8029 0.821278 26.9624 0.868392 27.1211 0.916992ZM16.3633 0.943359L16.4922 1.50391C16.3378 1.53928 16.1842 1.57729 16.0312 1.61621L15.7842 0.646484C15.9449 0.605585 16.1064 0.56646 16.2686 0.529297L16.3633 0.943359ZM26.1602 0.646484L25.9141 1.61621C25.7611 1.57729 25.6075 1.53928 25.4531 1.50391L25.6748 0.529297C25.8373 0.566515 25.9991 0.605517 26.1602 0.646484ZM17.2471 0.330078L17.4229 1.31445C17.2671 1.34238 17.1115 1.3718 16.957 1.40332L16.7578 0.423828L16.7568 0.422852C16.9192 0.389715 17.0824 0.358461 17.2461 0.329102L17.2471 0.330078ZM25.1875 0.422852V0.423828L25.0879 0.914062L25.0869 0.913086L24.9873 1.40332C24.8328 1.3718 24.6773 1.34239 24.5215 1.31445L24.6982 0.330078V0.329102C24.862 0.358453 25.0251 0.389724 25.1875 0.422852ZM18.3623 1.16895C18.2053 1.18943 18.0484 1.21124 17.8926 1.23535L17.7402 0.248047L17.7393 0.24707C17.9033 0.221689 18.0681 0.199291 18.2334 0.177734L18.3623 1.16895ZM24.2051 0.24707V0.248047L24.1396 0.672852L24.0518 1.23535C23.8959 1.21125 23.739 1.18943 23.582 1.16895L23.7109 0.177734C23.8762 0.199284 24.0411 0.221697 24.2051 0.24707ZM19.3086 1.06836C19.1507 1.08138 18.9928 1.09661 18.8359 1.11328L18.7773 0.570312L18.7295 0.119141C18.8943 0.101622 19.0597 0.0869219 19.2256 0.0732422L19.3086 1.06836ZM23.2139 0.119141L23.1094 1.11328C22.9524 1.0966 22.7947 1.08139 22.6367 1.06836L22.7178 0.0722656C22.8837 0.0859333 23.0491 0.101634 23.2139 0.119141ZM20.2578 1.0127C20.0992 1.01827 19.9408 1.02591 19.7832 1.03516L19.7324 0.177734L19.7246 0.0380859C19.8901 0.0283735 20.0561 0.0205007 20.2227 0.0146484L20.2578 1.0127ZM22.2197 0.0380859L22.2129 0.177734L22.1621 1.03516C22.0045 1.02591 21.8461 1.01827 21.6875 1.0127L21.7217 0.0146484C21.8882 0.0204948 22.0542 0.0283795 22.2197 0.0380859ZM21.2227 0.00292969L21.2119 1.00098C21.1324 1.00005 21.0524 1 20.9727 1C20.8929 1 20.8129 1.00005 20.7334 1.00098L20.7217 0.00292969C20.8052 0.00195136 20.8889 1.06616e-06 20.9727 0L21.2227 0.00292969Z" fill="url(#paint0_radial_12_104)"/>
<path d="M46.6042 20.1282C46.2682 20.1282 46.1002 19.9602 46.1002 19.6242V12.4962C46.1002 12.1602 46.2682 11.9922 46.6042 11.9922C46.9402 11.9922 47.1082 12.1602 47.1082 12.4962V19.1202H50.4322C50.7682 19.1202 50.9362 19.2882 50.9362 19.6242C50.9362 19.9602 50.7682 20.1282 50.4322 20.1282H46.6042ZM52.5924 17.5002V17.7882C52.5924 18.3042 52.6864 18.6562 52.8744 18.8442C53.0624 19.0282 53.4164 19.1202 53.9364 19.1202H54.9204C55.3284 19.1202 55.6304 19.0822 55.8264 19.0062C56.0224 18.9302 56.1524 18.7962 56.2164 18.6042C56.2604 18.4522 56.3204 18.3362 56.3964 18.2562C56.4764 18.1762 56.5964 18.1362 56.7564 18.1362C56.9244 18.1362 57.0524 18.1802 57.1404 18.2682C57.2284 18.3562 57.2564 18.4842 57.2244 18.6522C57.1364 19.1482 56.9004 19.5182 56.5164 19.7622C56.1324 20.0062 55.6004 20.1282 54.9204 20.1282H53.9364C53.1404 20.1282 52.5484 19.9362 52.1604 19.5522C51.7764 19.1682 51.5844 18.5802 51.5844 17.7882V16.3962C51.5844 15.5842 51.7764 14.9882 52.1604 14.6082C52.5484 14.2242 53.1404 14.0362 53.9364 14.0442H54.9204C55.7204 14.0442 56.3124 14.2362 56.6964 14.6202C57.0804 15.0002 57.2724 15.5922 57.2724 16.3962V16.9962C57.2724 17.3322 57.1044 17.5002 56.7684 17.5002H52.5924ZM53.9364 15.0522C53.4164 15.0442 53.0624 15.1342 52.8744 15.3222C52.6864 15.5102 52.5924 15.8682 52.5924 16.3962V16.4922H56.2644V16.3962C56.2644 15.8722 56.1704 15.5182 55.9824 15.3342C55.7984 15.1462 55.4444 15.0522 54.9204 15.0522H53.9364ZM60.6298 20.1282C59.9578 20.1282 59.4578 19.9642 59.1298 19.6362C58.8018 19.3082 58.6378 18.8082 58.6378 18.1362C58.6378 17.4642 58.7998 16.9642 59.1238 16.6362C59.4518 16.3082 59.9538 16.1442 60.6298 16.1442H63.1678C63.1438 15.7242 63.0338 15.4382 62.8378 15.2862C62.6418 15.1302 62.3058 15.0522 61.8298 15.0522H61.1338C60.7338 15.0522 60.4358 15.0802 60.2398 15.1362C60.0438 15.1882 59.9058 15.2842 59.8258 15.4242C59.7538 15.5922 59.6798 15.7082 59.6038 15.7722C59.5278 15.8362 59.4138 15.8682 59.2618 15.8682C59.0938 15.8682 58.9618 15.8222 58.8658 15.7302C58.7698 15.6342 58.7418 15.5082 58.7818 15.3522C58.9018 14.9002 59.1518 14.5702 59.5318 14.3622C59.9158 14.1502 60.4498 14.0442 61.1338 14.0442H61.8298C62.6298 14.0442 63.2218 14.2362 63.6058 14.6202C63.9898 15.0042 64.1818 15.5962 64.1818 16.3962V19.6242C64.1818 19.9602 64.0138 20.1282 63.6778 20.1282C63.3418 20.1282 63.1738 19.9602 63.1738 19.6242V19.3542C62.7458 19.8702 62.1218 20.1282 61.3018 20.1282H60.6298ZM60.6298 19.1202H61.3018C61.5978 19.1202 61.8758 19.0942 62.1358 19.0422C62.3958 18.9862 62.6178 18.8862 62.8018 18.7422C62.9898 18.5982 63.1138 18.3922 63.1738 18.1242V17.1522H60.6298C60.2338 17.1522 59.9698 17.2182 59.8378 17.3502C59.7098 17.4822 59.6458 17.7442 59.6458 18.1362C59.6458 18.5322 59.7098 18.7962 59.8378 18.9282C59.9698 19.0562 60.2338 19.1202 60.6298 19.1202ZM66.3465 20.1282C66.0105 20.1282 65.8425 19.9602 65.8425 19.6242V14.5482C65.8425 14.2122 66.0105 14.0442 66.3465 14.0442C66.6825 14.0442 66.8505 14.2122 66.8505 14.5482V15.0162C67.0865 14.6962 67.3865 14.4542 67.7505 14.2902C68.1185 14.1262 68.5385 14.0442 69.0105 14.0442C69.3465 14.0442 69.5145 14.2122 69.5145 14.5482C69.5145 14.8842 69.3465 15.0522 69.0105 15.0522C68.3185 15.0522 67.7905 15.1802 67.4265 15.4362C67.0625 15.6922 66.8705 16.0302 66.8505 16.4502V19.6242C66.8505 19.9602 66.6825 20.1282 66.3465 20.1282ZM70.7476 20.1282C70.4116 20.1282 70.2436 19.9602 70.2436 19.6242V14.5482C70.2436 14.2122 70.4116 14.0442 70.7476 14.0442C71.0836 14.0442 71.2516 14.2122 71.2516 14.5482V14.7462C71.6756 14.2782 72.2996 14.0442 73.1236 14.0442H73.4596C74.2596 14.0442 74.8516 14.2362 75.2356 14.6202C75.6196 15.0042 75.8116 15.5962 75.8116 16.3962V19.6242C75.8116 19.9602 75.6436 20.1282 75.3076 20.1282C74.9716 20.1282 74.8036 19.9602 74.8036 19.6242V16.3962C74.8036 15.8722 74.7076 15.5182 74.5156 15.3342C74.3276 15.1462 73.9756 15.0522 73.4596 15.0522H73.1236C72.6436 15.0522 72.2256 15.1082 71.8696 15.2202C71.5136 15.3282 71.3076 15.5002 71.2516 15.7362V19.6242C71.2516 19.9602 71.0836 20.1282 70.7476 20.1282Z" fill="white"/>
<path d="M46.6042 30.1282C46.2682 30.1282 46.1002 29.9602 46.1002 29.6242V22.4962C46.1002 22.1602 46.2682 21.9922 46.6042 21.9922C46.8242 21.9922 47.0082 22.1002 47.1562 22.3162L49.9882 26.5762L49.7722 26.6122L52.6282 22.3162C52.7642 22.1002 52.9682 21.9922 53.2402 21.9922C53.5122 21.9922 53.6482 22.1602 53.6482 22.4962V29.6242C53.6482 29.9602 53.4802 30.1282 53.1442 30.1282C52.8082 30.1282 52.6402 29.9602 52.6402 29.6242V23.5042L52.9522 23.6122L50.4322 27.3202C50.2842 27.5362 50.0802 27.6442 49.8202 27.6442C49.6402 27.6442 49.4762 27.5362 49.3282 27.3202L46.8082 23.6122L47.1082 23.6962V29.6242C47.1082 29.9602 46.9402 30.1282 46.6042 30.1282ZM57.4871 30.1282C56.6911 30.1282 56.0991 29.9362 55.7111 29.5522C55.3271 29.1682 55.1351 28.5802 55.1351 27.7882V26.3962C55.1351 25.5922 55.3271 25.0002 55.7111 24.6202C56.0991 24.2362 56.6911 24.0442 57.4871 24.0442H58.4711C59.2711 24.0442 59.8631 24.2362 60.2471 24.6202C60.6311 25.0042 60.8231 25.5962 60.8231 26.3962V27.7762C60.8231 28.5722 60.6311 29.1642 60.2471 29.5522C59.8631 29.9362 59.2711 30.1282 58.4711 30.1282H57.4871ZM56.1431 27.7882C56.1431 28.3042 56.2371 28.6562 56.4251 28.8442C56.6131 29.0282 56.9671 29.1202 57.4871 29.1202H58.4711C58.9951 29.1202 59.3491 29.0262 59.5331 28.8382C59.7211 28.6502 59.8151 28.2962 59.8151 27.7762V26.3962C59.8151 25.8722 59.7211 25.5182 59.5331 25.3342C59.3491 25.1462 58.9951 25.0522 58.4711 25.0522H57.4871C57.1391 25.0522 56.8671 25.0922 56.6711 25.1722C56.4791 25.2482 56.3431 25.3842 56.2631 25.5802C56.1831 25.7722 56.1431 26.0442 56.1431 26.3962V27.7882ZM62.8126 30.1282C62.4766 30.1282 62.3086 29.9602 62.3086 29.6242V24.5482C62.3086 24.2122 62.4766 24.0442 62.8126 24.0442C63.1486 24.0442 63.3166 24.2122 63.3166 24.5482V25.0162C63.5526 24.6962 63.8526 24.4542 64.2166 24.2902C64.5846 24.1262 65.0046 24.0442 65.4766 24.0442C65.8126 24.0442 65.9806 24.2122 65.9806 24.5482C65.9806 24.8842 65.8126 25.0522 65.4766 25.0522C64.7846 25.0522 64.2566 25.1802 63.8926 25.4362C63.5286 25.6922 63.3366 26.0302 63.3166 26.4502V29.6242C63.3166 29.9602 63.1486 30.1282 62.8126 30.1282ZM67.1953 27.5002V27.7882C67.1953 28.3042 67.2893 28.6562 67.4773 28.8442C67.6653 29.0282 68.0193 29.1202 68.5393 29.1202H69.5233C69.9313 29.1202 70.2333 29.0822 70.4293 29.0062C70.6253 28.9302 70.7553 28.7962 70.8193 28.6042C70.8633 28.4522 70.9233 28.3362 70.9993 28.2562C71.0793 28.1762 71.1993 28.1362 71.3593 28.1362C71.5273 28.1362 71.6553 28.1802 71.7433 28.2682C71.8313 28.3562 71.8593 28.4842 71.8273 28.6522C71.7393 29.1482 71.5033 29.5182 71.1193 29.7622C70.7353 30.0062 70.2033 30.1282 69.5233 30.1282H68.5393C67.7433 30.1282 67.1513 29.9362 66.7633 29.5522C66.3793 29.1682 66.1873 28.5802 66.1873 27.7882V26.3962C66.1873 25.5842 66.3793 24.9882 66.7633 24.6082C67.1513 24.2242 67.7433 24.0362 68.5393 24.0442H69.5233C70.3233 24.0442 70.9153 24.2362 71.2993 24.6202C71.6833 25.0002 71.8753 25.5922 71.8753 26.3962V26.9962C71.8753 27.3322 71.7073 27.5002 71.3713 27.5002H67.1953ZM68.5393 25.0522C68.0193 25.0442 67.6653 25.1342 67.4773 25.3222C67.2893 25.5102 67.1953 25.8682 67.1953 26.3962V26.4922H70.8673V26.3962C70.8673 25.8722 70.7733 25.5182 70.5853 25.3342C70.4013 25.1462 70.0473 25.0522 69.5233 25.0522H68.5393Z" fill="white"/>
<defs>
<radialGradient id="paint0_radial_12_104" cx="0" cy="0" r="1" gradientUnits="userSpaceOnUse" gradientTransform="translate(15.7294 17.8268) rotate(65.6955) scale(35.6687 35.6687)">
<stop stop-color="white"/>
<stop offset="1" stop-color="white" stop-opacity="0.54"/>
</radialGradient>
</defs>
</svg>
