<svg width="57" height="58" viewBox="0 0 57 58" fill="none" xmlns="http://www.w3.org/2000/svg">
<path d="M0.5 28.5C0.5 20.3694 3.96551 13.0481 9.5 7.93285C14.4918 3.31917 21.1667 0.5 28.5 0.5" stroke="url(#paint0_linear_9_723)"/>
<path d="M56.5 28.5C56.5 13.036 43.964 0.5 28.5 0.5" stroke="url(#paint1_linear_9_723)" stroke-linejoin="round" stroke-dasharray="1 1"/>
<path d="M56.5 29.5C56.5 37.6306 53.0345 44.9519 47.5 50.0671C42.5082 54.6808 35.8333 57.5 28.5 57.5" stroke="url(#paint2_linear_9_723)"/>
<path d="M0.5 29.5C0.5 44.964 13.036 57.5 28.5 57.5" stroke="url(#paint3_linear_9_723)" stroke-dasharray="1 1"/>
<circle cx="28.5" cy="29.5" r="19" stroke="url(#paint4_radial_9_723)" stroke-width="2" stroke-dasharray="1.5 1.5"/>
<defs>
<linearGradient id="paint0_linear_9_723" x1="23" y1="0.5" x2="-0.499999" y2="26.5" gradientUnits="userSpaceOnUse">
<stop stop-color="white"/>
<stop offset="1" stop-color="white" stop-opacity="0"/>
</linearGradient>
<linearGradient id="paint1_linear_9_723" x1="54.5" y1="16.5" x2="27.5" y2="-1.5" gradientUnits="userSpaceOnUse">
<stop stop-color="white"/>
<stop offset="1" stop-color="white" stop-opacity="0"/>
</linearGradient>
<linearGradient id="paint2_linear_9_723" x1="34" y1="57.5" x2="57.5" y2="31.5" gradientUnits="userSpaceOnUse">
<stop stop-color="white"/>
<stop offset="1" stop-color="white" stop-opacity="0"/>
</linearGradient>
<linearGradient id="paint3_linear_9_723" x1="2.5" y1="41.5" x2="29.5" y2="59.5" gradientUnits="userSpaceOnUse">
<stop stop-color="white"/>
<stop offset="1" stop-color="white" stop-opacity="0"/>
</linearGradient>
<radialGradient id="paint4_radial_9_723" cx="0" cy="0" r="1" gradientUnits="userSpaceOnUse" gradientTransform="translate(28.5 29.5) rotate(90) scale(27.5)">
<stop stop-color="white"/>
<stop offset="1" stop-color="white" stop-opacity="0"/>
</radialGradient>
</defs>
</svg>
