<svg width="683" height="683" viewBox="0 0 683 683" fill="none" xmlns="http://www.w3.org/2000/svg">
<path d="M479.402 461.817L396.045 545.173L478.811 544.583L479.402 461.817Z" stroke="url(#paint0_linear_9_660)"/>
<path d="M475.71 549.225C475.514 549.223 475.257 549.229 475.062 549.236C475 549.238 475.032 549.246 474.989 549.248C474.907 549.252 474.83 549.248 474.748 549.253C474.721 549.254 474.755 549.266 474.726 549.268C474.571 549.274 474.424 549.272 474.266 549.276C473.49 549.295 472.727 549.305 471.942 549.316C471.683 549.32 471.368 549.334 471.1 549.331C471.069 549.33 471.088 549.319 471.082 549.318C470.988 549.305 471.02 549.327 470.959 549.33C470.717 549.344 470.449 549.347 470.216 549.344C470.117 549.343 470.216 549.32 470.117 549.333C470.11 549.334 470.135 549.346 470.108 549.347C470.047 549.35 469.93 549.349 469.882 549.35C469.79 549.353 469.775 549.353 469.688 549.354C469.57 549.355 469.428 549.362 469.301 549.36C469.274 549.359 469.31 549.347 469.266 549.345C469.223 549.344 469.108 549.346 469.069 549.349C469.03 549.352 469.047 549.361 469.04 549.363C468.984 549.382 468.851 549.358 468.834 549.357C468.522 549.349 468.255 549.365 467.962 549.367C467.74 549.369 467.503 549.366 467.291 549.368C467.039 549.37 466.826 549.378 466.581 549.379C466.556 549.379 466.586 549.365 466.554 549.365C466.219 549.366 465.886 549.369 465.553 549.381C465.52 549.383 465.563 549.395 465.529 549.397C465.325 549.408 465.001 549.435 464.879 549.382C464.741 549.385 464.572 549.388 464.449 549.4C464.369 549.408 464.446 549.421 464.348 549.416C464.326 549.415 464.355 549.403 464.321 549.402C464.182 549.398 464.029 549.403 463.89 549.398C463.862 549.397 463.87 549.386 463.862 549.385C463.795 549.37 463.683 549.396 463.659 549.398C463.474 549.413 463.339 549.409 463.166 549.41C463.126 549.411 463.173 549.396 463.135 549.396C462.935 549.395 462.728 549.398 462.533 549.406C462.489 549.407 462.529 549.419 462.508 549.421C462.417 549.427 462.396 549.404 462.308 549.41C462.29 549.411 462.3 549.421 462.297 549.423C462.244 549.441 462.198 549.416 462.184 549.415C462.012 549.409 461.902 549.436 461.736 549.434C461.716 549.433 461.761 549.42 461.705 549.42C461.332 549.419 460.938 549.425 460.569 549.438C460.512 549.44 460.553 549.45 460.549 549.451C460.49 549.471 460.452 549.445 460.434 549.445C460.286 549.439 460.148 549.461 460.048 549.431C459.423 549.446 458.801 549.434 458.181 549.465C458.174 549.466 458.188 549.478 458.172 549.479C457.983 549.487 458.019 549.468 457.894 549.445C457.862 549.439 457.766 549.468 457.758 549.47C457.727 549.478 457.759 549.497 457.749 549.499C457.663 549.511 457.677 549.449 457.561 549.45C457.557 549.45 457.573 549.461 457.563 549.462C457.533 549.466 457.503 549.462 457.473 549.466C457.406 549.476 457.382 549.506 457.279 549.489C457.266 549.487 457.285 549.452 457.182 549.454C457.141 549.455 456.959 549.456 456.908 549.458C456.857 549.461 456.892 549.472 456.888 549.473C456.751 549.489 456.803 549.494 456.734 549.517C456.666 549.539 456.684 549.487 456.656 549.481C456.628 549.475 456.527 549.488 456.503 549.493C456.478 549.497 456.509 549.504 456.487 549.507C456.341 549.524 456.423 549.481 456.375 549.473C456.261 549.454 456.173 549.494 456.069 549.499C456.041 549.5 456.064 549.491 456.039 549.49C455.94 549.488 455.881 549.5 455.768 549.49C455.749 549.488 455.658 549.465 455.599 549.483C455.591 549.486 455.615 549.495 455.573 549.498C455.51 549.501 455.396 549.504 455.328 549.501C455.278 549.499 455.335 549.483 455.273 549.488C455.245 549.491 455.296 549.5 455.244 549.504C455.192 549.507 455.058 549.508 455.007 549.508C454.956 549.508 454.984 549.496 454.98 549.495C454.955 549.49 454.857 549.485 454.849 549.485C454.414 549.487 454.014 549.51 453.591 549.506C453.557 549.506 453.579 549.493 453.574 549.493C453.461 549.488 453.551 549.522 453.471 549.534C453.483 549.508 453.436 549.513 453.356 549.511C453.317 549.509 453.338 549.499 453.334 549.498C453.277 549.483 453.237 549.503 453.227 549.507C453.189 549.523 453.148 549.505 453.122 549.515C453.097 549.526 453.156 549.54 453.079 549.54C453.058 549.531 453.114 549.506 453.056 549.503C452.836 549.489 452.426 549.511 452.249 549.515C452.072 549.518 452.015 549.517 451.912 549.521C451.727 549.528 451.795 549.509 451.679 549.502C451.563 549.495 451.62 549.539 451.603 549.548C451.587 549.558 451.569 549.548 451.549 549.554C451.529 549.559 451.573 549.565 451.525 549.567C451.477 549.57 451.347 549.554 451.33 549.544C451.294 549.523 451.353 549.5 451.227 549.509C451.22 549.51 451.243 549.521 451.216 549.523C450.995 549.533 450.766 549.535 450.546 549.545C450.516 549.546 450.543 549.559 450.525 549.56C450.342 549.569 450.407 549.547 450.306 549.523C450.329 549.556 450.274 549.576 450.135 549.577C450.051 549.578 450.065 549.564 450.011 549.554C449.995 549.551 449.935 549.561 449.925 549.555C449.889 549.533 449.945 549.508 449.801 549.519C449.795 549.52 449.815 549.531 449.793 549.532C449.653 549.538 449.636 549.515 449.483 549.514C449.364 549.512 449.152 549.528 449.017 549.531C449.02 549.567 448.891 549.56 448.839 549.535C448.751 549.537 448.656 549.536 448.571 549.54C448.541 549.542 448.561 549.552 448.557 549.553C448.501 549.571 448.462 549.547 448.443 549.546C448.237 549.539 448.069 549.558 447.872 549.542C447.865 549.541 447.854 549.516 447.801 549.535C447.798 549.536 447.863 549.547 447.77 549.549C447.678 549.55 447.504 549.565 447.375 549.554C447.344 549.552 447.265 549.532 447.202 549.548C447.194 549.55 447.203 549.557 447.191 549.562C447.152 549.575 447.13 549.549 447.084 549.571C447.038 549.593 446.942 549.61 446.813 549.596C446.809 549.596 446.778 549.576 446.737 549.576C446.672 549.577 446.58 549.582 446.512 549.583C446.479 549.583 446.5 549.57 446.494 549.57C446.276 549.564 446.12 549.577 445.886 549.583C445.843 549.585 445.719 549.568 445.636 549.582C445.545 549.598 445.639 549.659 445.429 549.646C445.345 549.64 445.237 549.563 445.085 549.605C444.79 549.597 444.518 549.619 444.222 549.607C444.208 549.607 444.166 549.585 444.135 549.586C444.089 549.586 444.063 549.597 444.03 549.598C443.891 549.602 443.764 549.594 443.63 549.596C443.579 549.597 443.597 549.608 443.536 549.609C443.476 549.61 443.435 549.596 443.353 549.603C443.291 549.609 443.23 549.638 443.147 549.642C443.144 549.614 443.087 549.615 442.987 549.608C442.967 549.607 442.988 549.597 442.979 549.596C442.942 549.591 442.907 549.599 442.872 549.594C442.863 549.593 442.863 549.583 442.856 549.581C442.796 549.568 442.698 549.59 442.681 549.594C442.616 549.609 442.586 549.596 442.536 549.602C442.487 549.608 442.561 549.615 442.503 549.619C442.383 549.627 442.229 549.626 442.107 549.627C442.058 549.628 442.091 549.615 442.084 549.615C441.984 549.612 441.882 549.626 441.826 549.601C441.757 549.668 441.765 549.595 441.622 549.61C441.61 549.611 441.596 549.642 441.64 549.646C441.683 549.65 441.749 549.64 441.809 549.647C441.824 549.649 441.906 549.677 441.917 549.679C442.005 549.692 442.017 549.645 442.021 549.643C442.074 549.615 442.174 549.646 442.2 549.648C442.321 549.657 442.423 549.649 442.524 549.656C442.59 549.66 442.597 549.69 442.648 549.689C442.82 549.685 442.88 549.642 443.043 549.677C443.077 549.685 443.043 549.719 443.167 549.692C443.175 549.69 443.268 549.665 443.321 549.68C443.328 549.682 443.328 549.692 443.337 549.692C443.396 549.697 443.435 549.689 443.5 549.692C443.565 549.696 443.643 549.701 443.716 549.697C443.761 549.694 443.818 549.676 443.839 549.671C443.899 549.658 443.963 549.679 444.001 549.663C444.038 549.647 443.964 549.624 444.063 549.613C444.067 549.639 444.075 549.664 444.081 549.69C444.297 549.687 444.509 549.678 444.726 549.677C444.753 549.677 444.725 549.691 444.754 549.691C444.875 549.693 444.981 549.682 445.107 549.685C445.205 549.687 445.312 549.701 445.414 549.704C445.476 549.675 445.627 549.683 445.737 549.68C445.775 549.679 445.773 549.671 445.8 549.668C445.903 549.658 445.855 549.684 445.883 549.688C446.005 549.704 446.015 549.646 446.158 549.647C446.166 549.647 446.259 549.677 446.271 549.679C446.353 549.691 446.285 549.668 446.335 549.665C446.428 549.66 446.492 549.653 446.601 549.661C446.633 549.663 446.709 549.682 446.771 549.667C446.779 549.665 446.774 549.655 446.781 549.654C446.899 549.643 446.902 549.675 446.97 549.685C447.037 549.696 447.141 549.673 447.162 549.666C447.218 549.65 447.12 549.66 447.117 549.658C447.081 549.639 447.157 549.642 447.215 549.64C447.224 549.608 447.305 549.61 447.276 549.638C447.272 549.641 447.227 549.638 447.215 549.64C447.267 549.67 447.356 549.674 447.454 549.644C447.5 549.63 447.457 549.615 447.597 549.62C447.66 549.622 447.636 549.644 447.692 549.649C447.821 549.662 447.987 549.64 448.119 549.642C448.167 549.643 448.121 549.655 448.153 549.656C448.24 549.659 448.317 549.65 448.405 549.653C448.413 549.654 448.393 549.666 448.42 549.666C448.627 549.666 448.806 549.657 449.021 549.655C449.125 549.654 449.311 549.66 449.419 549.658C449.605 549.654 449.835 549.635 449.994 549.638C450.098 549.64 450.075 549.652 450.12 549.66C450.206 549.676 450.358 549.646 450.379 549.641C450.379 549.641 450.29 549.639 450.337 549.632C450.365 549.619 450.378 549.641 450.379 549.641C450.392 549.638 450.571 549.634 450.606 549.636C450.626 549.637 450.615 549.649 450.625 549.65C450.864 549.658 451.104 549.66 451.346 549.652C451.35 549.652 451.344 549.639 451.354 549.639C451.494 549.632 451.584 549.647 451.7 549.656C451.816 549.665 451.907 549.661 451.976 549.638C452.063 549.64 452.188 549.629 452.26 549.623C452.332 549.616 452.343 549.641 452.349 549.642C452.547 549.657 452.661 549.641 452.866 549.637C452.964 549.636 453.158 549.638 453.263 549.64C453.347 549.642 453.397 549.635 453.474 549.639C453.485 549.639 453.474 549.65 453.477 549.651C453.563 549.664 453.522 549.636 453.539 549.631C453.604 549.613 453.643 549.603 453.753 549.611C453.779 549.612 453.853 549.652 453.899 549.654C453.959 549.656 453.936 549.642 453.999 549.645C454.005 549.645 454.004 549.654 454.043 549.654C454.223 549.651 454.419 549.644 454.607 549.644C454.632 549.644 454.6 549.658 454.637 549.658C454.81 549.658 455.001 549.656 455.17 549.649C455.211 549.647 455.185 549.637 455.194 549.634C455.249 549.616 455.328 549.641 455.341 549.642C455.651 549.652 455.888 549.627 456.203 549.636C456.22 549.636 456.353 549.663 456.412 549.639C456.416 549.637 456.474 549.612 456.525 549.629C456.529 549.63 456.492 549.642 456.556 549.641C456.619 549.639 456.722 549.646 456.809 549.632C456.836 549.628 456.901 549.603 456.984 549.622C456.989 549.623 457.117 549.665 457.162 549.635C457.169 549.63 457.161 549.599 457.26 549.614C457.278 549.617 457.244 549.624 457.294 549.629C457.37 549.635 457.47 549.626 457.564 549.639C457.58 549.641 457.649 549.662 457.705 549.646C457.713 549.643 457.697 549.633 457.726 549.631C457.865 549.625 458.011 549.631 458.153 549.622C458.203 549.619 458.177 549.602 458.229 549.598C458.282 549.593 458.387 549.587 458.442 549.595C458.496 549.602 458.437 549.63 458.519 549.631C458.875 549.638 459.228 549.62 459.583 549.615C459.636 549.614 459.592 549.624 459.67 549.624C459.957 549.623 460.452 549.628 460.7 549.606C460.899 549.588 460.649 549.577 460.801 549.569C460.874 549.565 460.954 549.596 460.972 549.597C461.145 549.606 461.265 549.591 461.421 549.595C461.454 549.595 461.422 549.608 461.45 549.609C461.543 549.61 461.642 549.604 461.731 549.604C461.771 549.604 461.764 549.614 461.801 549.613C461.889 549.611 461.967 549.606 462.053 549.596C462.061 549.596 462.008 549.584 462.074 549.583C462.179 549.581 462.311 549.571 462.432 549.58C462.469 549.582 462.47 549.605 462.548 549.589C462.564 549.585 462.543 549.559 462.634 549.581C462.649 549.585 462.801 549.615 462.876 549.595C462.895 549.589 462.945 549.567 462.989 549.57C462.995 549.57 462.971 549.583 463.007 549.584C463.134 549.587 463.267 549.584 463.397 549.587C463.432 549.588 463.38 549.601 463.432 549.601C463.575 549.604 463.753 549.599 463.892 549.594C463.944 549.592 463.908 549.582 463.912 549.581C463.972 549.563 464.008 549.587 464.028 549.588C464.152 549.596 464.246 549.584 464.361 549.586C464.393 549.587 464.37 549.598 464.377 549.599C464.442 549.609 464.393 549.588 464.434 549.586C464.55 549.578 464.679 549.578 464.796 549.579C464.839 549.579 464.791 549.593 464.829 549.593C465.058 549.594 465.295 549.591 465.517 549.582C465.559 549.58 465.533 549.57 465.542 549.568C465.602 549.55 465.69 549.573 465.711 549.575C465.803 549.584 465.839 549.574 465.92 549.576C466.319 549.581 466.811 549.572 467.187 549.565C467.677 549.557 468.058 549.544 468.525 549.543C468.555 549.543 468.525 549.557 468.55 549.558C468.881 549.559 469.207 549.551 469.538 549.552C469.565 549.553 469.526 549.566 469.57 549.567C469.659 549.568 469.773 549.567 469.863 549.562C469.907 549.559 469.848 549.548 469.892 549.546C469.996 549.541 470.107 549.54 470.213 549.541C470.258 549.542 470.19 549.556 470.249 549.555C470.649 549.554 471.042 549.553 471.447 549.533C471.475 549.531 471.499 549.504 471.558 549.509C471.562 549.516 471.562 549.525 471.564 549.533C472.147 549.534 472.724 549.52 473.308 549.514C473.333 549.514 473.291 549.529 473.338 549.529C473.614 549.526 473.883 549.529 474.165 549.512C474.193 549.51 474.178 549.485 474.261 549.488C474.276 549.489 474.4 549.491 474.432 549.497C474.437 549.497 474.414 549.51 474.454 549.51C474.687 549.51 474.931 549.505 475.164 549.496C475.201 549.495 475.161 549.482 475.188 549.481C475.377 549.473 475.584 549.481 475.765 549.469C475.886 549.46 475.841 549.438 475.905 549.416C475.914 549.413 475.989 549.412 475.993 549.399C476.003 549.367 475.966 549.333 475.981 549.299C475.984 549.292 476.085 549.299 476.025 549.282C476.021 549.281 475.948 549.275 475.93 549.269C475.917 549.265 475.94 549.252 475.914 549.247C475.889 549.242 475.861 549.253 475.818 549.247C475.776 549.241 475.795 549.227 475.71 549.225ZM452.585 549.593C452.651 549.58 452.662 549.625 452.589 549.615C452.586 549.615 452.581 549.594 452.585 549.593ZM444.508 549.644C444.595 549.623 444.655 549.652 444.593 549.668C444.532 549.683 444.481 549.65 444.508 549.644ZM443.603 549.636C443.705 549.619 443.721 549.683 443.612 549.671C443.605 549.67 443.597 549.637 443.603 549.636ZM475.606 549.412C475.607 549.411 475.661 549.41 475.662 549.411C475.691 549.425 475.583 549.427 475.606 549.412ZM442.705 549.626C442.736 549.618 442.828 549.627 442.789 549.638C442.757 549.647 442.665 549.637 442.705 549.626ZM456.067 549.52C456.068 549.52 456.106 549.519 456.106 549.523C456.103 549.535 456.049 549.532 456.067 549.52ZM441.178 549.637C441.404 549.633 441.54 549.579 441.295 549.587C441.25 549.588 441.391 549.603 441.334 549.608C441.23 549.617 441.161 549.585 441.056 549.603C441.037 549.607 441.165 549.637 441.179 549.637C441.179 549.637 441.178 549.637 441.178 549.637ZM452.623 549.539C452.624 549.538 452.678 549.538 452.679 549.538C452.708 549.552 452.6 549.554 452.623 549.539ZM458.325 549.477C458.328 549.475 458.452 549.473 458.456 549.474C458.521 549.497 458.27 549.501 458.325 549.477ZM449.014 549.532C448.956 549.518 448.886 549.517 448.839 549.535C448.898 549.534 448.956 549.533 449.014 549.532Z" fill="white"/>
<path d="M480.073 545.845L485.641 551.413L476.474 551.482L470.801 545.808L480.073 545.845Z" fill="white"/>
<path d="M483.454 541.482C483.451 541.286 483.457 541.029 483.464 540.833C483.467 540.772 483.474 540.803 483.476 540.761C483.48 540.678 483.477 540.601 483.481 540.52C483.482 540.493 483.495 540.526 483.496 540.498C483.503 540.343 483.5 540.195 483.504 540.038C483.523 539.262 483.533 538.499 483.544 537.714C483.548 537.455 483.562 537.14 483.559 536.872C483.558 536.841 483.547 536.859 483.546 536.853C483.533 536.76 483.555 536.791 483.559 536.731C483.572 536.489 483.575 536.22 483.572 535.988C483.571 535.889 483.549 535.988 483.562 535.889C483.562 535.882 483.574 535.907 483.575 535.88C483.579 535.818 483.577 535.702 483.579 535.654C483.581 535.562 483.581 535.547 483.582 535.46C483.583 535.341 483.59 535.2 483.588 535.073C483.588 535.045 483.575 535.081 483.574 535.038C483.572 534.994 483.574 534.88 483.577 534.841C483.58 534.802 483.589 534.819 483.592 534.812C483.61 534.756 483.586 534.623 483.585 534.605C483.577 534.294 483.593 534.027 483.595 533.734C483.597 533.512 483.594 533.274 483.596 533.063C483.599 532.811 483.607 532.598 483.607 532.353C483.607 532.327 483.593 532.357 483.593 532.326C483.594 531.991 483.598 531.658 483.61 531.325C483.611 531.291 483.623 531.335 483.625 531.301C483.637 531.097 483.663 530.773 483.61 530.651C483.613 530.512 483.617 530.344 483.628 530.22C483.636 530.14 483.649 530.218 483.644 530.12C483.643 530.098 483.631 530.126 483.63 530.093C483.627 529.953 483.632 529.801 483.626 529.662C483.625 529.634 483.615 529.642 483.613 529.634C483.598 529.567 483.624 529.455 483.626 529.431C483.641 529.246 483.637 529.11 483.639 528.938C483.639 528.898 483.624 528.945 483.624 528.907C483.624 528.707 483.626 528.5 483.634 528.304C483.636 528.261 483.648 528.301 483.649 528.28C483.655 528.188 483.633 528.168 483.638 528.08C483.639 528.062 483.65 528.072 483.651 528.069C483.669 528.016 483.644 527.97 483.644 527.956C483.637 527.784 483.664 527.674 483.662 527.508C483.662 527.488 483.648 527.532 483.648 527.477C483.647 527.104 483.653 526.71 483.667 526.341C483.669 526.283 483.678 526.325 483.679 526.321C483.699 526.262 483.674 526.224 483.673 526.205C483.667 526.058 483.689 525.92 483.66 525.82C483.675 525.195 483.662 524.573 483.694 523.953C483.694 523.945 483.706 523.959 483.707 523.944C483.716 523.755 483.696 523.791 483.673 523.665C483.667 523.634 483.697 523.538 483.699 523.529C483.707 523.499 483.725 523.531 483.727 523.52C483.739 523.435 483.677 523.448 483.678 523.333C483.678 523.329 483.69 523.344 483.691 523.335C483.694 523.305 483.69 523.275 483.694 523.245C483.704 523.178 483.734 523.154 483.717 523.051C483.715 523.037 483.68 523.057 483.682 522.954C483.683 522.913 483.684 522.731 483.687 522.68C483.689 522.629 483.7 522.664 483.701 522.66C483.717 522.523 483.723 522.575 483.745 522.506C483.768 522.437 483.715 522.456 483.709 522.428C483.704 522.4 483.717 522.299 483.721 522.274C483.726 522.25 483.733 522.281 483.735 522.259C483.752 522.113 483.71 522.194 483.702 522.146C483.683 522.033 483.722 521.945 483.727 521.841C483.728 521.813 483.719 521.836 483.718 521.811C483.716 521.712 483.728 521.652 483.718 521.54C483.716 521.521 483.694 521.43 483.711 521.371C483.714 521.363 483.723 521.387 483.726 521.344C483.73 521.281 483.733 521.168 483.73 521.1C483.728 521.05 483.711 521.107 483.717 521.044C483.719 521.016 483.728 521.068 483.732 521.016C483.736 520.963 483.736 520.83 483.736 520.779C483.736 520.728 483.724 520.756 483.723 520.752C483.719 520.727 483.713 520.629 483.714 520.621C483.715 520.186 483.738 519.785 483.735 519.362C483.734 519.329 483.721 519.351 483.721 519.346C483.717 519.232 483.75 519.322 483.762 519.243C483.736 519.254 483.741 519.207 483.739 519.127C483.738 519.089 483.727 519.11 483.726 519.106C483.712 519.049 483.732 519.009 483.736 518.999C483.751 518.961 483.734 518.92 483.744 518.894C483.754 518.868 483.768 518.928 483.768 518.851C483.759 518.829 483.734 518.886 483.731 518.828C483.718 518.608 483.74 518.197 483.743 518.02C483.746 517.844 483.745 517.787 483.749 517.684C483.756 517.498 483.738 517.566 483.73 517.451C483.723 517.335 483.767 517.392 483.777 517.375C483.786 517.359 483.776 517.341 483.782 517.321C483.787 517.301 483.793 517.344 483.796 517.297C483.798 517.249 483.782 517.119 483.772 517.102C483.751 517.066 483.729 517.125 483.737 516.999C483.738 516.991 483.749 517.015 483.751 516.987C483.761 516.767 483.764 516.538 483.773 516.318C483.774 516.287 483.787 516.315 483.788 516.297C483.798 516.114 483.775 516.179 483.752 516.078C483.784 516.101 483.804 516.046 483.805 515.906C483.806 515.823 483.792 515.837 483.782 515.783C483.779 515.766 483.789 515.707 483.783 515.696C483.761 515.661 483.737 515.716 483.747 515.573C483.748 515.567 483.76 515.587 483.761 515.565C483.766 515.424 483.744 515.407 483.742 515.255C483.741 515.136 483.756 514.924 483.759 514.788C483.796 514.791 483.788 514.663 483.764 514.611C483.765 514.523 483.764 514.428 483.768 514.343C483.77 514.313 483.78 514.333 483.781 514.329C483.8 514.272 483.776 514.234 483.775 514.215C483.767 514.009 483.787 513.841 483.77 513.644C483.769 513.637 483.744 513.626 483.763 513.573C483.764 513.57 483.775 513.635 483.777 513.542C483.778 513.45 483.793 513.275 483.782 513.147C483.78 513.116 483.76 513.037 483.776 512.974C483.779 512.965 483.786 512.975 483.79 512.963C483.803 512.923 483.778 512.902 483.8 512.856C483.822 512.81 483.839 512.714 483.825 512.584C483.824 512.58 483.804 512.549 483.805 512.509C483.806 512.444 483.811 512.351 483.811 512.283C483.811 512.251 483.798 512.272 483.798 512.266C483.793 512.047 483.805 511.892 483.812 511.658C483.813 511.615 483.797 511.491 483.811 511.408C483.826 511.317 483.887 511.411 483.874 511.201C483.869 511.117 483.791 511.009 483.833 510.857C483.825 510.562 483.848 510.289 483.835 509.994C483.835 509.98 483.813 509.938 483.814 509.907C483.815 509.86 483.825 509.835 483.826 509.802C483.83 509.663 483.822 509.536 483.824 509.402C483.825 509.351 483.836 509.369 483.837 509.308C483.838 509.248 483.824 509.207 483.832 509.125C483.837 509.063 483.866 509.001 483.87 508.919C483.842 508.916 483.843 508.859 483.836 508.759C483.835 508.739 483.825 508.76 483.824 508.751C483.819 508.713 483.827 508.679 483.822 508.644C483.821 508.635 483.811 508.635 483.81 508.628C483.796 508.568 483.818 508.47 483.822 508.453C483.837 508.388 483.825 508.358 483.831 508.308C483.837 508.259 483.843 508.333 483.847 508.275C483.855 508.155 483.854 508.001 483.856 507.879C483.856 507.83 483.843 507.863 483.843 507.856C483.84 507.755 483.855 507.654 483.83 507.598C483.896 507.529 483.824 507.537 483.838 507.393C483.839 507.382 483.87 507.368 483.874 507.411C483.879 507.455 483.869 507.521 483.875 507.581C483.877 507.596 483.905 507.678 483.907 507.689C483.92 507.776 483.874 507.788 483.871 507.793C483.843 507.845 483.874 507.946 483.876 507.972C483.885 508.093 483.878 508.195 483.884 508.296C483.888 508.362 483.919 508.368 483.917 508.42C483.913 508.592 483.87 508.652 483.906 508.814C483.913 508.849 483.947 508.815 483.92 508.939C483.918 508.947 483.893 509.039 483.908 509.093C483.91 509.1 483.92 509.099 483.921 509.108C483.925 509.168 483.917 509.207 483.921 509.272C483.924 509.336 483.929 509.414 483.925 509.488C483.923 509.532 483.904 509.589 483.9 509.611C483.886 509.671 483.907 509.735 483.891 509.772C483.875 509.81 483.852 509.736 483.842 509.835C483.867 509.838 483.893 509.847 483.918 509.853C483.916 510.069 483.906 510.281 483.905 510.498C483.905 510.524 483.919 510.497 483.92 510.526C483.921 510.647 483.91 510.753 483.913 510.879C483.916 510.977 483.929 511.084 483.932 511.185C483.903 511.247 483.912 511.399 483.908 511.509C483.907 511.547 483.899 511.544 483.897 511.572C483.887 511.675 483.912 511.627 483.916 511.655C483.932 511.777 483.875 511.787 483.875 511.93C483.875 511.937 483.905 512.03 483.907 512.043C483.919 512.124 483.896 512.056 483.894 512.107C483.889 512.2 483.881 512.264 483.889 512.373C483.892 512.405 483.91 512.481 483.895 512.542C483.893 512.551 483.883 512.546 483.882 512.552C483.871 512.67 483.903 512.674 483.914 512.741C483.924 512.809 483.901 512.913 483.895 512.934C483.878 512.989 483.888 512.892 483.886 512.889C483.867 512.853 483.87 512.929 483.868 512.987C483.837 512.995 483.838 513.077 483.866 513.047C483.869 513.044 483.867 512.999 483.868 512.987C483.899 513.038 483.902 513.128 483.872 513.226C483.859 513.272 483.843 513.228 483.848 513.369C483.85 513.432 483.872 513.408 483.877 513.464C483.89 513.592 483.869 513.759 483.871 513.891C483.872 513.939 483.884 513.892 483.885 513.925C483.887 514.012 483.878 514.089 483.882 514.176C483.882 514.184 483.895 514.165 483.895 514.192C483.895 514.398 483.885 514.578 483.884 514.793C483.883 514.897 483.888 515.083 483.886 515.19C483.882 515.377 483.863 515.606 483.866 515.766C483.868 515.87 483.881 515.847 483.889 515.892C483.904 515.978 483.874 516.13 483.869 516.15C483.869 516.151 483.867 516.061 483.86 516.109C483.847 516.137 483.869 516.149 483.869 516.15C483.866 516.164 483.862 516.343 483.864 516.378C483.866 516.397 483.877 516.387 483.878 516.397C483.887 516.636 483.888 516.875 483.881 517.118C483.88 517.122 483.867 517.115 483.867 517.125C483.86 517.266 483.875 517.356 483.884 517.472C483.893 517.587 483.889 517.679 483.866 517.747C483.868 517.835 483.857 517.96 483.851 518.032C483.844 518.104 483.87 518.114 483.87 518.121C483.885 518.319 483.869 518.433 483.866 518.638C483.864 518.736 483.866 518.929 483.868 519.035C483.87 519.119 483.864 519.169 483.867 519.246C483.867 519.256 483.879 519.246 483.879 519.249C483.892 519.335 483.865 519.293 483.86 519.311C483.841 519.375 483.831 519.415 483.839 519.525C483.841 519.55 483.88 519.625 483.882 519.671C483.885 519.731 483.87 519.708 483.873 519.771C483.874 519.777 483.883 519.775 483.882 519.814C483.879 519.995 483.872 520.191 483.872 520.379C483.872 520.404 483.886 520.371 483.886 520.408C483.887 520.582 483.885 520.772 483.877 520.941C483.875 520.983 483.865 520.957 483.862 520.966C483.844 521.021 483.869 521.1 483.87 521.113C483.88 521.423 483.855 521.659 483.864 521.975C483.864 521.992 483.891 522.124 483.867 522.183C483.865 522.187 483.841 522.246 483.857 522.297C483.858 522.3 483.871 522.264 483.869 522.328C483.867 522.391 483.875 522.493 483.86 522.58C483.856 522.608 483.831 522.673 483.85 522.756C483.851 522.761 483.894 522.888 483.863 522.934C483.859 522.941 483.827 522.933 483.842 523.031C483.845 523.05 483.853 523.016 483.857 523.066C483.863 523.142 483.854 523.242 483.867 523.335C483.87 523.352 483.891 523.421 483.874 523.476C483.871 523.485 483.861 523.468 483.86 523.498C483.853 523.637 483.859 523.783 483.851 523.924C483.848 523.975 483.831 523.949 483.826 524.001C483.821 524.053 483.816 524.159 483.823 524.213C483.831 524.268 483.858 524.208 483.86 524.29C483.867 524.647 483.848 524.999 483.843 525.355C483.843 525.408 483.853 525.364 483.852 525.442C483.851 525.729 483.857 526.223 483.834 526.472C483.816 526.671 483.805 526.42 483.797 526.573C483.794 526.646 483.825 526.726 483.826 526.743C483.834 526.917 483.82 527.037 483.823 527.193C483.823 527.225 483.837 527.194 483.837 527.221C483.838 527.315 483.832 527.413 483.832 527.503C483.833 527.543 483.843 527.536 483.842 527.573C483.839 527.661 483.835 527.739 483.825 527.825C483.824 527.833 483.812 527.78 483.811 527.845C483.81 527.951 483.8 528.082 483.808 528.204C483.811 528.24 483.833 528.242 483.817 528.319C483.814 528.336 483.787 528.315 483.81 528.405C483.813 528.421 483.844 528.573 483.823 528.647C483.817 528.667 483.795 528.717 483.798 528.76C483.799 528.766 483.811 528.743 483.812 528.779C483.815 528.906 483.813 529.039 483.815 529.169C483.816 529.204 483.829 529.152 483.83 529.204C483.832 529.347 483.827 529.525 483.823 529.664C483.821 529.716 483.811 529.68 483.81 529.684C483.791 529.744 483.815 529.779 483.817 529.799C483.824 529.924 483.812 530.018 483.814 530.133C483.815 530.164 483.827 530.142 483.828 530.148C483.837 530.214 483.817 530.165 483.814 530.206C483.807 530.322 483.807 530.451 483.807 530.568C483.808 530.611 483.822 530.562 483.822 530.601C483.822 530.829 483.819 531.067 483.81 531.289C483.809 531.331 483.798 531.305 483.796 531.313C483.779 531.374 483.801 531.462 483.803 531.482C483.812 531.575 483.803 531.611 483.804 531.692C483.81 532.091 483.8 532.583 483.793 532.959C483.785 533.449 483.772 533.829 483.772 534.297C483.772 534.326 483.786 534.297 483.786 534.322C483.787 534.653 483.779 534.978 483.781 535.31C483.781 535.337 483.794 535.298 483.795 535.341C483.796 535.431 483.795 535.544 483.79 535.635C483.788 535.679 483.777 535.62 483.775 535.664C483.77 535.767 483.768 535.878 483.769 535.985C483.77 536.03 483.784 535.962 483.784 536.021C483.782 536.421 483.782 536.814 483.761 537.219C483.76 537.246 483.732 537.271 483.737 537.33C483.745 537.334 483.754 537.334 483.762 537.336C483.762 537.919 483.748 538.496 483.743 539.08C483.742 539.105 483.757 539.062 483.757 539.11C483.755 539.386 483.757 539.654 483.74 539.937C483.739 539.965 483.713 539.95 483.716 540.033C483.717 540.047 483.72 540.172 483.725 540.204C483.726 540.208 483.738 540.186 483.738 540.226C483.738 540.459 483.734 540.703 483.725 540.935C483.723 540.973 483.711 540.933 483.71 540.959C483.701 541.149 483.71 541.355 483.697 541.536C483.688 541.658 483.666 541.613 483.644 541.677C483.641 541.686 483.64 541.761 483.628 541.765C483.596 541.775 483.561 541.738 483.527 541.753C483.52 541.756 483.527 541.856 483.51 541.797C483.509 541.793 483.504 541.72 483.498 541.702C483.494 541.689 483.481 541.711 483.476 541.686C483.471 541.66 483.481 541.632 483.476 541.59C483.47 541.548 483.455 541.566 483.454 541.482ZM483.821 518.357C483.809 518.423 483.854 518.433 483.843 518.361C483.843 518.358 483.822 518.353 483.821 518.357ZM483.872 510.28C483.852 510.367 483.88 510.427 483.896 510.365C483.912 510.304 483.878 510.253 483.872 510.28ZM483.864 509.374C483.848 509.476 483.911 509.493 483.899 509.384C483.898 509.377 483.865 509.369 483.864 509.374ZM483.64 541.378C483.64 541.379 483.639 541.433 483.639 541.434C483.653 541.463 483.655 541.355 483.64 541.378ZM483.855 508.476C483.846 508.508 483.855 508.6 483.866 508.56C483.875 508.529 483.866 508.437 483.855 508.476ZM483.749 521.838C483.748 521.84 483.747 521.878 483.751 521.877C483.763 521.875 483.76 521.821 483.749 521.838ZM483.865 506.95C483.861 507.176 483.807 507.312 483.815 507.066C483.816 507.022 483.831 507.162 483.836 507.106C483.846 507.002 483.813 506.933 483.832 506.828C483.835 506.809 483.865 506.937 483.865 506.95C483.865 506.95 483.865 506.95 483.865 506.95ZM483.767 518.395C483.767 518.396 483.766 518.449 483.766 518.451C483.78 518.48 483.782 518.372 483.767 518.395ZM483.705 524.097C483.704 524.1 483.702 524.224 483.703 524.228C483.725 524.293 483.73 524.042 483.705 524.097ZM483.76 514.786C483.746 514.728 483.745 514.658 483.763 514.611C483.762 514.669 483.762 514.728 483.76 514.786Z" fill="url(#paint1_linear_9_660)"/>
<path d="M480.073 545.845L485.641 551.413L485.71 542.246L480.036 536.573L480.073 545.845Z" fill="white"/>
<path d="M479.722 471.006C479.39 470.644 479.051 470.286 478.707 469.932L478.707 469.931L477.99 470.628C477.821 470.454 477.65 470.281 477.478 470.11C477.306 469.938 477.133 469.767 476.96 469.598L477.657 468.882C477.303 468.538 476.945 468.199 476.583 467.867L475.906 468.601C475.549 468.272 475.188 467.949 474.824 467.633L475.48 466.88C475.108 466.556 474.733 466.237 474.354 465.926L473.718 466.696C473.343 466.388 472.964 466.085 472.583 465.789L473.197 465.001C472.807 464.698 472.414 464.402 472.018 464.112L471.428 464.917C471.036 464.63 470.641 464.349 470.243 464.075L470.811 463.253C470.405 462.973 469.995 462.699 469.583 462.431L469.039 463.268C468.633 463.004 468.223 462.746 467.811 462.495L468.332 461.643C467.91 461.386 467.486 461.135 467.059 460.89L466.562 461.757C466.142 461.516 465.718 461.283 465.293 461.055L465.765 460.175C465.329 459.942 464.891 459.716 464.451 459.496L464.004 460.389C463.571 460.173 463.136 459.964 462.699 459.761L463.12 458.853C462.672 458.645 462.221 458.445 461.769 458.25L461.374 459.167C460.929 458.976 460.482 458.791 460.033 458.613L460.403 457.685C459.944 457.503 459.483 457.327 459.02 457.158L458.677 458.096C458.222 457.93 457.766 457.771 457.308 457.618L457.623 456.671C457.156 456.515 456.686 456.365 456.215 456.223L455.925 457.179C455.462 457.039 454.997 456.906 454.531 456.779L454.793 455.815C454.318 455.685 453.841 455.563 453.362 455.447L453.126 456.418C452.656 456.304 452.184 456.196 451.712 456.096L451.919 455.119C451.436 455.017 450.953 454.921 450.469 454.832L450.288 455.814C449.812 455.727 449.335 455.646 448.857 455.572L449.01 454.585C448.523 454.51 448.035 454.442 447.546 454.38L447.421 455.371C446.941 455.31 446.46 455.256 445.979 455.209L446.076 454.216C445.585 454.167 445.094 454.126 444.603 454.091L444.533 455.088C444.05 455.054 443.568 455.027 443.085 455.007L443.125 454.009C442.633 453.988 442.14 453.974 441.648 453.968L441.634 454.966C441.15 454.959 440.666 454.959 440.182 454.966L440.169 453.968C439.676 453.974 439.183 453.988 438.691 454.009L438.732 455.007C438.249 455.027 437.766 455.054 437.284 455.088L437.214 454.091C436.722 454.126 436.231 454.167 435.74 454.216L435.838 455.209C435.356 455.256 434.876 455.31 434.396 455.371L434.271 454.38C433.782 454.442 433.294 454.51 432.806 454.585L432.959 455.572C432.482 455.646 432.005 455.727 431.529 455.814L431.348 454.832C430.863 454.921 430.38 455.017 429.898 455.119L430.105 456.096C429.632 456.196 429.161 456.304 428.691 456.418L428.454 455.447C427.976 455.563 427.499 455.685 427.023 455.815L427.285 456.779C426.819 456.906 426.354 457.039 425.891 457.179L425.601 456.223C425.13 456.365 424.661 456.515 424.193 456.671L424.509 457.618C424.051 457.771 423.594 457.93 423.139 458.096L422.796 457.158C422.333 457.327 421.873 457.503 421.414 457.685L421.783 458.613C421.335 458.791 420.887 458.976 420.443 459.167L420.048 458.25C419.595 458.445 419.144 458.645 418.696 458.853L419.118 459.761C418.68 459.964 418.245 460.173 417.813 460.389L417.366 459.496C416.925 459.716 416.487 459.942 416.052 460.175L416.523 461.055C416.098 461.283 415.674 461.516 415.254 461.757L414.758 460.89C414.33 461.135 413.906 461.386 413.484 461.643L414.005 462.495C413.593 462.746 413.184 463.004 412.777 463.268L412.233 462.431C411.821 462.699 411.411 462.973 411.005 463.253L411.573 464.075C411.175 464.349 410.78 464.63 410.389 464.917L409.798 464.112C409.402 464.402 409.009 464.698 408.62 465.001L409.233 465.79C408.851 466.086 408.473 466.388 408.098 466.696L407.463 465.926C407.084 466.237 406.708 466.556 406.336 466.88L406.992 467.633C406.628 467.949 406.268 468.272 405.911 468.601L405.233 467.867C404.872 468.199 404.514 468.538 404.159 468.882L404.857 469.598C404.683 469.767 404.51 469.938 404.338 470.11C404.166 470.281 403.996 470.454 403.827 470.628L403.11 469.932C402.765 470.286 402.427 470.644 402.094 471.006L402.829 471.682C402.501 472.039 402.177 472.4 401.861 472.764L401.107 472.109C400.783 472.481 400.465 472.856 400.153 473.236L400.925 473.869C400.616 474.244 400.314 474.623 400.018 475.005L399.228 474.392C398.926 474.782 398.63 475.175 398.34 475.571L399.145 476.161C398.858 476.552 398.577 476.947 398.303 477.345L397.481 476.777C397.201 477.184 396.927 477.593 396.659 478.006L397.496 478.549C397.232 478.956 396.974 479.365 396.723 479.777L395.87 479.257C395.613 479.679 395.362 480.103 395.118 480.53L395.986 481.026C395.745 481.446 395.511 481.869 395.284 482.295L394.403 481.824C394.17 482.259 393.943 482.698 393.723 483.139L394.618 483.584C394.402 484.017 394.192 484.452 393.988 484.89L393.08 484.469C392.872 484.917 392.672 485.368 392.478 485.821L393.395 486.215C393.204 486.659 393.02 487.106 392.842 487.554L391.913 487.187C391.731 487.646 391.555 488.106 391.386 488.568L392.325 488.911C392.159 489.365 391.999 489.822 391.846 490.28L390.899 489.965C390.743 490.433 390.593 490.903 390.451 491.375L391.407 491.662C391.267 492.126 391.134 492.591 391.007 493.057L390.042 492.796C389.913 493.271 389.79 493.749 389.674 494.227L390.646 494.462C390.532 494.932 390.424 495.404 390.324 495.877L389.347 495.67C389.244 496.153 389.148 496.636 389.059 497.12L390.043 497.3C389.955 497.776 389.875 498.253 389.801 498.731L388.813 498.578C388.737 499.066 388.67 499.555 388.608 500.044L389.599 500.168C389.538 500.648 389.484 501.129 389.437 501.61L388.443 501.513C388.395 502.003 388.354 502.494 388.319 502.986L389.316 503.056C389.282 503.538 389.255 504.021 389.235 504.504L388.237 504.463C388.216 504.955 388.202 505.448 388.196 505.941L389.195 505.954C389.188 506.437 389.188 506.922 389.195 507.405L388.196 507.42C388.202 507.913 388.216 508.406 388.236 508.898L389.236 508.856C389.256 509.339 389.283 509.822 389.316 510.304L388.319 510.375C388.354 510.866 388.395 511.358 388.443 511.849L389.437 511.751C389.484 512.232 389.538 512.713 389.599 513.193L388.607 513.318C388.669 513.807 388.738 514.295 388.813 514.782L389.8 514.629C389.874 515.107 389.955 515.584 390.042 516.06L389.059 516.241C389.148 516.726 389.245 517.209 389.347 517.691L390.325 517.483C390.425 517.956 390.532 518.427 390.646 518.898L389.675 519.134C389.791 519.612 389.912 520.09 390.041 520.565L391.007 520.303C391.134 520.769 391.267 521.234 391.407 521.697L390.451 521.987C390.593 522.458 390.742 522.928 390.898 523.396L391.846 523.079C391.999 523.537 392.158 523.994 392.324 524.449L391.386 524.792C391.555 525.255 391.73 525.716 391.913 526.175L392.842 525.805C393.02 526.253 393.205 526.7 393.396 527.145L392.478 527.541C392.672 527.994 392.873 528.444 393.081 528.892L393.988 528.471C394.192 528.908 394.401 529.343 394.617 529.776L393.723 530.223C393.943 530.664 394.17 531.101 394.403 531.537L395.283 531.065C395.511 531.49 395.745 531.913 395.986 532.334L395.118 532.831C395.362 533.258 395.612 533.683 395.869 534.104L396.724 533.583C396.975 533.995 397.232 534.405 397.496 534.811L396.659 535.355C396.927 535.768 397.2 536.178 397.481 536.584L398.303 536.015C398.577 536.413 398.859 536.808 399.145 537.199L398.34 537.791C398.63 538.187 398.926 538.58 399.228 538.97L400.018 538.356C400.314 538.737 400.616 539.115 400.924 539.49L400.154 540.126C400.465 540.505 400.783 540.881 401.107 541.253L401.861 540.596C402.177 540.96 402.5 541.321 402.829 541.678L402.095 542.355C402.427 542.717 402.765 543.075 403.11 543.43L403.826 542.732L404.338 543.25C404.509 543.422 404.682 543.593 404.856 543.762L404.159 544.479C404.514 544.824 404.872 545.162 405.234 545.494L405.91 544.759C406.267 545.088 406.628 545.411 406.992 545.728L406.336 546.482C406.708 546.806 407.084 547.124 407.464 547.436L408.097 546.664C408.472 546.972 408.851 547.275 409.233 547.571L408.62 548.361C408.989 548.648 409.362 548.929 409.737 549.205L409.798 549.25L410.389 548.443C410.781 548.73 411.175 549.011 411.573 549.285L411.005 550.108C411.411 550.388 411.821 550.662 412.234 550.93L412.777 550.092C413.184 550.356 413.594 550.613 414.006 550.865L413.485 551.718C413.882 551.96 414.282 552.197 414.684 552.428L414.758 552.47L415.254 551.602C415.674 551.843 416.097 552.077 416.523 552.304L416.052 553.186C416.487 553.419 416.925 553.646 417.366 553.866L417.812 552.971C418.245 553.187 418.68 553.397 419.118 553.6L418.697 554.507V554.508C419.145 554.716 419.595 554.917 420.048 555.112L420.444 554.192C420.888 554.384 421.335 554.568 421.783 554.746L421.414 555.676C421.873 555.858 422.334 556.034 422.796 556.203L423.139 555.263C423.593 555.429 424.05 555.588 424.509 555.741L424.192 556.69C424.661 556.846 425.131 556.995 425.603 557.138L425.89 556.181C426.354 556.321 426.819 556.455 427.285 556.582L427.024 557.546C427.467 557.667 427.911 557.782 428.357 557.891L428.455 557.914L428.69 556.942C429.16 557.056 429.633 557.163 430.105 557.264L429.898 558.242C430.381 558.344 430.864 558.44 431.348 558.529L431.528 557.546C432.004 557.633 432.481 557.713 432.959 557.787L432.806 558.775V558.777C433.294 558.852 433.782 558.92 434.271 558.981L434.396 557.99C434.876 558.05 435.356 558.104 435.838 558.151L435.74 559.146C436.231 559.194 436.722 559.236 437.214 559.271V559.269L437.284 558.272C437.767 558.306 438.249 558.333 438.732 558.353L438.69 559.352C439.183 559.373 439.676 559.387 440.169 559.394V559.393L440.182 558.393C440.666 558.4 441.15 558.4 441.633 558.394L441.648 559.393V559.394C442.141 559.387 442.634 559.373 443.126 559.352L443.084 558.353C443.567 558.333 444.05 558.306 444.532 558.272L444.603 559.269V559.271C445.094 559.236 445.585 559.194 446.076 559.146L445.979 558.151C446.46 558.104 446.941 558.05 447.421 557.99L447.545 558.981C448.034 558.92 448.523 558.852 449.01 558.777V558.775L448.858 557.787C449.335 557.713 449.813 557.633 450.288 557.546L450.468 558.529C450.952 558.44 451.436 558.344 451.918 558.242L451.711 557.264C452.184 557.163 452.656 557.056 453.126 556.942L453.361 557.914C453.84 557.799 454.317 557.676 454.793 557.546L454.531 556.582C454.997 556.455 455.463 556.321 455.926 556.181L456.214 557.138C456.685 556.995 457.156 556.846 457.624 556.69L457.308 555.741C457.766 555.588 458.223 555.429 458.678 555.263L459.02 556.203C459.483 556.034 459.943 555.858 460.402 555.676L460.033 554.746C460.482 554.568 460.928 554.384 461.373 554.192L461.769 555.112C462.221 554.917 462.671 554.716 463.119 554.508V554.507L462.699 553.6C463.136 553.397 463.572 553.187 464.004 552.971L464.451 553.866C464.891 553.646 465.329 553.419 465.765 553.186L465.294 552.304C465.719 552.077 466.142 551.843 466.562 551.602L467.059 552.47C467.46 552.241 467.859 552.006 468.256 551.764L468.331 551.718L467.811 550.865C468.223 550.613 468.633 550.356 469.039 550.092L469.583 550.93C469.995 550.662 470.405 550.388 470.812 550.108L470.243 549.285C470.641 549.011 471.036 548.73 471.427 548.443L472.018 549.25C472.414 548.959 472.807 548.663 473.197 548.361L472.584 547.571C472.965 547.275 473.344 546.972 473.719 546.664L474.353 547.436C474.732 547.124 475.108 546.806 475.48 546.482L474.824 545.728C475.188 545.411 475.549 545.088 475.907 544.759L476.583 545.494C476.944 545.162 477.303 544.824 477.657 544.479L476.96 543.762C477.134 543.593 477.307 543.422 477.479 543.25C477.651 543.078 477.821 542.905 477.991 542.732L478.707 543.43C479.051 543.075 479.389 542.717 479.722 542.355L478.988 541.678C479.316 541.321 479.639 540.96 479.956 540.596L480.709 541.253C481.033 540.881 481.351 540.505 481.663 540.126L480.892 539.49C481.201 539.115 481.503 538.737 481.8 538.355L482.588 538.97C482.891 538.58 483.187 538.187 483.477 537.791L482.671 537.199C482.958 536.808 483.239 536.413 483.513 536.015L484.336 536.584C484.616 536.178 484.889 535.768 485.157 535.355L484.32 534.811C484.584 534.405 484.841 533.995 485.093 533.583L485.946 534.103L485.947 534.104C486.204 533.683 486.454 533.258 486.698 532.831L485.831 532.334C486.071 531.913 486.306 531.49 486.533 531.065L487.414 531.537C487.646 531.101 487.873 530.664 488.093 530.223L487.2 529.776C487.415 529.343 487.625 528.908 487.828 528.471L488.735 528.891L488.735 528.892C488.943 528.444 489.144 527.994 489.339 527.541L488.42 527.145C488.612 526.7 488.797 526.253 488.975 525.805L489.904 526.175C490.086 525.716 490.262 525.255 490.431 524.792L489.492 524.449C489.658 523.994 489.817 523.537 489.97 523.079L490.918 523.396C491.074 522.928 491.223 522.458 491.366 521.987L490.41 521.697C490.55 521.234 490.683 520.769 490.81 520.303L491.774 520.565L491.775 520.565C491.904 520.09 492.026 519.612 492.142 519.134L492.142 519.133L491.171 518.898C491.285 518.427 491.391 517.956 491.492 517.483L492.469 517.691C492.571 517.209 492.668 516.726 492.757 516.241L491.774 516.06C491.862 515.584 491.942 515.107 492.016 514.629L493.003 514.782C493.079 514.295 493.148 513.807 493.209 513.318L492.218 513.193C492.278 512.713 492.332 512.232 492.379 511.751L493.374 511.849C493.422 511.358 493.463 510.866 493.497 510.375L492.5 510.304C492.534 509.822 492.561 509.339 492.581 508.856L493.58 508.898C493.601 508.406 493.614 507.913 493.621 507.42L492.622 507.405C492.628 506.922 492.629 506.438 492.622 505.954L493.621 505.941C493.614 505.448 493.6 504.955 493.579 504.463L492.582 504.504C492.561 504.021 492.534 503.538 492.501 503.056L493.497 502.986C493.463 502.494 493.422 502.003 493.374 501.513L492.379 501.61C492.332 501.129 492.278 500.648 492.218 500.168L493.209 500.044C493.147 499.555 493.079 499.066 493.003 498.578L492.015 498.731C491.941 498.253 491.861 497.776 491.774 497.3L492.757 497.12C492.668 496.636 492.572 496.153 492.47 495.67L491.493 495.877C491.392 495.404 491.284 494.932 491.17 494.462L492.142 494.227C492.027 493.749 491.904 493.271 491.774 492.796L490.81 493.057C490.683 492.591 490.549 492.126 490.409 491.662L491.366 491.375C491.223 490.903 491.073 490.433 490.917 489.965L489.97 490.28C489.817 489.822 489.657 489.365 489.491 488.911L490.431 488.568C490.262 488.106 490.085 487.646 489.903 487.187L488.975 487.554C488.797 487.106 488.612 486.659 488.421 486.215L489.339 485.821C489.144 485.368 488.944 484.917 488.736 484.469L488.735 484.469L487.828 484.89C487.625 484.452 487.415 484.017 487.199 483.584L488.093 483.139C487.873 482.698 487.647 482.259 487.414 481.824L486.532 482.295C486.305 481.869 486.071 481.446 485.831 481.026L486.698 480.53C486.454 480.103 486.203 479.679 485.946 479.257L485.093 479.777C484.842 479.365 484.584 478.956 484.32 478.549L485.158 478.006C484.89 477.593 484.616 477.184 484.335 476.777L483.513 477.345C483.239 476.947 482.959 476.552 482.672 476.161L483.477 475.571C483.187 475.175 482.891 474.782 482.588 474.392L482.589 474.392L481.799 475.005C481.503 474.623 481.2 474.245 480.891 473.869L481.664 473.236C481.352 472.856 481.033 472.481 480.709 472.109L479.956 472.764C479.639 472.4 479.316 472.039 478.987 471.682L479.722 471.006Z" stroke="url(#paint2_radial_9_660)" stroke-width="2" stroke-dasharray="1.5 1.5"/>
<path opacity="0.5" d="M470.73 536.502C487.201 520.032 487.201 493.328 470.73 476.858C454.26 460.387 427.556 460.387 411.086 476.858C394.616 493.328 394.616 520.032 411.086 536.502C427.556 552.972 454.26 552.972 470.73 536.502ZM463.275 529.046C450.922 541.399 430.895 541.399 418.542 529.046C406.189 516.694 406.189 496.666 418.542 484.313C430.895 471.961 450.922 471.961 463.275 484.313C475.627 496.666 475.627 516.694 463.275 529.046Z" fill="url(#paint3_radial_9_660)"/>
<path d="M443.452 539.246C443.282 539.118 442.032 539.03 440.659 539.048C438.287 539.079 436.619 539.11 435.174 539.135C435.014 539.138 434.852 539.14 434.692 539.143C433.164 539.17 431.823 539.192 429.94 539.21C427.214 539.224 425.187 539.225 423.335 539.225C418.478 539.227 414.817 539.229 402.878 539.475C391.275 539.714 367.635 539.798 328.169 539.861C317.133 539.879 301.77 539.915 286.372 539.951C286.192 539.952 286.01 539.954 285.829 539.954C270.242 539.991 254.664 540.027 243.51 540.044C240.512 540.049 237.517 540.052 234.527 540.054L234.153 540.052L233.592 540.613L234.527 540.621C237.52 540.587 240.51 540.551 243.495 540.513C254.674 540.495 270.276 540.456 285.855 540.42C286.031 540.419 286.207 540.42 286.383 540.42C301.793 540.384 317.138 540.347 328.153 540.33C367.368 540.267 391.64 540.183 403.867 539.931C415.266 539.696 418.432 539.696 423.124 539.694C423.251 539.694 423.38 539.692 423.507 539.691C423.516 539.692 423.525 539.694 423.533 539.694C423.693 539.7 423.829 539.703 423.899 539.704C424.038 539.707 424.153 539.709 424.197 539.709H424.764C425.601 539.707 428.216 539.695 430.288 539.676C432.412 539.656 433.927 539.629 435.524 539.601C435.684 539.598 435.847 539.596 436.008 539.594C437.446 539.568 439.014 539.541 441.269 539.511C442.639 539.493 443.613 539.373 443.452 539.246Z" fill="white"/>
<path d="M471.567 303.125C471.567 303.034 471.569 302.941 471.569 302.849C471.498 302.849 471.425 302.85 471.353 302.849L470.887 303.315C470.903 303.315 470.92 303.315 470.936 303.315C470.975 333.602 470.957 363.88 470.813 394.149C470.695 418.696 470.679 443.168 470.686 467.734C470.693 488.21 470.932 525.741 470.957 534.571C470.959 535.239 470.985 535.844 471.026 536.288C469.862 536.178 467.463 536.081 464.944 536.139C464.784 536.142 464.622 536.146 464.462 536.149C462.935 536.176 461.597 536.199 459.715 536.216C456.988 536.231 454.957 536.231 453.105 536.232C448.242 536.234 414.498 536.318 402.557 536.564C390.953 536.803 367.279 536.56 327.814 536.623C316.769 536.641 301.506 536.893 286.071 536.816C286.03 536.816 285.987 536.816 285.945 536.816C270.624 536.74 255.173 536.665 243.93 536.682C241.617 536.686 239.482 536.702 237.492 536.713L237.024 537.182C239.134 537.169 241.415 537.152 243.915 537.148C254.973 537.131 270.277 537.208 285.711 537.285H285.747C301.099 537.361 316.671 537.673 327.924 537.655C367.139 537.592 391.321 537.271 403.548 537.019C424.934 536.579 449.193 537.075 471.042 536.517H471.057C471.098 536.854 471.141 537.056 471.196 537.053C471.251 537.045 471.296 536.834 471.335 536.492C471.927 536.445 471.865 536.384 471.358 536.319C471.4 535.86 471.425 535.221 471.423 534.52C471.398 525.752 471.159 488.346 471.152 467.947C471.145 443.43 471.164 419.008 471.281 394.51C471.426 364.139 471.514 333.735 471.567 303.318C471.631 303.318 471.696 303.318 471.76 303.318L471.567 303.125Z" fill="white"/>
<path d="M418.176 534.077C418.359 533.949 417.396 533.832 416.024 533.817C414.604 533.802 413.477 533.788 412.449 533.773C412.384 533.772 412.318 533.772 412.253 533.771C411.183 533.756 410.167 533.74 409.074 533.732C408.708 533.73 408.33 533.729 407.978 533.727C407.343 533.721 406.62 533.711 405.756 533.699C405.583 533.696 405.403 533.694 405.221 533.691C404.047 533.674 402.678 533.655 401.136 533.64C397.525 533.603 392.948 533.588 386.911 533.673C385.328 533.695 383.793 533.717 382.295 533.737C375.392 533.831 369.248 533.913 362.639 534.095C361.733 534.12 360.863 534.15 359.934 534.18C357.178 534.27 353.885 534.376 347.511 534.466C338.971 534.587 325.044 534.672 300.45 534.607C296.264 534.596 291.747 534.615 286.936 534.636C285.1 534.644 283.217 534.652 281.296 534.659C274.268 534.683 266.454 534.688 257.519 534.605C250.227 534.537 244.577 534.45 239.837 534.368L239.369 534.837C244.089 534.917 249.733 535.004 256.922 535.071C266.176 535.157 274.245 535.152 281.384 535.127C283.429 535.12 285.382 535.11 287.255 535.102C291.986 535.082 296.22 535.065 300.209 535.076C324.942 535.141 339.207 535.056 348.173 534.929C355.067 534.831 358.921 534.706 361.7 534.615C362.538 534.588 363.28 534.562 363.978 534.543C370.204 534.371 375.921 534.294 382.797 534.201C384.323 534.18 385.912 534.157 387.57 534.134C393.117 534.056 397.253 534.07 400.495 534.103C401.912 534.117 403.161 534.135 404.338 534.152C404.359 534.152 404.381 534.154 404.402 534.154C404.566 534.157 404.73 534.157 404.891 534.16C405.013 534.161 405.135 534.166 405.257 534.167C405.304 534.17 405.349 534.171 405.38 534.172C405.405 534.173 405.425 534.175 405.437 534.175H405.445C405.675 534.184 405.875 534.187 405.916 534.188C405.985 534.189 406.048 534.19 406.081 534.19C406.25 534.193 406.47 534.192 406.616 534.193C406.991 534.195 407.644 534.199 408.65 534.201C409.526 534.207 410.369 534.217 411.422 534.232C411.488 534.233 411.554 534.236 411.62 534.237C412.647 534.251 413.85 534.267 415.358 534.283C416.727 534.298 417.989 534.205 418.176 534.077Z" fill="white"/>
<path d="M437.714 534.353C437.7 534.224 436.565 534.122 435.181 534.126C431.883 534.135 428.582 534.145 425.284 534.154C423.9 534.158 422.79 534.265 422.802 534.394C422.828 534.522 423.958 534.624 425.335 534.62C428.633 534.611 431.932 534.601 435.23 534.592C436.608 534.588 437.718 534.481 437.714 534.353Z" fill="white"/>
<path d="M468.851 486.02C468.85 485.917 468.847 485.812 468.846 485.709C468.812 482.686 468.765 479.605 468.707 475.878C468.699 475.404 468.692 474.915 468.684 474.419C468.615 470.001 468.531 464.572 468.439 457.177C468.13 432.345 468.337 412.764 468.401 406.672C468.529 394.458 468.531 381.427 468.534 363.648C468.535 362.023 468.534 360.355 468.534 358.647C468.535 357.269 468.431 356.128 468.303 356.085C468.174 356.054 468.069 357.151 468.069 358.536C468.068 360.208 468.066 361.839 468.066 363.427V363.447C468.062 381.338 468.06 394.087 467.935 406.013C467.869 412.238 467.659 432.301 467.976 457.746C468.069 465.22 468.153 470.71 468.223 475.155C468.231 475.641 468.236 476.116 468.244 476.576C468.244 476.586 468.246 476.599 468.246 476.609C468.305 480.359 468.35 483.311 468.383 486.203C468.383 486.264 468.385 486.328 468.385 486.389C468.468 493.869 468.332 502.951 468.352 510.202C468.356 511.585 468.465 512.698 468.594 512.683C468.722 512.663 468.824 511.53 468.82 510.151C468.799 502.674 468.933 493.417 468.851 486.02Z" fill="white"/>
<path d="M468.236 305.967C468.218 309.484 468.198 313.037 468.197 316.711C468.197 318.095 468.302 319.243 468.431 319.273C468.56 319.291 468.665 318.192 468.666 316.814C468.666 312.962 468.688 309.236 468.707 305.498L468.236 305.967Z" fill="white"/>
<path d="M471.556 302.646L471.569 302.659C471.569 302.651 471.572 302.641 471.572 302.633L471.556 302.646Z" fill="white"/>
<path d="M471.569 302.659C471.569 302.722 471.569 302.786 471.569 302.849C471.633 302.85 471.697 302.849 471.76 302.849L471.569 302.659Z" fill="white"/>
<path d="M474.406 393.212C474.413 391.838 474.313 390.643 474.185 390.535C474.056 390.438 473.944 391.478 473.938 392.86C473.903 400.154 473.875 405.399 473.853 409.499C473.811 417.087 473.79 420.756 473.793 426.249C473.803 440.428 473.808 454.119 473.811 466.436C473.818 486.911 473.823 503.601 473.847 512.431C473.851 513.81 473.959 514.919 474.087 514.913C474.215 514.892 474.317 513.76 474.313 512.38C474.289 503.611 474.284 487.048 474.277 466.65C474.273 454.318 474.271 440.581 474.262 426.313C474.258 420.986 474.278 417.523 474.319 410.104C474.341 406.008 474.37 400.702 474.406 393.212Z" fill="white"/>
<path d="M474.37 299.833C474.351 304.156 474.327 308.759 474.301 313.813C474.294 315.192 474.393 316.396 474.522 316.5C474.65 316.596 474.762 315.564 474.769 314.189C474.796 308.995 474.819 304.267 474.839 299.82L474.844 299.359L474.37 299.833Z" fill="white"/>
<path d="M460.019 415.064C460.289 418.02 460.112 408.151 460.516 414.704C460.543 413.338 460.571 411.963 460.599 410.597C460.449 410.25 460.3 409.895 460.15 409.548C460.106 411.383 460.062 413.219 460.018 415.064C460.018 415.064 460.018 415.064 460.019 415.064ZM458.145 417.569C458.571 415.888 458.685 410.544 459.079 416.316C458.933 416.775 458.786 417.245 458.64 417.704C458.753 419.708 458.867 421.724 458.98 423.728C458.924 424.449 458.868 425.169 458.813 425.89C459.067 426.807 459.323 427.717 459.578 428.635C459.541 427.82 459.503 426.994 459.465 426.179C459.672 422.958 459.729 420.091 459.767 415.717C459.827 416.102 459.887 416.486 459.947 416.87C459.845 414.651 459.742 412.433 459.64 410.222C459.539 412.142 459.427 414.288 459.334 416.067C458.934 413.22 459.157 408.199 459.24 405.585C459.353 402.026 459.164 402.831 459.243 400.19C459.256 399.769 459.404 399.721 459.407 398.887C459.419 394.682 459.34 386.514 458.993 391.291C459.037 398.212 458.759 404.115 458.86 410.906C458.459 409.11 458.322 412.687 458.145 417.569ZM459.423 290.414C459.228 292.511 459.306 296.783 459.442 299.677C459.442 299.681 459.442 299.684 459.442 299.687C459.471 300.324 459.73 301.766 459.72 299.687C459.702 296.297 459.294 294.658 459.571 292.879C459.519 292.083 459.473 291.247 459.423 290.414ZM459.447 283.047C459.347 280.967 459.039 281.91 459.123 284.514C459.122 284.514 459.122 284.514 459.122 284.514C459.157 285.6 459.4 283.467 459.153 287.364C459.345 288.16 459.519 288.943 459.705 289.73C459.708 288.776 459.713 287.906 459.715 286.905C459.4 287.578 459.546 285.125 459.447 283.047ZM459.166 387.777C459.45 387.45 459.448 388.819 459.645 391.151C459.635 388.95 459.626 386.749 459.616 384.557C459.466 385.634 459.316 386.7 459.166 387.777ZM459.21 439.481C459.21 439.484 459.21 439.487 459.21 439.491C459.165 440.212 459.121 440.935 459.076 441.647C459.178 442.078 459.278 442.504 459.38 442.935C459.285 445.482 459.19 448.043 459.094 450.591C459.403 450.281 459.353 445.708 459.569 443.189C459.476 439.443 459.296 437.638 459.034 437.394C459.093 438.087 459.152 438.778 459.21 439.481ZM196.23 173.209C196.144 174.061 196.058 174.902 195.973 175.754C195.934 174.621 195.904 173.497 195.858 172.355C196.231 169.368 195.901 169.087 195.924 165.173C195.995 153.175 196.574 156.358 195.726 145.523C195.766 154.222 195.368 150.879 195.062 156.124C195.295 157.21 195.822 152.013 195.931 155.535C195.684 161.603 195.454 167.439 195.294 174.172C195.254 173.975 195.213 173.78 195.173 173.583C195.198 172.515 195.224 171.456 195.249 170.389C195.141 171.541 195.034 172.667 194.925 173.838C195.17 172.358 195.033 176.129 195.315 175.624C195.44 175.4 195.614 173.733 195.734 172.75C195.799 175.287 195.859 177.89 195.922 180.456C196.022 179.126 196.122 177.798 196.222 176.478C196.225 175.392 196.228 174.315 196.231 173.229C196.23 173.222 196.23 173.215 196.23 173.209ZM392.322 525.395C389.1 525.103 383.245 525.055 380.163 525.379C384.219 525.384 388.266 525.39 392.322 525.395ZM458.818 437.15C458.868 437.515 458.917 437.868 458.967 438.233C459.058 436.622 459.15 435.002 459.242 433.391C459.098 433.082 458.955 432.766 458.812 432.448C458.814 434.012 458.816 435.586 458.818 437.15ZM458.978 334.101C458.969 335.28 458.974 335.384 458.994 336.852C458.994 336.85 458.994 336.848 458.994 336.847C459.002 337.428 459.085 342.296 459.196 341.753C459.198 339.336 459.196 336.759 459.196 334.286C459.123 334.211 459.051 334.195 458.978 334.101ZM459.042 362.546C459.043 362.55 459.043 362.553 459.043 362.556C459.06 363.436 459.094 364.269 459.1 365.177C459.274 361.909 458.962 361.392 459.05 358.424C459.139 355.455 459.311 353.62 458.884 351.102C458.82 352.038 458.729 353.047 458.654 354.011C458.825 358.226 458.664 359.361 458.496 362.741C458.679 362.675 458.86 362.612 459.042 362.546ZM207.311 129.252C208.116 129.464 209.014 129.256 209.108 129.254C209.106 129.254 209.104 129.253 209.103 129.253C216.237 129.449 208.174 129.136 214.907 129.103C213.905 129.051 212.92 128.995 211.928 128.942C210.392 129.043 208.809 129.159 207.311 129.252ZM439.117 129.233C439.182 129.171 439.261 129.11 439.326 129.048C435.28 129.062 434.249 128.82 430.886 129.041C433.63 129.105 436.373 129.169 439.117 129.233C439.117 129.233 439.117 129.233 439.117 129.233ZM458.531 313.707C458.413 318.194 458.362 321.513 458.548 325.821C458.548 325.824 458.549 325.828 458.549 325.831C458.56 326.079 458.689 324.878 458.721 325.202C458.702 326.091 458.672 327.009 458.649 327.907C458.752 328.029 458.855 328.145 458.958 328.267C458.929 325.738 458.899 323.208 458.87 320.67C458.931 321.045 458.99 321.429 459.05 321.803C459.082 319.649 459.112 317.503 459.143 315.35C458.975 316.099 458.806 316.846 458.636 317.586C458.601 316.294 458.567 314.999 458.531 313.707ZM371.756 129.905C372.467 129.838 371.15 129.726 372.255 129.668C373.36 129.611 375.398 129.736 374.92 129.547C373.432 129.521 371.869 129.492 370.353 129.466C375.233 129.124 380.101 129.433 380.176 129.012C375.493 129.121 371.642 129.07 367.109 128.953C367.296 129.288 371.831 129.577 368.976 129.891C369.893 129.896 370.857 129.902 371.746 129.905C371.749 129.905 371.752 129.905 371.756 129.905ZM454.622 502.694C454.647 505.467 454.511 511.819 454.706 515.322C454.754 516.184 455.376 519.055 455.458 519.04C455.734 518.956 455.772 515.45 455.952 519.205C455.954 517.942 455.964 516.716 455.969 515.462C456.155 515.686 456.34 515.91 456.525 516.125C456.497 517.652 456.469 519.181 456.441 520.707C456.502 520.782 456.564 520.857 456.625 520.932C456.626 515.443 456.864 518.683 457.085 515.836C457.197 518.458 457.308 521.099 457.419 523.712C457.406 522.204 457.396 520.425 457.38 519.095C457.694 518.917 457.619 522.09 457.678 522.634C458.007 525.696 457.841 510.104 458.299 508.828C458.35 511.319 458.4 513.933 458.45 516.48C458.506 515.749 458.563 515.009 458.619 514.279C458.303 508.5 458.192 502.021 457.995 495.287C458.008 494.679 458.021 494.069 458.034 493.47C458.176 493.648 458.317 493.817 458.459 493.994C458.476 493.077 458.493 492.147 458.51 491.229C458.041 493.936 458.048 490.188 457.762 485.664C457.598 488.071 457.697 491.04 457.391 490.835C457.627 482.575 457.293 472.901 457.56 464.866C457.626 462.871 458.021 462.878 457.984 458.188C457.941 458.347 457.863 458.374 457.805 458.477C457.995 450.366 458.108 445.445 457.915 437.015C458.057 437.502 458.2 437.981 458.342 438.467C458.271 440.256 458.199 442.048 458.128 443.828C458.363 445.045 458.467 443.246 458.464 448.585C458.462 452.959 458.359 450.355 458.289 451.544C458.194 453.155 458.381 454.569 458.275 456.301C458.194 457.64 458 456.191 458.049 459.685C458.3 458.28 458.559 456.847 458.813 455.432C458.756 454.58 458.699 453.734 458.642 452.882C458.575 453.744 458.509 454.591 458.441 455.452C458.562 452.418 458.676 449.551 458.8 446.413C458.438 447.434 458.574 444.191 458.617 442.43C458.684 439.687 458.434 442.037 458.476 440.239C458.518 438.441 458.797 436.502 458.737 433.252C458.576 434.993 458.431 432.624 458.282 433.082C458.133 433.541 458.1 436.978 457.937 433.676C458.061 427.326 458.628 434.216 458.72 429.927C458.831 424.776 457.906 423.551 457.707 425.086C457.55 426.294 457.582 430.452 457.426 431.669C457.145 424.223 457.7 424.159 457.809 422.885C458.204 418.258 457.149 421.366 457.53 415.887C457.333 415.99 457.155 416.074 456.966 416.177C457.002 415.231 457.05 414.604 457.079 413.461C457.463 416.83 457.447 414.073 457.447 412.658C457.449 410.429 457.636 413.872 457.685 413.282C457.814 411.689 457.755 409.171 457.925 410.716C457.846 410.023 457.767 409.272 457.689 408.56C457.787 405.956 458.611 399.835 458.444 405.66C458.751 405.117 458.603 403.233 458.557 401.762C458.51 400.292 458.705 400.319 458.669 399.027C458.525 393.886 458.192 397.249 457.93 398.064C458.11 391.273 458.229 397.921 458.35 388.136C458.563 387.19 458.79 391.711 458.913 387.947C458.543 387.253 458.277 384.481 458.154 379.077C458.239 378.553 458.325 378.029 458.41 377.505C458.069 374.555 457.714 376.063 458.137 370.602C457.358 373.534 457.856 371.518 457.539 366.629C457.475 365.636 457.314 367.931 457.232 366.544C457.195 365.916 457.317 364.39 457.222 362.856C457.176 362.107 456.875 358.603 457.018 356.178C457.396 357.957 457.717 353.348 458.029 357.301C457.952 349.995 458.133 344.882 457.619 353.068C457.504 351.213 457.391 349.357 457.277 347.503C457.367 346.21 457.456 344.907 457.546 343.605C457.235 343.408 457.148 343.606 457.203 338.514C457.13 340.723 457.055 342.923 456.981 345.142C456.919 345.217 456.854 345.526 456.793 345.451C456.912 342.734 456.963 335.082 457.046 333.228C457.129 331.373 457.151 334.955 457.231 334.421C457.892 329.973 457.405 330.326 457.518 327.134C457.585 325.261 457.658 329.733 457.686 328.731C457.791 325.015 457.44 323.291 457.436 319.996C457.635 321.167 457.837 322.328 458.038 323.47C458.028 320.014 458.026 316.161 458.09 312.949C458.115 311.688 458.263 312.641 458.273 312.435C458.324 311.413 458.405 307.255 458.405 306.815C458.406 303.501 458.201 303.406 458.19 300.186C458.173 301.45 458.157 302.639 458.14 303.875C457.807 304.437 457.475 305.01 457.141 305.572C457.117 302.416 457.093 299.259 457.069 296.094C457.18 298.407 457.291 300.728 457.402 303.041C457.671 299.426 457.94 295.811 458.21 292.195C458.045 290.313 457.879 288.438 457.714 286.555C457.758 281.443 458.428 282.472 457.841 280.047C457.891 278.54 457.94 277.032 457.989 275.525C457.905 275.74 457.821 275.953 457.738 276.169C457.789 274.352 457.84 272.535 457.893 270.718C458.189 272.629 458.502 274.502 458.79 276.393C458.854 272.818 458.602 272.749 458.54 272.216C458.373 270.801 458.598 267.994 458.444 266.87C458.391 266.49 458.225 269.994 458.034 268.787C457.997 268.551 457.294 263.859 457.456 260.866C457.584 260.922 457.74 261.153 457.878 261.275C457.956 257.249 457.291 255.196 457.105 255.73C457.235 253.585 457.246 250.45 457.45 250.01C457.455 248.914 457.46 247.826 457.464 246.731C456.968 247.872 457.059 243.302 457.486 243.002C457.496 244.885 457.507 246.77 457.518 248.652C458.041 247.229 458.356 252.949 457.872 241.046C457.6 238.77 457.909 245.091 457.705 243.237C457.587 240.015 457.686 236.991 457.497 233.928C457.26 230.117 457.033 234.806 457.334 225.927C458.088 245.512 457.843 223.241 458.078 214.043C457.332 211.514 457.096 203.747 457.318 193.05C457.525 194.165 457.419 197.53 457.487 199.469C457.555 201.407 457.678 199.31 457.775 201.725C457.872 204.141 458.004 209.272 458.15 211.717C458.267 209.646 458.545 199.422 458.212 206.182C458.006 201.136 457.795 198.766 457.756 192.511C458.08 190.638 458.281 190.777 458.291 184.68C457.841 188.286 457.529 181.358 457.064 182.883C457.172 187.207 457.624 184.79 457.84 187.29C457.861 187.547 457.748 191.575 457.756 192.511C457.351 188.446 457.2 187.041 456.717 189.541C456.76 186.666 456.699 184.877 456.929 184.615C456.83 184.016 456.73 183.413 456.63 182.823C456.632 181.888 456.641 181.045 456.639 180.053C456.987 181.419 456.773 178.771 456.931 176.889C457.088 175.006 457.363 177.532 457.366 172.362C457.448 174.085 457.517 175.661 457.594 177.328C457.684 173.994 457.774 170.65 457.863 167.316C458.076 169.657 458.391 174.732 458.67 174.593C458.565 173.057 458.75 167.797 458.758 167.221C458.786 164.992 458.61 166.207 458.606 166.038C458.52 162.536 458.58 159.651 458.313 158.322C458.434 155.69 458.365 153.705 458.372 150.915C458.376 149.379 458.572 149.677 458.535 148.778C458.286 142.803 458.033 148.496 458.515 136.969C458.652 138.365 458.791 139.741 458.929 141.137C458.981 139.835 459.033 138.541 459.084 137.239C459.059 136.368 459.034 135.504 459.009 134.633C458.713 134.652 458.417 134.674 458.12 134.693C458.104 133.738 458.089 132.779 458.072 131.823C458.043 133.462 458.014 135.105 457.985 136.745C457.933 136.894 457.881 137.034 457.828 137.184C457.754 134.951 457.68 132.726 457.605 130.495C457.396 130.495 457.193 130.502 456.99 130.509C456.944 130.406 456.897 130.302 456.851 130.199C451.362 130.343 451.231 130.43 446.015 130.146C441.997 130.149 438.724 129.718 436.402 129.537C435.568 129.595 434.734 129.653 433.891 129.711C433.357 129.625 432.818 129.54 432.284 129.454C431.226 129.573 430.153 129.693 429.094 129.811C428.505 129.541 428.199 129.456 432.329 129.361C430.914 129.025 423.644 129.173 420.684 129.286C418.439 129.372 420.93 129.653 420.649 129.687C419.712 129.803 416.011 129.703 415.234 129.722C411.947 129.802 409.643 129.788 406.674 129.85C406.096 129.863 404.48 130.04 404.343 130.046C403.275 130.076 400.64 130.163 400.34 130.165C384.88 130.298 401.4 129.526 387.024 129.608C387.454 129.506 387.85 129.405 388.272 129.303C387.186 129.297 386.088 129.291 385.002 129.285C383.626 129.37 385.291 129.524 382.557 129.4C382.735 129.525 382.913 129.651 383.101 129.775C381.911 129.708 380.765 129.641 379.547 129.573C377.636 130.008 370.661 130.107 371.157 130.618C371.325 130.792 376.27 130.97 373.657 131.156C371.534 131.193 372.971 130.985 372.105 130.974C365.848 130.898 366.212 131.189 363.655 131.112C363.252 130.987 362.829 130.86 362.417 130.734C361.453 130.77 360.486 130.807 359.512 130.844C359.287 130.76 359.053 130.676 358.828 130.592C359.737 130.586 360.76 130.581 361.594 130.575C360.431 130.25 349.757 130.105 353.827 130.381C355.485 130.494 358.521 130.446 356.602 130.83C353.746 130.774 350.505 130.718 347.498 130.663C347.405 130.745 347.318 130.828 347.224 130.911C343.172 130.857 346.857 130.527 346.85 130.35C345.923 130.345 344.986 130.341 344.059 130.336C343.667 130.416 343.293 130.499 342.882 130.577C342.844 130.45 342.325 130.154 339.562 130.264C337.786 130.335 340.583 130.656 337.197 130.612C337.45 130.413 338.673 130.171 334.901 130.107C334.526 130.315 334.008 130.504 333.718 130.722C329.026 130.523 326.891 130.843 321.384 130.612C317.891 130.465 313.105 129.945 310.848 130.747C308.293 130.768 309.104 130.568 308.347 130.523C304.779 130.311 302.125 130.691 301.46 130.713C297.219 130.857 295.317 130.725 291.862 130.904C292.049 130.756 292.151 130.615 292.301 130.471C295.467 130.693 297.07 130.683 301.51 130.635C300.021 130.605 298.531 130.575 297.042 130.545C297.286 130.424 297.527 130.304 297.761 130.184C311.492 130.658 308.289 129.909 296.778 129.745C295.785 129.968 294.756 130.19 293.773 130.414C287.123 130.076 283.994 130.369 276.474 130.439C275.58 130.447 272.323 130.319 270.923 130.313C270.947 130.312 270.97 130.311 270.993 130.31C270.123 130.1 271.302 130.003 271.443 129.815C270.684 129.791 269.925 129.767 269.167 129.744C267.473 129.887 268.068 130.005 264.734 129.971C265.184 129.828 265.628 129.685 266.077 129.543C262.424 129.538 260.034 129.693 256.634 129.626C257.205 129.68 257.769 129.734 258.341 129.788C250.941 129.926 256.83 130.765 251.238 130.347C250.882 130.421 250.536 130.495 250.18 130.568C252.484 130.586 254.789 130.603 257.083 130.621C257.13 130.725 257.18 130.828 257.218 130.932C254.754 130.901 252.279 130.869 249.816 130.838C251.614 130.907 253.423 130.977 255.221 131.046C252.365 131.096 249.508 131.146 246.651 131.196C249.685 130.814 245.752 130.768 246.492 130.39C241.434 130.704 237.461 131.119 229.621 130.853C228.067 130.801 228.911 130.537 224.5 130.858C225.568 130.438 220.042 130.241 220.752 129.842C222.288 129.861 223.88 129.873 225.369 129.897C223.674 130.035 223.393 130.416 225.968 130.529C229.255 130.673 234.05 130.409 233.854 130.832C235.165 130.812 236.384 130.801 237.657 130.784C237.133 130.679 236.62 130.573 236.105 130.469C239.728 130.633 242.005 130.58 243.746 130.315C239.429 130.254 235.121 130.194 230.804 130.134C231.44 130.116 232.085 130.098 232.721 130.08C229.452 129.81 232.824 129.554 226.726 129.497C226.764 129.62 226.794 129.744 226.831 129.868C224.611 129.538 218.534 129.539 220.472 129.159C218.637 129.276 218.263 129.35 217.223 129.145C212.381 129.434 209.271 129.799 210.994 130.235C209.196 130.165 207.397 130.095 205.609 130.024C206.648 129.905 207.689 129.787 208.728 129.667C205.6 129.675 202.449 129.682 199.33 129.689C199.03 130.042 205.351 129.796 203.527 130.111C203.162 130.174 201.479 130.039 201.037 130.075C196.373 130.46 203.695 130.182 202.319 130.477C197.435 130.541 198.731 130.805 196.608 130.811L196.925 130.495C196.927 131.392 196.884 132.9 196.761 135.745C196.862 135.998 196.966 136.269 197.068 136.503C197.074 139.826 196.844 139.557 196.8 142.413C196.773 144.202 197.177 146.447 196.902 148.422C196.851 148.775 196.358 145.451 196.379 152.435C196.396 157.856 196.745 155.6 196.869 158.53C196.992 161.461 196.509 168.168 197.057 170.144C196.984 168.608 196.945 166.653 196.886 164.948C196.992 164.255 197.098 163.58 197.204 162.897C197.066 166.793 197.229 170.821 196.974 173.443C197.363 178.642 197.002 184.455 196.563 182.882C196.626 181.171 196.818 183.032 196.695 180.656C196.593 180.412 196.491 180.155 196.389 179.912C196.401 183.958 196.398 186.768 196.71 184.923C196.718 185.551 196.725 186.172 196.733 186.8C196.507 186.912 196.28 187.012 196.054 187.124C196.028 187.873 196.003 188.626 195.978 189.375C196.027 190.208 196.078 191.043 196.128 191.886C196.486 190.752 196.497 188.822 196.697 195.21C196.574 195.229 196.451 195.256 196.327 195.275C196.484 200.623 196.784 200.764 196.772 207.478C197.201 202.327 196.441 199.509 197.302 199.527C197.245 198.235 197.188 196.932 197.131 195.639C197.256 195.443 197.381 195.247 197.506 195.06C197.44 202 196.619 213.528 197.163 218.174C197.097 218.736 197.039 219.3 196.968 219.871C197.296 224.423 196.559 226.389 196.984 231.007C197.028 231.483 197.721 230.486 197.696 236.497C197.606 236.347 197.455 236.269 197.341 236.148C197.396 237.449 197.454 238.744 197.511 240.036C197.427 240.27 197.344 240.516 197.261 240.75C197.228 238.53 197.195 236.316 197.163 234.096C197.135 235.941 197.106 237.797 197.077 239.642C196.941 237.235 196.94 236.15 196.722 237.6C196.709 239.689 196.695 241.78 196.682 243.869C196.626 244.084 196.57 244.298 196.514 244.513C196.348 243.502 196.185 242.48 196.016 241.468C196.152 246.91 196.16 251.641 196.487 255.818C196.542 256.53 196.759 254.012 196.563 258.863C196.678 258.938 196.771 259.068 196.877 259.152C196.556 265.09 196.652 267.041 196.884 273.232C196.667 269.224 196.808 272.8 196.692 273.821C196.612 274.521 196.624 271.791 196.54 272.099C196.457 272.408 196.121 275.956 196.081 272.923C196.769 265.486 195.946 263.46 196.277 253.906C196.188 255.377 196.099 256.858 196.01 258.329C195.95 257.636 195.896 257.016 195.832 256.267C195.966 261.596 195.879 259.004 195.773 261.194C195.666 263.385 195.576 267.369 195.547 270.038C195.538 270.879 195.692 269.992 195.707 271.89C195.717 273.182 195.488 276.714 195.758 277.53C195.933 278.064 196.417 272.389 196.416 280.235C196.588 281.712 196.535 277.95 196.556 277.869C196.761 277.185 196.915 282.009 196.758 284.238C196.745 284.418 196.585 282.658 196.522 284.572C196.373 289.115 196.556 291.738 196.804 294.679C196.513 294.998 196.166 298.821 196.273 303.579C196.19 303.822 196.106 304.054 196.022 304.298C196.066 303.559 196.11 302.82 196.154 302.081C196.102 301.276 196.064 300.423 196.002 299.636C195.931 304.421 195.53 305.097 195.384 307.392C194.883 315.244 195.942 310.485 196.125 309.069C196.051 308.048 195.968 307.061 195.891 306.049C195.992 306.162 196.094 306.276 196.196 306.379C196.193 318.133 196.853 308.169 197.041 314.135C196.543 315.671 196.495 320.053 196.811 325.635C196.808 326.253 196.808 326.873 196.805 327.492C196.732 327.594 196.621 327.593 196.573 327.761C196.489 334.486 197.256 335.684 197.328 336.321C197.65 339.149 197.205 341.352 197.201 342.186C197.185 345.698 197.383 346.719 197.298 350.062C197.206 353.658 197.054 351.199 196.919 352.293C196.811 353.17 196.791 356.007 196.679 357.179C196.771 356.714 196.861 356.196 196.953 355.732C197.077 359.459 197.199 362.505 197.229 366.737C196.56 371.514 197.689 375.578 196.773 373.93C196.71 369.921 196.606 367.679 196.373 365.534C196.343 368.166 196.314 370.799 196.284 373.431C196.384 374.198 196.482 374.743 196.585 375.652C196.371 377.618 196.463 382.177 196.4 383.967C196.107 392.35 195.742 389.756 196.355 397.408C196.414 391.893 196.712 391.902 196.671 386.433C196.883 387.613 196.839 390.392 197.094 388.594C197.031 393.885 196.804 392.175 196.602 394.234C196.428 396.01 196.418 399.587 196.192 399.385C196.316 399.75 196.437 400.033 196.561 400.398C196.559 403.825 196.559 407.253 196.558 410.68C196.688 409.219 196.818 407.759 196.947 406.298C196.996 407.402 197.045 408.508 197.094 409.612C196.69 418.041 197.43 432.577 196.416 430.255C196.384 434.32 196.511 434.828 196.703 437.038C196.626 437.282 196.562 437.519 196.476 437.762C196.557 440.384 196.268 442.397 196.343 444.71C196.417 447.023 196.69 447.597 196.232 447.934C196.363 449.433 196.472 450.922 196.595 452.411C196.491 453.31 196.387 454.207 196.284 455.097C196.339 456.501 196.393 457.909 196.448 459.314C196.229 460.065 196.323 465.589 196.176 468.024C196.412 470.335 197.155 470.272 197.022 475.71C196.838 475.57 196.654 475.431 196.47 475.291C196.508 476.536 196.546 477.784 196.585 479.039C196.645 479.114 196.705 479.179 196.765 479.254C196.747 478.617 196.728 477.989 196.709 477.352C196.811 477.905 196.912 478.446 197.014 478.989C196.863 480.89 196.712 482.794 196.561 484.704C196.447 482.129 196.333 479.553 196.219 476.978C196.083 480.209 196.218 482.458 196.067 485.268C196.322 487.712 196.469 486.81 196.745 485.817C196.721 486.725 196.699 487.644 196.675 488.553C196.951 487.953 197.116 489.49 197.094 484.18C197.172 484.545 197.247 484.918 197.329 485.273C197.317 486.144 197.384 486.709 197.353 487.664C197.27 490.268 196.785 492.264 196.615 492.086C196.525 491.99 196.696 489.423 196.57 489.526C196.263 489.78 196.401 495.669 196.092 487.175C195.896 489.994 196.044 490.624 196.1 493.733C195.998 493.49 195.896 493.254 195.794 493.02C195.841 494.461 195.888 495.905 195.935 497.347C196.461 495.343 196.659 505.974 197.119 496.404C197.142 499.232 197.166 502.05 197.191 504.869C197.245 504.288 197.298 503.707 197.352 503.127C197.324 501.853 197.296 500.587 197.268 499.314C197.367 500.812 197.465 502.312 197.563 503.811C197.441 507.351 197.253 508.739 197.021 510.359C196.851 506.239 197.083 507.585 197.129 504.375C196.982 504.487 196.846 504.339 196.692 504.619C196.996 506.278 196.775 511.69 196.76 512.944C196.715 516.764 197.014 513.769 197.02 516.324C197.026 518.771 196.863 521.639 197.11 523.712L196.608 523.211C196.701 523.2 196.792 523.188 196.881 523.175C196.851 523.312 196.733 523.452 196.608 523.582L196.739 523.712C196.71 523.685 196.682 523.657 196.655 523.631C196.655 523.658 196.654 523.685 196.654 523.712L196.608 523.666C200.497 523.717 199.716 523.523 200.126 523.498C206.701 523.079 210.268 523.433 217.79 523.476C216.834 523.527 215.869 523.574 214.905 523.622C220.579 523.975 216.756 523.867 211.83 523.984C216.448 523.948 219.092 524.249 222.352 524.339C225.611 524.428 231.2 524.273 233.242 524.153C228.569 523.959 223.528 524.087 218.339 524.034C218.929 523.864 219.502 523.721 220.11 523.535C223.267 523.89 225.095 523.652 226.135 523.605C229.188 523.467 229.092 523.772 230.936 523.444C230.861 523.557 230.807 523.652 230.732 523.757C237.035 523.71 243.834 523.51 247.936 523.927C248.311 523.656 248.594 523.395 249.024 523.118C251.694 523.322 253.979 523.113 256.227 523.161C258.465 523.209 257.613 523.428 260.245 523.512C260.732 523.528 261.746 523.391 262.945 523.492C264.155 523.593 268.62 524.35 269.154 523.689C271.411 523.686 273.547 523.662 275.757 523.651C273.603 523.613 271.448 523.577 269.304 523.54C271.139 523.38 272.963 523.22 274.799 523.06C275.033 523.203 275.268 523.348 275.493 523.489C280.438 523.663 284.027 523.43 289.019 523.485C289.852 523.494 287.886 523.776 291.584 523.704C295.284 523.632 298.029 523.105 304.332 523.309C304.65 523.32 306.517 523.723 308.774 523.444C309.288 523.38 307.126 523.287 308.305 523.204C309.485 523.12 314.751 523.052 315.163 522.854C315.107 522.924 314.778 522.997 314.619 523.068C315.518 523.102 316.426 523.135 317.334 523.168C317.418 523.044 317.509 522.921 317.594 522.798C322.764 523.085 325.435 523.554 333.096 523.399C330.942 523.579 328.787 523.759 326.643 523.938C326.052 523.812 325.461 523.685 324.881 523.559C321.35 523.609 317.81 523.659 314.279 523.71C313.699 523.566 313.128 523.423 312.547 523.28C311.611 523.298 310.684 523.316 309.747 523.335C309.982 523.439 310.218 523.542 310.461 523.646C308.607 523.62 306.751 523.594 304.906 523.569C308.662 524.181 315.394 523.517 314.908 524.029C315.741 523.949 316.576 523.869 317.409 523.789C317.774 524.037 319.468 523.966 322.455 523.927C321.771 524.049 321.016 524.17 320.389 524.293C323.292 524.121 328.443 524.137 331.449 524.071C332.77 524.042 331.451 523.862 331.843 523.841C333.857 523.73 337.706 524.044 338.512 524.019C343.326 523.872 346.454 523.276 351.708 523.669C346.285 523.765 349.236 523.725 347.306 523.943C346.702 524.011 339.696 524.153 348.469 524.09C349.498 524.082 365.416 523.671 360.183 523.356C362.759 523.456 364.776 523.572 367.136 523.679C372.906 522.848 370.909 523.629 369.232 524.059C370.178 524.06 371.078 524.065 372.052 524.065C369.983 523.613 380.528 523.585 384.106 523.813C385.305 523.889 381.953 524.033 384.725 524.102C386.045 524.07 387.543 524.029 388.938 523.994C386.915 524.279 390.885 524.389 390.829 524.68C393.367 524.421 395.309 523.872 393.914 523.575C396.012 523.695 398.12 523.816 400.218 523.937C399.244 524.006 398.257 524.074 397.283 524.143C404.139 523.96 412.955 524.376 414.388 523.765C415.296 523.77 416.214 523.773 417.123 523.778C417.404 523.881 417.676 523.984 417.957 524.087C422.067 523.998 426.169 523.908 430.28 523.818C426.619 523.754 425.748 523.608 421.91 523.727C423.389 523.608 424.896 523.489 426.347 523.371C432.126 523.69 432.914 523.899 441.615 523.804C442.008 523.8 448.582 523.532 448.807 523.506C449.837 523.387 448.274 523.214 448.732 523.154C450.006 522.985 457.746 522.561 457.597 522.497C455.705 521.712 429.662 521.701 422.618 521.661C349.562 521.243 278.114 521.803 205.516 521.707C204.77 521.705 205.096 521.59 204.778 521.585C202.802 521.555 200.861 521.736 200.131 521.744C198.57 521.759 199.429 521.592 198.289 521.592C197.727 521.592 197.167 521.592 196.608 521.593L198.728 523.712C198.718 512.548 198.63 501.929 198.657 490.699C198.659 489.931 198.526 490.715 198.549 489.366C198.562 488.67 198.767 486.49 198.77 484.919C198.781 479.43 198.715 474.82 198.718 469.032C198.72 465.866 198.702 461.117 198.706 457.577C198.707 456.014 198.801 454.385 198.804 452.84C198.808 450.649 198.618 451.096 198.606 450.759C198.555 449.279 198.763 449.074 198.758 447.67C198.748 445.056 198.609 444.916 198.621 441.6C198.63 439.231 198.74 433.807 198.772 430.819C198.61 423.832 198.674 415.027 198.728 408.509C198.76 404.65 198.565 404.292 198.565 402.719C198.569 397.175 198.818 392.967 198.826 387.76C198.837 380.85 198.672 374.725 198.66 368.03C198.658 366.944 198.837 367.194 198.841 366.128C198.858 362.185 198.891 357.143 198.865 353.63C198.837 349.716 198.578 348.272 198.631 344.442C198.646 343.319 198.874 342.99 198.903 341.108C198.949 338.101 198.748 334.805 198.726 332.707C198.696 329.832 198.928 332.333 198.897 328.455C198.895 328.296 198.73 327.715 198.738 326.883C198.76 324.457 198.89 324.698 198.878 321.148C198.876 320.807 198.719 316.1 198.718 315.633C198.715 312.879 198.66 307.335 198.694 305.705C198.813 299.879 199.062 304.466 198.522 299.511C198.654 297.329 198.788 295.166 198.916 292.853C198.797 294.396 198.624 288.132 198.635 287.692C198.725 284.05 198.935 286.22 198.9 281.603C198.415 287.7 198.838 275.646 198.85 272.958C198.91 260.014 198.789 248.249 198.792 235.239C198.794 230.884 198.896 225.048 198.894 220.44C198.894 219.366 198.779 220.178 198.776 219.233C198.774 218.29 198.903 219.336 198.897 218.259C198.852 211.563 198.609 206.316 198.913 200.181C198.869 199.883 198.834 199.892 198.786 199.398C199.058 194.377 198.692 184.709 198.641 181.075C198.563 175.391 198.747 173.939 198.71 169.81C198.661 164.349 198.301 156.151 198.895 159.812C198.913 156.067 198.919 152.46 198.863 148.677C198.857 148.256 198.706 148.546 198.703 148.378C198.681 147.31 198.816 146.962 198.823 146.241C198.839 144.286 198.677 147.477 198.723 144.689C198.747 143.219 198.865 142.384 198.867 138.3C198.869 135.72 198.869 133.117 198.87 130.495L196.608 132.756C219.003 132.758 242.785 132.723 265.373 132.705C267.106 132.704 265.965 132.85 268.138 132.84C275.688 132.808 289.2 132.562 295.71 132.596C302.219 132.629 300.75 132.843 304.824 132.932C305.61 132.95 304.965 132.828 305.677 132.826C310.463 132.815 316.169 132.625 320.047 132.597C322.611 132.577 322.406 132.769 324.185 132.783C326.835 132.802 329.563 132.609 330.978 132.603C337.626 132.576 342.198 132.731 348.407 132.652C348.164 132.694 348.003 132.733 347.798 132.775C355.15 132.768 362.492 132.761 369.844 132.754C369.497 132.793 369.162 132.831 368.816 132.87C377.442 132.849 376.457 132.432 375.699 133.313C376.326 133.344 376.991 133.38 377.59 133.409C377.347 132.955 382.565 132.623 389.205 132.507C389.692 132.499 392.96 132.941 392.604 132.418C393.456 132.546 393.964 132.634 394.685 132.747C396.09 132.588 397.513 132.432 398.918 132.274C399.676 132.298 400.445 132.321 401.204 132.344C401.316 132.447 401.23 132.553 401.473 132.654C404.995 132.669 412.217 132.543 414.999 132.556C421.912 132.588 428.949 132.865 434.325 132.566C436.944 132.597 434.343 132.798 438.238 132.772C438.678 132.671 439.092 132.573 439.551 132.468C442.734 132.923 443.399 132.646 447.762 132.551C450.712 132.487 452.644 132.598 455.453 132.576C456.165 132.57 456.064 132.437 456.551 132.441C456.825 132.444 457.185 132.451 457.599 132.461L455.633 130.495C455.582 132.544 455.454 135.926 455.45 136.884C455.402 147.317 455.422 156.281 455.471 166.218C455.476 167.285 455.345 165.901 455.35 167.006C455.359 168.784 455.561 167.738 455.571 168.768C455.598 171.641 455.384 171.663 455.373 175.671C455.337 188.868 455.497 204.04 455.511 217.827C455.511 218.257 455.386 218.232 455.385 218.7C455.379 221.753 455.548 224.843 455.546 227.614C455.544 232.213 455.368 235.669 455.368 240.212C455.369 249.091 455.459 257.024 455.464 266.156C455.468 273.631 455.452 280.122 455.452 288.317C455.455 324.115 455.058 360.644 455.269 396.686C455.274 397.603 455.385 397.23 455.38 397.51C455.332 400.17 455.183 400.407 455.495 401.353C455.434 404.741 455.199 405.811 455.216 409.903C455.225 412.084 455.589 410.455 455.401 414.145C455.231 417.477 455.032 413.8 455.236 423.708C455.241 423.971 455.463 425.262 455.405 427.322C455.348 429.392 455.19 426.996 455.142 431.979C455.03 443.677 455.222 458.484 455.163 472.083C455.159 472.935 455.04 481.144 454.986 482.764C454.88 485.9 454.715 485.245 454.674 489.318C454.643 492.465 454.83 495.061 454.793 498.761C454.788 499.192 454.596 499.914 454.622 502.694ZM195.858 186.79C195.669 187.558 194.976 188.944 195.187 193.588C195.207 194.028 195.684 191.652 195.76 194.217C195.81 191.707 195.826 189.262 195.858 186.79C195.858 186.79 195.858 186.79 195.858 186.79ZM459.041 522.824C459.007 519.349 458.972 515.862 458.937 512.387C458.853 514.785 458.77 517.186 458.685 519.574C458.804 520.661 458.923 521.737 459.041 522.824ZM417.36 129.382C417.364 129.382 417.367 129.382 417.37 129.382C413.717 129.292 410.062 129.203 406.41 129.113C406.794 129.179 407.178 129.245 407.562 129.311C410.447 129.415 413.332 129.518 416.207 129.622C416.591 129.542 416.976 129.462 417.36 129.382ZM446.219 130.079C448.551 130 447.981 129.868 449.264 129.74C449.264 129.74 449.264 129.74 449.264 129.741C449.603 129.707 451.18 129.678 451.789 129.673C451.565 129.755 451.274 129.837 451.031 129.919C453.007 129.992 455.669 129.944 457.599 129.84L458.25 129.837L458.253 130.495C458.397 133.174 458.649 134.439 458.839 130.495L458.833 129.25L457.599 129.255C456.561 129.206 455.164 129.16 453.337 129.122C453.543 129.226 453.74 129.33 453.946 129.434C447.099 129.405 439.466 129.632 446.219 130.079ZM195.557 241.843C195.216 247.687 195.144 249.561 195.378 256.652C195.475 255.65 195.572 254.648 195.668 253.647C195.57 252.476 195.472 251.314 195.373 250.143C195.373 250.14 195.373 250.136 195.373 250.133C195.476 249.899 195.58 249.664 195.684 249.439C195.642 246.911 195.6 244.371 195.557 241.843ZM458.262 342.841C458.944 344.47 458.548 344 458.701 339.347C458.755 337.736 458.874 339.306 458.894 338.304C459.003 332.892 458.546 332.459 458.308 333.667C458.292 336.73 458.277 339.825 458.262 342.831C458.262 342.834 458.262 342.838 458.262 342.841ZM458.12 483.258C458.12 483.262 458.12 483.265 458.12 483.268C458.287 483.409 458.331 481.227 458.489 483.688C458.488 481.816 458.487 479.944 458.487 478.063C458.471 478.614 458.456 479.178 458.441 479.73C458.384 479.243 458.326 478.754 458.269 478.267C458.46 477.602 458.349 476.984 458.285 475.018C458.489 475.561 458.693 476.102 458.898 476.645C458.837 474.36 458.776 472.067 458.715 469.782C458.664 469.754 458.612 469.725 458.561 469.697C458.626 468.836 458.693 467.983 458.759 467.122C458.697 466.888 458.636 466.662 458.575 466.428C458.621 465.389 458.668 464.348 458.715 463.309C458.566 462.992 458.502 465.283 458.54 461.222C458.387 462.468 458.235 463.711 458.082 464.966C458.094 471.063 458.107 477.161 458.12 483.258ZM458.472 300.511C458.443 307.226 458.551 305.335 458.889 303.78C458.75 302.694 458.611 301.597 458.472 300.511ZM281.635 129.923C279.686 129.692 277.73 129.464 275.735 129.242C271.764 129.113 267.791 129.533 270.779 129.698C274.375 129.895 278.132 129.674 281.635 129.923ZM195.933 135.92C195.827 131.061 195.553 135.632 195.393 136.728C195.65 138.072 195.627 139.947 195.657 142.957C195.674 140.13 195.952 136.723 195.934 135.92C195.934 135.92 195.934 135.92 195.933 135.92ZM359.827 129.664C361.774 129.671 363.711 129.735 365.452 129.657C364.927 129.436 361.444 129.637 363.934 129.31C362.689 129.305 361.442 129.299 360.206 129.293C360.992 129.428 359.935 129.53 359.832 129.663C359.83 129.663 359.828 129.663 359.827 129.664ZM458.732 235.445C458.471 231.624 458.582 230.9 458.763 227.05C458.551 226.508 458.195 231.098 458.117 233.973C458.322 234.46 458.527 234.949 458.732 235.445ZM341.342 524.736C340.424 524.465 333.655 524.43 330.291 524.51C330.692 524.55 331.094 524.591 331.494 524.632C334.772 524.666 338.063 524.701 341.342 524.736ZM195.675 144.39C195.667 143.886 195.661 143.408 195.657 142.957C195.654 143.458 195.659 143.942 195.675 144.39ZM196.85 347.851C197.105 346.25 197.191 351.009 197.091 345.23C197.091 345.23 197.091 345.23 197.092 345.23C197.026 341.409 197.008 340.565 196.988 337.025C196.661 338.299 196.543 345.482 196.476 335.582C196.475 335.452 196.671 335.712 196.644 334.13C196.636 333.642 196.475 332.079 196.429 329.703C196.414 328.935 196.365 323.163 196.362 331.03C196.133 330.796 195.902 331.219 195.68 331.2C195.616 334.271 196.063 336.631 196.052 339.88C196.035 344.703 195.582 347.158 196.176 348.085C196.322 344.029 196.325 337.065 195.968 336.156C195.964 332.232 196.256 331.106 196.401 334.27C196.217 347.823 196.835 337.99 196.602 349.857C196.519 349.998 196.43 350.486 196.353 350.411C196.643 354.033 196.759 348.422 196.85 347.851ZM196.219 319.511C196.044 321.852 195.868 324.186 195.693 326.518C195.978 326.518 196.233 325.232 196.393 321.542C196.335 320.868 196.276 320.184 196.219 319.511ZM196.144 516.483C195.989 516.82 195.848 517.719 195.701 518.375C195.749 518.639 195.797 521.126 195.844 523.712L195.847 524.48L196.608 524.477C200.992 524.396 205.66 524.317 200.265 524.237C199.779 524.229 198.323 524.267 196.608 524.296L196.027 524.299L196.025 523.712C195.979 521.036 195.952 517.728 196.144 516.483ZM458.499 261.979C458.395 259.993 458.291 258.015 458.187 256.039C458.122 259.081 458.054 262.126 457.987 265.168C458.158 264.102 458.328 263.045 458.499 261.979ZM249.312 130.194C250.15 130.188 247.365 129.976 250.669 130.009C248.206 129.873 245.899 129.758 243.492 129.63C242.771 129.731 242.042 129.831 241.321 129.931C240.759 129.867 240.186 129.803 239.624 129.738C239.961 129.885 240.261 130.028 240.617 130.177C244.673 129.863 245.603 130.219 249.312 130.194ZM369.904 130.767C370.633 130.449 364.761 130.259 370.538 130.208C369.442 129.999 367.68 129.889 364.299 129.871C363.756 129.951 363.214 130.03 362.672 130.11C362.597 129.896 361.727 129.816 359.827 129.664C359.825 129.664 359.823 129.664 359.822 129.664C354.681 129.649 354.989 129.72 353.752 130.072C359.194 129.874 359.357 130.195 363.066 130.387C365.613 130.518 368.939 130.459 369.904 130.767ZM196.148 498.52C195.879 502.368 195.628 498.915 195.914 505.742C195.982 505.302 196.05 504.86 196.118 504.42C196.129 502.453 196.138 500.486 196.148 498.52ZM388.895 129.675C388.455 130.168 384.832 130.552 384.214 129.75C387.745 129.587 386.02 130.041 388.895 129.675ZM196.705 134.262C196.699 132.502 196.658 131.285 196.594 130.495L196.594 130.481L196.608 130.481C198.444 130.333 197.965 130.068 196.608 129.863L195.974 129.866L195.977 130.495C195.93 130.806 195.886 131.162 195.848 131.547C195.949 131.978 196.05 132.408 196.151 132.83C196.105 134.02 196.059 135.209 196.014 136.399C196.244 135.687 196.475 134.974 196.705 134.262ZM457.877 181.496C458.229 176.307 458.073 187.097 458.292 183.472C458.468 180.578 458.113 176.764 457.891 178.206C457.885 179.209 457.881 180.324 457.877 181.486C457.877 181.489 457.877 181.492 457.877 181.496ZM457.978 151.469C458.354 152.321 458.244 151.092 458.176 155.192C458.157 156.363 458.298 165.666 457.987 161.76C457.987 158.436 457.981 154.924 457.978 151.469ZM196.155 212.749C196.319 212.811 196.679 205.648 196.589 204.728C196.589 204.728 196.589 204.728 196.589 204.728C196.344 202.246 196.309 209.803 195.973 206.525C196.269 213.783 195.552 215.955 196.496 215.449C196.538 211.173 196.343 213.198 196.155 212.749ZM430.225 523.965C430.228 523.965 430.232 523.965 430.235 523.965C429.754 523.973 425.79 524.213 426.272 524.296C431.039 524.225 430.189 524.067 434.627 524.327C434.87 524.243 435.079 524.162 435.341 524.077C433.58 524.028 432.604 523.927 430.225 523.965ZM207.608 523.846C205.856 523.803 202.66 523.981 200.665 523.97C207.015 524.652 214.604 524.016 207.608 523.846ZM458.144 417.584C458.144 417.579 458.144 417.574 458.145 417.569C458.144 417.571 458.144 417.573 458.143 417.574C458.144 417.578 458.144 417.581 458.144 417.584ZM196.065 398.985C196.11 399.211 196.148 399.339 196.182 399.385C196.185 399.385 196.188 399.385 196.191 399.385C196.15 399.263 196.108 399.133 196.065 398.985ZM196.106 227.638C196.334 230.621 196.697 220.68 196.611 217.466C196.506 217.69 196.412 217.725 196.292 218.249C196.562 220.844 196.067 227.141 196.106 227.638ZM326.116 130.076C318.258 130.082 328.485 130.984 328.906 130.265C328.89 130.251 326.319 130.077 326.116 130.076ZM196.2 165.667C196.473 163.665 196.546 167.688 196.498 161.255C196.428 160.88 196.357 160.506 196.286 160.132C196.258 161.976 196.229 163.822 196.2 165.667ZM274.637 131.26C264.747 131.108 255.287 130.84 261.73 130.087C262.478 130.111 263.237 130.134 263.986 130.158C264.098 130.526 266.86 130.325 270.904 130.313C271.48 130.459 273.722 130.493 274.143 130.617C274.956 130.857 272.38 131.025 274.637 131.26ZM457.432 365.092C457.494 364.933 457.557 364.777 457.619 364.618C457.69 363.053 457.761 361.485 457.831 359.921C457.711 360.174 457.591 360.427 457.47 360.68C457.457 362.149 457.444 363.612 457.431 365.082C457.431 365.085 457.431 365.088 457.432 365.092ZM196.994 309.873C196.304 310.771 196.431 307.631 196.78 301.263C196.851 304.129 196.923 307.007 196.994 309.873ZM433.567 130.981C433.773 130.784 433.975 130.589 434.19 130.393C437.572 130.597 436.944 130.822 435.324 131.081C434.734 131.048 434.156 131.014 433.567 130.981ZM457.03 155.167C456.989 153.764 457.147 154.48 457.144 154.334C457.061 150.784 456.988 150.284 457.107 145.928C457.149 145.395 457.193 144.87 457.236 144.336C457.647 146.35 457.423 147.812 457.664 152.073C457.523 151.305 457.382 150.54 457.24 149.772C457.27 152.141 457.3 154.5 457.329 156.869C457.286 157.15 457.243 157.432 457.199 157.713C457.144 156.87 457.081 156 457.03 155.167ZM457.61 383.18C457.626 385.484 457.643 387.799 457.659 390.103C457.558 390.187 457.456 390.268 457.355 390.352C457.44 387.964 457.525 385.568 457.61 383.18ZM196.679 357.179C196.643 357.362 196.607 357.54 196.571 357.698C196.615 357.683 196.65 357.483 196.679 357.179ZM436.304 523.41C438.917 523.339 442.682 523.385 445.548 523.371C445.323 523.624 438.038 523.554 435.481 523.708C435.07 523.663 435.2 523.439 436.304 523.41ZM202.235 130.57C202.89 130.696 203.545 130.822 204.191 130.949C205.774 130.935 207.361 130.921 208.953 130.907C209 131.011 209.046 131.116 209.093 131.219C202.078 131.085 203.696 131.384 200.223 131.679C200.897 131.309 201.56 130.94 202.235 130.57ZM456.952 456.491C457.022 451.424 457.153 449.626 457.464 452.483C457.393 454.271 457.322 456.07 457.25 457.858C457.151 457.399 457.052 456.94 456.952 456.491ZM196.914 449.461C196.798 453.702 197.215 453.772 196.982 457.917C196.905 455.697 196.827 453.478 196.75 451.268C196.804 450.671 196.859 450.059 196.914 449.461ZM198.06 241.498C198.206 243.287 197.515 246.631 198.025 251.66C197.873 252.859 197.727 253.61 197.578 254.64C197.74 255.24 197.905 255.92 198.065 256.492C198.065 256.495 198.065 256.499 198.065 256.502C198.011 261.063 197.808 258.106 197.635 258.209C197.564 258.257 197.683 261.643 197.528 260.585C197.262 258.758 197.415 251.934 197.09 251.915C197.196 254.313 197.108 258.995 196.891 257.61C196.653 256.093 197.052 251.68 196.854 248.87C197.373 252.897 197.213 244.58 196.814 243.635C197.121 238.755 197.245 243.24 197.231 248.241C197.537 245.188 197.372 249.682 197.626 250.423C197.779 247.274 197.651 236.469 198.06 241.498ZM315.829 131.384C312.457 131.364 307.188 131.539 304.879 131.281C303.534 131.131 308.815 131.015 305.173 130.779C308.459 130.802 309.209 130.894 308.647 131.101C309.396 131.125 310.154 131.15 310.903 131.174C311.249 131.134 311.605 131.094 311.951 131.053C312.344 131.138 312.74 131.223 313.124 131.308C313.92 131.291 314.724 131.274 315.52 131.257C315.613 131.3 315.773 131.337 315.829 131.384ZM244.108 523.42C243.172 523.417 242.244 523.415 241.308 523.412C241.411 523.361 241.534 523.309 241.652 523.257C241.737 523.216 241.822 523.175 241.907 523.134C241.364 523.28 236.903 523.523 235.024 523.367C234.079 523.289 236.229 523.011 232.224 522.963C235.127 522.977 237.816 523.015 240.634 523.038C240.381 522.956 240.138 522.872 239.886 522.79C239.887 522.79 239.889 522.789 239.891 522.789C240.827 522.771 241.774 522.751 242.711 522.733C243.179 522.962 243.64 523.19 244.108 523.42ZM430.821 131.368C427.628 131.206 426.558 131.122 428.066 130.86C428.07 130.86 428.073 130.86 428.076 130.86C429.266 130.976 430.456 131.092 431.645 131.208C431.373 131.261 431.102 131.315 430.821 131.368ZM197.544 384.691C196.549 391.481 197.159 376.189 197.498 379.101C197.514 379.232 197.434 384.054 197.544 384.691ZM197.011 135.51C197.019 133.842 197.025 132.171 197.032 130.495L196.608 130.919C196.805 130.92 197.002 130.921 197.199 130.922C197.003 130.977 196.806 131.032 196.608 131.088L197.201 130.495C197.268 130.734 197.335 130.972 197.402 131.208C197.272 132.641 197.141 134.077 197.011 135.51ZM456.5 434.43C456.227 432.468 456.128 427.432 456.425 424.971C456.46 426.264 456.495 427.557 456.53 428.849C456.564 426.406 456.601 423.99 456.634 421.527C457.014 421.396 456.793 424.234 456.898 428.505C456.915 429.166 457.388 433.394 457.032 434.854C456.958 435.147 456.909 430.65 456.696 433.776C456.679 432.409 456.683 431.229 456.674 429.937C456.583 429.844 456.492 429.751 456.401 429.648C456.434 431.245 456.467 432.832 456.5 434.43ZM296.194 131.354C291.561 131.375 290.989 131.223 290.025 130.955C292.179 130.985 294.334 131.015 296.488 131.045C296.386 131.148 296.297 131.251 296.194 131.354ZM456.413 393.023C456.369 390.486 456.588 391.573 456.63 390.552C456.786 386.693 456.63 384.062 456.728 380.25C456.685 380.503 456.646 380.735 456.605 380.979C456.605 380.975 456.605 380.972 456.605 380.969C456.421 362.921 456.917 372.401 456.836 383.2C456.917 383.453 456.999 383.696 457.08 383.949C456.937 388.781 456.801 393.238 456.413 393.023ZM197.578 324.362C197.629 324.568 197.953 322.817 197.801 326.104C197.329 328.707 197.563 324.438 197.382 323.369C197.336 324.259 197.292 325.169 197.247 326.049C197.113 320.729 197.226 319.953 197.571 321.891C197.594 322.03 197.528 324.156 197.578 324.362ZM197.811 359.325C197.115 360.056 197.428 353.342 197.644 353.586C197.653 354.512 197.535 355.233 197.587 356.216C197.639 357.209 197.802 357.462 197.811 359.325ZM197.641 166.97C197.644 167.166 197.937 169.143 197.708 168.946C197.166 166.502 197.514 161.576 197.703 162.438C197.694 164.067 197.613 165.153 197.642 166.97C197.641 166.97 197.641 166.97 197.641 166.97ZM456.336 464.986C456.317 464.892 456.199 459.962 456.308 459.326C456.431 458.801 456.563 458.541 456.69 458.148C456.572 460.864 456.662 466.362 456.336 464.976C456.336 464.979 456.336 464.982 456.336 464.986Z" fill="url(#paint4_linear_9_660)"/>
<defs>
<linearGradient id="paint0_linear_9_660" x1="479.307" y1="545.079" x2="423.391" y2="489.163" gradientUnits="userSpaceOnUse">
<stop stop-color="white"/>
<stop offset="1" stop-color="white" stop-opacity="0.33"/>
</linearGradient>
<linearGradient id="paint1_linear_9_660" x1="475.04" y1="515.636" x2="492.41" y2="533.006" gradientUnits="userSpaceOnUse">
<stop stop-color="white"/>
<stop offset="1" stop-color="white"/>
</linearGradient>
<radialGradient id="paint2_radial_9_660" cx="0" cy="0" r="1" gradientUnits="userSpaceOnUse" gradientTransform="translate(440.908 506.68) rotate(-135) scale(72.4879 72.4879)">
<stop stop-color="white"/>
<stop offset="1" stop-color="white" stop-opacity="0"/>
</radialGradient>
<radialGradient id="paint3_radial_9_660" cx="0" cy="0" r="1" gradientUnits="userSpaceOnUse" gradientTransform="translate(441.84 507.612) rotate(-112.999) scale(46.9087 46.9087)">
<stop stop-color="white"/>
<stop offset="0.739583" stop-color="white" stop-opacity="0.582344"/>
<stop offset="1" stop-color="white" stop-opacity="0.19"/>
</radialGradient>
<linearGradient id="paint4_linear_9_660" x1="457.599" y1="327.104" x2="196.608" y2="327.104" gradientUnits="userSpaceOnUse">
<stop stop-color="white"/>
<stop offset="1" stop-color="#666666"/>
</linearGradient>
</defs>
</svg>
