<svg width="171" height="42" viewBox="0 0 171 42" fill="none" xmlns="http://www.w3.org/2000/svg">
<path d="M0.5 0.38092H170.5V40.7023H0.5V0.38092Z" fill="url(#paint0_linear_7_513)"/>
<path d="M0.000738889 21.0065C-0.00525808 20.5051 0.0271681 19.7975 0.0288762 19.2061C0.0363747 16.7286 0.0588525 15.8106 0.0716009 13.569C0.0905369 10.2454 0.0479182 0.381165 0.273193 0.38092C0.273199 0.38092 0.273205 0.38092 0.27321 0.38092C0.275419 0.380924 0.277654 0.381872 0.279914 0.38379C0.322831 0.418365 0.369683 1.25735 0.41822 1.38187C0.466776 1.50617 0.780238 1.41296 0.79786 2.60459C0.821083 4.33238 0.740709 8.47708 0.744271 9.39859C0.746726 10.0286 0.775222 10.8042 0.780282 11.6098C0.796589 14.2071 0.775751 15.5662 0.853158 17.9063C0.812366 18.8424 0.771574 19.7784 0.730782 20.7144C0.749696 21.9357 0.695898 23.7867 0.698861 24.5286C0.701298 25.1373 0.733555 25.494 0.735055 26.1284C0.736918 26.84 0.7021 27.9327 0.707345 29.227C0.715781 31.3488 0.79993 31.7264 0.810616 32.9995C0.821675 34.3196 0.775939 36.3727 0.80555 38.0572C0.814807 38.2685 0.824064 38.4798 0.833321 38.6911C0.854257 38.5397 0.875192 38.3883 0.896127 38.237C0.905872 39.0854 0.862968 39.4503 0.862191 40.2299C0.862015 40.4018 0.863302 40.558 0.865507 40.7023L0.5 40.3368C1.12558 40.3272 1.52862 40.3004 2.03018 40.3006C2.53583 40.3007 3.22144 40.3334 3.87711 40.3313C4.833 40.3285 4.62394 40.2814 5.13836 40.2726C5.34356 40.2692 9.13804 40.2432 9.3521 40.2428C10.9802 40.241 11.1219 40.3054 12.4202 40.3111C16.0208 40.3264 19.717 40.2743 23.0476 40.2547C24.5348 40.2459 26.0865 40.2496 27.5694 40.2599C25.2337 40.4249 30.4028 40.5533 28.4696 40.2951C30.1195 40.3319 31.2894 40.2622 32.8535 40.2739C33.8651 40.2816 34.5653 40.3174 36.0098 40.3165C38.5729 40.3146 41.3766 40.2129 42.1138 40.3968C45.1227 40.3643 47.7287 40.431 48.8131 40.2687C49.589 40.2588 51.5774 40.3555 52.4476 40.3686C53.2706 40.381 59.5853 40.4246 60.6184 40.4271C61.6514 40.4295 63.4598 40.4322 64.3299 40.4179C65.4229 40.4003 66.1868 40.2319 68.1328 40.4288C70.3955 40.4129 71.2017 40.4185 73.3061 40.4414C73.6872 40.4455 73.7302 40.4747 73.9528 40.4748C74.4113 40.4748 75.1914 40.4532 76.0099 40.4505C77.3559 40.4462 78.124 40.5077 77.974 40.4138C78.8614 40.398 79.7487 40.3823 80.6361 40.3665C80.9474 40.3847 81.2587 40.4028 81.57 40.4209C82.0444 40.4012 82.5189 40.3814 82.9933 40.3617C82.436 40.4976 85.7752 40.4174 84.691 40.3394C86.4111 40.3675 88.1313 40.3956 89.8515 40.4237C89.6114 40.5782 93.6284 40.4416 93.2902 40.3576C93.487 40.3577 93.6838 40.3578 93.8807 40.3579C95.6038 40.399 97.1863 40.3654 99.2867 40.393C101.387 40.4205 101.19 40.4356 101.828 40.5066C102.323 40.5025 102.817 40.4985 103.311 40.4944C105.904 40.2996 105.446 40.6369 109.887 40.4874C111.306 40.6099 114.803 40.5456 117.122 40.5084C117.392 40.5041 117.397 40.4804 117.756 40.473C118.635 40.4554 120.877 40.486 120.8 40.4093C121.576 40.4315 122.352 40.4537 123.128 40.4759C123.763 40.4619 124.397 40.448 125.031 40.434C125.028 40.4101 125.025 40.3862 125.022 40.3623C126.299 40.4438 128.306 40.4125 129.296 40.432C129.493 40.4359 129.536 40.4689 130.148 40.4779C130.864 40.4886 132.198 40.4788 133.051 40.4892C133.383 40.4526 133.714 40.416 134.046 40.3795C135.572 40.3596 136.108 40.4561 137.003 40.4636C137.165 40.465 140.107 40.458 140.266 40.456C141.564 40.4396 141.196 40.3574 144.95 40.375C145.618 40.3782 146.159 40.4067 146.763 40.4078C147.83 40.4099 151.046 40.3453 151.299 40.2857C152.594 40.3603 156.057 40.3298 157.077 40.3514C157.385 40.358 157.455 40.4056 158.401 40.4157C159.168 40.4239 161.144 40.3859 162.117 40.3922C163.15 40.3992 163.519 40.4391 163.982 40.4419C164.419 40.4445 164.822 40.4123 165.418 40.4125C167.278 40.4136 168.963 40.4655 170.433 40.4665C170.455 40.4665 170.478 40.4665 170.5 40.4665L170.264 40.7023C170.264 38.6039 170.17 36.7467 170.128 34.9866C170.134 34.5451 170.155 34.1112 170.155 33.6483C170.158 27.9217 170.175 21.4619 170.196 15.7182C170.205 13.0518 170.335 6.42113 170.119 8.1909C170.087 7.42881 170.141 2.73636 170.161 0.38092L170.5 0.719438C169.991 0.714973 169.592 0.712033 169.364 0.7118C168.083 0.710501 167.067 0.749254 166.06 0.749825C163.021 0.751513 160.881 0.723588 157.182 0.757333C156.226 0.766155 155.203 0.812066 154.637 0.811532C153.955 0.810782 153.222 0.766379 152.339 0.763558C150.235 0.757185 146.313 0.77179 144.293 0.764108C143.925 0.762608 143.795 0.72362 143.268 0.711434C141.215 0.66382 138.914 0.66795 139.321 0.792428C136.689 0.721758 134.255 0.786221 131.816 0.79017C126.659 0.798231 117.266 0.769176 112.774 0.821481C109.941 0.854477 110.014 0.910306 105.843 0.86213C104.918 0.851446 103.996 0.837035 102.873 0.824288C100.241 0.794294 97.8269 0.691156 95.8209 0.815438C92.8978 0.783205 90.5698 0.806064 88.4011 0.699776C88.1454 0.725269 87.8897 0.750761 87.6341 0.776254C87.2757 0.776884 86.9173 0.777515 86.5589 0.778146C86.4472 0.753833 86.3354 0.729521 86.2236 0.705209C83.6563 0.698662 80.3992 0.798589 78.2261 0.79786C74.5826 0.796735 65.1983 0.757914 61.7434 0.725106C59.9092 0.707684 59.8105 0.759756 58.7604 0.652718C58.3501 0.660165 57.9399 0.667611 57.5296 0.675057C57.2729 0.698495 57.0161 0.721932 56.7594 0.74537C54.4062 0.746307 51.6151 0.709902 49.3733 0.710275C45.2883 0.711024 39.1542 0.77553 35.052 0.733163C34.0234 0.722479 32.7377 0.674145 31.7304 0.674691C30.2644 0.675441 29.9081 0.75565 28.0478 0.75715C24.8415 0.759587 18.8703 0.666407 15.8398 0.673531C14.9397 0.675595 14.5197 0.70544 13.8982 0.708627C11.292 0.722312 9.15233 0.719882 6.6533 0.766C3.97 0.689137 4.20181 0.589924 3.37023 0.489815C2.74002 0.414258 0.807574 0.239155 0.533252 0.172981C0.340558 0.12649 1.06002 0.0666845 0.789993 0.0155097C4.00482 -0.025358 5.35543 0.019632 7.96589 0.0916207C12.7867 0.0887521 17.6076 0.0858834 22.4284 0.0830148C22.867 0.110949 23.3056 0.138882 23.7442 0.166816C23.7442 0.166877 23.7442 0.166938 23.7442 0.166999C25.5956 0.199237 26.3802 0.127298 27.3787 0.110969C36.9375 -0.0453825 55.7515 0.0769891 66.2749 0.0946115C68.5425 0.0983595 75.9192 0.0607187 77.4752 0.106086C77.878 0.117901 77.9901 0.160974 78.4187 0.162849C82.2478 0.137234 86.077 0.11162 89.9062 0.0860055C97.7805 0.152932 105.921 0.0976592 113.855 0.0873483C132.887 0.0625829 151.751 0.0330861 170.5 0.0339L170.846 0.033077L170.847 0.38092C170.847 2.77909 170.846 5.17538 170.845 7.5699C170.843 11.6506 170.875 16.8291 170.855 20.8241C170.846 22.4914 170.777 23.1861 170.828 25.3765C170.81 25.3995 170.791 25.4225 170.772 25.4455C170.795 27.3569 170.837 28.5784 170.842 30.7215C170.845 32.5261 170.848 37.3007 170.841 38.8954C170.837 39.7226 170.802 39.4145 170.803 40.1856C170.803 40.3389 170.803 40.5124 170.805 40.7023L170.805 41.0062L170.5 41.0069C169.055 41.016 166.664 41.0536 165.054 41.0536C163.404 41.0536 160.622 41.0135 159.353 41.0193C154.783 41.0399 149.806 41.0994 144.937 41.0835C143.592 41.0789 141.861 41.0338 141.44 41.0351C140.617 41.0377 140.372 41.0815 139.82 41.0872C137.012 41.1157 132.636 41.0636 129.884 41.0615C120.916 41.0547 111.417 41.0739 102.488 41.0658C96.847 41.0608 87.4728 41.0685 82.2648 41.0355C81.1417 41.0284 81.4411 40.9803 80.4981 40.9803C79.4525 40.9803 78.8862 41.0128 78.3976 41.0154C75.0153 41.0338 67.5488 41.0666 64.3555 41.0334C63.7473 41.027 63.3061 40.9894 62.9418 40.9895C62.7575 40.9895 62.3411 41.0152 61.7625 41.0178C56.6529 41.0411 52.9276 41.0261 47.9209 41.0173C38.3323 41.0006 27.222 41.0484 17.149 41.0225C14.9543 41.0169 13.4492 40.9425 13.1406 40.9432C12.4634 40.9447 12.0299 40.9948 10.6583 41.0072C7.63799 41.0341 3.92405 41.0198 0.5 41.0143L0.188762 41.015L0.188019 40.7023C0.190808 38.9561 0.191288 37.2854 0.182807 35.8204C0.170435 33.6774 0.10685 30.7325 0.0927801 28.6236C0.0815332 26.9392 0.106476 22.9613 0.0785589 22.2147C0.0616927 21.7605 0.00752059 21.5504 0.000738889 21.0065ZM37.5486 40.3583C37.2486 40.4449 40.4021 40.3729 39.219 40.3264C38.9526 40.316 37.6262 40.3358 37.5486 40.3583ZM170.306 25.9846C170.282 26.0135 170.257 26.0424 170.232 26.0713C170.242 26.4853 170.253 26.8993 170.263 27.3132C170.278 27.0806 170.293 26.8479 170.308 26.6152C170.307 26.405 170.307 26.1948 170.306 25.9846Z" fill="white"/>
<defs>
<linearGradient id="paint0_linear_7_513" x1="0.5" y1="20.5416" x2="170.5" y2="20.5416" gradientUnits="userSpaceOnUse">
<stop offset="0.427885" stop-color="white" stop-opacity="0.65"/>
<stop offset="1" stop-color="white" stop-opacity="0.25"/>
</linearGradient>
</defs>
</svg>
