<svg width="452" height="63" viewBox="0 0 452 63" fill="none" xmlns="http://www.w3.org/2000/svg">
<g clip-path="url(#clip0_5_53)">
<path d="M70.7193 28.5747V33.7701H67.9054C59.1372 33.7701 31.36 52.9999 31.36 52.9999C29.4559 42.2557 15.7659 34.9097 0 28.5747H70.7193Z" fill="white"/>
<path d="M70.7193 26.0528C68.3185 14.1579 57.7147 5.1954 44.9971 5.1954C30.5098 5.1954 18.7655 16.8257 18.7655 31.1724C18.7655 45.5191 30.5098 57.1494 44.9971 57.1494C57.7147 57.1494 68.3185 48.1869 70.7193 36.292" stroke="url(#paint0_radial_5_53)" stroke-width="12" stroke-dasharray="11 11"/>
<path d="M45.1135 38.1896C45.1135 39.0554 45.1135 39.9214 45.1135 40.7873C50.2326 40.7656 55.3518 40.7439 60.4708 40.7223C152.616 40.3327 244.761 39.943 336.906 39.5534C342.025 39.5317 347.144 39.51 352.263 39.4884C347.144 39.4668 342.025 39.4451 336.906 39.4235C244.761 39.0338 152.616 38.6442 60.4708 38.2545C55.3518 38.2329 50.2326 38.2112 45.1135 38.1896Z" fill="white"/>
<path d="M157.525 28.5747C157.525 30.3065 157.525 32.0383 157.525 33.7701C162.4 33.7268 167.275 33.6835 172.151 33.6402C259.905 32.8609 347.659 32.0816 435.413 31.3023C440.289 31.259 445.163 31.2157 450.039 31.1724C445.163 31.1291 440.289 31.0858 435.413 31.0425C347.659 30.2632 259.905 29.4839 172.151 28.7046C167.275 28.6613 162.4 28.618 157.525 28.5747Z" fill="white"/>
<path d="M45.1135 31.1724H159.412" stroke="white" stroke-width="5.2" stroke-dasharray="11 11"/>
</g>
<defs>
<radialGradient id="paint0_radial_5_53" cx="0" cy="0" r="1" gradientUnits="userSpaceOnUse" gradientTransform="translate(44.9971 31.1724) rotate(90) scale(35.7184 36.0685)">
<stop stop-color="white"/>
<stop offset="1" stop-color="white" stop-opacity="0"/>
</radialGradient>
<clipPath id="clip0_5_53">
<rect width="452" height="62.3448" fill="white"/>
</clipPath>
</defs>
</svg>
